solid OpenSCAD_Model
  facet normal -0 0 -1
    outer loop
      vertex 0.366488 -9.83207 2.5
      vertex 0.243378 -9.87923 2.5
      vertex 0.478918 -9.76327 2.5
    endloop
  endfacet
  facet normal -0 0 -1
    outer loop
      vertex 0.478918 -9.76327 2.5
      vertex 0.113747 -9.90316 2.5
      vertex 0.57699 -9.67518 2.5
    endloop
  endfacet
  facet normal -0 0 -1
    outer loop
      vertex 0.243378 -9.87923 2.5
      vertex 0.113747 -9.90316 2.5
      vertex 0.478918 -9.76327 2.5
    endloop
  endfacet
  facet normal -0 0 -1
    outer loop
      vertex 4.04295 -6.07307 2.5
      vertex 4.02922 -6.14763 2.5
      vertex 4.02922 -5.9227 2.5
    endloop
  endfacet
  facet normal 0 0 -1
    outer loop
      vertex 3.91235 -6.33982 2.5
      vertex 4.00224 -6.21851 2.5
      vertex 3.96285 -6.28329 2.5
    endloop
  endfacet
  facet normal 0 0 -1
    outer loop
      vertex 3.91235 -6.33982 2.5
      vertex 4.02922 -6.14763 2.5
      vertex 4.00224 -6.21851 2.5
    endloop
  endfacet
  facet normal -0 -0 -1
    outer loop
      vertex 4.04295 -5.99726 2.5
      vertex 4.04295 -6.07307 2.5
      vertex 4.02922 -5.9227 2.5
    endloop
  endfacet
  facet normal -0 -0 -1
    outer loop
      vertex 4.02922 -5.9227 2.5
      vertex 4.02922 -6.14763 2.5
      vertex 3.91235 -5.73051 2.5
    endloop
  endfacet
  facet normal -0 -0 -1
    outer loop
      vertex 4.00224 -5.85188 2.5
      vertex 4.02922 -5.9227 2.5
      vertex 3.96285 -5.7871 2.5
    endloop
  endfacet
  facet normal -0 -0 -1
    outer loop
      vertex 3.96285 -5.7871 2.5
      vertex 4.02922 -5.9227 2.5
      vertex 3.91235 -5.73051 2.5
    endloop
  endfacet
  facet normal 0 0 -1
    outer loop
      vertex 3.91235 -5.73051 2.5
      vertex 4.02922 -6.14763 2.5
      vertex 3.91235 -6.33982 2.5
    endloop
  endfacet
  facet normal 0 0 -1
    outer loop
      vertex 3.0304 -4.83253 2.5
      vertex 3.91235 -5.73051 2.5
      vertex 3.91235 -6.33982 2.5
    endloop
  endfacet
  facet normal 0 0 -1
    outer loop
      vertex 0.57699 -9.67518 2.5
      vertex 3.0304 -4.83253 2.5
      vertex 3.91235 -6.33982 2.5
    endloop
  endfacet
  facet normal 0 0 -1
    outer loop
      vertex 0.57699 -9.67518 2.5
      vertex 2.97533 -4.76969 2.5
      vertex 3.0304 -4.83253 2.5
    endloop
  endfacet
  facet normal 0 0 -1
    outer loop
      vertex -2.74221 -7.39843 2.5
      vertex -2.82288 -7.27477 2.5
      vertex -2.88655 -7.1416 2.5
    endloop
  endfacet
  facet normal 0 0 -1
    outer loop
      vertex -2.96672 -6.70867 2.5
      vertex 2.90292 -4.61981 2.5
      vertex 2.93239 -4.69797 2.5
    endloop
  endfacet
  facet normal 0 0 -1
    outer loop
      vertex -2.64601 -7.51045 2.5
      vertex -2.74221 -7.39843 2.5
      vertex -2.88655 -7.1416 2.5
    endloop
  endfacet
  facet normal -0 0 -1
    outer loop
      vertex 2.90292 -4.61981 2.5
      vertex -2.96672 -6.70867 2.5
      vertex 2.888 -4.53755 2.5
    endloop
  endfacet
  facet normal -0 0 -1
    outer loop
      vertex 2.888 -4.53755 2.5
      vertex -2.96672 -6.70867 2.5
      vertex 2.888 -4.45397 2.5
    endloop
  endfacet
  facet normal -0 -0 -1
    outer loop
      vertex 2.92775 -1.64462 2.5
      vertex 2.93239 -4.29355 2.5
      vertex 2.88509 -1.57478 2.5
    endloop
  endfacet
  facet normal 0 0 -1
    outer loop
      vertex 2.92775 -1.64462 2.5
      vertex 2.97533 -4.2219 2.5
      vertex 2.93239 -4.29355 2.5
    endloop
  endfacet
  facet normal 0 0 -1
    outer loop
      vertex 2.88509 -1.57478 2.5
      vertex 2.93239 -4.29355 2.5
      vertex 2.90292 -4.37178 2.5
    endloop
  endfacet
  facet normal 0 0 -1
    outer loop
      vertex 2.97533 -4.2219 2.5
      vertex 2.98233 -1.70566 2.5
      vertex 3.0304 -4.15906 2.5
    endloop
  endfacet
  facet normal 0 0 -1
    outer loop
      vertex 4.02922 -2.84389 2.5
      vertex 3.91235 -2.6517 2.5
      vertex 3.96285 -2.7083 2.5
    endloop
  endfacet
  facet normal 0 0 -1
    outer loop
      vertex 4.02922 -3.06882 2.5
      vertex 4.00224 -3.1397 2.5
      vertex 3.96285 -3.20448 2.5
    endloop
  endfacet
  facet normal 0 0 -1
    outer loop
      vertex 3.91235 -3.26108 2.5
      vertex 4.02922 -3.06882 2.5
      vertex 3.96285 -3.20448 2.5
    endloop
  endfacet
  facet normal -0 -0 -1
    outer loop
      vertex 4.04295 -2.91845 2.5
      vertex 4.04295 -2.99426 2.5
      vertex 4.02922 -2.84389 2.5
    endloop
  endfacet
  facet normal 0 0 -1
    outer loop
      vertex 4.02922 -2.84389 2.5
      vertex 4.04295 -2.99426 2.5
      vertex 4.02922 -3.06882 2.5
    endloop
  endfacet
  facet normal -0 -0 -1
    outer loop
      vertex 4.00224 -2.77308 2.5
      vertex 4.02922 -2.84389 2.5
      vertex 3.96285 -2.7083 2.5
    endloop
  endfacet
  facet normal -0 -0 -1
    outer loop
      vertex 4.02922 -2.84389 2.5
      vertex 4.02922 -3.06882 2.5
      vertex 3.91235 -2.6517 2.5
    endloop
  endfacet
  facet normal 0 0 -1
    outer loop
      vertex 3.91235 -2.6517 2.5
      vertex 4.02922 -3.06882 2.5
      vertex 3.91235 -3.26108 2.5
    endloop
  endfacet
  facet normal 0 0 -1
    outer loop
      vertex 3.0304 -4.15906 2.5
      vertex 3.91235 -2.6517 2.5
      vertex 3.91235 -3.26108 2.5
    endloop
  endfacet
  facet normal 0 0 -1
    outer loop
      vertex 3.0304 -4.15906 2.5
      vertex 2.98233 -1.70566 2.5
      vertex 3.91235 -2.6517 2.5
    endloop
  endfacet
  facet normal 0 0 -1
    outer loop
      vertex 2.97533 -4.2219 2.5
      vertex 2.92775 -1.64462 2.5
      vertex 2.98233 -1.70566 2.5
    endloop
  endfacet
  facet normal 0 0 -1
    outer loop
      vertex 2.85589 -1.49834 2.5
      vertex 2.88509 -1.57478 2.5
      vertex 2.90292 -4.37178 2.5
    endloop
  endfacet
  facet normal 0 0 -1
    outer loop
      vertex -2.96672 2.14289 2.5
      vertex 2.70968 2.20698 2.5
      vertex 2.70968 1.75802 2.5
    endloop
  endfacet
  facet normal 0 0 -1
    outer loop
      vertex -2.96672 2.14289 2.5
      vertex -2.97678 2.26378 2.5
      vertex 2.70968 2.20698 2.5
    endloop
  endfacet
  facet normal 0 0 -1
    outer loop
      vertex -9.01108 9.96004 2.5
      vertex -8.9481 10.6067 2.5
      vertex -8.04991 12.3092 2.5
    endloop
  endfacet
  facet normal 0 0 -1
    outer loop
      vertex 2.70968 2.20698 2.5
      vertex -3.09441 2.60627 2.5
      vertex -3.16086 2.70774 2.5
    endloop
  endfacet
  facet normal 0 0 -1
    outer loop
      vertex -8.04991 12.3092 2.5
      vertex -8.9481 10.6067 2.5
      vertex -8.45829 11.8039 2.5
    endloop
  endfacet
  facet normal 0 0 -1
    outer loop
      vertex -3.04115 2.49724 2.5
      vertex 2.70968 2.20698 2.5
      vertex -3.00168 2.38252 2.5
    endloop
  endfacet
  facet normal -0 0 -1
    outer loop
      vertex 2.92775 -1.10918 2.5
      vertex 2.88509 -1.17902 2.5
      vertex 2.70968 1.75802 2.5
    endloop
  endfacet
  facet normal -0 0 -1
    outer loop
      vertex 4.075 0.240465 2.5
      vertex 3.99489 -0.0454989 2.5
      vertex 3.99489 0.450689 2.5
    endloop
  endfacet
  facet normal -0 0 -1
    outer loop
      vertex 4.06133 0.0900962 2.5
      vertex 4.03429 0.0192816 2.5
      vertex 4.075 0.164656 2.5
    endloop
  endfacet
  facet normal 0 0 -1
    outer loop
      vertex 4.075 0.164656 2.5
      vertex 4.03429 0.0192816 2.5
      vertex 3.99489 -0.0454989 2.5
    endloop
  endfacet
  facet normal 0 -0 -1
    outer loop
      vertex 4.075 0.240465 2.5
      vertex 4.075 0.164656 2.5
      vertex 3.99489 -0.0454989 2.5
    endloop
  endfacet
  facet normal -0 -0 -1
    outer loop
      vertex 4.03429 0.385909 2.5
      vertex 4.075 0.240465 2.5
      vertex 3.99489 0.450689 2.5
    endloop
  endfacet
  facet normal 0 0 -1
    outer loop
      vertex 4.03429 0.385909 2.5
      vertex 4.06133 0.315025 2.5
      vertex 4.075 0.240465 2.5
    endloop
  endfacet
  facet normal -0 -0 -1
    outer loop
      vertex 3.99489 0.450689 2.5
      vertex 3.99489 -0.0454989 2.5
      vertex 3.94447 0.507285 2.5
    endloop
  endfacet
  facet normal 0 0 -1
    outer loop
      vertex 3.94447 0.507285 2.5
      vertex 3.99489 -0.0454989 2.5
      vertex 3.94447 -0.102095 2.5
    endloop
  endfacet
  facet normal 0 0 -1
    outer loop
      vertex 2.98233 -1.04821 2.5
      vertex 3.94447 0.507285 2.5
      vertex 3.94447 -0.102095 2.5
    endloop
  endfacet
  facet normal 0 0 -1
    outer loop
      vertex 2.98233 -1.04821 2.5
      vertex 2.70968 1.75802 2.5
      vertex 3.94447 0.507285 2.5
    endloop
  endfacet
  facet normal -0 0 -1
    outer loop
      vertex 2.98233 -1.04821 2.5
      vertex 2.92775 -1.10918 2.5
      vertex 2.70968 1.75802 2.5
    endloop
  endfacet
  facet normal 0 0 -1
    outer loop
      vertex -0.478155 12.9361 2.5
      vertex -3.2393 2.80033 2.5
      vertex -8.04991 7.61088 2.5
    endloop
  endfacet
  facet normal 0 0 -1
    outer loop
      vertex 9.01108 9.6704 2.5
      vertex 8.71208 8.55574 2.5
      vertex 8.42216 8.05428 2.5
    endloop
  endfacet
  facet normal 0 0 -1
    outer loop
      vertex 9.01108 9.6704 2.5
      vertex 8.91044 9.09999 2.5
      vertex 8.71208 8.55574 2.5
    endloop
  endfacet
  facet normal 0 0 -1
    outer loop
      vertex 8.0495 7.61088 2.5
      vertex 9.01108 9.6704 2.5
      vertex 8.42216 8.05428 2.5
    endloop
  endfacet
  facet normal 0 0 -1
    outer loop
      vertex 8.0495 7.61088 2.5
      vertex 9.01108 10.2497 2.5
      vertex 9.01108 9.6704 2.5
    endloop
  endfacet
  facet normal 0 0 -1
    outer loop
      vertex 8.71208 11.3643 2.5
      vertex 8.91044 10.8201 2.5
      vertex 9.01108 10.2497 2.5
    endloop
  endfacet
  facet normal 0 0 -1
    outer loop
      vertex 8.42216 11.8658 2.5
      vertex 8.71208 11.3643 2.5
      vertex 9.01108 10.2497 2.5
    endloop
  endfacet
  facet normal 0 0 -1
    outer loop
      vertex 8.0495 12.3092 2.5
      vertex 8.42216 11.8658 2.5
      vertex 9.01108 10.2497 2.5
    endloop
  endfacet
  facet normal 0 0 -1
    outer loop
      vertex 8.0495 7.61088 2.5
      vertex 8.0495 12.3092 2.5
      vertex 9.01108 10.2497 2.5
    endloop
  endfacet
  facet normal 0 0 -1
    outer loop
      vertex 1.64996 13.8089 2.5
      vertex 1.8409 14.2635 2.5
      vertex 8.0495 12.3092 2.5
    endloop
  endfacet
  facet normal 0 0 -1
    outer loop
      vertex 1.36316 16.0912 2.5
      vertex 0.974204 16.3942 2.5
      vertex 2.34091 18.0338 2.5
    endloop
  endfacet
  facet normal 0 -0 -1
    outer loop
      vertex -0.288946 18.9941 2.5
      vertex -0.000208074 16.6548 2.5
      vertex -0.327717 16.626 2.5
    endloop
  endfacet
  facet normal 0 0 -1
    outer loop
      vertex -1.44313 15.9778 2.5
      vertex -2.34132 18.0338 2.5
      vertex -1.21162 16.2113 2.5
    endloop
  endfacet
  facet normal 0 0 -1
    outer loop
      vertex -1.21162 16.2113 2.5
      vertex -2.34132 18.0338 2.5
      vertex -0.942924 16.4008 2.5
    endloop
  endfacet
  facet normal 0 0 -1
    outer loop
      vertex -1.40006 18.6955 2.5
      vertex -0.327717 16.626 2.5
      vertex -0.645239 16.5405 2.5
    endloop
  endfacet
  facet normal 0 0 -1
    outer loop
      vertex -8.04991 12.3092 2.5
      vertex -1.87635 14.7626 2.5
      vertex -1.81205 14.2738 2.5
    endloop
  endfacet
  facet normal 0 0 -1
    outer loop
      vertex -8.45829 11.8039 2.5
      vertex -8.9481 10.6067 2.5
      vertex -8.76153 11.2292 2.5
    endloop
  endfacet
  facet normal 0 0 -1
    outer loop
      vertex -8.9481 9.31334 2.5
      vertex -8.04991 7.61088 2.5
      vertex -8.45829 8.11622 2.5
    endloop
  endfacet
  facet normal 0 0 -1
    outer loop
      vertex -8.76153 8.69092 2.5
      vertex -8.9481 9.31334 2.5
      vertex -8.45829 8.11622 2.5
    endloop
  endfacet
  facet normal 0 0 -1
    outer loop
      vertex -8.9481 9.31334 2.5
      vertex -9.01108 9.96004 2.5
      vertex -8.04991 7.61088 2.5
    endloop
  endfacet
  facet normal 0 0 -1
    outer loop
      vertex -8.04991 7.61088 2.5
      vertex -9.01108 9.96004 2.5
      vertex -8.04991 12.3092 2.5
    endloop
  endfacet
  facet normal 0 0 -1
    outer loop
      vertex -3.2393 2.80033 2.5
      vertex -0.478155 12.9361 2.5
      vertex 0.0104731 12.8705 2.5
    endloop
  endfacet
  facet normal 0 0 -1
    outer loop
      vertex 0.499517 12.9334 2.5
      vertex 0.955686 13.1205 2.5
      vertex 8.0495 7.61088 2.5
    endloop
  endfacet
  facet normal 0 -0 -1
    outer loop
      vertex 2.84105 -1.41782 2.5
      vertex 2.85589 -1.49834 2.5
      vertex -2.96672 -6.70867 2.5
    endloop
  endfacet
  facet normal 0 0 -1
    outer loop
      vertex -2.93225 -7.00122 2.5
      vertex -2.95916 -6.85605 2.5
      vertex -2.96672 -6.70867 2.5
    endloop
  endfacet
  facet normal 0 0 -1
    outer loop
      vertex 2.70968 2.20698 2.5
      vertex -3.16086 2.70774 2.5
      vertex -3.2393 2.80033 2.5
    endloop
  endfacet
  facet normal 0 0 -1
    outer loop
      vertex -3.04115 2.49724 2.5
      vertex -3.09441 2.60627 2.5
      vertex 2.70968 2.20698 2.5
    endloop
  endfacet
  facet normal 0 0 -1
    outer loop
      vertex -3.00168 2.38252 2.5
      vertex 2.70968 2.20698 2.5
      vertex -2.97678 2.26378 2.5
    endloop
  endfacet
  facet normal 0 0 -1
    outer loop
      vertex -2.96672 -6.70867 2.5
      vertex 2.85589 -1.49834 2.5
      vertex 2.90292 -4.37178 2.5
    endloop
  endfacet
  facet normal -0 0 -1
    outer loop
      vertex 2.88509 -1.17902 2.5
      vertex 2.85589 -1.25552 2.5
      vertex -2.96672 2.14289 2.5
    endloop
  endfacet
  facet normal 0 0 -1
    outer loop
      vertex 2.88509 -1.17902 2.5
      vertex -2.96672 2.14289 2.5
      vertex 2.70968 1.75802 2.5
    endloop
  endfacet
  facet normal 0 0 -1
    outer loop
      vertex -2.96672 2.14289 2.5
      vertex 2.85589 -1.25552 2.5
      vertex 2.84105 -1.33598 2.5
    endloop
  endfacet
  facet normal 0 0 -1
    outer loop
      vertex 2.84105 -1.41782 2.5
      vertex -2.96672 2.14289 2.5
      vertex 2.84105 -1.33598 2.5
    endloop
  endfacet
  facet normal -0 0 -1
    outer loop
      vertex 2.84105 -1.41782 2.5
      vertex -2.96672 -6.70867 2.5
      vertex -2.96672 2.14289 2.5
    endloop
  endfacet
  facet normal -0 0 -1
    outer loop
      vertex 2.888 -4.45397 2.5
      vertex -2.96672 -6.70867 2.5
      vertex 2.90292 -4.37178 2.5
    endloop
  endfacet
  facet normal 0 0 -1
    outer loop
      vertex -2.88655 -7.1416 2.5
      vertex -2.93225 -7.00122 2.5
      vertex -2.96672 -6.70867 2.5
    endloop
  endfacet
  facet normal 0 0 -1
    outer loop
      vertex -2.96672 -6.70867 2.5
      vertex -2.64601 -7.51045 2.5
      vertex -2.88655 -7.1416 2.5
    endloop
  endfacet
  facet normal 0 0 -1
    outer loop
      vertex -2.96672 -6.70867 2.5
      vertex 2.93239 -4.69797 2.5
      vertex -2.64601 -7.51045 2.5
    endloop
  endfacet
  facet normal 0 0 -1
    outer loop
      vertex -2.64601 -7.51045 2.5
      vertex 2.93239 -4.69797 2.5
      vertex 2.97533 -4.76969 2.5
    endloop
  endfacet
  facet normal 0 0 -1
    outer loop
      vertex 0.57699 -9.67518 2.5
      vertex -2.64601 -7.51045 2.5
      vertex 2.97533 -4.76969 2.5
    endloop
  endfacet
  facet normal 0 0 -1
    outer loop
      vertex 0.57699 -9.67518 2.5
      vertex -0.481276 -9.67518 2.5
      vertex -2.64601 -7.51045 2.5
    endloop
  endfacet
  facet normal -0 0 -1
    outer loop
      vertex 0.57699 -9.67518 2.5
      vertex -0.0179638 -9.90316 2.5
      vertex -0.481276 -9.67518 2.5
    endloop
  endfacet
  facet normal 0 0 -1
    outer loop
      vertex -0.481276 -9.67518 2.5
      vertex -0.0179638 -9.90316 2.5
      vertex -0.383204 -9.76327 2.5
    endloop
  endfacet
  facet normal 0 0 -1
    outer loop
      vertex -0.383204 -9.76327 2.5
      vertex -0.0179638 -9.90316 2.5
      vertex -0.270705 -9.83207 2.5
    endloop
  endfacet
  facet normal 0 0 -1
    outer loop
      vertex -0.270705 -9.83207 2.5
      vertex -0.0179638 -9.90316 2.5
      vertex -0.147594 -9.87923 2.5
    endloop
  endfacet
  facet normal 0 0 -1
    outer loop
      vertex 0.57699 -9.67518 2.5
      vertex 0.113747 -9.90316 2.5
      vertex -0.0179638 -9.90316 2.5
    endloop
  endfacet
  facet normal 0 0 -1
    outer loop
      vertex -3.2393 2.80033 2.5
      vertex 0.0104731 12.8705 2.5
      vertex 2.70968 2.20698 2.5
    endloop
  endfacet
  facet normal 0 0 -1
    outer loop
      vertex -0.288946 18.9941 2.5
      vertex 0.28846 18.9941 2.5
      vertex -0.000208074 16.6548 2.5
    endloop
  endfacet
  facet normal 0 -0 -1
    outer loop
      vertex -0.933283 13.1257 2.5
      vertex -0.478155 12.9361 2.5
      vertex -8.04991 7.61088 2.5
    endloop
  endfacet
  facet normal 0 -0 -1
    outer loop
      vertex 0.28846 18.9941 2.5
      vertex 0.857128 18.8935 2.5
      vertex 0.0318354 16.6548 2.5
    endloop
  endfacet
  facet normal 0 -0 -1
    outer loop
      vertex -1.32398 13.4266 2.5
      vertex -0.933283 13.1257 2.5
      vertex -8.04991 7.61088 2.5
    endloop
  endfacet
  facet normal 0 0 -1
    outer loop
      vertex -8.04991 12.3092 2.5
      vertex -1.32398 13.4266 2.5
      vertex -8.04991 7.61088 2.5
    endloop
  endfacet
  facet normal 0 0 -1
    outer loop
      vertex -8.04991 12.3092 2.5
      vertex -1.62367 13.8181 2.5
      vertex -1.32398 13.4266 2.5
    endloop
  endfacet
  facet normal 0 0 -1
    outer loop
      vertex -8.04991 12.3092 2.5
      vertex -1.81205 14.2738 2.5
      vertex -1.62367 13.8181 2.5
    endloop
  endfacet
  facet normal -0 0 -1
    outer loop
      vertex -1.85034 15.0904 2.5
      vertex -8.04991 12.3092 2.5
      vertex -2.34132 18.0338 2.5
    endloop
  endfacet
  facet normal -0 0 -1
    outer loop
      vertex -1.87635 14.7626 2.5
      vertex -8.04991 12.3092 2.5
      vertex -1.85034 15.0904 2.5
    endloop
  endfacet
  facet normal 0 0 -1
    outer loop
      vertex -1.76745 15.4086 2.5
      vertex -2.34132 18.0338 2.5
      vertex -1.63033 15.7075 2.5
    endloop
  endfacet
  facet normal 0 0 -1
    outer loop
      vertex -1.85034 15.0904 2.5
      vertex -2.34132 18.0338 2.5
      vertex -1.76745 15.4086 2.5
    endloop
  endfacet
  facet normal 0 0 -1
    outer loop
      vertex -1.63033 15.7075 2.5
      vertex -2.34132 18.0338 2.5
      vertex -1.44313 15.9778 2.5
    endloop
  endfacet
  facet normal -0 0 -1
    outer loop
      vertex -0.645239 16.5405 2.5
      vertex -0.942924 16.4008 2.5
      vertex -1.89972 18.4059 2.5
    endloop
  endfacet
  facet normal 0 0 -1
    outer loop
      vertex -0.942924 16.4008 2.5
      vertex -2.34132 18.0338 2.5
      vertex -1.89972 18.4059 2.5
    endloop
  endfacet
  facet normal 0 -0 -1
    outer loop
      vertex -1.40006 18.6955 2.5
      vertex -0.645239 16.5405 2.5
      vertex -1.89972 18.4059 2.5
    endloop
  endfacet
  facet normal 0 0 -1
    outer loop
      vertex -0.288946 18.9941 2.5
      vertex -0.327717 16.626 2.5
      vertex -0.857613 18.8935 2.5
    endloop
  endfacet
  facet normal 0 0 -1
    outer loop
      vertex -0.327717 16.626 2.5
      vertex -1.40006 18.6955 2.5
      vertex -0.857613 18.8935 2.5
    endloop
  endfacet
  facet normal 0 0 -1
    outer loop
      vertex -0.000208074 16.6548 2.5
      vertex 0.28846 18.9941 2.5
      vertex 0.0318354 16.6548 2.5
    endloop
  endfacet
  facet normal 0 0 -1
    outer loop
      vertex 0.0318354 16.6548 2.5
      vertex 0.857128 18.8935 2.5
      vertex 0.520117 16.5864 2.5
    endloop
  endfacet
  facet normal 0 0 -1
    outer loop
      vertex 0.520117 16.5864 2.5
      vertex 0.857128 18.8935 2.5
      vertex 1.39958 18.6955 2.5
    endloop
  endfacet
  facet normal -0 0 -1
    outer loop
      vertex 1.8993 18.4059 2.5
      vertex 0.520117 16.5864 2.5
      vertex 1.39958 18.6955 2.5
    endloop
  endfacet
  facet normal 0 0 -1
    outer loop
      vertex 1.8993 18.4059 2.5
      vertex 0.974204 16.3942 2.5
      vertex 0.520117 16.5864 2.5
    endloop
  endfacet
  facet normal 0 -0 -1
    outer loop
      vertex 1.8993 18.4059 2.5
      vertex 2.34091 18.0338 2.5
      vertex 0.974204 16.3942 2.5
    endloop
  endfacet
  facet normal 0 0 -1
    outer loop
      vertex 2.34091 18.0338 2.5
      vertex 1.66064 15.698 2.5
      vertex 1.36316 16.0912 2.5
    endloop
  endfacet
  facet normal 0 0 -1
    outer loop
      vertex 2.34091 18.0338 2.5
      vertex 1.84645 15.2412 2.5
      vertex 1.66064 15.698 2.5
    endloop
  endfacet
  facet normal 0 -0 -1
    outer loop
      vertex 2.34091 18.0338 2.5
      vertex 8.0495 12.3092 2.5
      vertex 1.84645 15.2412 2.5
    endloop
  endfacet
  facet normal 0 0 -1
    outer loop
      vertex 1.84645 15.2412 2.5
      vertex 8.0495 12.3092 2.5
      vertex 1.9079 14.752 2.5
    endloop
  endfacet
  facet normal 0 -0 -1
    outer loop
      vertex 1.9079 14.752 2.5
      vertex 8.0495 12.3092 2.5
      vertex 1.8409 14.2635 2.5
    endloop
  endfacet
  facet normal 0 0 -1
    outer loop
      vertex 8.0495 12.3092 2.5
      vertex 1.34811 13.4191 2.5
      vertex 1.64996 13.8089 2.5
    endloop
  endfacet
  facet normal -0 -0 -1
    outer loop
      vertex 8.0495 12.3092 2.5
      vertex 8.0495 7.61088 2.5
      vertex 1.34811 13.4191 2.5
    endloop
  endfacet
  facet normal 0 -0 -1
    outer loop
      vertex 1.34811 13.4191 2.5
      vertex 8.0495 7.61088 2.5
      vertex 0.955686 13.1205 2.5
    endloop
  endfacet
  facet normal -0 0 -1
    outer loop
      vertex 8.0495 7.61088 2.5
      vertex 2.70968 2.20698 2.5
      vertex 0.499517 12.9334 2.5
    endloop
  endfacet
  facet normal 0 -0 -1
    outer loop
      vertex 0.499517 12.9334 2.5
      vertex 2.70968 2.20698 2.5
      vertex 0.0104731 12.8705 2.5
    endloop
  endfacet
  facet normal 0 0 1
    outer loop
      vertex 0.478918 -9.76327 3.5
      vertex 0.243378 -9.87923 3.5
      vertex 0.366488 -9.83207 3.5
    endloop
  endfacet
  facet normal 0 0 1
    outer loop
      vertex 0.57699 -9.67518 3.5
      vertex 0.113747 -9.90316 3.5
      vertex 0.478918 -9.76327 3.5
    endloop
  endfacet
  facet normal 0 0 1
    outer loop
      vertex 0.478918 -9.76327 3.5
      vertex 0.113747 -9.90316 3.5
      vertex 0.243378 -9.87923 3.5
    endloop
  endfacet
  facet normal 0 0 1
    outer loop
      vertex 4.02922 -5.9227 3.5
      vertex 4.02922 -6.14763 3.5
      vertex 4.04295 -6.07307 3.5
    endloop
  endfacet
  facet normal 0 -0 1
    outer loop
      vertex 3.96285 -6.28329 3.5
      vertex 4.00224 -6.21851 3.5
      vertex 3.91235 -6.33982 3.5
    endloop
  endfacet
  facet normal 0 -0 1
    outer loop
      vertex 4.00224 -6.21851 3.5
      vertex 4.02922 -6.14763 3.5
      vertex 3.91235 -6.33982 3.5
    endloop
  endfacet
  facet normal 0 0 1
    outer loop
      vertex 4.02922 -5.9227 3.5
      vertex 4.04295 -6.07307 3.5
      vertex 4.04295 -5.99726 3.5
    endloop
  endfacet
  facet normal 0 0 1
    outer loop
      vertex 3.91235 -5.73051 3.5
      vertex 4.02922 -6.14763 3.5
      vertex 4.02922 -5.9227 3.5
    endloop
  endfacet
  facet normal 0 0 1
    outer loop
      vertex 3.96285 -5.7871 3.5
      vertex 4.02922 -5.9227 3.5
      vertex 4.00224 -5.85188 3.5
    endloop
  endfacet
  facet normal 0 0 1
    outer loop
      vertex 3.91235 -5.73051 3.5
      vertex 4.02922 -5.9227 3.5
      vertex 3.96285 -5.7871 3.5
    endloop
  endfacet
  facet normal 0 0 1
    outer loop
      vertex 3.91235 -6.33982 3.5
      vertex 4.02922 -6.14763 3.5
      vertex 3.91235 -5.73051 3.5
    endloop
  endfacet
  facet normal 0 -0 1
    outer loop
      vertex 3.91235 -6.33982 3.5
      vertex 3.91235 -5.73051 3.5
      vertex 3.0304 -4.83253 3.5
    endloop
  endfacet
  facet normal 0 0 1
    outer loop
      vertex 3.91235 -6.33982 3.5
      vertex 3.0304 -4.83253 3.5
      vertex 0.57699 -9.67518 3.5
    endloop
  endfacet
  facet normal 0 0 1
    outer loop
      vertex 3.0304 -4.83253 3.5
      vertex 2.97533 -4.76969 3.5
      vertex 0.57699 -9.67518 3.5
    endloop
  endfacet
  facet normal 0 0 1
    outer loop
      vertex -2.88655 -7.1416 3.5
      vertex -2.82288 -7.27477 3.5
      vertex -2.74221 -7.39843 3.5
    endloop
  endfacet
  facet normal 0 0 1
    outer loop
      vertex 2.93239 -4.69797 3.5
      vertex 2.90292 -4.61981 3.5
      vertex -2.96672 -6.70867 3.5
    endloop
  endfacet
  facet normal 0 0 1
    outer loop
      vertex -2.88655 -7.1416 3.5
      vertex -2.74221 -7.39843 3.5
      vertex -2.64601 -7.51045 3.5
    endloop
  endfacet
  facet normal 0 0 1
    outer loop
      vertex 2.888 -4.53755 3.5
      vertex -2.96672 -6.70867 3.5
      vertex 2.90292 -4.61981 3.5
    endloop
  endfacet
  facet normal 0 0 1
    outer loop
      vertex 2.888 -4.45397 3.5
      vertex -2.96672 -6.70867 3.5
      vertex 2.888 -4.53755 3.5
    endloop
  endfacet
  facet normal 0 0 1
    outer loop
      vertex 2.88509 -1.57478 3.5
      vertex 2.93239 -4.29355 3.5
      vertex 2.92775 -1.64462 3.5
    endloop
  endfacet
  facet normal 0 -0 1
    outer loop
      vertex 2.93239 -4.29355 3.5
      vertex 2.97533 -4.2219 3.5
      vertex 2.92775 -1.64462 3.5
    endloop
  endfacet
  facet normal 0 -0 1
    outer loop
      vertex 2.90292 -4.37178 3.5
      vertex 2.93239 -4.29355 3.5
      vertex 2.88509 -1.57478 3.5
    endloop
  endfacet
  facet normal 0 0 1
    outer loop
      vertex 3.0304 -4.15906 3.5
      vertex 2.98233 -1.70566 3.5
      vertex 2.97533 -4.2219 3.5
    endloop
  endfacet
  facet normal 0 0 1
    outer loop
      vertex 3.96285 -2.7083 3.5
      vertex 3.91235 -2.6517 3.5
      vertex 4.02922 -2.84389 3.5
    endloop
  endfacet
  facet normal 0 0 1
    outer loop
      vertex 3.96285 -3.20448 3.5
      vertex 4.00224 -3.1397 3.5
      vertex 4.02922 -3.06882 3.5
    endloop
  endfacet
  facet normal 0 -0 1
    outer loop
      vertex 3.96285 -3.20448 3.5
      vertex 4.02922 -3.06882 3.5
      vertex 3.91235 -3.26108 3.5
    endloop
  endfacet
  facet normal 0 0 1
    outer loop
      vertex 4.02922 -2.84389 3.5
      vertex 4.04295 -2.99426 3.5
      vertex 4.04295 -2.91845 3.5
    endloop
  endfacet
  facet normal 0 0 1
    outer loop
      vertex 4.02922 -3.06882 3.5
      vertex 4.04295 -2.99426 3.5
      vertex 4.02922 -2.84389 3.5
    endloop
  endfacet
  facet normal 0 0 1
    outer loop
      vertex 3.96285 -2.7083 3.5
      vertex 4.02922 -2.84389 3.5
      vertex 4.00224 -2.77308 3.5
    endloop
  endfacet
  facet normal 0 0 1
    outer loop
      vertex 3.91235 -2.6517 3.5
      vertex 4.02922 -3.06882 3.5
      vertex 4.02922 -2.84389 3.5
    endloop
  endfacet
  facet normal 0 0 1
    outer loop
      vertex 3.91235 -3.26108 3.5
      vertex 4.02922 -3.06882 3.5
      vertex 3.91235 -2.6517 3.5
    endloop
  endfacet
  facet normal 0 -0 1
    outer loop
      vertex 3.91235 -3.26108 3.5
      vertex 3.91235 -2.6517 3.5
      vertex 3.0304 -4.15906 3.5
    endloop
  endfacet
  facet normal 0 0 1
    outer loop
      vertex 3.91235 -2.6517 3.5
      vertex 2.98233 -1.70566 3.5
      vertex 3.0304 -4.15906 3.5
    endloop
  endfacet
  facet normal 0 0 1
    outer loop
      vertex 2.98233 -1.70566 3.5
      vertex 2.92775 -1.64462 3.5
      vertex 2.97533 -4.2219 3.5
    endloop
  endfacet
  facet normal 0 0 1
    outer loop
      vertex 2.90292 -4.37178 3.5
      vertex 2.88509 -1.57478 3.5
      vertex 2.85589 -1.49834 3.5
    endloop
  endfacet
  facet normal 0 -0 1
    outer loop
      vertex 2.70968 1.75802 3.5
      vertex 2.70968 2.20698 3.5
      vertex -2.96672 2.14289 3.5
    endloop
  endfacet
  facet normal 0 0 1
    outer loop
      vertex 2.70968 2.20698 3.5
      vertex -2.97678 2.26378 3.5
      vertex -2.96672 2.14289 3.5
    endloop
  endfacet
  facet normal 0 0 1
    outer loop
      vertex -8.04991 12.3092 3.5
      vertex -8.9481 10.6067 3.5
      vertex -9.01108 9.96004 3.5
    endloop
  endfacet
  facet normal 0 0 1
    outer loop
      vertex -3.16086 2.70774 3.5
      vertex -3.09441 2.60627 3.5
      vertex 2.70968 2.20698 3.5
    endloop
  endfacet
  facet normal -0 0 1
    outer loop
      vertex -8.45829 11.8039 3.5
      vertex -8.9481 10.6067 3.5
      vertex -8.04991 12.3092 3.5
    endloop
  endfacet
  facet normal -0 -0 1
    outer loop
      vertex -3.00168 2.38252 3.5
      vertex 2.70968 2.20698 3.5
      vertex -3.04115 2.49724 3.5
    endloop
  endfacet
  facet normal 0 0 1
    outer loop
      vertex 2.70968 1.75802 3.5
      vertex 2.88509 -1.17902 3.5
      vertex 2.92775 -1.10918 3.5
    endloop
  endfacet
  facet normal 0 0 1
    outer loop
      vertex 3.99489 0.450689 3.5
      vertex 3.99489 -0.0454989 3.5
      vertex 4.075 0.240465 3.5
    endloop
  endfacet
  facet normal 0 0 1
    outer loop
      vertex 4.075 0.164656 3.5
      vertex 4.03429 0.0192816 3.5
      vertex 4.06133 0.0900962 3.5
    endloop
  endfacet
  facet normal 0 0 1
    outer loop
      vertex 3.99489 -0.0454989 3.5
      vertex 4.03429 0.0192816 3.5
      vertex 4.075 0.164656 3.5
    endloop
  endfacet
  facet normal 0 0 1
    outer loop
      vertex 3.99489 -0.0454989 3.5
      vertex 4.075 0.164656 3.5
      vertex 4.075 0.240465 3.5
    endloop
  endfacet
  facet normal 0 0 1
    outer loop
      vertex 3.99489 0.450689 3.5
      vertex 4.075 0.240465 3.5
      vertex 4.03429 0.385909 3.5
    endloop
  endfacet
  facet normal 0 0 1
    outer loop
      vertex 4.075 0.240465 3.5
      vertex 4.06133 0.315025 3.5
      vertex 4.03429 0.385909 3.5
    endloop
  endfacet
  facet normal 0 0 1
    outer loop
      vertex 3.94447 0.507285 3.5
      vertex 3.99489 -0.0454989 3.5
      vertex 3.99489 0.450689 3.5
    endloop
  endfacet
  facet normal 0 0 1
    outer loop
      vertex 3.94447 -0.102095 3.5
      vertex 3.99489 -0.0454989 3.5
      vertex 3.94447 0.507285 3.5
    endloop
  endfacet
  facet normal 0 -0 1
    outer loop
      vertex 3.94447 -0.102095 3.5
      vertex 3.94447 0.507285 3.5
      vertex 2.98233 -1.04821 3.5
    endloop
  endfacet
  facet normal 0 0 1
    outer loop
      vertex 3.94447 0.507285 3.5
      vertex 2.70968 1.75802 3.5
      vertex 2.98233 -1.04821 3.5
    endloop
  endfacet
  facet normal 0 0 1
    outer loop
      vertex 2.70968 1.75802 3.5
      vertex 2.92775 -1.10918 3.5
      vertex 2.98233 -1.04821 3.5
    endloop
  endfacet
  facet normal -0 0 1
    outer loop
      vertex -8.04991 7.61088 3.5
      vertex -3.2393 2.80033 3.5
      vertex -0.478155 12.9361 3.5
    endloop
  endfacet
  facet normal 0 0 1
    outer loop
      vertex 8.42216 8.05428 3.5
      vertex 8.71208 8.55574 3.5
      vertex 9.01108 9.6704 3.5
    endloop
  endfacet
  facet normal 0 0 1
    outer loop
      vertex 8.71208 8.55574 3.5
      vertex 8.91044 9.09999 3.5
      vertex 9.01108 9.6704 3.5
    endloop
  endfacet
  facet normal 0 -0 1
    outer loop
      vertex 8.42216 8.05428 3.5
      vertex 9.01108 9.6704 3.5
      vertex 8.0495 7.61088 3.5
    endloop
  endfacet
  facet normal 0 -0 1
    outer loop
      vertex 9.01108 9.6704 3.5
      vertex 9.01108 10.2497 3.5
      vertex 8.0495 7.61088 3.5
    endloop
  endfacet
  facet normal 0 0 1
    outer loop
      vertex 9.01108 10.2497 3.5
      vertex 8.91044 10.8201 3.5
      vertex 8.71208 11.3643 3.5
    endloop
  endfacet
  facet normal 0 0 1
    outer loop
      vertex 9.01108 10.2497 3.5
      vertex 8.71208 11.3643 3.5
      vertex 8.42216 11.8658 3.5
    endloop
  endfacet
  facet normal 0 0 1
    outer loop
      vertex 9.01108 10.2497 3.5
      vertex 8.42216 11.8658 3.5
      vertex 8.0495 12.3092 3.5
    endloop
  endfacet
  facet normal 0 0 1
    outer loop
      vertex 9.01108 10.2497 3.5
      vertex 8.0495 12.3092 3.5
      vertex 8.0495 7.61088 3.5
    endloop
  endfacet
  facet normal 0 0 1
    outer loop
      vertex 8.0495 12.3092 3.5
      vertex 1.8409 14.2635 3.5
      vertex 1.64996 13.8089 3.5
    endloop
  endfacet
  facet normal 0 0 1
    outer loop
      vertex 2.34091 18.0338 3.5
      vertex 0.974204 16.3942 3.5
      vertex 1.36316 16.0912 3.5
    endloop
  endfacet
  facet normal 0 0 1
    outer loop
      vertex -0.327717 16.626 3.5
      vertex -0.000208074 16.6548 3.5
      vertex -0.288946 18.9941 3.5
    endloop
  endfacet
  facet normal 0 0 1
    outer loop
      vertex -1.21162 16.2113 3.5
      vertex -2.34132 18.0338 3.5
      vertex -1.44313 15.9778 3.5
    endloop
  endfacet
  facet normal 0 0 1
    outer loop
      vertex -0.942924 16.4008 3.5
      vertex -2.34132 18.0338 3.5
      vertex -1.21162 16.2113 3.5
    endloop
  endfacet
  facet normal 0 -0 1
    outer loop
      vertex -0.645239 16.5405 3.5
      vertex -0.327717 16.626 3.5
      vertex -1.40006 18.6955 3.5
    endloop
  endfacet
  facet normal 0 0 1
    outer loop
      vertex -1.81205 14.2738 3.5
      vertex -1.87635 14.7626 3.5
      vertex -8.04991 12.3092 3.5
    endloop
  endfacet
  facet normal -0 0 1
    outer loop
      vertex -8.76153 11.2292 3.5
      vertex -8.9481 10.6067 3.5
      vertex -8.45829 11.8039 3.5
    endloop
  endfacet
  facet normal -0 -0 1
    outer loop
      vertex -8.45829 8.11622 3.5
      vertex -8.04991 7.61088 3.5
      vertex -8.9481 9.31334 3.5
    endloop
  endfacet
  facet normal 0 0 1
    outer loop
      vertex -8.45829 8.11622 3.5
      vertex -8.9481 9.31334 3.5
      vertex -8.76153 8.69092 3.5
    endloop
  endfacet
  facet normal 0 0 1
    outer loop
      vertex -8.04991 7.61088 3.5
      vertex -9.01108 9.96004 3.5
      vertex -8.9481 9.31334 3.5
    endloop
  endfacet
  facet normal 0 0 1
    outer loop
      vertex -8.04991 12.3092 3.5
      vertex -9.01108 9.96004 3.5
      vertex -8.04991 7.61088 3.5
    endloop
  endfacet
  facet normal 0 0 1
    outer loop
      vertex 0.0104731 12.8705 3.5
      vertex -0.478155 12.9361 3.5
      vertex -3.2393 2.80033 3.5
    endloop
  endfacet
  facet normal 0 0 1
    outer loop
      vertex 8.0495 7.61088 3.5
      vertex 0.955686 13.1205 3.5
      vertex 0.499517 12.9334 3.5
    endloop
  endfacet
  facet normal 0 0 1
    outer loop
      vertex -2.96672 -6.70867 3.5
      vertex 2.85589 -1.49834 3.5
      vertex 2.84105 -1.41782 3.5
    endloop
  endfacet
  facet normal 0 0 1
    outer loop
      vertex -2.96672 -6.70867 3.5
      vertex -2.95916 -6.85605 3.5
      vertex -2.93225 -7.00122 3.5
    endloop
  endfacet
  facet normal 0 0 1
    outer loop
      vertex -3.2393 2.80033 3.5
      vertex -3.16086 2.70774 3.5
      vertex 2.70968 2.20698 3.5
    endloop
  endfacet
  facet normal 0 0 1
    outer loop
      vertex 2.70968 2.20698 3.5
      vertex -3.09441 2.60627 3.5
      vertex -3.04115 2.49724 3.5
    endloop
  endfacet
  facet normal -0 -0 1
    outer loop
      vertex -2.97678 2.26378 3.5
      vertex 2.70968 2.20698 3.5
      vertex -3.00168 2.38252 3.5
    endloop
  endfacet
  facet normal 0 0 1
    outer loop
      vertex 2.90292 -4.37178 3.5
      vertex 2.85589 -1.49834 3.5
      vertex -2.96672 -6.70867 3.5
    endloop
  endfacet
  facet normal 0 0 1
    outer loop
      vertex -2.96672 2.14289 3.5
      vertex 2.85589 -1.25552 3.5
      vertex 2.88509 -1.17902 3.5
    endloop
  endfacet
  facet normal 0 0 1
    outer loop
      vertex 2.70968 1.75802 3.5
      vertex -2.96672 2.14289 3.5
      vertex 2.88509 -1.17902 3.5
    endloop
  endfacet
  facet normal 0 -0 1
    outer loop
      vertex 2.84105 -1.33598 3.5
      vertex 2.85589 -1.25552 3.5
      vertex -2.96672 2.14289 3.5
    endloop
  endfacet
  facet normal 0 0 1
    outer loop
      vertex 2.84105 -1.33598 3.5
      vertex -2.96672 2.14289 3.5
      vertex 2.84105 -1.41782 3.5
    endloop
  endfacet
  facet normal 0 0 1
    outer loop
      vertex -2.96672 2.14289 3.5
      vertex -2.96672 -6.70867 3.5
      vertex 2.84105 -1.41782 3.5
    endloop
  endfacet
  facet normal 0 0 1
    outer loop
      vertex 2.90292 -4.37178 3.5
      vertex -2.96672 -6.70867 3.5
      vertex 2.888 -4.45397 3.5
    endloop
  endfacet
  facet normal 0 0 1
    outer loop
      vertex -2.96672 -6.70867 3.5
      vertex -2.93225 -7.00122 3.5
      vertex -2.88655 -7.1416 3.5
    endloop
  endfacet
  facet normal -0 -0 1
    outer loop
      vertex -2.88655 -7.1416 3.5
      vertex -2.64601 -7.51045 3.5
      vertex -2.96672 -6.70867 3.5
    endloop
  endfacet
  facet normal 0 -0 1
    outer loop
      vertex -2.64601 -7.51045 3.5
      vertex 2.93239 -4.69797 3.5
      vertex -2.96672 -6.70867 3.5
    endloop
  endfacet
  facet normal 0 0 1
    outer loop
      vertex 2.97533 -4.76969 3.5
      vertex 2.93239 -4.69797 3.5
      vertex -2.64601 -7.51045 3.5
    endloop
  endfacet
  facet normal 0 0 1
    outer loop
      vertex 2.97533 -4.76969 3.5
      vertex -2.64601 -7.51045 3.5
      vertex 0.57699 -9.67518 3.5
    endloop
  endfacet
  facet normal 0 0 1
    outer loop
      vertex -2.64601 -7.51045 3.5
      vertex -0.481276 -9.67518 3.5
      vertex 0.57699 -9.67518 3.5
    endloop
  endfacet
  facet normal -0 0 1
    outer loop
      vertex -0.481276 -9.67518 3.5
      vertex -0.0179638 -9.90316 3.5
      vertex 0.57699 -9.67518 3.5
    endloop
  endfacet
  facet normal -0 -0 1
    outer loop
      vertex -0.383204 -9.76327 3.5
      vertex -0.0179638 -9.90316 3.5
      vertex -0.481276 -9.67518 3.5
    endloop
  endfacet
  facet normal -0 -0 1
    outer loop
      vertex -0.270705 -9.83207 3.5
      vertex -0.0179638 -9.90316 3.5
      vertex -0.383204 -9.76327 3.5
    endloop
  endfacet
  facet normal -0 -0 1
    outer loop
      vertex -0.147594 -9.87923 3.5
      vertex -0.0179638 -9.90316 3.5
      vertex -0.270705 -9.83207 3.5
    endloop
  endfacet
  facet normal 0 0 1
    outer loop
      vertex -0.0179638 -9.90316 3.5
      vertex 0.113747 -9.90316 3.5
      vertex 0.57699 -9.67518 3.5
    endloop
  endfacet
  facet normal 0 0 1
    outer loop
      vertex 2.70968 2.20698 3.5
      vertex 0.0104731 12.8705 3.5
      vertex -3.2393 2.80033 3.5
    endloop
  endfacet
  facet normal 0 -0 1
    outer loop
      vertex -0.000208074 16.6548 3.5
      vertex 0.28846 18.9941 3.5
      vertex -0.288946 18.9941 3.5
    endloop
  endfacet
  facet normal 0 0 1
    outer loop
      vertex -8.04991 7.61088 3.5
      vertex -0.478155 12.9361 3.5
      vertex -0.933283 13.1257 3.5
    endloop
  endfacet
  facet normal 0 0 1
    outer loop
      vertex 0.0318354 16.6548 3.5
      vertex 0.857128 18.8935 3.5
      vertex 0.28846 18.9941 3.5
    endloop
  endfacet
  facet normal 0 0 1
    outer loop
      vertex -8.04991 7.61088 3.5
      vertex -0.933283 13.1257 3.5
      vertex -1.32398 13.4266 3.5
    endloop
  endfacet
  facet normal 0 0 1
    outer loop
      vertex -8.04991 7.61088 3.5
      vertex -1.32398 13.4266 3.5
      vertex -8.04991 12.3092 3.5
    endloop
  endfacet
  facet normal 0 0 1
    outer loop
      vertex -1.32398 13.4266 3.5
      vertex -1.62367 13.8181 3.5
      vertex -8.04991 12.3092 3.5
    endloop
  endfacet
  facet normal 0 0 1
    outer loop
      vertex -1.62367 13.8181 3.5
      vertex -1.81205 14.2738 3.5
      vertex -8.04991 12.3092 3.5
    endloop
  endfacet
  facet normal 0 0 1
    outer loop
      vertex -2.34132 18.0338 3.5
      vertex -8.04991 12.3092 3.5
      vertex -1.85034 15.0904 3.5
    endloop
  endfacet
  facet normal 0 0 1
    outer loop
      vertex -1.85034 15.0904 3.5
      vertex -8.04991 12.3092 3.5
      vertex -1.87635 14.7626 3.5
    endloop
  endfacet
  facet normal 0 0 1
    outer loop
      vertex -1.63033 15.7075 3.5
      vertex -2.34132 18.0338 3.5
      vertex -1.76745 15.4086 3.5
    endloop
  endfacet
  facet normal 0 0 1
    outer loop
      vertex -1.76745 15.4086 3.5
      vertex -2.34132 18.0338 3.5
      vertex -1.85034 15.0904 3.5
    endloop
  endfacet
  facet normal 0 0 1
    outer loop
      vertex -1.44313 15.9778 3.5
      vertex -2.34132 18.0338 3.5
      vertex -1.63033 15.7075 3.5
    endloop
  endfacet
  facet normal 0 0 1
    outer loop
      vertex -1.89972 18.4059 3.5
      vertex -0.942924 16.4008 3.5
      vertex -0.645239 16.5405 3.5
    endloop
  endfacet
  facet normal 0 0 1
    outer loop
      vertex -1.89972 18.4059 3.5
      vertex -2.34132 18.0338 3.5
      vertex -0.942924 16.4008 3.5
    endloop
  endfacet
  facet normal -0 0 1
    outer loop
      vertex -1.89972 18.4059 3.5
      vertex -0.645239 16.5405 3.5
      vertex -1.40006 18.6955 3.5
    endloop
  endfacet
  facet normal -0 0 1
    outer loop
      vertex -0.857613 18.8935 3.5
      vertex -0.327717 16.626 3.5
      vertex -0.288946 18.9941 3.5
    endloop
  endfacet
  facet normal 0 0 1
    outer loop
      vertex -0.857613 18.8935 3.5
      vertex -1.40006 18.6955 3.5
      vertex -0.327717 16.626 3.5
    endloop
  endfacet
  facet normal 0 -0 1
    outer loop
      vertex 0.0318354 16.6548 3.5
      vertex 0.28846 18.9941 3.5
      vertex -0.000208074 16.6548 3.5
    endloop
  endfacet
  facet normal 0 -0 1
    outer loop
      vertex 0.520117 16.5864 3.5
      vertex 0.857128 18.8935 3.5
      vertex 0.0318354 16.6548 3.5
    endloop
  endfacet
  facet normal 0 0 1
    outer loop
      vertex 1.39958 18.6955 3.5
      vertex 0.857128 18.8935 3.5
      vertex 0.520117 16.5864 3.5
    endloop
  endfacet
  facet normal 0 0 1
    outer loop
      vertex 1.39958 18.6955 3.5
      vertex 0.520117 16.5864 3.5
      vertex 1.8993 18.4059 3.5
    endloop
  endfacet
  facet normal -0 0 1
    outer loop
      vertex 0.520117 16.5864 3.5
      vertex 0.974204 16.3942 3.5
      vertex 1.8993 18.4059 3.5
    endloop
  endfacet
  facet normal 0 0 1
    outer loop
      vertex 0.974204 16.3942 3.5
      vertex 2.34091 18.0338 3.5
      vertex 1.8993 18.4059 3.5
    endloop
  endfacet
  facet normal -0 0 1
    outer loop
      vertex 1.36316 16.0912 3.5
      vertex 1.66064 15.698 3.5
      vertex 2.34091 18.0338 3.5
    endloop
  endfacet
  facet normal -0 0 1
    outer loop
      vertex 1.66064 15.698 3.5
      vertex 1.84645 15.2412 3.5
      vertex 2.34091 18.0338 3.5
    endloop
  endfacet
  facet normal -0 0 1
    outer loop
      vertex 1.84645 15.2412 3.5
      vertex 8.0495 12.3092 3.5
      vertex 2.34091 18.0338 3.5
    endloop
  endfacet
  facet normal -0 -0 1
    outer loop
      vertex 1.9079 14.752 3.5
      vertex 8.0495 12.3092 3.5
      vertex 1.84645 15.2412 3.5
    endloop
  endfacet
  facet normal -0 0 1
    outer loop
      vertex 1.8409 14.2635 3.5
      vertex 8.0495 12.3092 3.5
      vertex 1.9079 14.752 3.5
    endloop
  endfacet
  facet normal 0 0 1
    outer loop
      vertex 1.64996 13.8089 3.5
      vertex 1.34811 13.4191 3.5
      vertex 8.0495 12.3092 3.5
    endloop
  endfacet
  facet normal 0 0 1
    outer loop
      vertex 1.34811 13.4191 3.5
      vertex 8.0495 7.61088 3.5
      vertex 8.0495 12.3092 3.5
    endloop
  endfacet
  facet normal -0 0 1
    outer loop
      vertex 0.955686 13.1205 3.5
      vertex 8.0495 7.61088 3.5
      vertex 1.34811 13.4191 3.5
    endloop
  endfacet
  facet normal 0 0 1
    outer loop
      vertex 0.499517 12.9334 3.5
      vertex 2.70968 2.20698 3.5
      vertex 8.0495 7.61088 3.5
    endloop
  endfacet
  facet normal -0 0 1
    outer loop
      vertex 0.0104731 12.8705 3.5
      vertex 2.70968 2.20698 3.5
      vertex 0.499517 12.9334 3.5
    endloop
  endfacet
  facet normal 0.357723 -0.933828 0
    outer loop
      vertex 0.366488 -9.83207 2.5
      vertex 0.243378 -9.87923 3.5
      vertex 0.243378 -9.87923 2.5
    endloop
  endfacet
  facet normal 0.357723 -0.933828 0
    outer loop
      vertex 0.366488 -9.83207 2.5
      vertex 0.366488 -9.83207 3.5
      vertex 0.243378 -9.87923 3.5
    endloop
  endfacet
  facet normal 0.521962 -0.852968 0
    outer loop
      vertex 0.478918 -9.76327 2.5
      vertex 0.366488 -9.83207 3.5
      vertex 0.366488 -9.83207 2.5
    endloop
  endfacet
  facet normal 0.521962 -0.852968 0
    outer loop
      vertex 0.478918 -9.76327 2.5
      vertex 0.478918 -9.76327 3.5
      vertex 0.366488 -9.83207 3.5
    endloop
  endfacet
  facet normal 0.668232 -0.743953 0
    outer loop
      vertex 0.57699 -9.67518 2.5
      vertex 0.478918 -9.76327 3.5
      vertex 0.478918 -9.76327 2.5
    endloop
  endfacet
  facet normal 0.668232 -0.743953 0
    outer loop
      vertex 0.57699 -9.67518 2.5
      vertex 0.57699 -9.67518 3.5
      vertex 0.478918 -9.76327 3.5
    endloop
  endfacet
  facet normal 0.707107 -0.707107 0
    outer loop
      vertex 3.91235 -6.33982 2.5
      vertex 0.57699 -9.67518 3.5
      vertex 0.57699 -9.67518 2.5
    endloop
  endfacet
  facet normal 0.707107 -0.707107 0
    outer loop
      vertex 3.91235 -6.33982 2.5
      vertex 3.91235 -6.33982 3.5
      vertex 0.57699 -9.67518 3.5
    endloop
  endfacet
  facet normal 0.745762 -0.666212 0
    outer loop
      vertex 3.96285 -6.28329 2.5
      vertex 3.91235 -6.33982 3.5
      vertex 3.91235 -6.33982 2.5
    endloop
  endfacet
  facet normal 0.745762 -0.666212 0
    outer loop
      vertex 3.96285 -6.28329 2.5
      vertex 3.96285 -6.28329 3.5
      vertex 3.91235 -6.33982 3.5
    endloop
  endfacet
  facet normal 0.85444 -0.519549 0
    outer loop
      vertex 4.00224 -6.21851 2.5
      vertex 3.96285 -6.28329 3.5
      vertex 3.96285 -6.28329 2.5
    endloop
  endfacet
  facet normal 0.85444 -0.519549 0
    outer loop
      vertex 4.00224 -6.21851 2.5
      vertex 4.00224 -6.21851 3.5
      vertex 3.96285 -6.28329 3.5
    endloop
  endfacet
  facet normal 0.934584 -0.355743 0
    outer loop
      vertex 4.02922 -6.14763 2.5
      vertex 4.00224 -6.21851 3.5
      vertex 4.00224 -6.21851 2.5
    endloop
  endfacet
  facet normal 0.934584 -0.355743 0
    outer loop
      vertex 4.02922 -6.14763 2.5
      vertex 4.02922 -6.14763 3.5
      vertex 4.00224 -6.21851 3.5
    endloop
  endfacet
  facet normal 0.983464 -0.181102 0
    outer loop
      vertex 4.04295 -6.07307 2.5
      vertex 4.02922 -6.14763 3.5
      vertex 4.02922 -6.14763 2.5
    endloop
  endfacet
  facet normal 0.983464 -0.181102 0
    outer loop
      vertex 4.04295 -6.07307 2.5
      vertex 4.04295 -6.07307 3.5
      vertex 4.02922 -6.14763 3.5
    endloop
  endfacet
  facet normal 1 0 0
    outer loop
      vertex 4.04295 -5.99726 2.5
      vertex 4.04295 -6.07307 3.5
      vertex 4.04295 -6.07307 2.5
    endloop
  endfacet
  facet normal 1 0 -0
    outer loop
      vertex 4.04295 -5.99726 2.5
      vertex 4.04295 -5.99726 3.5
      vertex 4.04295 -6.07307 3.5
    endloop
  endfacet
  facet normal 0.983464 0.181102 0
    outer loop
      vertex 4.02922 -5.9227 2.5
      vertex 4.04295 -5.99726 3.5
      vertex 4.04295 -5.99726 2.5
    endloop
  endfacet
  facet normal 0.983464 0.181102 -0
    outer loop
      vertex 4.02922 -5.9227 2.5
      vertex 4.02922 -5.9227 3.5
      vertex 4.04295 -5.99726 3.5
    endloop
  endfacet
  facet normal 0.934484 0.356006 0
    outer loop
      vertex 4.00224 -5.85188 2.5
      vertex 4.02922 -5.9227 3.5
      vertex 4.02922 -5.9227 2.5
    endloop
  endfacet
  facet normal 0.934484 0.356006 -0
    outer loop
      vertex 4.00224 -5.85188 2.5
      vertex 4.00224 -5.85188 3.5
      vertex 4.02922 -5.9227 3.5
    endloop
  endfacet
  facet normal 0.85444 0.519549 0
    outer loop
      vertex 3.96285 -5.7871 2.5
      vertex 4.00224 -5.85188 3.5
      vertex 4.00224 -5.85188 2.5
    endloop
  endfacet
  facet normal 0.85444 0.519549 -0
    outer loop
      vertex 3.96285 -5.7871 2.5
      vertex 3.96285 -5.7871 3.5
      vertex 4.00224 -5.85188 3.5
    endloop
  endfacet
  facet normal 0.746113 0.665819 0
    outer loop
      vertex 3.91235 -5.73051 2.5
      vertex 3.96285 -5.7871 3.5
      vertex 3.96285 -5.7871 2.5
    endloop
  endfacet
  facet normal 0.746113 0.665819 -0
    outer loop
      vertex 3.91235 -5.73051 2.5
      vertex 3.91235 -5.73051 3.5
      vertex 3.96285 -5.7871 3.5
    endloop
  endfacet
  facet normal 0.713446 0.70071 0
    outer loop
      vertex 3.0304 -4.83253 2.5
      vertex 3.91235 -5.73051 3.5
      vertex 3.91235 -5.73051 2.5
    endloop
  endfacet
  facet normal 0.713446 0.70071 -0
    outer loop
      vertex 3.0304 -4.83253 2.5
      vertex 3.0304 -4.83253 3.5
      vertex 3.91235 -5.73051 3.5
    endloop
  endfacet
  facet normal 0.752072 0.659081 0
    outer loop
      vertex 2.97533 -4.76969 2.5
      vertex 3.0304 -4.83253 3.5
      vertex 3.0304 -4.83253 2.5
    endloop
  endfacet
  facet normal 0.752072 0.659081 -0
    outer loop
      vertex 2.97533 -4.76969 2.5
      vertex 2.97533 -4.76969 3.5
      vertex 3.0304 -4.83253 3.5
    endloop
  endfacet
  facet normal 0.857978 0.513686 0
    outer loop
      vertex 2.93239 -4.69797 2.5
      vertex 2.97533 -4.76969 3.5
      vertex 2.97533 -4.76969 2.5
    endloop
  endfacet
  facet normal 0.857978 0.513686 -0
    outer loop
      vertex 2.93239 -4.69797 2.5
      vertex 2.93239 -4.69797 3.5
      vertex 2.97533 -4.76969 3.5
    endloop
  endfacet
  facet normal 0.935698 0.352802 0
    outer loop
      vertex 2.90292 -4.61981 2.5
      vertex 2.93239 -4.69797 3.5
      vertex 2.93239 -4.69797 2.5
    endloop
  endfacet
  facet normal 0.935698 0.352802 -0
    outer loop
      vertex 2.90292 -4.61981 2.5
      vertex 2.90292 -4.61981 3.5
      vertex 2.93239 -4.69797 3.5
    endloop
  endfacet
  facet normal 0.983946 0.178464 0
    outer loop
      vertex 2.888 -4.53755 2.5
      vertex 2.90292 -4.61981 3.5
      vertex 2.90292 -4.61981 2.5
    endloop
  endfacet
  facet normal 0.983946 0.178464 -0
    outer loop
      vertex 2.888 -4.53755 2.5
      vertex 2.888 -4.53755 3.5
      vertex 2.90292 -4.61981 3.5
    endloop
  endfacet
  facet normal 1 0 0
    outer loop
      vertex 2.888 -4.45397 2.5
      vertex 2.888 -4.53755 3.5
      vertex 2.888 -4.53755 2.5
    endloop
  endfacet
  facet normal 1 0 -0
    outer loop
      vertex 2.888 -4.45397 2.5
      vertex 2.888 -4.45397 3.5
      vertex 2.888 -4.53755 3.5
    endloop
  endfacet
  facet normal 0.98392 -0.178612 0
    outer loop
      vertex 2.90292 -4.37178 2.5
      vertex 2.888 -4.45397 3.5
      vertex 2.888 -4.45397 2.5
    endloop
  endfacet
  facet normal 0.98392 -0.178612 0
    outer loop
      vertex 2.90292 -4.37178 2.5
      vertex 2.90292 -4.37178 3.5
      vertex 2.888 -4.45397 3.5
    endloop
  endfacet
  facet normal 0.935802 -0.352526 0
    outer loop
      vertex 2.93239 -4.29355 2.5
      vertex 2.90292 -4.37178 3.5
      vertex 2.90292 -4.37178 2.5
    endloop
  endfacet
  facet normal 0.935802 -0.352526 0
    outer loop
      vertex 2.93239 -4.29355 2.5
      vertex 2.93239 -4.29355 3.5
      vertex 2.90292 -4.37178 3.5
    endloop
  endfacet
  facet normal 0.857757 -0.514056 0
    outer loop
      vertex 2.97533 -4.2219 2.5
      vertex 2.93239 -4.29355 3.5
      vertex 2.93239 -4.29355 2.5
    endloop
  endfacet
  facet normal 0.857757 -0.514056 0
    outer loop
      vertex 2.97533 -4.2219 2.5
      vertex 2.97533 -4.2219 3.5
      vertex 2.93239 -4.29355 3.5
    endloop
  endfacet
  facet normal 0.752072 -0.659081 0
    outer loop
      vertex 3.0304 -4.15906 2.5
      vertex 2.97533 -4.2219 3.5
      vertex 2.97533 -4.2219 2.5
    endloop
  endfacet
  facet normal 0.752072 -0.659081 0
    outer loop
      vertex 3.0304 -4.15906 2.5
      vertex 3.0304 -4.15906 3.5
      vertex 2.97533 -4.2219 3.5
    endloop
  endfacet
  facet normal 0.713446 -0.70071 0
    outer loop
      vertex 3.91235 -3.26108 2.5
      vertex 3.0304 -4.15906 3.5
      vertex 3.0304 -4.15906 2.5
    endloop
  endfacet
  facet normal 0.713446 -0.70071 0
    outer loop
      vertex 3.91235 -3.26108 2.5
      vertex 3.91235 -3.26108 3.5
      vertex 3.0304 -4.15906 3.5
    endloop
  endfacet
  facet normal 0.746172 -0.665754 0
    outer loop
      vertex 3.96285 -3.20448 2.5
      vertex 3.91235 -3.26108 3.5
      vertex 3.91235 -3.26108 2.5
    endloop
  endfacet
  facet normal 0.746172 -0.665754 0
    outer loop
      vertex 3.96285 -3.20448 2.5
      vertex 3.96285 -3.20448 3.5
      vertex 3.91235 -3.26108 3.5
    endloop
  endfacet
  facet normal 0.85444 -0.519549 0
    outer loop
      vertex 4.00224 -3.1397 2.5
      vertex 3.96285 -3.20448 3.5
      vertex 3.96285 -3.20448 2.5
    endloop
  endfacet
  facet normal 0.85444 -0.519549 0
    outer loop
      vertex 4.00224 -3.1397 2.5
      vertex 4.00224 -3.1397 3.5
      vertex 3.96285 -3.20448 3.5
    endloop
  endfacet
  facet normal 0.934584 -0.355743 0
    outer loop
      vertex 4.02922 -3.06882 2.5
      vertex 4.00224 -3.1397 3.5
      vertex 4.00224 -3.1397 2.5
    endloop
  endfacet
  facet normal 0.934584 -0.355743 0
    outer loop
      vertex 4.02922 -3.06882 2.5
      vertex 4.02922 -3.06882 3.5
      vertex 4.00224 -3.1397 3.5
    endloop
  endfacet
  facet normal 0.983464 -0.181102 0
    outer loop
      vertex 4.04295 -2.99426 2.5
      vertex 4.02922 -3.06882 3.5
      vertex 4.02922 -3.06882 2.5
    endloop
  endfacet
  facet normal 0.983464 -0.181102 0
    outer loop
      vertex 4.04295 -2.99426 2.5
      vertex 4.04295 -2.99426 3.5
      vertex 4.02922 -3.06882 3.5
    endloop
  endfacet
  facet normal 1 0 0
    outer loop
      vertex 4.04295 -2.91845 2.5
      vertex 4.04295 -2.99426 3.5
      vertex 4.04295 -2.99426 2.5
    endloop
  endfacet
  facet normal 1 0 -0
    outer loop
      vertex 4.04295 -2.91845 2.5
      vertex 4.04295 -2.91845 3.5
      vertex 4.04295 -2.99426 3.5
    endloop
  endfacet
  facet normal 0.983464 0.181102 0
    outer loop
      vertex 4.02922 -2.84389 2.5
      vertex 4.04295 -2.91845 3.5
      vertex 4.04295 -2.91845 2.5
    endloop
  endfacet
  facet normal 0.983464 0.181102 -0
    outer loop
      vertex 4.02922 -2.84389 2.5
      vertex 4.02922 -2.84389 3.5
      vertex 4.04295 -2.91845 3.5
    endloop
  endfacet
  facet normal 0.934467 0.35605 0
    outer loop
      vertex 4.00224 -2.77308 2.5
      vertex 4.02922 -2.84389 3.5
      vertex 4.02922 -2.84389 2.5
    endloop
  endfacet
  facet normal 0.934467 0.35605 -0
    outer loop
      vertex 4.00224 -2.77308 2.5
      vertex 4.00224 -2.77308 3.5
      vertex 4.02922 -2.84389 3.5
    endloop
  endfacet
  facet normal 0.85444 0.519549 0
    outer loop
      vertex 3.96285 -2.7083 2.5
      vertex 4.00224 -2.77308 3.5
      vertex 4.00224 -2.77308 2.5
    endloop
  endfacet
  facet normal 0.85444 0.519549 -0
    outer loop
      vertex 3.96285 -2.7083 2.5
      vertex 3.96285 -2.7083 3.5
      vertex 4.00224 -2.77308 3.5
    endloop
  endfacet
  facet normal 0.746172 0.665754 0
    outer loop
      vertex 3.91235 -2.6517 2.5
      vertex 3.96285 -2.7083 3.5
      vertex 3.96285 -2.7083 2.5
    endloop
  endfacet
  facet normal 0.746172 0.665754 -0
    outer loop
      vertex 3.91235 -2.6517 2.5
      vertex 3.91235 -2.6517 3.5
      vertex 3.96285 -2.7083 3.5
    endloop
  endfacet
  facet normal 0.713119 0.701043 0
    outer loop
      vertex 2.98233 -1.70566 2.5
      vertex 3.91235 -2.6517 3.5
      vertex 3.91235 -2.6517 2.5
    endloop
  endfacet
  facet normal 0.713119 0.701043 -0
    outer loop
      vertex 2.98233 -1.70566 2.5
      vertex 2.98233 -1.70566 3.5
      vertex 3.91235 -2.6517 3.5
    endloop
  endfacet
  facet normal 0.745452 0.666559 0
    outer loop
      vertex 2.92775 -1.64462 2.5
      vertex 2.98233 -1.70566 3.5
      vertex 2.98233 -1.70566 2.5
    endloop
  endfacet
  facet normal 0.745452 0.666559 -0
    outer loop
      vertex 2.92775 -1.64462 2.5
      vertex 2.92775 -1.64462 3.5
      vertex 2.98233 -1.70566 3.5
    endloop
  endfacet
  facet normal 0.853391 0.521272 0
    outer loop
      vertex 2.88509 -1.57478 2.5
      vertex 2.92775 -1.64462 3.5
      vertex 2.92775 -1.64462 2.5
    endloop
  endfacet
  facet normal 0.853391 0.521272 -0
    outer loop
      vertex 2.88509 -1.57478 2.5
      vertex 2.88509 -1.57478 3.5
      vertex 2.92775 -1.64462 3.5
    endloop
  endfacet
  facet normal 0.934162 0.356849 0
    outer loop
      vertex 2.85589 -1.49834 2.5
      vertex 2.88509 -1.57478 3.5
      vertex 2.88509 -1.57478 2.5
    endloop
  endfacet
  facet normal 0.934162 0.356849 -0
    outer loop
      vertex 2.85589 -1.49834 2.5
      vertex 2.85589 -1.49834 3.5
      vertex 2.88509 -1.57478 3.5
    endloop
  endfacet
  facet normal 0.983437 0.181249 0
    outer loop
      vertex 2.84105 -1.41782 2.5
      vertex 2.85589 -1.49834 3.5
      vertex 2.85589 -1.49834 2.5
    endloop
  endfacet
  facet normal 0.983437 0.181249 -0
    outer loop
      vertex 2.84105 -1.41782 2.5
      vertex 2.84105 -1.41782 3.5
      vertex 2.85589 -1.49834 3.5
    endloop
  endfacet
  facet normal 1 0 0
    outer loop
      vertex 2.84105 -1.33598 2.5
      vertex 2.84105 -1.41782 3.5
      vertex 2.84105 -1.41782 2.5
    endloop
  endfacet
  facet normal 1 0 -0
    outer loop
      vertex 2.84105 -1.33598 2.5
      vertex 2.84105 -1.33598 3.5
      vertex 2.84105 -1.41782 3.5
    endloop
  endfacet
  facet normal 0.983413 -0.18138 0
    outer loop
      vertex 2.85589 -1.25552 2.5
      vertex 2.84105 -1.33598 3.5
      vertex 2.84105 -1.33598 2.5
    endloop
  endfacet
  facet normal 0.983413 -0.18138 0
    outer loop
      vertex 2.85589 -1.25552 2.5
      vertex 2.85589 -1.25552 3.5
      vertex 2.84105 -1.33598 3.5
    endloop
  endfacet
  facet normal 0.934255 -0.356605 0
    outer loop
      vertex 2.88509 -1.17902 2.5
      vertex 2.85589 -1.25552 3.5
      vertex 2.85589 -1.25552 2.5
    endloop
  endfacet
  facet normal 0.934255 -0.356605 0
    outer loop
      vertex 2.88509 -1.17902 2.5
      vertex 2.88509 -1.17902 3.5
      vertex 2.85589 -1.25552 3.5
    endloop
  endfacet
  facet normal 0.853391 -0.521272 0
    outer loop
      vertex 2.92775 -1.10918 2.5
      vertex 2.88509 -1.17902 3.5
      vertex 2.88509 -1.17902 2.5
    endloop
  endfacet
  facet normal 0.853391 -0.521272 0
    outer loop
      vertex 2.92775 -1.10918 2.5
      vertex 2.92775 -1.10918 3.5
      vertex 2.88509 -1.17902 3.5
    endloop
  endfacet
  facet normal 0.745072 -0.666984 0
    outer loop
      vertex 2.98233 -1.04821 2.5
      vertex 2.92775 -1.10918 3.5
      vertex 2.92775 -1.10918 2.5
    endloop
  endfacet
  facet normal 0.745072 -0.666984 0
    outer loop
      vertex 2.98233 -1.04821 2.5
      vertex 2.98233 -1.04821 3.5
      vertex 2.92775 -1.10918 3.5
    endloop
  endfacet
  facet normal 0.701144 -0.71302 0
    outer loop
      vertex 3.94447 -0.102095 2.5
      vertex 2.98233 -1.04821 3.5
      vertex 2.98233 -1.04821 2.5
    endloop
  endfacet
  facet normal 0.701144 -0.71302 0
    outer loop
      vertex 3.94447 -0.102095 2.5
      vertex 3.94447 -0.102095 3.5
      vertex 2.98233 -1.04821 3.5
    endloop
  endfacet
  facet normal 0.746673 -0.665191 0
    outer loop
      vertex 3.99489 -0.0454989 2.5
      vertex 3.94447 -0.102095 3.5
      vertex 3.94447 -0.102095 2.5
    endloop
  endfacet
  facet normal 0.746673 -0.665191 0
    outer loop
      vertex 3.99489 -0.0454989 2.5
      vertex 3.99489 -0.0454989 3.5
      vertex 3.94447 -0.102095 3.5
    endloop
  endfacet
  facet normal 0.854384 -0.519643 0
    outer loop
      vertex 4.03429 0.0192816 2.5
      vertex 3.99489 -0.0454989 3.5
      vertex 3.99489 -0.0454989 2.5
    endloop
  endfacet
  facet normal 0.854384 -0.519643 0
    outer loop
      vertex 4.03429 0.0192816 2.5
      vertex 4.03429 0.0192816 3.5
      vertex 3.99489 -0.0454989 3.5
    endloop
  endfacet
  facet normal 0.934211 -0.356721 0
    outer loop
      vertex 4.06133 0.0900962 2.5
      vertex 4.03429 0.0192816 3.5
      vertex 4.03429 0.0192816 2.5
    endloop
  endfacet
  facet normal 0.934211 -0.356721 0
    outer loop
      vertex 4.06133 0.0900962 2.5
      vertex 4.06133 0.0900962 3.5
      vertex 4.03429 0.0192816 3.5
    endloop
  endfacet
  facet normal 0.983605 -0.180337 0
    outer loop
      vertex 4.075 0.164656 2.5
      vertex 4.06133 0.0900962 3.5
      vertex 4.06133 0.0900962 2.5
    endloop
  endfacet
  facet normal 0.983605 -0.180337 0
    outer loop
      vertex 4.075 0.164656 2.5
      vertex 4.075 0.164656 3.5
      vertex 4.06133 0.0900962 3.5
    endloop
  endfacet
  facet normal 1 0 0
    outer loop
      vertex 4.075 0.240465 2.5
      vertex 4.075 0.164656 3.5
      vertex 4.075 0.164656 2.5
    endloop
  endfacet
  facet normal 1 0 -0
    outer loop
      vertex 4.075 0.240465 2.5
      vertex 4.075 0.240465 3.5
      vertex 4.075 0.164656 3.5
    endloop
  endfacet
  facet normal 0.983605 0.180336 0
    outer loop
      vertex 4.06133 0.315025 2.5
      vertex 4.075 0.240465 3.5
      vertex 4.075 0.240465 2.5
    endloop
  endfacet
  facet normal 0.983605 0.180336 -0
    outer loop
      vertex 4.06133 0.315025 2.5
      vertex 4.06133 0.315025 3.5
      vertex 4.075 0.240465 3.5
    endloop
  endfacet
  facet normal 0.934327 0.356416 0
    outer loop
      vertex 4.03429 0.385909 2.5
      vertex 4.06133 0.315025 3.5
      vertex 4.06133 0.315025 2.5
    endloop
  endfacet
  facet normal 0.934327 0.356416 -0
    outer loop
      vertex 4.03429 0.385909 2.5
      vertex 4.03429 0.385909 3.5
      vertex 4.06133 0.315025 3.5
    endloop
  endfacet
  facet normal 0.854382 0.519646 0
    outer loop
      vertex 3.99489 0.450689 2.5
      vertex 4.03429 0.385909 3.5
      vertex 4.03429 0.385909 2.5
    endloop
  endfacet
  facet normal 0.854382 0.519646 -0
    outer loop
      vertex 3.99489 0.450689 2.5
      vertex 3.99489 0.450689 3.5
      vertex 4.03429 0.385909 3.5
    endloop
  endfacet
  facet normal 0.746672 0.665192 0
    outer loop
      vertex 3.94447 0.507285 2.5
      vertex 3.99489 0.450689 3.5
      vertex 3.99489 0.450689 2.5
    endloop
  endfacet
  facet normal 0.746672 0.665192 -0
    outer loop
      vertex 3.94447 0.507285 2.5
      vertex 3.94447 0.507285 3.5
      vertex 3.99489 0.450689 3.5
    endloop
  endfacet
  facet normal 0.711628 0.702556 0
    outer loop
      vertex 2.70968 1.75802 2.5
      vertex 3.94447 0.507285 3.5
      vertex 3.94447 0.507285 2.5
    endloop
  endfacet
  facet normal 0.711628 0.702556 -0
    outer loop
      vertex 2.70968 1.75802 2.5
      vertex 2.70968 1.75802 3.5
      vertex 3.94447 0.507285 3.5
    endloop
  endfacet
  facet normal 1 0 0
    outer loop
      vertex 2.70968 2.20698 2.5
      vertex 2.70968 1.75802 3.5
      vertex 2.70968 1.75802 2.5
    endloop
  endfacet
  facet normal 1 0 -0
    outer loop
      vertex 2.70968 2.20698 2.5
      vertex 2.70968 2.20698 3.5
      vertex 2.70968 1.75802 3.5
    endloop
  endfacet
  facet normal 0.711312 -0.702877 0
    outer loop
      vertex 8.0495 7.61088 2.5
      vertex 2.70968 2.20698 3.5
      vertex 2.70968 2.20698 2.5
    endloop
  endfacet
  facet normal 0.711312 -0.702877 0
    outer loop
      vertex 8.0495 7.61088 2.5
      vertex 8.0495 7.61088 3.5
      vertex 2.70968 2.20698 3.5
    endloop
  endfacet
  facet normal 0.765531 -0.643399 0
    outer loop
      vertex 8.42216 8.05428 2.5
      vertex 8.0495 7.61088 3.5
      vertex 8.0495 7.61088 2.5
    endloop
  endfacet
  facet normal 0.765531 -0.643399 0
    outer loop
      vertex 8.42216 8.05428 2.5
      vertex 8.42216 8.05428 3.5
      vertex 8.0495 7.61088 3.5
    endloop
  endfacet
  facet normal 0.865725 -0.50052 0
    outer loop
      vertex 8.71208 8.55574 2.5
      vertex 8.42216 8.05428 3.5
      vertex 8.42216 8.05428 2.5
    endloop
  endfacet
  facet normal 0.865725 -0.50052 0
    outer loop
      vertex 8.71208 8.55574 2.5
      vertex 8.71208 8.55574 3.5
      vertex 8.42216 8.05428 3.5
    endloop
  endfacet
  facet normal 0.939543 -0.34243 0
    outer loop
      vertex 8.91044 9.09999 2.5
      vertex 8.71208 8.55574 3.5
      vertex 8.71208 8.55574 2.5
    endloop
  endfacet
  facet normal 0.939543 -0.34243 0
    outer loop
      vertex 8.91044 9.09999 2.5
      vertex 8.91044 9.09999 3.5
      vertex 8.71208 8.55574 3.5
    endloop
  endfacet
  facet normal 0.98479 -0.173751 0
    outer loop
      vertex 9.01108 9.6704 2.5
      vertex 8.91044 9.09999 3.5
      vertex 8.91044 9.09999 2.5
    endloop
  endfacet
  facet normal 0.98479 -0.173751 0
    outer loop
      vertex 9.01108 9.6704 2.5
      vertex 9.01108 9.6704 3.5
      vertex 8.91044 9.09999 3.5
    endloop
  endfacet
  facet normal 1 0 0
    outer loop
      vertex 9.01108 10.2497 2.5
      vertex 9.01108 9.6704 3.5
      vertex 9.01108 9.6704 2.5
    endloop
  endfacet
  facet normal 1 0 -0
    outer loop
      vertex 9.01108 10.2497 2.5
      vertex 9.01108 10.2497 3.5
      vertex 9.01108 9.6704 3.5
    endloop
  endfacet
  facet normal 0.984789 0.173754 0
    outer loop
      vertex 8.91044 10.8201 2.5
      vertex 9.01108 10.2497 3.5
      vertex 9.01108 10.2497 2.5
    endloop
  endfacet
  facet normal 0.984789 0.173754 -0
    outer loop
      vertex 8.91044 10.8201 2.5
      vertex 8.91044 10.8201 3.5
      vertex 9.01108 10.2497 3.5
    endloop
  endfacet
  facet normal 0.939533 0.342458 0
    outer loop
      vertex 8.71208 11.3643 2.5
      vertex 8.91044 10.8201 3.5
      vertex 8.91044 10.8201 2.5
    endloop
  endfacet
  facet normal 0.939533 0.342458 -0
    outer loop
      vertex 8.71208 11.3643 2.5
      vertex 8.71208 11.3643 3.5
      vertex 8.91044 10.8201 3.5
    endloop
  endfacet
  facet normal 0.865742 0.50049 0
    outer loop
      vertex 8.42216 11.8658 2.5
      vertex 8.71208 11.3643 3.5
      vertex 8.71208 11.3643 2.5
    endloop
  endfacet
  facet normal 0.865742 0.50049 -0
    outer loop
      vertex 8.42216 11.8658 2.5
      vertex 8.42216 11.8658 3.5
      vertex 8.71208 11.3643 3.5
    endloop
  endfacet
  facet normal 0.765531 0.643399 0
    outer loop
      vertex 8.0495 12.3092 2.5
      vertex 8.42216 11.8658 3.5
      vertex 8.42216 11.8658 2.5
    endloop
  endfacet
  facet normal 0.765531 0.643399 -0
    outer loop
      vertex 8.0495 12.3092 2.5
      vertex 8.0495 12.3092 3.5
      vertex 8.42216 11.8658 3.5
    endloop
  endfacet
  facet normal 0.708096 0.706116 0
    outer loop
      vertex 2.34091 18.0338 2.5
      vertex 8.0495 12.3092 3.5
      vertex 8.0495 12.3092 2.5
    endloop
  endfacet
  facet normal 0.708096 0.706116 -0
    outer loop
      vertex 2.34091 18.0338 2.5
      vertex 2.34091 18.0338 3.5
      vertex 8.0495 12.3092 3.5
    endloop
  endfacet
  facet normal 0.644356 0.764725 0
    outer loop
      vertex 1.8993 18.4059 2.5
      vertex 2.34091 18.0338 3.5
      vertex 2.34091 18.0338 2.5
    endloop
  endfacet
  facet normal 0.644356 0.764725 -0
    outer loop
      vertex 1.8993 18.4059 2.5
      vertex 1.8993 18.4059 3.5
      vertex 2.34091 18.0338 3.5
    endloop
  endfacet
  facet normal 0.50141 0.86521 0
    outer loop
      vertex 1.39958 18.6955 2.5
      vertex 1.8993 18.4059 3.5
      vertex 1.8993 18.4059 2.5
    endloop
  endfacet
  facet normal 0.50141 0.86521 -0
    outer loop
      vertex 1.39958 18.6955 2.5
      vertex 1.39958 18.6955 3.5
      vertex 1.8993 18.4059 3.5
    endloop
  endfacet
  facet normal 0.342882 0.939379 0
    outer loop
      vertex 0.857128 18.8935 2.5
      vertex 1.39958 18.6955 3.5
      vertex 1.39958 18.6955 2.5
    endloop
  endfacet
  facet normal 0.342882 0.939379 -0
    outer loop
      vertex 0.857128 18.8935 2.5
      vertex 0.857128 18.8935 3.5
      vertex 1.39958 18.6955 3.5
    endloop
  endfacet
  facet normal 0.1742 0.98471 0
    outer loop
      vertex 0.28846 18.9941 2.5
      vertex 0.857128 18.8935 3.5
      vertex 0.857128 18.8935 2.5
    endloop
  endfacet
  facet normal 0.1742 0.98471 -0
    outer loop
      vertex 0.28846 18.9941 2.5
      vertex 0.28846 18.9941 3.5
      vertex 0.857128 18.8935 3.5
    endloop
  endfacet
  facet normal 0 1 0
    outer loop
      vertex -0.288946 18.9941 2.5
      vertex 0.28846 18.9941 3.5
      vertex 0.28846 18.9941 2.5
    endloop
  endfacet
  facet normal 0 1 0
    outer loop
      vertex -0.288946 18.9941 2.5
      vertex -0.288946 18.9941 3.5
      vertex 0.28846 18.9941 3.5
    endloop
  endfacet
  facet normal -0.1742 0.98471 0
    outer loop
      vertex -0.857613 18.8935 2.5
      vertex -0.288946 18.9941 3.5
      vertex -0.288946 18.9941 2.5
    endloop
  endfacet
  facet normal -0.1742 0.98471 0
    outer loop
      vertex -0.857613 18.8935 2.5
      vertex -0.857613 18.8935 3.5
      vertex -0.288946 18.9941 3.5
    endloop
  endfacet
  facet normal -0.342885 0.939378 0
    outer loop
      vertex -1.40006 18.6955 2.5
      vertex -0.857613 18.8935 3.5
      vertex -0.857613 18.8935 2.5
    endloop
  endfacet
  facet normal -0.342885 0.939378 0
    outer loop
      vertex -1.40006 18.6955 2.5
      vertex -1.40006 18.6955 3.5
      vertex -0.857613 18.8935 3.5
    endloop
  endfacet
  facet normal -0.501455 0.865184 0
    outer loop
      vertex -1.89972 18.4059 2.5
      vertex -1.40006 18.6955 3.5
      vertex -1.40006 18.6955 2.5
    endloop
  endfacet
  facet normal -0.501455 0.865184 0
    outer loop
      vertex -1.89972 18.4059 2.5
      vertex -1.89972 18.4059 3.5
      vertex -1.40006 18.6955 3.5
    endloop
  endfacet
  facet normal -0.644365 0.764718 0
    outer loop
      vertex -2.34132 18.0338 2.5
      vertex -1.89972 18.4059 3.5
      vertex -1.89972 18.4059 2.5
    endloop
  endfacet
  facet normal -0.644365 0.764718 0
    outer loop
      vertex -2.34132 18.0338 2.5
      vertex -2.34132 18.0338 3.5
      vertex -1.89972 18.4059 3.5
    endloop
  endfacet
  facet normal -0.708096 0.706116 0
    outer loop
      vertex -8.04991 12.3092 2.5
      vertex -2.34132 18.0338 3.5
      vertex -2.34132 18.0338 2.5
    endloop
  endfacet
  facet normal -0.708096 0.706116 0
    outer loop
      vertex -8.04991 12.3092 2.5
      vertex -8.04991 12.3092 3.5
      vertex -2.34132 18.0338 3.5
    endloop
  endfacet
  facet normal -0.777751 0.628573 0
    outer loop
      vertex -8.45829 11.8039 2.5
      vertex -8.04991 12.3092 3.5
      vertex -8.04991 12.3092 2.5
    endloop
  endfacet
  facet normal -0.777751 0.628573 0
    outer loop
      vertex -8.45829 11.8039 2.5
      vertex -8.45829 11.8039 3.5
      vertex -8.04991 12.3092 3.5
    endloop
  endfacet
  facet normal -0.884432 0.46667 0
    outer loop
      vertex -8.76153 11.2292 2.5
      vertex -8.45829 11.8039 3.5
      vertex -8.45829 11.8039 2.5
    endloop
  endfacet
  facet normal -0.884432 0.46667 0
    outer loop
      vertex -8.76153 11.2292 2.5
      vertex -8.76153 11.2292 3.5
      vertex -8.45829 11.8039 3.5
    endloop
  endfacet
  facet normal -0.957902 0.287094 0
    outer loop
      vertex -8.9481 10.6067 2.5
      vertex -8.76153 11.2292 3.5
      vertex -8.76153 11.2292 2.5
    endloop
  endfacet
  facet normal -0.957902 0.287094 0
    outer loop
      vertex -8.9481 10.6067 2.5
      vertex -8.9481 10.6067 3.5
      vertex -8.76153 11.2292 3.5
    endloop
  endfacet
  facet normal -0.995291 0.0969341 0
    outer loop
      vertex -9.01108 9.96004 2.5
      vertex -8.9481 10.6067 3.5
      vertex -8.9481 10.6067 2.5
    endloop
  endfacet
  facet normal -0.995291 0.0969341 0
    outer loop
      vertex -9.01108 9.96004 2.5
      vertex -9.01108 9.96004 3.5
      vertex -8.9481 10.6067 3.5
    endloop
  endfacet
  facet normal -0.995291 -0.0969282 0
    outer loop
      vertex -8.9481 9.31334 2.5
      vertex -9.01108 9.96004 3.5
      vertex -9.01108 9.96004 2.5
    endloop
  endfacet
  facet normal -0.995291 -0.0969282 0
    outer loop
      vertex -8.9481 9.31334 2.5
      vertex -8.9481 9.31334 3.5
      vertex -9.01108 9.96004 3.5
    endloop
  endfacet
  facet normal -0.957892 -0.287128 0
    outer loop
      vertex -8.76153 8.69092 2.5
      vertex -8.9481 9.31334 3.5
      vertex -8.9481 9.31334 2.5
    endloop
  endfacet
  facet normal -0.957892 -0.287128 0
    outer loop
      vertex -8.76153 8.69092 2.5
      vertex -8.76153 8.69092 3.5
      vertex -8.9481 9.31334 3.5
    endloop
  endfacet
  facet normal -0.884432 -0.46667 0
    outer loop
      vertex -8.45829 8.11622 2.5
      vertex -8.76153 8.69092 3.5
      vertex -8.76153 8.69092 2.5
    endloop
  endfacet
  facet normal -0.884432 -0.46667 0
    outer loop
      vertex -8.45829 8.11622 2.5
      vertex -8.45829 8.11622 3.5
      vertex -8.76153 8.69092 3.5
    endloop
  endfacet
  facet normal -0.777775 -0.628543 0
    outer loop
      vertex -8.04991 7.61088 2.5
      vertex -8.45829 8.11622 3.5
      vertex -8.45829 8.11622 2.5
    endloop
  endfacet
  facet normal -0.777775 -0.628543 0
    outer loop
      vertex -8.04991 7.61088 2.5
      vertex -8.04991 7.61088 3.5
      vertex -8.45829 8.11622 3.5
    endloop
  endfacet
  facet normal -0.707102 -0.707111 0
    outer loop
      vertex -3.2393 2.80033 2.5
      vertex -8.04991 7.61088 3.5
      vertex -8.04991 7.61088 2.5
    endloop
  endfacet
  facet normal -0.707102 -0.707111 0
    outer loop
      vertex -3.2393 2.80033 2.5
      vertex -3.2393 2.80033 3.5
      vertex -8.04991 7.61088 3.5
    endloop
  endfacet
  facet normal -0.763002 -0.646396 0
    outer loop
      vertex -3.16086 2.70774 2.5
      vertex -3.2393 2.80033 3.5
      vertex -3.2393 2.80033 2.5
    endloop
  endfacet
  facet normal -0.763002 -0.646396 0
    outer loop
      vertex -3.16086 2.70774 2.5
      vertex -3.16086 2.70774 3.5
      vertex -3.2393 2.80033 3.5
    endloop
  endfacet
  facet normal -0.836576 -0.547851 0
    outer loop
      vertex -3.09441 2.60627 2.5
      vertex -3.16086 2.70774 3.5
      vertex -3.16086 2.70774 2.5
    endloop
  endfacet
  facet normal -0.836576 -0.547851 0
    outer loop
      vertex -3.09441 2.60627 2.5
      vertex -3.09441 2.60627 3.5
      vertex -3.16086 2.70774 3.5
    endloop
  endfacet
  facet normal -0.898526 -0.43892 0
    outer loop
      vertex -3.04115 2.49724 2.5
      vertex -3.09441 2.60627 3.5
      vertex -3.09441 2.60627 2.5
    endloop
  endfacet
  facet normal -0.898526 -0.43892 0
    outer loop
      vertex -3.04115 2.49724 2.5
      vertex -3.04115 2.49724 3.5
      vertex -3.09441 2.60627 3.5
    endloop
  endfacet
  facet normal -0.945598 -0.325338 0
    outer loop
      vertex -3.00168 2.38252 2.5
      vertex -3.04115 2.49724 3.5
      vertex -3.04115 2.49724 2.5
    endloop
  endfacet
  facet normal -0.945598 -0.325338 0
    outer loop
      vertex -3.00168 2.38252 2.5
      vertex -3.00168 2.38252 3.5
      vertex -3.04115 2.49724 3.5
    endloop
  endfacet
  facet normal -0.978712 -0.205238 0
    outer loop
      vertex -2.97678 2.26378 2.5
      vertex -3.00168 2.38252 3.5
      vertex -3.00168 2.38252 2.5
    endloop
  endfacet
  facet normal -0.978712 -0.205238 0
    outer loop
      vertex -2.97678 2.26378 2.5
      vertex -2.97678 2.26378 3.5
      vertex -3.00168 2.38252 3.5
    endloop
  endfacet
  facet normal -0.996555 -0.0829295 0
    outer loop
      vertex -2.96672 2.14289 2.5
      vertex -2.97678 2.26378 3.5
      vertex -2.97678 2.26378 2.5
    endloop
  endfacet
  facet normal -0.996555 -0.0829295 0
    outer loop
      vertex -2.96672 2.14289 2.5
      vertex -2.96672 2.14289 3.5
      vertex -2.97678 2.26378 3.5
    endloop
  endfacet
  facet normal -1 0 0
    outer loop
      vertex -2.96672 -6.70867 2.5
      vertex -2.96672 2.14289 3.5
      vertex -2.96672 2.14289 2.5
    endloop
  endfacet
  facet normal -1 0 0
    outer loop
      vertex -2.96672 -6.70867 2.5
      vertex -2.96672 -6.70867 3.5
      vertex -2.96672 2.14289 3.5
    endloop
  endfacet
  facet normal -0.998687 -0.0512286 0
    outer loop
      vertex -2.95916 -6.85605 2.5
      vertex -2.96672 -6.70867 3.5
      vertex -2.96672 -6.70867 2.5
    endloop
  endfacet
  facet normal -0.998687 -0.0512286 0
    outer loop
      vertex -2.95916 -6.85605 2.5
      vertex -2.95916 -6.85605 3.5
      vertex -2.96672 -6.70867 3.5
    endloop
  endfacet
  facet normal -0.98325 -0.182264 0
    outer loop
      vertex -2.93225 -7.00122 2.5
      vertex -2.95916 -6.85605 3.5
      vertex -2.95916 -6.85605 2.5
    endloop
  endfacet
  facet normal -0.98325 -0.182264 0
    outer loop
      vertex -2.93225 -7.00122 2.5
      vertex -2.93225 -7.00122 3.5
      vertex -2.95916 -6.85605 3.5
    endloop
  endfacet
  facet normal -0.950882 -0.309555 0
    outer loop
      vertex -2.88655 -7.1416 2.5
      vertex -2.93225 -7.00122 3.5
      vertex -2.93225 -7.00122 2.5
    endloop
  endfacet
  facet normal -0.950882 -0.309555 0
    outer loop
      vertex -2.88655 -7.1416 2.5
      vertex -2.88655 -7.1416 3.5
      vertex -2.93225 -7.00122 3.5
    endloop
  endfacet
  facet normal -0.902187 -0.431345 0
    outer loop
      vertex -2.82288 -7.27477 2.5
      vertex -2.88655 -7.1416 3.5
      vertex -2.88655 -7.1416 2.5
    endloop
  endfacet
  facet normal -0.902187 -0.431345 0
    outer loop
      vertex -2.82288 -7.27477 2.5
      vertex -2.82288 -7.27477 3.5
      vertex -2.88655 -7.1416 3.5
    endloop
  endfacet
  facet normal -0.837542 -0.546373 0
    outer loop
      vertex -2.74221 -7.39843 2.5
      vertex -2.82288 -7.27477 3.5
      vertex -2.82288 -7.27477 2.5
    endloop
  endfacet
  facet normal -0.837542 -0.546373 0
    outer loop
      vertex -2.74221 -7.39843 2.5
      vertex -2.74221 -7.39843 3.5
      vertex -2.82288 -7.27477 3.5
    endloop
  endfacet
  facet normal -0.758644 -0.651505 0
    outer loop
      vertex -2.64601 -7.51045 2.5
      vertex -2.74221 -7.39843 3.5
      vertex -2.74221 -7.39843 2.5
    endloop
  endfacet
  facet normal -0.758644 -0.651505 0
    outer loop
      vertex -2.64601 -7.51045 2.5
      vertex -2.64601 -7.51045 3.5
      vertex -2.74221 -7.39843 3.5
    endloop
  endfacet
  facet normal -0.707106 -0.707107 0
    outer loop
      vertex -0.481276 -9.67518 2.5
      vertex -2.64601 -7.51045 3.5
      vertex -2.64601 -7.51045 2.5
    endloop
  endfacet
  facet normal -0.707106 -0.707107 0
    outer loop
      vertex -0.481276 -9.67518 2.5
      vertex -0.481276 -9.67518 3.5
      vertex -2.64601 -7.51045 3.5
    endloop
  endfacet
  facet normal -0.668232 -0.743953 0
    outer loop
      vertex -0.383204 -9.76327 2.5
      vertex -0.481276 -9.67518 3.5
      vertex -0.481276 -9.67518 2.5
    endloop
  endfacet
  facet normal -0.668232 -0.743953 0
    outer loop
      vertex -0.383204 -9.76327 2.5
      vertex -0.383204 -9.76327 3.5
      vertex -0.481276 -9.67518 3.5
    endloop
  endfacet
  facet normal -0.521729 -0.853111 0
    outer loop
      vertex -0.270705 -9.83207 2.5
      vertex -0.383204 -9.76327 3.5
      vertex -0.383204 -9.76327 2.5
    endloop
  endfacet
  facet normal -0.521729 -0.853111 0
    outer loop
      vertex -0.270705 -9.83207 2.5
      vertex -0.270705 -9.83207 3.5
      vertex -0.383204 -9.76327 3.5
    endloop
  endfacet
  facet normal -0.357721 -0.933829 0
    outer loop
      vertex -0.147594 -9.87923 2.5
      vertex -0.270705 -9.83207 3.5
      vertex -0.270705 -9.83207 2.5
    endloop
  endfacet
  facet normal -0.357721 -0.933829 0
    outer loop
      vertex -0.147594 -9.87923 2.5
      vertex -0.147594 -9.87923 3.5
      vertex -0.270705 -9.83207 3.5
    endloop
  endfacet
  facet normal -0.181535 -0.983385 0
    outer loop
      vertex -0.0179638 -9.90316 2.5
      vertex -0.147594 -9.87923 3.5
      vertex -0.147594 -9.87923 2.5
    endloop
  endfacet
  facet normal -0.181535 -0.983385 0
    outer loop
      vertex -0.0179638 -9.90316 2.5
      vertex -0.0179638 -9.90316 3.5
      vertex -0.147594 -9.87923 3.5
    endloop
  endfacet
  facet normal 0 -1 0
    outer loop
      vertex 0.113747 -9.90316 2.5
      vertex -0.0179638 -9.90316 3.5
      vertex -0.0179638 -9.90316 2.5
    endloop
  endfacet
  facet normal 0 -1 0
    outer loop
      vertex 0.113747 -9.90316 2.5
      vertex 0.113747 -9.90316 3.5
      vertex -0.0179638 -9.90316 3.5
    endloop
  endfacet
  facet normal 0.181534 -0.983385 0
    outer loop
      vertex 0.243378 -9.87923 2.5
      vertex 0.113747 -9.90316 3.5
      vertex 0.113747 -9.90316 2.5
    endloop
  endfacet
  facet normal 0.181534 -0.983385 0
    outer loop
      vertex 0.243378 -9.87923 2.5
      vertex 0.243378 -9.87923 3.5
      vertex 0.113747 -9.90316 3.5
    endloop
  endfacet
  facet normal 0.384552 0.923103 -0
    outer loop
      vertex -0.933283 13.1257 2.5
      vertex -0.933283 13.1257 3.5
      vertex -0.478155 12.9361 2.5
    endloop
  endfacet
  facet normal 0.384552 0.923103 0
    outer loop
      vertex -0.478155 12.9361 3.5
      vertex -0.478155 12.9361 2.5
      vertex -0.933283 13.1257 3.5
    endloop
  endfacet
  facet normal 0.610174 0.792267 -0
    outer loop
      vertex -1.32398 13.4266 2.5
      vertex -1.32398 13.4266 3.5
      vertex -0.933283 13.1257 2.5
    endloop
  endfacet
  facet normal 0.610174 0.792267 0
    outer loop
      vertex -0.933283 13.1257 3.5
      vertex -0.933283 13.1257 2.5
      vertex -1.32398 13.4266 3.5
    endloop
  endfacet
  facet normal 0.794057 0.607844 -0
    outer loop
      vertex -1.62367 13.8181 2.5
      vertex -1.62367 13.8181 3.5
      vertex -1.32398 13.4266 2.5
    endloop
  endfacet
  facet normal 0.794057 0.607844 0
    outer loop
      vertex -1.32398 13.4266 3.5
      vertex -1.32398 13.4266 2.5
      vertex -1.62367 13.8181 3.5
    endloop
  endfacet
  facet normal 0.92415 0.382031 -0
    outer loop
      vertex -1.81205 14.2738 2.5
      vertex -1.81205 14.2738 3.5
      vertex -1.62367 13.8181 2.5
    endloop
  endfacet
  facet normal 0.92415 0.382031 0
    outer loop
      vertex -1.62367 13.8181 3.5
      vertex -1.62367 13.8181 2.5
      vertex -1.81205 14.2738 3.5
    endloop
  endfacet
  facet normal 0.991458 0.130423 -0
    outer loop
      vertex -1.87635 14.7626 2.5
      vertex -1.87635 14.7626 3.5
      vertex -1.81205 14.2738 2.5
    endloop
  endfacet
  facet normal 0.991458 0.130423 0
    outer loop
      vertex -1.81205 14.2738 3.5
      vertex -1.81205 14.2738 2.5
      vertex -1.87635 14.7626 3.5
    endloop
  endfacet
  facet normal 0.996867 -0.0790986 0
    outer loop
      vertex -1.85034 15.0904 2.5
      vertex -1.85034 15.0904 3.5
      vertex -1.87635 14.7626 2.5
    endloop
  endfacet
  facet normal 0.996867 -0.0790986 0
    outer loop
      vertex -1.87635 14.7626 3.5
      vertex -1.87635 14.7626 2.5
      vertex -1.85034 15.0904 3.5
    endloop
  endfacet
  facet normal 0.967705 -0.252084 0
    outer loop
      vertex -1.76745 15.4086 2.5
      vertex -1.76745 15.4086 3.5
      vertex -1.85034 15.0904 2.5
    endloop
  endfacet
  facet normal 0.967705 -0.252084 0
    outer loop
      vertex -1.85034 15.0904 3.5
      vertex -1.85034 15.0904 2.5
      vertex -1.76745 15.4086 3.5
    endloop
  endfacet
  facet normal 0.908922 -0.416967 0
    outer loop
      vertex -1.63033 15.7075 2.5
      vertex -1.63033 15.7075 3.5
      vertex -1.76745 15.4086 2.5
    endloop
  endfacet
  facet normal 0.908922 -0.416967 0
    outer loop
      vertex -1.76745 15.4086 3.5
      vertex -1.76745 15.4086 2.5
      vertex -1.63033 15.7075 3.5
    endloop
  endfacet
  facet normal 0.822094 -0.569352 0
    outer loop
      vertex -1.44313 15.9778 2.5
      vertex -1.44313 15.9778 3.5
      vertex -1.63033 15.7075 2.5
    endloop
  endfacet
  facet normal 0.822094 -0.569352 0
    outer loop
      vertex -1.63033 15.7075 3.5
      vertex -1.63033 15.7075 2.5
      vertex -1.44313 15.9778 3.5
    endloop
  endfacet
  facet normal 0.710126 -0.704074 0
    outer loop
      vertex -1.21162 16.2113 2.5
      vertex -1.21162 16.2113 3.5
      vertex -1.44313 15.9778 2.5
    endloop
  endfacet
  facet normal 0.710126 -0.704074 0
    outer loop
      vertex -1.44313 15.9778 3.5
      vertex -1.44313 15.9778 2.5
      vertex -1.21162 16.2113 3.5
    endloop
  endfacet
  facet normal 0.576343 -0.817208 0
    outer loop
      vertex -0.942924 16.4008 2.5
      vertex -0.942924 16.4008 3.5
      vertex -1.21162 16.2113 2.5
    endloop
  endfacet
  facet normal 0.576343 -0.817208 0
    outer loop
      vertex -1.21162 16.2113 3.5
      vertex -1.21162 16.2113 2.5
      vertex -0.942924 16.4008 3.5
    endloop
  endfacet
  facet normal 0.424833 -0.905272 0
    outer loop
      vertex -0.645239 16.5405 2.5
      vertex -0.645239 16.5405 3.5
      vertex -0.942924 16.4008 2.5
    endloop
  endfacet
  facet normal 0.424833 -0.905272 0
    outer loop
      vertex -0.942924 16.4008 3.5
      vertex -0.942924 16.4008 2.5
      vertex -0.645239 16.5405 3.5
    endloop
  endfacet
  facet normal 0.260011 -0.965606 0
    outer loop
      vertex -0.327717 16.626 2.5
      vertex -0.327717 16.626 3.5
      vertex -0.645239 16.5405 2.5
    endloop
  endfacet
  facet normal 0.260011 -0.965606 0
    outer loop
      vertex -0.645239 16.5405 3.5
      vertex -0.645239 16.5405 2.5
      vertex -0.327717 16.626 3.5
    endloop
  endfacet
  facet normal 0.0875985 -0.996156 0
    outer loop
      vertex -0.000208074 16.6548 2.5
      vertex -0.000208074 16.6548 3.5
      vertex -0.327717 16.626 2.5
    endloop
  endfacet
  facet normal 0.0875985 -0.996156 0
    outer loop
      vertex -0.327717 16.626 3.5
      vertex -0.327717 16.626 2.5
      vertex -0.000208074 16.6548 3.5
    endloop
  endfacet
  facet normal 0 -1 0
    outer loop
      vertex 0.0318354 16.6548 2.5
      vertex 0.0318354 16.6548 3.5
      vertex -0.000208074 16.6548 2.5
    endloop
  endfacet
  facet normal 0 -1 0
    outer loop
      vertex -0.000208074 16.6548 3.5
      vertex -0.000208074 16.6548 2.5
      vertex 0.0318354 16.6548 3.5
    endloop
  endfacet
  facet normal -0.138729 -0.99033 0
    outer loop
      vertex 0.520117 16.5864 2.5
      vertex 0.520117 16.5864 3.5
      vertex 0.0318354 16.6548 2.5
    endloop
  endfacet
  facet normal -0.138729 -0.99033 -0
    outer loop
      vertex 0.0318354 16.6548 3.5
      vertex 0.0318354 16.6548 2.5
      vertex 0.520117 16.5864 3.5
    endloop
  endfacet
  facet normal -0.389788 -0.920904 0
    outer loop
      vertex 0.974204 16.3942 2.5
      vertex 0.974204 16.3942 3.5
      vertex 0.520117 16.5864 2.5
    endloop
  endfacet
  facet normal -0.389788 -0.920904 -0
    outer loop
      vertex 0.520117 16.5864 3.5
      vertex 0.520117 16.5864 2.5
      vertex 0.974204 16.3942 3.5
    endloop
  endfacet
  facet normal -0.614545 -0.788882 0
    outer loop
      vertex 1.36316 16.0912 2.5
      vertex 1.36316 16.0912 3.5
      vertex 0.974204 16.3942 2.5
    endloop
  endfacet
  facet normal -0.614545 -0.788882 -0
    outer loop
      vertex 0.974204 16.3942 3.5
      vertex 0.974204 16.3942 2.5
      vertex 1.36316 16.0912 3.5
    endloop
  endfacet
  facet normal -0.797481 -0.603344 0
    outer loop
      vertex 1.66064 15.698 2.5
      vertex 1.66064 15.698 3.5
      vertex 1.36316 16.0912 2.5
    endloop
  endfacet
  facet normal -0.797481 -0.603344 -0
    outer loop
      vertex 1.36316 16.0912 3.5
      vertex 1.36316 16.0912 2.5
      vertex 1.66064 15.698 3.5
    endloop
  endfacet
  facet normal -0.9263 -0.376786 0
    outer loop
      vertex 1.84645 15.2412 2.5
      vertex 1.84645 15.2412 3.5
      vertex 1.66064 15.698 2.5
    endloop
  endfacet
  facet normal -0.9263 -0.376786 -0
    outer loop
      vertex 1.66064 15.698 3.5
      vertex 1.66064 15.698 2.5
      vertex 1.84645 15.2412 3.5
    endloop
  endfacet
  facet normal -0.992203 -0.124634 0
    outer loop
      vertex 1.9079 14.752 2.5
      vertex 1.9079 14.752 3.5
      vertex 1.84645 15.2412 2.5
    endloop
  endfacet
  facet normal -0.992203 -0.124634 -0
    outer loop
      vertex 1.84645 15.2412 3.5
      vertex 1.84645 15.2412 2.5
      vertex 1.9079 14.752 3.5
    endloop
  endfacet
  facet normal -0.990725 0.135882 0
    outer loop
      vertex 1.8409 14.2635 2.5
      vertex 1.8409 14.2635 3.5
      vertex 1.9079 14.752 2.5
    endloop
  endfacet
  facet normal -0.990725 0.135882 0
    outer loop
      vertex 1.9079 14.752 3.5
      vertex 1.9079 14.752 2.5
      vertex 1.8409 14.2635 3.5
    endloop
  endfacet
  facet normal -0.921976 0.387246 0
    outer loop
      vertex 1.64996 13.8089 2.5
      vertex 1.64996 13.8089 3.5
      vertex 1.8409 14.2635 2.5
    endloop
  endfacet
  facet normal -0.921976 0.387246 0
    outer loop
      vertex 1.8409 14.2635 3.5
      vertex 1.8409 14.2635 2.5
      vertex 1.64996 13.8089 3.5
    endloop
  endfacet
  facet normal -0.790656 0.612261 0
    outer loop
      vertex 1.34811 13.4191 2.5
      vertex 1.34811 13.4191 3.5
      vertex 1.64996 13.8089 2.5
    endloop
  endfacet
  facet normal -0.790656 0.612261 0
    outer loop
      vertex 1.64996 13.8089 3.5
      vertex 1.64996 13.8089 2.5
      vertex 1.34811 13.4191 3.5
    endloop
  endfacet
  facet normal -0.605543 0.795813 0
    outer loop
      vertex 0.955686 13.1205 2.5
      vertex 0.955686 13.1205 3.5
      vertex 1.34811 13.4191 2.5
    endloop
  endfacet
  facet normal -0.605543 0.795813 0
    outer loop
      vertex 1.34811 13.4191 3.5
      vertex 1.34811 13.4191 2.5
      vertex 0.955686 13.1205 3.5
    endloop
  endfacet
  facet normal -0.379476 0.925202 0
    outer loop
      vertex 0.499517 12.9334 2.5
      vertex 0.499517 12.9334 3.5
      vertex 0.955686 13.1205 2.5
    endloop
  endfacet
  facet normal -0.379476 0.925202 0
    outer loop
      vertex 0.955686 13.1205 3.5
      vertex 0.955686 13.1205 2.5
      vertex 0.499517 12.9334 3.5
    endloop
  endfacet
  facet normal -0.127567 0.99183 0
    outer loop
      vertex 0.0104731 12.8705 2.5
      vertex 0.0104731 12.8705 3.5
      vertex 0.499517 12.9334 2.5
    endloop
  endfacet
  facet normal -0.127567 0.99183 0
    outer loop
      vertex 0.499517 12.9334 3.5
      vertex 0.499517 12.9334 2.5
      vertex 0.0104731 12.8705 3.5
    endloop
  endfacet
  facet normal 0.13306 0.991108 -0
    outer loop
      vertex -0.478155 12.9361 2.5
      vertex -0.478155 12.9361 3.5
      vertex 0.0104731 12.8705 2.5
    endloop
  endfacet
  facet normal 0.13306 0.991108 0
    outer loop
      vertex 0.0104731 12.8705 3.5
      vertex 0.0104731 12.8705 2.5
      vertex -0.478155 12.9361 3.5
    endloop
  endfacet
endsolid OpenSCAD_Model
