solid OpenSCAD_Model
  facet normal 0 0 -1
    outer loop
      vertex 3.04745 -16.4728 2.5
      vertex 5.04417 -16.4728 2.5
      vertex 4.29068 -17.0986 2.5
    endloop
  endfacet
  facet normal 0 0 -1
    outer loop
      vertex 4.29068 -17.0986 2.5
      vertex 5.04417 -18.8866 2.5
      vertex 4.29068 -18.608 2.5
    endloop
  endfacet
  facet normal 0 0 -1
    outer loop
      vertex 3.04745 -16.4728 2.5
      vertex 4.29068 -17.0986 2.5
      vertex 3.04745 -17.0986 2.5
    endloop
  endfacet
  facet normal 0 0 -1
    outer loop
      vertex 4.29068 -18.608 2.5
      vertex 5.04417 -18.8866 2.5
      vertex 4.74028 -19.0782 2.5
    endloop
  endfacet
  facet normal 0 0 -1
    outer loop
      vertex 4.41628 -19.2359 2.5
      vertex 4.1153 -18.6974 2.5
      vertex 4.29068 -18.608 2.5
    endloop
  endfacet
  facet normal -0 0 -1
    outer loop
      vertex 4.41628 -19.2359 2.5
      vertex 4.07217 -19.3597 2.5
      vertex 4.1153 -18.6974 2.5
    endloop
  endfacet
  facet normal 0 -0 -1
    outer loop
      vertex 3.72179 -18.8245 2.5
      vertex 4.07217 -19.3597 2.5
      vertex 3.71011 -19.4487 2.5
    endloop
  endfacet
  facet normal -0 0 -1
    outer loop
      vertex 3.00223 -18.8942 2.5
      vertex 2.93823 -19.5199 2.5
      vertex 2.37122 -18.8301 2.5
    endloop
  endfacet
  facet normal 0 0 -1
    outer loop
      vertex 4.1153 -18.6974 2.5
      vertex 4.07217 -19.3597 2.5
      vertex 3.92566 -18.7695 2.5
    endloop
  endfacet
  facet normal 0 0 -1
    outer loop
      vertex 4.29068 -17.0986 2.5
      vertex 5.04417 -16.4728 2.5
      vertex 5.04417 -18.8866 2.5
    endloop
  endfacet
  facet normal 0 0 -1
    outer loop
      vertex 4.41628 -19.2359 2.5
      vertex 4.29068 -18.608 2.5
      vertex 4.74028 -19.0782 2.5
    endloop
  endfacet
  facet normal 0 0 -1
    outer loop
      vertex 4.07217 -19.3597 2.5
      vertex 3.72179 -18.8245 2.5
      vertex 3.92566 -18.7695 2.5
    endloop
  endfacet
  facet normal 0 0 -1
    outer loop
      vertex 3.71011 -19.4487 2.5
      vertex 3.50119 -18.8632 2.5
      vertex 3.72179 -18.8245 2.5
    endloop
  endfacet
  facet normal -0 0 -1
    outer loop
      vertex 3.71011 -19.4487 2.5
      vertex 3.33212 -19.5021 2.5
      vertex 3.50119 -18.8632 2.5
    endloop
  endfacet
  facet normal 0 0 -1
    outer loop
      vertex 3.50119 -18.8632 2.5
      vertex 3.33212 -19.5021 2.5
      vertex 3.26134 -18.8864 2.5
    endloop
  endfacet
  facet normal 0 -0 -1
    outer loop
      vertex 3.26134 -18.8864 2.5
      vertex 3.33212 -19.5021 2.5
      vertex 3.00223 -18.8942 2.5
    endloop
  endfacet
  facet normal 0 -0 -1
    outer loop
      vertex 3.00223 -18.8942 2.5
      vertex 3.33212 -19.5021 2.5
      vertex 2.93823 -19.5199 2.5
    endloop
  endfacet
  facet normal 0 0 -1
    outer loop
      vertex 2.123 -19.4343 2.5
      vertex 1.43544 -19.1774 2.5
      vertex 1.85448 -18.6379 2.5
    endloop
  endfacet
  facet normal 0 0 -1
    outer loop
      vertex 0.462204 -18.1681 2.5
      vertex 1.16423 -17.8707 2.5
      vertex 0.875565 -18.7492 2.5
    endloop
  endfacet
  facet normal 0 0 -1
    outer loop
      vertex 0.875565 -18.7492 2.5
      vertex 1.16423 -17.8707 2.5
      vertex 1.45201 -18.3175 2.5
    endloop
  endfacet
  facet normal 0 0 -1
    outer loop
      vertex 0.462204 -18.1681 2.5
      vertex 0.214188 -17.4526 2.5
      vertex 0.991562 -17.2991 2.5
    endloop
  endfacet
  facet normal 0 0 -1
    outer loop
      vertex 0.991562 -17.2991 2.5
      vertex 0.131516 -16.6027 2.5
      vertex 0.934006 -16.6027 2.5
    endloop
  endfacet
  facet normal 0 0 -1
    outer loop
      vertex 0.131516 -16.6027 2.5
      vertex 0.214188 -15.7507 2.5
      vertex 0.991562 -15.9042 2.5
    endloop
  endfacet
  facet normal 0 0 -1
    outer loop
      vertex 0.991562 -15.9042 2.5
      vertex 0.462204 -15.034 2.5
      vertex 1.16423 -15.3314 2.5
    endloop
  endfacet
  facet normal 0 0 -1
    outer loop
      vertex 1.16423 -15.3314 2.5
      vertex 0.875565 -14.4525 2.5
      vertex 1.45201 -14.8842 2.5
    endloop
  endfacet
  facet normal 0 0 -1
    outer loop
      vertex 1.45201 -14.8842 2.5
      vertex 1.43544 -14.0243 2.5
      vertex 1.85449 -14.5638 2.5
    endloop
  endfacet
  facet normal 0 0 -1
    outer loop
      vertex 1.85449 -14.5638 2.5
      vertex 2.12297 -13.7674 2.5
      vertex 2.37125 -14.3716 2.5
    endloop
  endfacet
  facet normal 0 0 -1
    outer loop
      vertex 2.93817 -13.6817 2.5
      vertex 3.29881 -13.6968 2.5
      vertex 3.00229 -14.3075 2.5
    endloop
  endfacet
  facet normal -0 0 -1
    outer loop
      vertex 3.98363 -13.817 2.5
      vertex 3.67873 -14.3877 2.5
      vertex 3.64729 -13.7418 2.5
    endloop
  endfacet
  facet normal -0 0 -1
    outer loop
      vertex 4.30533 -13.9213 2.5
      vertex 4.00063 -14.488 2.5
      vertex 3.98363 -13.817 2.5
    endloop
  endfacet
  facet normal 0 -0 -1
    outer loop
      vertex 4.30533 -13.9213 2.5
      vertex 4.3112 -14.628 2.5
      vertex 4.00063 -14.488 2.5
    endloop
  endfacet
  facet normal 0 0 -1
    outer loop
      vertex 4.30533 -13.9213 2.5
      vertex 4.60986 -14.054 2.5
      vertex 4.3112 -14.628 2.5
    endloop
  endfacet
  facet normal 0 0 -1
    outer loop
      vertex 4.3112 -14.628 2.5
      vertex 4.60986 -14.054 2.5
      vertex 4.89723 -14.2151 2.5
    endloop
  endfacet
  facet normal 0 0 -1
    outer loop
      vertex 4.61008 -14.8072 2.5
      vertex 4.3112 -14.628 2.5
      vertex 4.89723 -14.2151 2.5
    endloop
  endfacet
  facet normal 0 0 -1
    outer loop
      vertex 4.89723 -15.0257 2.5
      vertex 4.61008 -14.8072 2.5
      vertex 4.89723 -14.2151 2.5
    endloop
  endfacet
  facet normal 0 -0 -1
    outer loop
      vertex 3.98363 -13.817 2.5
      vertex 4.00063 -14.488 2.5
      vertex 3.67873 -14.3877 2.5
    endloop
  endfacet
  facet normal 0 -0 -1
    outer loop
      vertex 3.64729 -13.7418 2.5
      vertex 3.67873 -14.3877 2.5
      vertex 3.34596 -14.3276 2.5
    endloop
  endfacet
  facet normal 0 0 -1
    outer loop
      vertex 3.29881 -13.6968 2.5
      vertex 3.64729 -13.7418 2.5
      vertex 3.34596 -14.3276 2.5
    endloop
  endfacet
  facet normal 0 0 -1
    outer loop
      vertex 3.00229 -14.3075 2.5
      vertex 3.29881 -13.6968 2.5
      vertex 3.34596 -14.3276 2.5
    endloop
  endfacet
  facet normal 0 0 -1
    outer loop
      vertex 2.37125 -14.3716 2.5
      vertex 2.93817 -13.6817 2.5
      vertex 3.00229 -14.3075 2.5
    endloop
  endfacet
  facet normal 0 0 -1
    outer loop
      vertex 2.37125 -14.3716 2.5
      vertex 2.12297 -13.7674 2.5
      vertex 2.93817 -13.6817 2.5
    endloop
  endfacet
  facet normal 0 0 -1
    outer loop
      vertex 1.85449 -14.5638 2.5
      vertex 1.43544 -14.0243 2.5
      vertex 2.12297 -13.7674 2.5
    endloop
  endfacet
  facet normal 0 0 -1
    outer loop
      vertex 1.45201 -14.8842 2.5
      vertex 0.875565 -14.4525 2.5
      vertex 1.43544 -14.0243 2.5
    endloop
  endfacet
  facet normal 0 0 -1
    outer loop
      vertex 1.16423 -15.3314 2.5
      vertex 0.462204 -15.034 2.5
      vertex 0.875565 -14.4525 2.5
    endloop
  endfacet
  facet normal 0 -0 -1
    outer loop
      vertex -2.4736 -13.8296 2.5
      vertex -2.44847 -14.5219 2.5
      vertex -2.72539 -14.4384 2.5
    endloop
  endfacet
  facet normal 0 0 -1
    outer loop
      vertex 0.991562 -15.9042 2.5
      vertex 0.214188 -15.7507 2.5
      vertex 0.462204 -15.034 2.5
    endloop
  endfacet
  facet normal 0 0 -1
    outer loop
      vertex 0.934006 -16.6027 2.5
      vertex 0.131516 -16.6027 2.5
      vertex 0.991562 -15.9042 2.5
    endloop
  endfacet
  facet normal 0 0 -1
    outer loop
      vertex -1.98195 -15.7063 2.5
      vertex -1.17574 -15.7379 2.5
      vertex -1.258 -16.0317 2.5
    endloop
  endfacet
  facet normal -0 0 -1
    outer loop
      vertex 0.991562 -17.2991 2.5
      vertex 0.214188 -17.4526 2.5
      vertex 0.131516 -16.6027 2.5
    endloop
  endfacet
  facet normal 0 0 -1
    outer loop
      vertex -1.14832 -15.4041 2.5
      vertex -1.17574 -15.7379 2.5
      vertex -1.95076 -15.4042 2.5
    endloop
  endfacet
  facet normal -0 0 -1
    outer loop
      vertex 1.16423 -17.8707 2.5
      vertex 0.462204 -18.1681 2.5
      vertex 0.991562 -17.2991 2.5
    endloop
  endfacet
  facet normal 0 0 -1
    outer loop
      vertex -2.11276 -16.7709 2.5
      vertex -2.72539 -16.3771 2.5
      vertex -2.44847 -16.2924 2.5
    endloop
  endfacet
  facet normal 0 0 -1
    outer loop
      vertex 1.43544 -19.1774 2.5
      vertex 0.875565 -18.7492 2.5
      vertex 1.45201 -18.3175 2.5
    endloop
  endfacet
  facet normal 0 -0 -1
    outer loop
      vertex -1.63622 -17.1253 2.5
      vertex -1.48152 -17.3289 2.5
      vertex -2.11967 -17.6313 2.5
    endloop
  endfacet
  facet normal -0 0 -1
    outer loop
      vertex 1.85448 -18.6379 2.5
      vertex 1.43544 -19.1774 2.5
      vertex 1.45201 -18.3175 2.5
    endloop
  endfacet
  facet normal 0 0 -1
    outer loop
      vertex -1.21616 -19.4097 2.5
      vertex -1.93571 -17.9659 2.5
      vertex -1.17093 -17.8717 2.5
    endloop
  endfacet
  facet normal -0 0 -1
    outer loop
      vertex 2.37122 -18.8301 2.5
      vertex 2.123 -19.4343 2.5
      vertex 1.85448 -18.6379 2.5
    endloop
  endfacet
  facet normal 0 -0 -1
    outer loop
      vertex 2.37122 -18.8301 2.5
      vertex 2.93823 -19.5199 2.5
      vertex 2.123 -19.4343 2.5
    endloop
  endfacet
  facet normal -0 0 -1
    outer loop
      vertex -4.0191 -17.031 2.5
      vertex -4.78009 -19.4097 2.5
      vertex -4.0191 -16.4053 2.5
    endloop
  endfacet
  facet normal 0 0 -1
    outer loop
      vertex -2.47632 -17.2158 2.5
      vertex -2.11276 -16.7709 2.5
      vertex -2.29988 -17.3812 2.5
    endloop
  endfacet
  facet normal -0 0 -1
    outer loop
      vertex -1.63622 -17.1253 2.5
      vertex -2.29988 -17.3812 2.5
      vertex -1.79211 -16.9653 2.5
    endloop
  endfacet
  facet normal 0 0 -1
    outer loop
      vertex -2.0755 -15.9554 2.5
      vertex -1.258 -16.0317 2.5
      vertex -1.3951 -16.2852 2.5
    endloop
  endfacet
  facet normal -0 0 -1
    outer loop
      vertex -1.32643 -17.5776 2.5
      vertex -1.93571 -17.9659 2.5
      vertex -1.48152 -17.3289 2.5
    endloop
  endfacet
  facet normal 0 0 -1
    outer loop
      vertex -1.93571 -17.9659 2.5
      vertex -1.32643 -17.5776 2.5
      vertex -1.17093 -17.8717 2.5
    endloop
  endfacet
  facet normal 0 0 -1
    outer loop
      vertex -1.21616 -19.4097 2.5
      vertex -1.17093 -17.8717 2.5
      vertex -0.398651 -19.4097 2.5
    endloop
  endfacet
  facet normal 0 0 -1
    outer loop
      vertex -1.48152 -17.3289 2.5
      vertex -1.93571 -17.9659 2.5
      vertex -2.11967 -17.6313 2.5
    endloop
  endfacet
  facet normal 0 0 -1
    outer loop
      vertex -1.63622 -17.1253 2.5
      vertex -2.11967 -17.6313 2.5
      vertex -2.29988 -17.3812 2.5
    endloop
  endfacet
  facet normal -0 0 -1
    outer loop
      vertex -1.79211 -16.9653 2.5
      vertex -2.29988 -17.3812 2.5
      vertex -1.95097 -16.8472 2.5
    endloop
  endfacet
  facet normal 0 0 -1
    outer loop
      vertex -2.29988 -17.3812 2.5
      vertex -2.11276 -16.7709 2.5
      vertex -1.95097 -16.8472 2.5
    endloop
  endfacet
  facet normal 0 0 -1
    outer loop
      vertex -2.47632 -17.2158 2.5
      vertex -2.67201 -17.1132 2.5
      vertex -2.11276 -16.7709 2.5
    endloop
  endfacet
  facet normal 0 0 -1
    outer loop
      vertex -2.67201 -17.1132 2.5
      vertex -2.72539 -16.3771 2.5
      vertex -2.11276 -16.7709 2.5
    endloop
  endfacet
  facet normal 0 0 -1
    outer loop
      vertex -1.98195 -15.1025 2.5
      vertex -1.35931 -14.502 2.5
      vertex -1.20107 -14.9074 2.5
    endloop
  endfacet
  facet normal 0 0 -1
    outer loop
      vertex -3.06215 -13.7848 2.5
      vertex -2.4736 -13.8296 2.5
      vertex -2.72539 -14.4384 2.5
    endloop
  endfacet
  facet normal 0 0 -1
    outer loop
      vertex -2.4736 -13.8296 2.5
      vertex -1.99391 -13.9639 2.5
      vertex -2.44847 -14.5219 2.5
    endloop
  endfacet
  facet normal 0 0 -1
    outer loop
      vertex -1.98195 -15.1025 2.5
      vertex -2.0755 -14.8547 2.5
      vertex -1.35931 -14.502 2.5
    endloop
  endfacet
  facet normal 0 0 -1
    outer loop
      vertex -3.06215 -13.7848 2.5
      vertex -2.72539 -14.4384 2.5
      vertex -3.06215 -14.4106 2.5
    endloop
  endfacet
  facet normal 0 0 -1
    outer loop
      vertex -4.78009 -13.7848 2.5
      vertex -3.06215 -13.7848 2.5
      vertex -4.0191 -14.4106 2.5
    endloop
  endfacet
  facet normal 0 0 -1
    outer loop
      vertex -3.19026 -17.031 2.5
      vertex -4.0191 -16.4053 2.5
      vertex -3.06215 -16.4053 2.5
    endloop
  endfacet
  facet normal 0 0 -1
    outer loop
      vertex -3.19026 -17.031 2.5
      vertex -4.0191 -17.031 2.5
      vertex -4.0191 -16.4053 2.5
    endloop
  endfacet
  facet normal 0 -0 -1
    outer loop
      vertex -4.0191 -17.031 2.5
      vertex -4.0191 -19.4097 2.5
      vertex -4.78009 -19.4097 2.5
    endloop
  endfacet
  facet normal 0 0 -1
    outer loop
      vertex -3.19026 -17.031 2.5
      vertex -3.06215 -16.4053 2.5
      vertex -2.91 -17.0516 2.5
    endloop
  endfacet
  facet normal 0 0 -1
    outer loop
      vertex -1.58449 -16.4948 2.5
      vertex -2.0755 -15.9554 2.5
      vertex -1.3951 -16.2852 2.5
    endloop
  endfacet
  facet normal -0 0 -1
    outer loop
      vertex -4.0191 -16.4053 2.5
      vertex -4.78009 -19.4097 2.5
      vertex -4.78009 -13.7848 2.5
    endloop
  endfacet
  facet normal 0 0 -1
    outer loop
      vertex -4.78009 -13.7848 2.5
      vertex -4.0191 -14.4106 2.5
      vertex -4.0191 -16.4053 2.5
    endloop
  endfacet
  facet normal 0 0 -1
    outer loop
      vertex -3.06215 -14.4106 2.5
      vertex -4.0191 -14.4106 2.5
      vertex -3.06215 -13.7848 2.5
    endloop
  endfacet
  facet normal 0 0 -1
    outer loop
      vertex -1.99391 -13.9639 2.5
      vertex -2.23143 -14.6609 2.5
      vertex -2.44847 -14.5219 2.5
    endloop
  endfacet
  facet normal 0 0 -1
    outer loop
      vertex -2.23143 -14.6609 2.5
      vertex -1.62305 -14.1878 2.5
      vertex -2.0755 -14.8547 2.5
    endloop
  endfacet
  facet normal 0 -0 -1
    outer loop
      vertex -1.99391 -13.9639 2.5
      vertex -1.62305 -14.1878 2.5
      vertex -2.23143 -14.6609 2.5
    endloop
  endfacet
  facet normal 0 0 -1
    outer loop
      vertex -2.0755 -14.8547 2.5
      vertex -1.62305 -14.1878 2.5
      vertex -1.35931 -14.502 2.5
    endloop
  endfacet
  facet normal 0 0 -1
    outer loop
      vertex -1.98195 -15.1025 2.5
      vertex -1.14832 -15.4041 2.5
      vertex -1.95076 -15.4042 2.5
    endloop
  endfacet
  facet normal 0 -0 -1
    outer loop
      vertex -1.20107 -14.9074 2.5
      vertex -1.14832 -15.4041 2.5
      vertex -1.98195 -15.1025 2.5
    endloop
  endfacet
  facet normal 0 -0 -1
    outer loop
      vertex -1.95076 -15.4042 2.5
      vertex -1.17574 -15.7379 2.5
      vertex -1.98195 -15.7063 2.5
    endloop
  endfacet
  facet normal 0 -0 -1
    outer loop
      vertex -1.98195 -15.7063 2.5
      vertex -1.258 -16.0317 2.5
      vertex -2.0755 -15.9554 2.5
    endloop
  endfacet
  facet normal 0 0 -1
    outer loop
      vertex -1.58449 -16.4948 2.5
      vertex -2.23143 -16.1513 2.5
      vertex -2.0755 -15.9554 2.5
    endloop
  endfacet
  facet normal -0 0 -1
    outer loop
      vertex -1.58449 -16.4948 2.5
      vertex -1.82372 -16.6567 2.5
      vertex -2.23143 -16.1513 2.5
    endloop
  endfacet
  facet normal 0 0 -1
    outer loop
      vertex -2.23143 -16.1513 2.5
      vertex -1.82372 -16.6567 2.5
      vertex -2.11276 -16.7709 2.5
    endloop
  endfacet
  facet normal 0 0 -1
    outer loop
      vertex -2.44847 -16.2924 2.5
      vertex -2.23143 -16.1513 2.5
      vertex -2.11276 -16.7709 2.5
    endloop
  endfacet
  facet normal 0 0 -1
    outer loop
      vertex -3.06215 -16.4053 2.5
      vertex -2.72539 -16.3771 2.5
      vertex -2.91 -17.0516 2.5
    endloop
  endfacet
  facet normal 0 -0 -1
    outer loop
      vertex -2.72539 -16.3771 2.5
      vertex -2.67201 -17.1132 2.5
      vertex -2.91 -17.0516 2.5
    endloop
  endfacet
  facet normal 0 -0 1
    outer loop
      vertex 4.29068 -17.0986 3.5
      vertex 5.04417 -16.4728 3.5
      vertex 3.04745 -16.4728 3.5
    endloop
  endfacet
  facet normal -0 0 1
    outer loop
      vertex 4.29068 -18.608 3.5
      vertex 5.04417 -18.8866 3.5
      vertex 4.29068 -17.0986 3.5
    endloop
  endfacet
  facet normal 0 0 1
    outer loop
      vertex 3.04745 -17.0986 3.5
      vertex 4.29068 -17.0986 3.5
      vertex 3.04745 -16.4728 3.5
    endloop
  endfacet
  facet normal 0 -0 1
    outer loop
      vertex 4.74028 -19.0782 3.5
      vertex 5.04417 -18.8866 3.5
      vertex 4.29068 -18.608 3.5
    endloop
  endfacet
  facet normal 0 0 1
    outer loop
      vertex 4.29068 -18.608 3.5
      vertex 4.1153 -18.6974 3.5
      vertex 4.41628 -19.2359 3.5
    endloop
  endfacet
  facet normal 0 0 1
    outer loop
      vertex 4.1153 -18.6974 3.5
      vertex 4.07217 -19.3597 3.5
      vertex 4.41628 -19.2359 3.5
    endloop
  endfacet
  facet normal 0 0 1
    outer loop
      vertex 3.71011 -19.4487 3.5
      vertex 4.07217 -19.3597 3.5
      vertex 3.72179 -18.8245 3.5
    endloop
  endfacet
  facet normal 0 0 1
    outer loop
      vertex 2.37122 -18.8301 3.5
      vertex 2.93823 -19.5199 3.5
      vertex 3.00223 -18.8942 3.5
    endloop
  endfacet
  facet normal -0 0 1
    outer loop
      vertex 3.92566 -18.7695 3.5
      vertex 4.07217 -19.3597 3.5
      vertex 4.1153 -18.6974 3.5
    endloop
  endfacet
  facet normal 0 -0 1
    outer loop
      vertex 5.04417 -18.8866 3.5
      vertex 5.04417 -16.4728 3.5
      vertex 4.29068 -17.0986 3.5
    endloop
  endfacet
  facet normal 0 0 1
    outer loop
      vertex 4.74028 -19.0782 3.5
      vertex 4.29068 -18.608 3.5
      vertex 4.41628 -19.2359 3.5
    endloop
  endfacet
  facet normal 0 0 1
    outer loop
      vertex 3.92566 -18.7695 3.5
      vertex 3.72179 -18.8245 3.5
      vertex 4.07217 -19.3597 3.5
    endloop
  endfacet
  facet normal 0 0 1
    outer loop
      vertex 3.72179 -18.8245 3.5
      vertex 3.50119 -18.8632 3.5
      vertex 3.71011 -19.4487 3.5
    endloop
  endfacet
  facet normal 0 0 1
    outer loop
      vertex 3.50119 -18.8632 3.5
      vertex 3.33212 -19.5021 3.5
      vertex 3.71011 -19.4487 3.5
    endloop
  endfacet
  facet normal -0 0 1
    outer loop
      vertex 3.26134 -18.8864 3.5
      vertex 3.33212 -19.5021 3.5
      vertex 3.50119 -18.8632 3.5
    endloop
  endfacet
  facet normal -0 0 1
    outer loop
      vertex 3.00223 -18.8942 3.5
      vertex 3.33212 -19.5021 3.5
      vertex 3.26134 -18.8864 3.5
    endloop
  endfacet
  facet normal 0 0 1
    outer loop
      vertex 2.93823 -19.5199 3.5
      vertex 3.33212 -19.5021 3.5
      vertex 3.00223 -18.8942 3.5
    endloop
  endfacet
  facet normal 0 0 1
    outer loop
      vertex 1.85448 -18.6379 3.5
      vertex 1.43544 -19.1774 3.5
      vertex 2.123 -19.4343 3.5
    endloop
  endfacet
  facet normal 0 -0 1
    outer loop
      vertex 0.875565 -18.7492 3.5
      vertex 1.16423 -17.8707 3.5
      vertex 0.462204 -18.1681 3.5
    endloop
  endfacet
  facet normal 0 0 1
    outer loop
      vertex 1.45201 -18.3175 3.5
      vertex 1.16423 -17.8707 3.5
      vertex 0.875565 -18.7492 3.5
    endloop
  endfacet
  facet normal 0 0 1
    outer loop
      vertex 0.991562 -17.2991 3.5
      vertex 0.214188 -17.4526 3.5
      vertex 0.462204 -18.1681 3.5
    endloop
  endfacet
  facet normal 0 0 1
    outer loop
      vertex 0.934006 -16.6027 3.5
      vertex 0.131516 -16.6027 3.5
      vertex 0.991562 -17.2991 3.5
    endloop
  endfacet
  facet normal 0 0 1
    outer loop
      vertex 0.991562 -15.9042 3.5
      vertex 0.214188 -15.7507 3.5
      vertex 0.131516 -16.6027 3.5
    endloop
  endfacet
  facet normal 0 0 1
    outer loop
      vertex 1.16423 -15.3314 3.5
      vertex 0.462204 -15.034 3.5
      vertex 0.991562 -15.9042 3.5
    endloop
  endfacet
  facet normal 0 0 1
    outer loop
      vertex 1.45201 -14.8842 3.5
      vertex 0.875565 -14.4525 3.5
      vertex 1.16423 -15.3314 3.5
    endloop
  endfacet
  facet normal 0 0 1
    outer loop
      vertex 1.85449 -14.5638 3.5
      vertex 1.43544 -14.0243 3.5
      vertex 1.45201 -14.8842 3.5
    endloop
  endfacet
  facet normal 0 0 1
    outer loop
      vertex 2.37125 -14.3716 3.5
      vertex 2.12297 -13.7674 3.5
      vertex 1.85449 -14.5638 3.5
    endloop
  endfacet
  facet normal 0 -0 1
    outer loop
      vertex 3.00229 -14.3075 3.5
      vertex 3.29881 -13.6968 3.5
      vertex 2.93817 -13.6817 3.5
    endloop
  endfacet
  facet normal 0 0 1
    outer loop
      vertex 3.64729 -13.7418 3.5
      vertex 3.67873 -14.3877 3.5
      vertex 3.98363 -13.817 3.5
    endloop
  endfacet
  facet normal 0 0 1
    outer loop
      vertex 3.98363 -13.817 3.5
      vertex 4.00063 -14.488 3.5
      vertex 4.30533 -13.9213 3.5
    endloop
  endfacet
  facet normal -0 0 1
    outer loop
      vertex 4.00063 -14.488 3.5
      vertex 4.3112 -14.628 3.5
      vertex 4.30533 -13.9213 3.5
    endloop
  endfacet
  facet normal 0 -0 1
    outer loop
      vertex 4.3112 -14.628 3.5
      vertex 4.60986 -14.054 3.5
      vertex 4.30533 -13.9213 3.5
    endloop
  endfacet
  facet normal 0 0 1
    outer loop
      vertex 4.89723 -14.2151 3.5
      vertex 4.60986 -14.054 3.5
      vertex 4.3112 -14.628 3.5
    endloop
  endfacet
  facet normal 0 0 1
    outer loop
      vertex 4.89723 -14.2151 3.5
      vertex 4.3112 -14.628 3.5
      vertex 4.61008 -14.8072 3.5
    endloop
  endfacet
  facet normal 0 0 1
    outer loop
      vertex 4.89723 -14.2151 3.5
      vertex 4.61008 -14.8072 3.5
      vertex 4.89723 -15.0257 3.5
    endloop
  endfacet
  facet normal -0 0 1
    outer loop
      vertex 3.67873 -14.3877 3.5
      vertex 4.00063 -14.488 3.5
      vertex 3.98363 -13.817 3.5
    endloop
  endfacet
  facet normal -0 0 1
    outer loop
      vertex 3.34596 -14.3276 3.5
      vertex 3.67873 -14.3877 3.5
      vertex 3.64729 -13.7418 3.5
    endloop
  endfacet
  facet normal 0 -0 1
    outer loop
      vertex 3.34596 -14.3276 3.5
      vertex 3.64729 -13.7418 3.5
      vertex 3.29881 -13.6968 3.5
    endloop
  endfacet
  facet normal 0 0 1
    outer loop
      vertex 3.34596 -14.3276 3.5
      vertex 3.29881 -13.6968 3.5
      vertex 3.00229 -14.3075 3.5
    endloop
  endfacet
  facet normal 0 0 1
    outer loop
      vertex 3.00229 -14.3075 3.5
      vertex 2.93817 -13.6817 3.5
      vertex 2.37125 -14.3716 3.5
    endloop
  endfacet
  facet normal 0 0 1
    outer loop
      vertex 2.93817 -13.6817 3.5
      vertex 2.12297 -13.7674 3.5
      vertex 2.37125 -14.3716 3.5
    endloop
  endfacet
  facet normal 0 0 1
    outer loop
      vertex 2.12297 -13.7674 3.5
      vertex 1.43544 -14.0243 3.5
      vertex 1.85449 -14.5638 3.5
    endloop
  endfacet
  facet normal 0 0 1
    outer loop
      vertex 1.43544 -14.0243 3.5
      vertex 0.875565 -14.4525 3.5
      vertex 1.45201 -14.8842 3.5
    endloop
  endfacet
  facet normal 0 0 1
    outer loop
      vertex 0.875565 -14.4525 3.5
      vertex 0.462204 -15.034 3.5
      vertex 1.16423 -15.3314 3.5
    endloop
  endfacet
  facet normal -0 0 1
    outer loop
      vertex -2.72539 -14.4384 3.5
      vertex -2.44847 -14.5219 3.5
      vertex -2.4736 -13.8296 3.5
    endloop
  endfacet
  facet normal 0 0 1
    outer loop
      vertex 0.462204 -15.034 3.5
      vertex 0.214188 -15.7507 3.5
      vertex 0.991562 -15.9042 3.5
    endloop
  endfacet
  facet normal 0 0 1
    outer loop
      vertex 0.991562 -15.9042 3.5
      vertex 0.131516 -16.6027 3.5
      vertex 0.934006 -16.6027 3.5
    endloop
  endfacet
  facet normal 0 -0 1
    outer loop
      vertex -1.258 -16.0317 3.5
      vertex -1.17574 -15.7379 3.5
      vertex -1.98195 -15.7063 3.5
    endloop
  endfacet
  facet normal 0 0 1
    outer loop
      vertex 0.131516 -16.6027 3.5
      vertex 0.214188 -17.4526 3.5
      vertex 0.991562 -17.2991 3.5
    endloop
  endfacet
  facet normal -0 0 1
    outer loop
      vertex -1.95076 -15.4042 3.5
      vertex -1.17574 -15.7379 3.5
      vertex -1.14832 -15.4041 3.5
    endloop
  endfacet
  facet normal 0 0 1
    outer loop
      vertex 0.991562 -17.2991 3.5
      vertex 0.462204 -18.1681 3.5
      vertex 1.16423 -17.8707 3.5
    endloop
  endfacet
  facet normal 0 0 1
    outer loop
      vertex -2.44847 -16.2924 3.5
      vertex -2.72539 -16.3771 3.5
      vertex -2.11276 -16.7709 3.5
    endloop
  endfacet
  facet normal 0 0 1
    outer loop
      vertex 1.45201 -18.3175 3.5
      vertex 0.875565 -18.7492 3.5
      vertex 1.43544 -19.1774 3.5
    endloop
  endfacet
  facet normal 0 0 1
    outer loop
      vertex -2.11967 -17.6313 3.5
      vertex -1.48152 -17.3289 3.5
      vertex -1.63622 -17.1253 3.5
    endloop
  endfacet
  facet normal 0 0 1
    outer loop
      vertex 1.45201 -18.3175 3.5
      vertex 1.43544 -19.1774 3.5
      vertex 1.85448 -18.6379 3.5
    endloop
  endfacet
  facet normal 0 0 1
    outer loop
      vertex -1.17093 -17.8717 3.5
      vertex -1.93571 -17.9659 3.5
      vertex -1.21616 -19.4097 3.5
    endloop
  endfacet
  facet normal 0 0 1
    outer loop
      vertex 1.85448 -18.6379 3.5
      vertex 2.123 -19.4343 3.5
      vertex 2.37122 -18.8301 3.5
    endloop
  endfacet
  facet normal -0 0 1
    outer loop
      vertex 2.123 -19.4343 3.5
      vertex 2.93823 -19.5199 3.5
      vertex 2.37122 -18.8301 3.5
    endloop
  endfacet
  facet normal 0 0 1
    outer loop
      vertex -4.0191 -16.4053 3.5
      vertex -4.78009 -19.4097 3.5
      vertex -4.0191 -17.031 3.5
    endloop
  endfacet
  facet normal 0 -0 1
    outer loop
      vertex -2.29988 -17.3812 3.5
      vertex -2.11276 -16.7709 3.5
      vertex -2.47632 -17.2158 3.5
    endloop
  endfacet
  facet normal 0 0 1
    outer loop
      vertex -1.79211 -16.9653 3.5
      vertex -2.29988 -17.3812 3.5
      vertex -1.63622 -17.1253 3.5
    endloop
  endfacet
  facet normal 0 -0 1
    outer loop
      vertex -1.3951 -16.2852 3.5
      vertex -1.258 -16.0317 3.5
      vertex -2.0755 -15.9554 3.5
    endloop
  endfacet
  facet normal 0 0 1
    outer loop
      vertex -1.48152 -17.3289 3.5
      vertex -1.93571 -17.9659 3.5
      vertex -1.32643 -17.5776 3.5
    endloop
  endfacet
  facet normal 0 0 1
    outer loop
      vertex -1.17093 -17.8717 3.5
      vertex -1.32643 -17.5776 3.5
      vertex -1.93571 -17.9659 3.5
    endloop
  endfacet
  facet normal 0 0 1
    outer loop
      vertex -0.398651 -19.4097 3.5
      vertex -1.17093 -17.8717 3.5
      vertex -1.21616 -19.4097 3.5
    endloop
  endfacet
  facet normal -0 0 1
    outer loop
      vertex -2.11967 -17.6313 3.5
      vertex -1.93571 -17.9659 3.5
      vertex -1.48152 -17.3289 3.5
    endloop
  endfacet
  facet normal -0 0 1
    outer loop
      vertex -2.29988 -17.3812 3.5
      vertex -2.11967 -17.6313 3.5
      vertex -1.63622 -17.1253 3.5
    endloop
  endfacet
  facet normal 0 0 1
    outer loop
      vertex -1.95097 -16.8472 3.5
      vertex -2.29988 -17.3812 3.5
      vertex -1.79211 -16.9653 3.5
    endloop
  endfacet
  facet normal 0 0 1
    outer loop
      vertex -1.95097 -16.8472 3.5
      vertex -2.11276 -16.7709 3.5
      vertex -2.29988 -17.3812 3.5
    endloop
  endfacet
  facet normal 0 0 1
    outer loop
      vertex -2.11276 -16.7709 3.5
      vertex -2.67201 -17.1132 3.5
      vertex -2.47632 -17.2158 3.5
    endloop
  endfacet
  facet normal 0 0 1
    outer loop
      vertex -2.11276 -16.7709 3.5
      vertex -2.72539 -16.3771 3.5
      vertex -2.67201 -17.1132 3.5
    endloop
  endfacet
  facet normal 0 0 1
    outer loop
      vertex -1.20107 -14.9074 3.5
      vertex -1.35931 -14.502 3.5
      vertex -1.98195 -15.1025 3.5
    endloop
  endfacet
  facet normal 0 -0 1
    outer loop
      vertex -2.72539 -14.4384 3.5
      vertex -2.4736 -13.8296 3.5
      vertex -3.06215 -13.7848 3.5
    endloop
  endfacet
  facet normal 0 -0 1
    outer loop
      vertex -2.44847 -14.5219 3.5
      vertex -1.99391 -13.9639 3.5
      vertex -2.4736 -13.8296 3.5
    endloop
  endfacet
  facet normal 0 0 1
    outer loop
      vertex -1.35931 -14.502 3.5
      vertex -2.0755 -14.8547 3.5
      vertex -1.98195 -15.1025 3.5
    endloop
  endfacet
  facet normal -0 0 1
    outer loop
      vertex -3.06215 -14.4106 3.5
      vertex -2.72539 -14.4384 3.5
      vertex -3.06215 -13.7848 3.5
    endloop
  endfacet
  facet normal 0 -0 1
    outer loop
      vertex -4.0191 -14.4106 3.5
      vertex -3.06215 -13.7848 3.5
      vertex -4.78009 -13.7848 3.5
    endloop
  endfacet
  facet normal 0 0 1
    outer loop
      vertex -3.06215 -16.4053 3.5
      vertex -4.0191 -16.4053 3.5
      vertex -3.19026 -17.031 3.5
    endloop
  endfacet
  facet normal 0 0 1
    outer loop
      vertex -4.0191 -16.4053 3.5
      vertex -4.0191 -17.031 3.5
      vertex -3.19026 -17.031 3.5
    endloop
  endfacet
  facet normal 0 0 1
    outer loop
      vertex -4.78009 -19.4097 3.5
      vertex -4.0191 -19.4097 3.5
      vertex -4.0191 -17.031 3.5
    endloop
  endfacet
  facet normal 0 0 1
    outer loop
      vertex -2.91 -17.0516 3.5
      vertex -3.06215 -16.4053 3.5
      vertex -3.19026 -17.031 3.5
    endloop
  endfacet
  facet normal 0 0 1
    outer loop
      vertex -1.3951 -16.2852 3.5
      vertex -2.0755 -15.9554 3.5
      vertex -1.58449 -16.4948 3.5
    endloop
  endfacet
  facet normal 0 0 1
    outer loop
      vertex -4.78009 -13.7848 3.5
      vertex -4.78009 -19.4097 3.5
      vertex -4.0191 -16.4053 3.5
    endloop
  endfacet
  facet normal 0 -0 1
    outer loop
      vertex -4.0191 -16.4053 3.5
      vertex -4.0191 -14.4106 3.5
      vertex -4.78009 -13.7848 3.5
    endloop
  endfacet
  facet normal 0 0 1
    outer loop
      vertex -3.06215 -13.7848 3.5
      vertex -4.0191 -14.4106 3.5
      vertex -3.06215 -14.4106 3.5
    endloop
  endfacet
  facet normal -0 0 1
    outer loop
      vertex -2.44847 -14.5219 3.5
      vertex -2.23143 -14.6609 3.5
      vertex -1.99391 -13.9639 3.5
    endloop
  endfacet
  facet normal 0 -0 1
    outer loop
      vertex -2.0755 -14.8547 3.5
      vertex -1.62305 -14.1878 3.5
      vertex -2.23143 -14.6609 3.5
    endloop
  endfacet
  facet normal 0 0 1
    outer loop
      vertex -2.23143 -14.6609 3.5
      vertex -1.62305 -14.1878 3.5
      vertex -1.99391 -13.9639 3.5
    endloop
  endfacet
  facet normal 0 0 1
    outer loop
      vertex -1.35931 -14.502 3.5
      vertex -1.62305 -14.1878 3.5
      vertex -2.0755 -14.8547 3.5
    endloop
  endfacet
  facet normal 0 -0 1
    outer loop
      vertex -1.95076 -15.4042 3.5
      vertex -1.14832 -15.4041 3.5
      vertex -1.98195 -15.1025 3.5
    endloop
  endfacet
  facet normal -0 0 1
    outer loop
      vertex -1.98195 -15.1025 3.5
      vertex -1.14832 -15.4041 3.5
      vertex -1.20107 -14.9074 3.5
    endloop
  endfacet
  facet normal -0 0 1
    outer loop
      vertex -1.98195 -15.7063 3.5
      vertex -1.17574 -15.7379 3.5
      vertex -1.95076 -15.4042 3.5
    endloop
  endfacet
  facet normal -0 0 1
    outer loop
      vertex -2.0755 -15.9554 3.5
      vertex -1.258 -16.0317 3.5
      vertex -1.98195 -15.7063 3.5
    endloop
  endfacet
  facet normal 0 0 1
    outer loop
      vertex -2.0755 -15.9554 3.5
      vertex -2.23143 -16.1513 3.5
      vertex -1.58449 -16.4948 3.5
    endloop
  endfacet
  facet normal 0 0 1
    outer loop
      vertex -2.23143 -16.1513 3.5
      vertex -1.82372 -16.6567 3.5
      vertex -1.58449 -16.4948 3.5
    endloop
  endfacet
  facet normal 0 -0 1
    outer loop
      vertex -2.11276 -16.7709 3.5
      vertex -1.82372 -16.6567 3.5
      vertex -2.23143 -16.1513 3.5
    endloop
  endfacet
  facet normal 0 0 1
    outer loop
      vertex -2.11276 -16.7709 3.5
      vertex -2.23143 -16.1513 3.5
      vertex -2.44847 -16.2924 3.5
    endloop
  endfacet
  facet normal 0 -0 1
    outer loop
      vertex -2.91 -17.0516 3.5
      vertex -2.72539 -16.3771 3.5
      vertex -3.06215 -16.4053 3.5
    endloop
  endfacet
  facet normal -0 0 1
    outer loop
      vertex -2.91 -17.0516 3.5
      vertex -2.67201 -17.1132 3.5
      vertex -2.72539 -16.3771 3.5
    endloop
  endfacet
  facet normal 0.139885 -0.990168 0
    outer loop
      vertex 3.71011 -19.4487 2.5
      vertex 3.33212 -19.5021 3.5
      vertex 3.33212 -19.5021 2.5
    endloop
  endfacet
  facet normal 0.139885 -0.990168 0
    outer loop
      vertex 3.71011 -19.4487 2.5
      vertex 3.71011 -19.4487 3.5
      vertex 3.33212 -19.5021 3.5
    endloop
  endfacet
  facet normal 0.238709 -0.971091 0
    outer loop
      vertex 4.07217 -19.3597 2.5
      vertex 3.71011 -19.4487 3.5
      vertex 3.71011 -19.4487 2.5
    endloop
  endfacet
  facet normal 0.238709 -0.971091 0
    outer loop
      vertex 4.07217 -19.3597 2.5
      vertex 4.07217 -19.3597 3.5
      vertex 3.71011 -19.4487 3.5
    endloop
  endfacet
  facet normal 0.338527 -0.940957 0
    outer loop
      vertex 4.41628 -19.2359 2.5
      vertex 4.07217 -19.3597 3.5
      vertex 4.07217 -19.3597 2.5
    endloop
  endfacet
  facet normal 0.338527 -0.940957 0
    outer loop
      vertex 4.41628 -19.2359 2.5
      vertex 4.41628 -19.2359 3.5
      vertex 4.07217 -19.3597 3.5
    endloop
  endfacet
  facet normal 0.437642 -0.89915 0
    outer loop
      vertex 4.74028 -19.0782 2.5
      vertex 4.41628 -19.2359 3.5
      vertex 4.41628 -19.2359 2.5
    endloop
  endfacet
  facet normal 0.437642 -0.89915 0
    outer loop
      vertex 4.74028 -19.0782 2.5
      vertex 4.74028 -19.0782 3.5
      vertex 4.41628 -19.2359 3.5
    endloop
  endfacet
  facet normal 0.533335 -0.845904 0
    outer loop
      vertex 5.04417 -18.8866 2.5
      vertex 4.74028 -19.0782 3.5
      vertex 4.74028 -19.0782 2.5
    endloop
  endfacet
  facet normal 0.533335 -0.845904 0
    outer loop
      vertex 5.04417 -18.8866 2.5
      vertex 5.04417 -18.8866 3.5
      vertex 4.74028 -19.0782 3.5
    endloop
  endfacet
  facet normal 1 0 0
    outer loop
      vertex 5.04417 -16.4728 2.5
      vertex 5.04417 -18.8866 3.5
      vertex 5.04417 -18.8866 2.5
    endloop
  endfacet
  facet normal 1 0 -0
    outer loop
      vertex 5.04417 -16.4728 2.5
      vertex 5.04417 -16.4728 3.5
      vertex 5.04417 -18.8866 3.5
    endloop
  endfacet
  facet normal 0 1 0
    outer loop
      vertex 3.04745 -16.4728 2.5
      vertex 5.04417 -16.4728 3.5
      vertex 5.04417 -16.4728 2.5
    endloop
  endfacet
  facet normal 0 1 0
    outer loop
      vertex 3.04745 -16.4728 2.5
      vertex 3.04745 -16.4728 3.5
      vertex 5.04417 -16.4728 3.5
    endloop
  endfacet
  facet normal -1 0 0
    outer loop
      vertex 3.04745 -17.0986 2.5
      vertex 3.04745 -16.4728 3.5
      vertex 3.04745 -16.4728 2.5
    endloop
  endfacet
  facet normal -1 0 0
    outer loop
      vertex 3.04745 -17.0986 2.5
      vertex 3.04745 -17.0986 3.5
      vertex 3.04745 -16.4728 3.5
    endloop
  endfacet
  facet normal 0 -1 0
    outer loop
      vertex 4.29068 -17.0986 2.5
      vertex 3.04745 -17.0986 3.5
      vertex 3.04745 -17.0986 2.5
    endloop
  endfacet
  facet normal 0 -1 0
    outer loop
      vertex 4.29068 -17.0986 2.5
      vertex 4.29068 -17.0986 3.5
      vertex 3.04745 -17.0986 3.5
    endloop
  endfacet
  facet normal -1 0 0
    outer loop
      vertex 4.29068 -18.608 2.5
      vertex 4.29068 -17.0986 3.5
      vertex 4.29068 -17.0986 2.5
    endloop
  endfacet
  facet normal -1 0 0
    outer loop
      vertex 4.29068 -18.608 2.5
      vertex 4.29068 -18.608 3.5
      vertex 4.29068 -17.0986 3.5
    endloop
  endfacet
  facet normal -0.454149 0.890925 0
    outer loop
      vertex 4.1153 -18.6974 2.5
      vertex 4.29068 -18.608 3.5
      vertex 4.29068 -18.608 2.5
    endloop
  endfacet
  facet normal -0.454149 0.890925 0
    outer loop
      vertex 4.1153 -18.6974 2.5
      vertex 4.1153 -18.6974 3.5
      vertex 4.29068 -18.608 3.5
    endloop
  endfacet
  facet normal -0.355376 0.934723 0
    outer loop
      vertex 3.92566 -18.7695 2.5
      vertex 4.1153 -18.6974 3.5
      vertex 4.1153 -18.6974 2.5
    endloop
  endfacet
  facet normal -0.355376 0.934723 0
    outer loop
      vertex 3.92566 -18.7695 2.5
      vertex 3.92566 -18.7695 3.5
      vertex 4.1153 -18.6974 3.5
    endloop
  endfacet
  facet normal -0.260468 0.965483 0
    outer loop
      vertex 3.72179 -18.8245 2.5
      vertex 3.92566 -18.7695 3.5
      vertex 3.92566 -18.7695 2.5
    endloop
  endfacet
  facet normal -0.260468 0.965483 0
    outer loop
      vertex 3.72179 -18.8245 2.5
      vertex 3.72179 -18.8245 3.5
      vertex 3.92566 -18.7695 3.5
    endloop
  endfacet
  facet normal -0.172792 0.984958 0
    outer loop
      vertex 3.50119 -18.8632 2.5
      vertex 3.72179 -18.8245 3.5
      vertex 3.72179 -18.8245 2.5
    endloop
  endfacet
  facet normal -0.172792 0.984958 0
    outer loop
      vertex 3.50119 -18.8632 2.5
      vertex 3.50119 -18.8632 3.5
      vertex 3.72179 -18.8245 3.5
    endloop
  endfacet
  facet normal -0.0962778 0.995355 0
    outer loop
      vertex 3.26134 -18.8864 2.5
      vertex 3.50119 -18.8632 3.5
      vertex 3.50119 -18.8632 2.5
    endloop
  endfacet
  facet normal -0.0962778 0.995355 0
    outer loop
      vertex 3.26134 -18.8864 2.5
      vertex 3.26134 -18.8864 3.5
      vertex 3.50119 -18.8632 3.5
    endloop
  endfacet
  facet normal -0.0300894 0.999547 0
    outer loop
      vertex 3.00223 -18.8942 2.5
      vertex 3.26134 -18.8864 3.5
      vertex 3.26134 -18.8864 2.5
    endloop
  endfacet
  facet normal -0.0300894 0.999547 0
    outer loop
      vertex 3.00223 -18.8942 2.5
      vertex 3.00223 -18.8942 3.5
      vertex 3.26134 -18.8864 3.5
    endloop
  endfacet
  facet normal 0.101063 0.99488 0
    outer loop
      vertex 2.37122 -18.8301 2.5
      vertex 3.00223 -18.8942 3.5
      vertex 3.00223 -18.8942 2.5
    endloop
  endfacet
  facet normal 0.101063 0.99488 -0
    outer loop
      vertex 2.37122 -18.8301 2.5
      vertex 2.37122 -18.8301 3.5
      vertex 3.00223 -18.8942 3.5
    endloop
  endfacet
  facet normal 0.348614 0.937267 0
    outer loop
      vertex 1.85448 -18.6379 2.5
      vertex 2.37122 -18.8301 3.5
      vertex 2.37122 -18.8301 2.5
    endloop
  endfacet
  facet normal 0.348614 0.937267 -0
    outer loop
      vertex 1.85448 -18.6379 2.5
      vertex 1.85448 -18.6379 3.5
      vertex 2.37122 -18.8301 3.5
    endloop
  endfacet
  facet normal 0.622825 0.782361 0
    outer loop
      vertex 1.45201 -18.3175 2.5
      vertex 1.85448 -18.6379 3.5
      vertex 1.85448 -18.6379 2.5
    endloop
  endfacet
  facet normal 0.622825 0.782361 -0
    outer loop
      vertex 1.45201 -18.3175 2.5
      vertex 1.45201 -18.3175 3.5
      vertex 1.85448 -18.6379 3.5
    endloop
  endfacet
  facet normal 0.840706 0.541492 0
    outer loop
      vertex 1.16423 -17.8707 2.5
      vertex 1.45201 -18.3175 3.5
      vertex 1.45201 -18.3175 2.5
    endloop
  endfacet
  facet normal 0.840706 0.541492 -0
    outer loop
      vertex 1.16423 -17.8707 2.5
      vertex 1.16423 -17.8707 3.5
      vertex 1.45201 -18.3175 3.5
    endloop
  endfacet
  facet normal 0.957277 0.289173 0
    outer loop
      vertex 0.991562 -17.2991 2.5
      vertex 1.16423 -17.8707 3.5
      vertex 1.16423 -17.8707 2.5
    endloop
  endfacet
  facet normal 0.957277 0.289173 -0
    outer loop
      vertex 0.991562 -17.2991 2.5
      vertex 0.991562 -17.2991 3.5
      vertex 1.16423 -17.8707 3.5
    endloop
  endfacet
  facet normal 0.996602 0.0823671 0
    outer loop
      vertex 0.934006 -16.6027 2.5
      vertex 0.991562 -17.2991 3.5
      vertex 0.991562 -17.2991 2.5
    endloop
  endfacet
  facet normal 0.996602 0.0823671 -0
    outer loop
      vertex 0.934006 -16.6027 2.5
      vertex 0.934006 -16.6027 3.5
      vertex 0.991562 -17.2991 3.5
    endloop
  endfacet
  facet normal 0.996622 -0.0821211 0
    outer loop
      vertex 0.991562 -15.9042 2.5
      vertex 0.934006 -16.6027 3.5
      vertex 0.934006 -16.6027 2.5
    endloop
  endfacet
  facet normal 0.996622 -0.0821211 0
    outer loop
      vertex 0.991562 -15.9042 2.5
      vertex 0.991562 -15.9042 3.5
      vertex 0.934006 -16.6027 3.5
    endloop
  endfacet
  facet normal 0.957445 -0.288617 0
    outer loop
      vertex 1.16423 -15.3314 2.5
      vertex 0.991562 -15.9042 3.5
      vertex 0.991562 -15.9042 2.5
    endloop
  endfacet
  facet normal 0.957445 -0.288617 0
    outer loop
      vertex 1.16423 -15.3314 2.5
      vertex 1.16423 -15.3314 3.5
      vertex 0.991562 -15.9042 3.5
    endloop
  endfacet
  facet normal 0.840927 -0.541149 0
    outer loop
      vertex 1.45201 -14.8842 2.5
      vertex 1.16423 -15.3314 3.5
      vertex 1.16423 -15.3314 2.5
    endloop
  endfacet
  facet normal 0.840927 -0.541149 0
    outer loop
      vertex 1.45201 -14.8842 2.5
      vertex 1.45201 -14.8842 3.5
      vertex 1.16423 -15.3314 3.5
    endloop
  endfacet
  facet normal 0.622816 -0.782369 0
    outer loop
      vertex 1.85449 -14.5638 2.5
      vertex 1.45201 -14.8842 3.5
      vertex 1.45201 -14.8842 2.5
    endloop
  endfacet
  facet normal 0.622816 -0.782369 0
    outer loop
      vertex 1.85449 -14.5638 2.5
      vertex 1.85449 -14.5638 3.5
      vertex 1.45201 -14.8842 3.5
    endloop
  endfacet
  facet normal 0.348602 -0.937271 0
    outer loop
      vertex 2.37125 -14.3716 2.5
      vertex 1.85449 -14.5638 3.5
      vertex 1.85449 -14.5638 2.5
    endloop
  endfacet
  facet normal 0.348602 -0.937271 0
    outer loop
      vertex 2.37125 -14.3716 2.5
      vertex 2.37125 -14.3716 3.5
      vertex 1.85449 -14.5638 3.5
    endloop
  endfacet
  facet normal 0.101058 -0.994881 0
    outer loop
      vertex 3.00229 -14.3075 2.5
      vertex 2.37125 -14.3716 3.5
      vertex 2.37125 -14.3716 2.5
    endloop
  endfacet
  facet normal 0.101058 -0.994881 0
    outer loop
      vertex 3.00229 -14.3075 2.5
      vertex 3.00229 -14.3075 3.5
      vertex 2.37125 -14.3716 3.5
    endloop
  endfacet
  facet normal -0.0583866 -0.998294 0
    outer loop
      vertex 3.34596 -14.3276 2.5
      vertex 3.00229 -14.3075 3.5
      vertex 3.00229 -14.3075 2.5
    endloop
  endfacet
  facet normal -0.0583866 -0.998294 0
    outer loop
      vertex 3.34596 -14.3276 2.5
      vertex 3.34596 -14.3276 3.5
      vertex 3.00229 -14.3075 3.5
    endloop
  endfacet
  facet normal -0.17773 -0.984079 0
    outer loop
      vertex 3.67873 -14.3877 2.5
      vertex 3.34596 -14.3276 3.5
      vertex 3.34596 -14.3276 2.5
    endloop
  endfacet
  facet normal -0.17773 -0.984079 0
    outer loop
      vertex 3.67873 -14.3877 2.5
      vertex 3.67873 -14.3877 3.5
      vertex 3.34596 -14.3276 3.5
    endloop
  endfacet
  facet normal -0.297481 -0.954728 0
    outer loop
      vertex 4.00063 -14.488 2.5
      vertex 3.67873 -14.3877 3.5
      vertex 3.67873 -14.3877 2.5
    endloop
  endfacet
  facet normal -0.297481 -0.954728 0
    outer loop
      vertex 4.00063 -14.488 2.5
      vertex 4.00063 -14.488 3.5
      vertex 3.67873 -14.3877 3.5
    endloop
  endfacet
  facet normal -0.410959 -0.911654 0
    outer loop
      vertex 4.3112 -14.628 2.5
      vertex 4.00063 -14.488 3.5
      vertex 4.00063 -14.488 2.5
    endloop
  endfacet
  facet normal -0.410959 -0.911654 0
    outer loop
      vertex 4.3112 -14.628 2.5
      vertex 4.3112 -14.628 3.5
      vertex 4.00063 -14.488 3.5
    endloop
  endfacet
  facet normal -0.514226 -0.857655 0
    outer loop
      vertex 4.61008 -14.8072 2.5
      vertex 4.3112 -14.628 3.5
      vertex 4.3112 -14.628 2.5
    endloop
  endfacet
  facet normal -0.514226 -0.857655 0
    outer loop
      vertex 4.61008 -14.8072 2.5
      vertex 4.61008 -14.8072 3.5
      vertex 4.3112 -14.628 3.5
    endloop
  endfacet
  facet normal -0.60555 -0.795807 0
    outer loop
      vertex 4.89723 -15.0257 2.5
      vertex 4.61008 -14.8072 3.5
      vertex 4.61008 -14.8072 2.5
    endloop
  endfacet
  facet normal -0.60555 -0.795807 0
    outer loop
      vertex 4.89723 -15.0257 2.5
      vertex 4.89723 -15.0257 3.5
      vertex 4.61008 -14.8072 3.5
    endloop
  endfacet
  facet normal 1 0 0
    outer loop
      vertex 4.89723 -14.2151 2.5
      vertex 4.89723 -15.0257 3.5
      vertex 4.89723 -15.0257 2.5
    endloop
  endfacet
  facet normal 1 0 -0
    outer loop
      vertex 4.89723 -14.2151 2.5
      vertex 4.89723 -14.2151 3.5
      vertex 4.89723 -15.0257 3.5
    endloop
  endfacet
  facet normal 0.489003 0.872282 0
    outer loop
      vertex 4.60986 -14.054 2.5
      vertex 4.89723 -14.2151 3.5
      vertex 4.89723 -14.2151 2.5
    endloop
  endfacet
  facet normal 0.489003 0.872282 -0
    outer loop
      vertex 4.60986 -14.054 2.5
      vertex 4.60986 -14.054 3.5
      vertex 4.89723 -14.2151 3.5
    endloop
  endfacet
  facet normal 0.399475 0.916744 0
    outer loop
      vertex 4.30533 -13.9213 2.5
      vertex 4.60986 -14.054 3.5
      vertex 4.60986 -14.054 2.5
    endloop
  endfacet
  facet normal 0.399475 0.916744 -0
    outer loop
      vertex 4.30533 -13.9213 2.5
      vertex 4.30533 -13.9213 3.5
      vertex 4.60986 -14.054 3.5
    endloop
  endfacet
  facet normal 0.308411 0.951253 0
    outer loop
      vertex 3.98363 -13.817 2.5
      vertex 4.30533 -13.9213 3.5
      vertex 4.30533 -13.9213 2.5
    endloop
  endfacet
  facet normal 0.308411 0.951253 -0
    outer loop
      vertex 3.98363 -13.817 2.5
      vertex 3.98363 -13.817 3.5
      vertex 4.30533 -13.9213 3.5
    endloop
  endfacet
  facet normal 0.218196 0.975905 0
    outer loop
      vertex 3.64729 -13.7418 2.5
      vertex 3.98363 -13.817 3.5
      vertex 3.98363 -13.817 2.5
    endloop
  endfacet
  facet normal 0.218196 0.975905 -0
    outer loop
      vertex 3.64729 -13.7418 2.5
      vertex 3.64729 -13.7418 3.5
      vertex 3.98363 -13.817 3.5
    endloop
  endfacet
  facet normal 0.128069 0.991765 0
    outer loop
      vertex 3.29881 -13.6968 2.5
      vertex 3.64729 -13.7418 3.5
      vertex 3.64729 -13.7418 2.5
    endloop
  endfacet
  facet normal 0.128069 0.991765 -0
    outer loop
      vertex 3.29881 -13.6968 2.5
      vertex 3.29881 -13.6968 3.5
      vertex 3.64729 -13.7418 3.5
    endloop
  endfacet
  facet normal 0.0418334 0.999125 0
    outer loop
      vertex 2.93817 -13.6817 2.5
      vertex 3.29881 -13.6968 3.5
      vertex 3.29881 -13.6968 2.5
    endloop
  endfacet
  facet normal 0.0418334 0.999125 -0
    outer loop
      vertex 2.93817 -13.6817 2.5
      vertex 2.93817 -13.6817 3.5
      vertex 3.29881 -13.6968 3.5
    endloop
  endfacet
  facet normal -0.104551 0.994519 0
    outer loop
      vertex 2.12297 -13.7674 2.5
      vertex 2.93817 -13.6817 3.5
      vertex 2.93817 -13.6817 2.5
    endloop
  endfacet
  facet normal -0.104551 0.994519 0
    outer loop
      vertex 2.12297 -13.7674 2.5
      vertex 2.12297 -13.7674 3.5
      vertex 2.93817 -13.6817 3.5
    endloop
  endfacet
  facet normal -0.35002 0.936742 0
    outer loop
      vertex 1.43544 -14.0243 2.5
      vertex 2.12297 -13.7674 3.5
      vertex 2.12297 -13.7674 2.5
    endloop
  endfacet
  facet normal -0.35002 0.936742 0
    outer loop
      vertex 1.43544 -14.0243 2.5
      vertex 1.43544 -14.0243 3.5
      vertex 2.12297 -13.7674 3.5
    endloop
  endfacet
  facet normal -0.607504 0.794317 0
    outer loop
      vertex 0.875565 -14.4525 2.5
      vertex 1.43544 -14.0243 3.5
      vertex 1.43544 -14.0243 2.5
    endloop
  endfacet
  facet normal -0.607504 0.794317 0
    outer loop
      vertex 0.875565 -14.4525 2.5
      vertex 0.875565 -14.4525 3.5
      vertex 1.43544 -14.0243 3.5
    endloop
  endfacet
  facet normal -0.815055 0.579384 0
    outer loop
      vertex 0.462204 -15.034 2.5
      vertex 0.875565 -14.4525 3.5
      vertex 0.875565 -14.4525 2.5
    endloop
  endfacet
  facet normal -0.815055 0.579384 0
    outer loop
      vertex 0.462204 -15.034 2.5
      vertex 0.462204 -15.034 3.5
      vertex 0.875565 -14.4525 3.5
    endloop
  endfacet
  facet normal -0.945016 0.327025 0
    outer loop
      vertex 0.214188 -15.7507 2.5
      vertex 0.462204 -15.034 3.5
      vertex 0.462204 -15.034 2.5
    endloop
  endfacet
  facet normal -0.945016 0.327025 0
    outer loop
      vertex 0.214188 -15.7507 2.5
      vertex 0.214188 -15.7507 3.5
      vertex 0.462204 -15.034 3.5
    endloop
  endfacet
  facet normal -0.995325 0.0965793 0
    outer loop
      vertex 0.131516 -16.6027 2.5
      vertex 0.214188 -15.7507 3.5
      vertex 0.214188 -15.7507 2.5
    endloop
  endfacet
  facet normal -0.995325 0.0965793 0
    outer loop
      vertex 0.131516 -16.6027 2.5
      vertex 0.131516 -16.6027 3.5
      vertex 0.214188 -15.7507 3.5
    endloop
  endfacet
  facet normal -0.995302 -0.0968157 0
    outer loop
      vertex 0.214188 -17.4526 2.5
      vertex 0.131516 -16.6027 3.5
      vertex 0.131516 -16.6027 2.5
    endloop
  endfacet
  facet normal -0.995302 -0.0968157 0
    outer loop
      vertex 0.214188 -17.4526 2.5
      vertex 0.214188 -17.4526 3.5
      vertex 0.131516 -16.6027 3.5
    endloop
  endfacet
  facet normal -0.944846 -0.327515 0
    outer loop
      vertex 0.462204 -18.1681 2.5
      vertex 0.214188 -17.4526 3.5
      vertex 0.214188 -17.4526 2.5
    endloop
  endfacet
  facet normal -0.944846 -0.327515 0
    outer loop
      vertex 0.462204 -18.1681 2.5
      vertex 0.462204 -18.1681 3.5
      vertex 0.214188 -17.4526 3.5
    endloop
  endfacet
  facet normal -0.814866 -0.579649 0
    outer loop
      vertex 0.875565 -18.7492 2.5
      vertex 0.462204 -18.1681 3.5
      vertex 0.462204 -18.1681 2.5
    endloop
  endfacet
  facet normal -0.814866 -0.579649 0
    outer loop
      vertex 0.875565 -18.7492 2.5
      vertex 0.875565 -18.7492 3.5
      vertex 0.462204 -18.1681 3.5
    endloop
  endfacet
  facet normal -0.607504 -0.794317 0
    outer loop
      vertex 1.43544 -19.1774 2.5
      vertex 0.875565 -18.7492 3.5
      vertex 0.875565 -18.7492 2.5
    endloop
  endfacet
  facet normal -0.607504 -0.794317 0
    outer loop
      vertex 1.43544 -19.1774 2.5
      vertex 1.43544 -19.1774 3.5
      vertex 0.875565 -18.7492 3.5
    endloop
  endfacet
  facet normal -0.350006 -0.936747 0
    outer loop
      vertex 2.123 -19.4343 2.5
      vertex 1.43544 -19.1774 3.5
      vertex 1.43544 -19.1774 2.5
    endloop
  endfacet
  facet normal -0.350006 -0.936747 0
    outer loop
      vertex 2.123 -19.4343 2.5
      vertex 2.123 -19.4343 3.5
      vertex 1.43544 -19.1774 3.5
    endloop
  endfacet
  facet normal -0.104427 -0.994533 0
    outer loop
      vertex 2.93823 -19.5199 2.5
      vertex 2.123 -19.4343 3.5
      vertex 2.123 -19.4343 2.5
    endloop
  endfacet
  facet normal -0.104427 -0.994533 0
    outer loop
      vertex 2.93823 -19.5199 2.5
      vertex 2.93823 -19.5199 3.5
      vertex 2.123 -19.4343 3.5
    endloop
  endfacet
  facet normal 0.0451442 -0.99898 0
    outer loop
      vertex 3.33212 -19.5021 2.5
      vertex 2.93823 -19.5199 3.5
      vertex 2.93823 -19.5199 2.5
    endloop
  endfacet
  facet normal 0.0451442 -0.99898 0
    outer loop
      vertex 3.33212 -19.5021 2.5
      vertex 3.33212 -19.5021 3.5
      vertex 2.93823 -19.5199 3.5
    endloop
  endfacet
  facet normal 0 -1 0
    outer loop
      vertex -3.19026 -17.031 2.5
      vertex -4.0191 -17.031 3.5
      vertex -4.0191 -17.031 2.5
    endloop
  endfacet
  facet normal 0 -1 0
    outer loop
      vertex -3.19026 -17.031 2.5
      vertex -3.19026 -17.031 3.5
      vertex -4.0191 -17.031 3.5
    endloop
  endfacet
  facet normal -0.0733054 -0.99731 0
    outer loop
      vertex -2.91 -17.0516 2.5
      vertex -3.19026 -17.031 3.5
      vertex -3.19026 -17.031 2.5
    endloop
  endfacet
  facet normal -0.0733054 -0.99731 0
    outer loop
      vertex -2.91 -17.0516 2.5
      vertex -2.91 -17.0516 3.5
      vertex -3.19026 -17.031 3.5
    endloop
  endfacet
  facet normal -0.250577 -0.968097 0
    outer loop
      vertex -2.67201 -17.1132 2.5
      vertex -2.91 -17.0516 3.5
      vertex -2.91 -17.0516 2.5
    endloop
  endfacet
  facet normal -0.250577 -0.968097 0
    outer loop
      vertex -2.67201 -17.1132 2.5
      vertex -2.67201 -17.1132 3.5
      vertex -2.91 -17.0516 3.5
    endloop
  endfacet
  facet normal -0.464347 -0.885653 0
    outer loop
      vertex -2.47632 -17.2158 2.5
      vertex -2.67201 -17.1132 3.5
      vertex -2.67201 -17.1132 2.5
    endloop
  endfacet
  facet normal -0.464347 -0.885653 0
    outer loop
      vertex -2.47632 -17.2158 2.5
      vertex -2.47632 -17.2158 3.5
      vertex -2.67201 -17.1132 3.5
    endloop
  endfacet
  facet normal -0.683914 -0.729563 0
    outer loop
      vertex -2.29988 -17.3812 2.5
      vertex -2.47632 -17.2158 3.5
      vertex -2.47632 -17.2158 2.5
    endloop
  endfacet
  facet normal -0.683914 -0.729563 0
    outer loop
      vertex -2.29988 -17.3812 2.5
      vertex -2.29988 -17.3812 3.5
      vertex -2.47632 -17.2158 3.5
    endloop
  endfacet
  facet normal -0.811322 -0.5846 0
    outer loop
      vertex -2.11967 -17.6313 2.5
      vertex -2.29988 -17.3812 3.5
      vertex -2.29988 -17.3812 2.5
    endloop
  endfacet
  facet normal -0.811322 -0.5846 0
    outer loop
      vertex -2.11967 -17.6313 2.5
      vertex -2.11967 -17.6313 3.5
      vertex -2.29988 -17.3812 3.5
    endloop
  endfacet
  facet normal -0.876293 -0.481778 0
    outer loop
      vertex -1.93571 -17.9659 2.5
      vertex -2.11967 -17.6313 3.5
      vertex -2.11967 -17.6313 2.5
    endloop
  endfacet
  facet normal -0.876293 -0.481778 0
    outer loop
      vertex -1.93571 -17.9659 2.5
      vertex -1.93571 -17.9659 3.5
      vertex -2.11967 -17.6313 3.5
    endloop
  endfacet
  facet normal -0.895009 -0.446048 0
    outer loop
      vertex -1.21616 -19.4097 2.5
      vertex -1.93571 -17.9659 3.5
      vertex -1.93571 -17.9659 2.5
    endloop
  endfacet
  facet normal -0.895009 -0.446048 0
    outer loop
      vertex -1.21616 -19.4097 2.5
      vertex -1.21616 -19.4097 3.5
      vertex -1.93571 -17.9659 3.5
    endloop
  endfacet
  facet normal 0 -1 0
    outer loop
      vertex -0.398651 -19.4097 2.5
      vertex -1.21616 -19.4097 3.5
      vertex -1.21616 -19.4097 2.5
    endloop
  endfacet
  facet normal 0 -1 0
    outer loop
      vertex -0.398651 -19.4097 2.5
      vertex -0.398651 -19.4097 3.5
      vertex -1.21616 -19.4097 3.5
    endloop
  endfacet
  facet normal 0.893664 0.448737 0
    outer loop
      vertex -1.17093 -17.8717 2.5
      vertex -0.398651 -19.4097 3.5
      vertex -0.398651 -19.4097 2.5
    endloop
  endfacet
  facet normal 0.893664 0.448737 -0
    outer loop
      vertex -1.17093 -17.8717 2.5
      vertex -1.17093 -17.8717 3.5
      vertex -0.398651 -19.4097 3.5
    endloop
  endfacet
  facet normal 0.884036 0.467418 0
    outer loop
      vertex -1.32643 -17.5776 2.5
      vertex -1.17093 -17.8717 3.5
      vertex -1.17093 -17.8717 2.5
    endloop
  endfacet
  facet normal 0.884036 0.467418 -0
    outer loop
      vertex -1.32643 -17.5776 2.5
      vertex -1.32643 -17.5776 3.5
      vertex -1.17093 -17.8717 3.5
    endloop
  endfacet
  facet normal 0.848531 0.529146 0
    outer loop
      vertex -1.48152 -17.3289 2.5
      vertex -1.32643 -17.5776 3.5
      vertex -1.32643 -17.5776 2.5
    endloop
  endfacet
  facet normal 0.848531 0.529146 -0
    outer loop
      vertex -1.48152 -17.3289 2.5
      vertex -1.48152 -17.3289 3.5
      vertex -1.32643 -17.5776 3.5
    endloop
  endfacet
  facet normal 0.79623 0.604994 0
    outer loop
      vertex -1.63622 -17.1253 2.5
      vertex -1.48152 -17.3289 3.5
      vertex -1.48152 -17.3289 2.5
    endloop
  endfacet
  facet normal 0.79623 0.604994 -0
    outer loop
      vertex -1.63622 -17.1253 2.5
      vertex -1.63622 -17.1253 3.5
      vertex -1.48152 -17.3289 3.5
    endloop
  endfacet
  facet normal 0.716246 0.697848 0
    outer loop
      vertex -1.79211 -16.9653 2.5
      vertex -1.63622 -17.1253 3.5
      vertex -1.63622 -17.1253 2.5
    endloop
  endfacet
  facet normal 0.716246 0.697848 -0
    outer loop
      vertex -1.79211 -16.9653 2.5
      vertex -1.79211 -16.9653 3.5
      vertex -1.63622 -17.1253 3.5
    endloop
  endfacet
  facet normal 0.596616 0.802527 0
    outer loop
      vertex -1.95097 -16.8472 2.5
      vertex -1.79211 -16.9653 3.5
      vertex -1.79211 -16.9653 2.5
    endloop
  endfacet
  facet normal 0.596616 0.802527 -0
    outer loop
      vertex -1.95097 -16.8472 2.5
      vertex -1.95097 -16.8472 3.5
      vertex -1.79211 -16.9653 3.5
    endloop
  endfacet
  facet normal 0.426545 0.904466 0
    outer loop
      vertex -2.11276 -16.7709 2.5
      vertex -1.95097 -16.8472 3.5
      vertex -1.95097 -16.8472 2.5
    endloop
  endfacet
  facet normal 0.426545 0.904466 -0
    outer loop
      vertex -2.11276 -16.7709 2.5
      vertex -2.11276 -16.7709 3.5
      vertex -1.95097 -16.8472 3.5
    endloop
  endfacet
  facet normal 0.36746 -0.93004 0
    outer loop
      vertex -1.82372 -16.6567 2.5
      vertex -2.11276 -16.7709 3.5
      vertex -2.11276 -16.7709 2.5
    endloop
  endfacet
  facet normal 0.36746 -0.93004 0
    outer loop
      vertex -1.82372 -16.6567 2.5
      vertex -1.82372 -16.6567 3.5
      vertex -2.11276 -16.7709 3.5
    endloop
  endfacet
  facet normal 0.560471 -0.828174 0
    outer loop
      vertex -1.58449 -16.4948 2.5
      vertex -1.82372 -16.6567 3.5
      vertex -1.82372 -16.6567 2.5
    endloop
  endfacet
  facet normal 0.560471 -0.828174 0
    outer loop
      vertex -1.58449 -16.4948 2.5
      vertex -1.58449 -16.4948 3.5
      vertex -1.82372 -16.6567 3.5
    endloop
  endfacet
  facet normal 0.741973 -0.67043 0
    outer loop
      vertex -1.3951 -16.2852 2.5
      vertex -1.58449 -16.4948 3.5
      vertex -1.58449 -16.4948 2.5
    endloop
  endfacet
  facet normal 0.741973 -0.67043 0
    outer loop
      vertex -1.3951 -16.2852 2.5
      vertex -1.3951 -16.2852 3.5
      vertex -1.58449 -16.4948 3.5
    endloop
  endfacet
  facet normal 0.879601 -0.475713 0
    outer loop
      vertex -1.258 -16.0317 2.5
      vertex -1.3951 -16.2852 3.5
      vertex -1.3951 -16.2852 2.5
    endloop
  endfacet
  facet normal 0.879601 -0.475713 0
    outer loop
      vertex -1.258 -16.0317 2.5
      vertex -1.258 -16.0317 3.5
      vertex -1.3951 -16.2852 3.5
    endloop
  endfacet
  facet normal 0.962967 -0.269618 0
    outer loop
      vertex -1.17574 -15.7379 2.5
      vertex -1.258 -16.0317 3.5
      vertex -1.258 -16.0317 2.5
    endloop
  endfacet
  facet normal 0.962967 -0.269618 0
    outer loop
      vertex -1.17574 -15.7379 2.5
      vertex -1.17574 -15.7379 3.5
      vertex -1.258 -16.0317 3.5
    endloop
  endfacet
  facet normal 0.996643 -0.0818692 0
    outer loop
      vertex -1.14832 -15.4041 2.5
      vertex -1.17574 -15.7379 3.5
      vertex -1.17574 -15.7379 2.5
    endloop
  endfacet
  facet normal 0.996643 -0.0818692 0
    outer loop
      vertex -1.14832 -15.4041 2.5
      vertex -1.14832 -15.4041 3.5
      vertex -1.17574 -15.7379 3.5
    endloop
  endfacet
  facet normal 0.994408 0.105607 0
    outer loop
      vertex -1.20107 -14.9074 2.5
      vertex -1.14832 -15.4041 3.5
      vertex -1.14832 -15.4041 2.5
    endloop
  endfacet
  facet normal 0.994408 0.105607 -0
    outer loop
      vertex -1.20107 -14.9074 2.5
      vertex -1.20107 -14.9074 3.5
      vertex -1.14832 -15.4041 3.5
    endloop
  endfacet
  facet normal 0.93155 0.363613 0
    outer loop
      vertex -1.35931 -14.502 2.5
      vertex -1.20107 -14.9074 3.5
      vertex -1.20107 -14.9074 2.5
    endloop
  endfacet
  facet normal 0.93155 0.363613 -0
    outer loop
      vertex -1.35931 -14.502 2.5
      vertex -1.35931 -14.502 3.5
      vertex -1.20107 -14.9074 3.5
    endloop
  endfacet
  facet normal 0.765931 0.642923 0
    outer loop
      vertex -1.62305 -14.1878 2.5
      vertex -1.35931 -14.502 3.5
      vertex -1.35931 -14.502 2.5
    endloop
  endfacet
  facet normal 0.765931 0.642923 -0
    outer loop
      vertex -1.62305 -14.1878 2.5
      vertex -1.62305 -14.1878 3.5
      vertex -1.35931 -14.502 3.5
    endloop
  endfacet
  facet normal 0.516843 0.85608 0
    outer loop
      vertex -1.99391 -13.9639 2.5
      vertex -1.62305 -14.1878 3.5
      vertex -1.62305 -14.1878 2.5
    endloop
  endfacet
  facet normal 0.516843 0.85608 -0
    outer loop
      vertex -1.99391 -13.9639 2.5
      vertex -1.99391 -13.9639 3.5
      vertex -1.62305 -14.1878 3.5
    endloop
  endfacet
  facet normal 0.269605 0.962971 0
    outer loop
      vertex -2.4736 -13.8296 2.5
      vertex -1.99391 -13.9639 3.5
      vertex -1.99391 -13.9639 2.5
    endloop
  endfacet
  facet normal 0.269605 0.962971 -0
    outer loop
      vertex -2.4736 -13.8296 2.5
      vertex -2.4736 -13.8296 3.5
      vertex -1.99391 -13.9639 3.5
    endloop
  endfacet
  facet normal 0.0758997 0.997115 0
    outer loop
      vertex -3.06215 -13.7848 2.5
      vertex -2.4736 -13.8296 3.5
      vertex -2.4736 -13.8296 2.5
    endloop
  endfacet
  facet normal 0.0758997 0.997115 -0
    outer loop
      vertex -3.06215 -13.7848 2.5
      vertex -3.06215 -13.7848 3.5
      vertex -2.4736 -13.8296 3.5
    endloop
  endfacet
  facet normal 0 1 0
    outer loop
      vertex -4.78009 -13.7848 2.5
      vertex -3.06215 -13.7848 3.5
      vertex -3.06215 -13.7848 2.5
    endloop
  endfacet
  facet normal 0 1 0
    outer loop
      vertex -4.78009 -13.7848 2.5
      vertex -4.78009 -13.7848 3.5
      vertex -3.06215 -13.7848 3.5
    endloop
  endfacet
  facet normal -1 0 0
    outer loop
      vertex -4.78009 -19.4097 2.5
      vertex -4.78009 -13.7848 3.5
      vertex -4.78009 -13.7848 2.5
    endloop
  endfacet
  facet normal -1 0 0
    outer loop
      vertex -4.78009 -19.4097 2.5
      vertex -4.78009 -19.4097 3.5
      vertex -4.78009 -13.7848 3.5
    endloop
  endfacet
  facet normal 0 -1 0
    outer loop
      vertex -4.0191 -19.4097 2.5
      vertex -4.78009 -19.4097 3.5
      vertex -4.78009 -19.4097 2.5
    endloop
  endfacet
  facet normal 0 -1 0
    outer loop
      vertex -4.0191 -19.4097 2.5
      vertex -4.0191 -19.4097 3.5
      vertex -4.78009 -19.4097 3.5
    endloop
  endfacet
  facet normal 1 0 0
    outer loop
      vertex -4.0191 -17.031 2.5
      vertex -4.0191 -19.4097 3.5
      vertex -4.0191 -19.4097 2.5
    endloop
  endfacet
  facet normal 1 0 -0
    outer loop
      vertex -4.0191 -17.031 2.5
      vertex -4.0191 -17.031 3.5
      vertex -4.0191 -19.4097 3.5
    endloop
  endfacet
  facet normal 1 0 -0
    outer loop
      vertex -4.0191 -14.4106 2.5
      vertex -4.0191 -14.4106 3.5
      vertex -4.0191 -16.4053 2.5
    endloop
  endfacet
  facet normal 1 -0 0
    outer loop
      vertex -4.0191 -16.4053 3.5
      vertex -4.0191 -16.4053 2.5
      vertex -4.0191 -14.4106 3.5
    endloop
  endfacet
  facet normal 0 -1 0
    outer loop
      vertex -3.06215 -14.4106 2.5
      vertex -3.06215 -14.4106 3.5
      vertex -4.0191 -14.4106 2.5
    endloop
  endfacet
  facet normal 0 -1 0
    outer loop
      vertex -4.0191 -14.4106 3.5
      vertex -4.0191 -14.4106 2.5
      vertex -3.06215 -14.4106 3.5
    endloop
  endfacet
  facet normal -0.0822715 -0.99661 0
    outer loop
      vertex -2.72539 -14.4384 2.5
      vertex -2.72539 -14.4384 3.5
      vertex -3.06215 -14.4106 2.5
    endloop
  endfacet
  facet normal -0.0822715 -0.99661 -0
    outer loop
      vertex -3.06215 -14.4106 3.5
      vertex -3.06215 -14.4106 2.5
      vertex -2.72539 -14.4384 3.5
    endloop
  endfacet
  facet normal -0.288692 -0.957422 0
    outer loop
      vertex -2.44847 -14.5219 2.5
      vertex -2.44847 -14.5219 3.5
      vertex -2.72539 -14.4384 2.5
    endloop
  endfacet
  facet normal -0.288692 -0.957422 -0
    outer loop
      vertex -2.72539 -14.4384 3.5
      vertex -2.72539 -14.4384 2.5
      vertex -2.44847 -14.5219 3.5
    endloop
  endfacet
  facet normal -0.539314 -0.842105 0
    outer loop
      vertex -2.23143 -14.6609 2.5
      vertex -2.23143 -14.6609 3.5
      vertex -2.44847 -14.5219 2.5
    endloop
  endfacet
  facet normal -0.539314 -0.842105 -0
    outer loop
      vertex -2.44847 -14.5219 3.5
      vertex -2.44847 -14.5219 2.5
      vertex -2.23143 -14.6609 3.5
    endloop
  endfacet
  facet normal -0.77912 -0.626874 0
    outer loop
      vertex -2.0755 -14.8547 2.5
      vertex -2.0755 -14.8547 3.5
      vertex -2.23143 -14.6609 2.5
    endloop
  endfacet
  facet normal -0.77912 -0.626874 -0
    outer loop
      vertex -2.23143 -14.6609 3.5
      vertex -2.23143 -14.6609 2.5
      vertex -2.0755 -14.8547 3.5
    endloop
  endfacet
  facet normal -0.935551 -0.353191 0
    outer loop
      vertex -1.98195 -15.1025 2.5
      vertex -1.98195 -15.1025 3.5
      vertex -2.0755 -14.8547 2.5
    endloop
  endfacet
  facet normal -0.935551 -0.353191 -0
    outer loop
      vertex -2.0755 -14.8547 3.5
      vertex -2.0755 -14.8547 2.5
      vertex -1.98195 -15.1025 3.5
    endloop
  endfacet
  facet normal -0.994699 -0.102833 0
    outer loop
      vertex -1.95076 -15.4042 2.5
      vertex -1.95076 -15.4042 3.5
      vertex -1.98195 -15.1025 2.5
    endloop
  endfacet
  facet normal -0.994699 -0.102833 -0
    outer loop
      vertex -1.98195 -15.1025 3.5
      vertex -1.98195 -15.1025 2.5
      vertex -1.95076 -15.4042 3.5
    endloop
  endfacet
  facet normal -0.994713 0.102698 0
    outer loop
      vertex -1.98195 -15.7063 2.5
      vertex -1.98195 -15.7063 3.5
      vertex -1.95076 -15.4042 2.5
    endloop
  endfacet
  facet normal -0.994713 0.102698 0
    outer loop
      vertex -1.95076 -15.4042 3.5
      vertex -1.95076 -15.4042 2.5
      vertex -1.98195 -15.7063 3.5
    endloop
  endfacet
  facet normal -0.936159 0.351576 0
    outer loop
      vertex -2.0755 -15.9554 2.5
      vertex -2.0755 -15.9554 3.5
      vertex -1.98195 -15.7063 2.5
    endloop
  endfacet
  facet normal -0.936159 0.351576 0
    outer loop
      vertex -1.98195 -15.7063 3.5
      vertex -1.98195 -15.7063 2.5
      vertex -2.0755 -15.9554 3.5
    endloop
  endfacet
  facet normal -0.782406 0.622769 0
    outer loop
      vertex -2.23143 -16.1513 2.5
      vertex -2.23143 -16.1513 3.5
      vertex -2.0755 -15.9554 2.5
    endloop
  endfacet
  facet normal -0.782406 0.622769 0
    outer loop
      vertex -2.0755 -15.9554 3.5
      vertex -2.0755 -15.9554 2.5
      vertex -2.23143 -16.1513 3.5
    endloop
  endfacet
  facet normal -0.545054 0.838401 0
    outer loop
      vertex -2.44847 -16.2924 2.5
      vertex -2.44847 -16.2924 3.5
      vertex -2.23143 -16.1513 2.5
    endloop
  endfacet
  facet normal -0.545054 0.838401 0
    outer loop
      vertex -2.23143 -16.1513 3.5
      vertex -2.23143 -16.1513 2.5
      vertex -2.44847 -16.2924 3.5
    endloop
  endfacet
  facet normal -0.292489 0.956269 0
    outer loop
      vertex -2.72539 -16.3771 2.5
      vertex -2.72539 -16.3771 3.5
      vertex -2.44847 -16.2924 2.5
    endloop
  endfacet
  facet normal -0.292489 0.956269 0
    outer loop
      vertex -2.44847 -16.2924 3.5
      vertex -2.44847 -16.2924 2.5
      vertex -2.72539 -16.3771 3.5
    endloop
  endfacet
  facet normal -0.0834471 0.996512 0
    outer loop
      vertex -3.06215 -16.4053 2.5
      vertex -3.06215 -16.4053 3.5
      vertex -2.72539 -16.3771 2.5
    endloop
  endfacet
  facet normal -0.0834471 0.996512 0
    outer loop
      vertex -2.72539 -16.3771 3.5
      vertex -2.72539 -16.3771 2.5
      vertex -3.06215 -16.4053 3.5
    endloop
  endfacet
  facet normal 0 1 0
    outer loop
      vertex -4.0191 -16.4053 2.5
      vertex -4.0191 -16.4053 3.5
      vertex -3.06215 -16.4053 2.5
    endloop
  endfacet
  facet normal 0 1 0
    outer loop
      vertex -3.06215 -16.4053 3.5
      vertex -3.06215 -16.4053 2.5
      vertex -4.0191 -16.4053 3.5
    endloop
  endfacet
endsolid OpenSCAD_Model
