solid OpenSCAD_Model
  facet normal 0 0 -1
    outer loop
      vertex -0.940654 4.29065 2.55
      vertex 0.940654 4.29065 2.55
      vertex 0.940654 -10.2906 2.55
    endloop
  endfacet
  facet normal 0 0 -1
    outer loop
      vertex -0.940654 4.29065 2.55
      vertex 0.940654 -10.2906 2.55
      vertex -0.940654 -10.2906 2.55
    endloop
  endfacet
  facet normal 0 -0 1
    outer loop
      vertex 0.940654 -10.2906 3.65
      vertex 0.940654 4.29065 3.65
      vertex -0.940654 4.29065 3.65
    endloop
  endfacet
  facet normal 0 0 1
    outer loop
      vertex -0.940654 -10.2906 3.65
      vertex 0.940654 -10.2906 3.65
      vertex -0.940654 4.29065 3.65
    endloop
  endfacet
  facet normal 0 1 0
    outer loop
      vertex -0.940654 4.29065 2.55
      vertex 0.940654 4.29065 3.65
      vertex 0.940654 4.29065 2.55
    endloop
  endfacet
  facet normal 0 1 0
    outer loop
      vertex -0.940654 4.29065 2.55
      vertex -0.940654 4.29065 3.65
      vertex 0.940654 4.29065 3.65
    endloop
  endfacet
  facet normal -1 0 0
    outer loop
      vertex -0.940654 -10.2906 2.55
      vertex -0.940654 4.29065 3.65
      vertex -0.940654 4.29065 2.55
    endloop
  endfacet
  facet normal -1 0 0
    outer loop
      vertex -0.940654 -10.2906 2.55
      vertex -0.940654 -10.2906 3.65
      vertex -0.940654 4.29065 3.65
    endloop
  endfacet
  facet normal 0 -1 0
    outer loop
      vertex 0.940654 -10.2906 2.55
      vertex -0.940654 -10.2906 3.65
      vertex -0.940654 -10.2906 2.55
    endloop
  endfacet
  facet normal 0 -1 0
    outer loop
      vertex 0.940654 -10.2906 2.55
      vertex 0.940654 -10.2906 3.65
      vertex -0.940654 -10.2906 3.65
    endloop
  endfacet
  facet normal 1 0 0
    outer loop
      vertex 0.940654 4.29065 2.55
      vertex 0.940654 -10.2906 3.65
      vertex 0.940654 -10.2906 2.55
    endloop
  endfacet
  facet normal 1 0 -0
    outer loop
      vertex 0.940654 4.29065 2.55
      vertex 0.940654 4.29065 3.65
      vertex 0.940654 -10.2906 3.65
    endloop
  endfacet
endsolid OpenSCAD_Model
