solid OpenSCAD_Model
  facet normal 0 0 -1
    outer loop
      vertex 20.8912 0.660685 2.5
      vertex 20.8465 4.94617 2.5
      vertex 20.9997 4.28088 2.5
    endloop
  endfacet
  facet normal -0 0 -1
    outer loop
      vertex 21.0427 1.38599 2.5
      vertex 20.8912 0.660685 2.5
      vertex 20.9997 4.28088 2.5
    endloop
  endfacet
  facet normal 0 0 -1
    outer loop
      vertex 20.6831 -0.0406087 2.5
      vertex 20.8465 4.94617 2.5
      vertex 20.8912 0.660685 2.5
    endloop
  endfacet
  facet normal -0 0 -1
    outer loop
      vertex 20.6831 -0.0406087 2.5
      vertex 20.4206 -0.715861 2.5
      vertex 20.8465 4.94617 2.5
    endloop
  endfacet
  facet normal 0 0 -1
    outer loop
      vertex 20.9997 4.28088 2.5
      vertex 21.107 3.59841 2.5
      vertex 21.0427 1.38599 2.5
    endloop
  endfacet
  facet normal 0 0 -1
    outer loop
      vertex 20.8465 4.94617 2.5
      vertex 20.4206 -0.715861 2.5
      vertex 20.1062 -1.36283 2.5
    endloop
  endfacet
  facet normal -0 0 -1
    outer loop
      vertex 21.1353 2.13326 2.5
      vertex 21.0427 1.38599 2.5
      vertex 21.107 3.59841 2.5
    endloop
  endfacet
  facet normal 0 0 -1
    outer loop
      vertex 19.7419 -1.97949 2.5
      vertex 20.8465 4.94617 2.5
      vertex 20.1062 -1.36283 2.5
    endloop
  endfacet
  facet normal 0 0 -1
    outer loop
      vertex 21.107 3.59841 2.5
      vertex 21.1666 2.90017 2.5
      vertex 21.1353 2.13326 2.5
    endloop
  endfacet
  facet normal 0 0 -1
    outer loop
      vertex 19.7419 -1.97949 2.5
      vertex 20.6492 5.59253 2.5
      vertex 20.8465 4.94617 2.5
    endloop
  endfacet
  facet normal -0 0 -1
    outer loop
      vertex 19.7419 -1.97949 2.5
      vertex 19.3302 -2.5637 2.5
      vertex 20.6492 5.59253 2.5
    endloop
  endfacet
  facet normal 0 0 -1
    outer loop
      vertex 20.6492 5.59253 2.5
      vertex 19.3302 -2.5637 2.5
      vertex 18.8735 -3.11332 2.5
    endloop
  endfacet
  facet normal 0 0 -1
    outer loop
      vertex 18.3738 -3.62622 2.5
      vertex 20.6492 5.59253 2.5
      vertex 18.8735 -3.11332 2.5
    endloop
  endfacet
  facet normal 0 0 -1
    outer loop
      vertex 18.3738 -3.62622 2.5
      vertex 20.4096 6.21844 2.5
      vertex 20.6492 5.59253 2.5
    endloop
  endfacet
  facet normal -0 0 -1
    outer loop
      vertex 18.3738 -3.62622 2.5
      vertex 17.8336 -4.10036 2.5
      vertex 20.4096 6.21844 2.5
    endloop
  endfacet
  facet normal 0 0 -1
    outer loop
      vertex 20.4096 6.21844 2.5
      vertex 17.8336 -4.10036 2.5
      vertex 17.255 -4.53361 2.5
    endloop
  endfacet
  facet normal 0 -0 -1
    outer loop
      vertex 20.1295 6.82229 2.5
      vertex 20.4096 6.21844 2.5
      vertex 17.255 -4.53361 2.5
    endloop
  endfacet
  facet normal 0 0 -1
    outer loop
      vertex 16.6405 -4.92373 2.5
      vertex 20.1295 6.82229 2.5
      vertex 17.255 -4.53361 2.5
    endloop
  endfacet
  facet normal 0 0 -1
    outer loop
      vertex 16.6405 -4.92373 2.5
      vertex 19.8105 7.40253 2.5
      vertex 20.1295 6.82229 2.5
    endloop
  endfacet
  facet normal -0 0 -1
    outer loop
      vertex 16.6405 -4.92373 2.5
      vertex 15.9923 -5.26878 2.5
      vertex 19.8105 7.40253 2.5
    endloop
  endfacet
  facet normal -0 0 -1
    outer loop
      vertex 19.8105 7.40253 2.5
      vertex 15.9923 -5.26878 2.5
      vertex 19.4544 7.95754 2.5
    endloop
  endfacet
  facet normal 0 0 -1
    outer loop
      vertex 19.4544 7.95754 2.5
      vertex 15.9923 -5.26878 2.5
      vertex 15.3127 -5.56653 2.5
    endloop
  endfacet
  facet normal 0 -0 -1
    outer loop
      vertex 19.0632 8.4858 2.5
      vertex 19.4544 7.95754 2.5
      vertex 15.3127 -5.56653 2.5
    endloop
  endfacet
  facet normal 0 0 -1
    outer loop
      vertex 14.604 -5.81484 2.5
      vertex 19.0632 8.4858 2.5
      vertex 15.3127 -5.56653 2.5
    endloop
  endfacet
  facet normal 0 0 -1
    outer loop
      vertex 14.604 -5.81484 2.5
      vertex 18.6384 8.98547 2.5
      vertex 19.0632 8.4858 2.5
    endloop
  endfacet
  facet normal -0 0 -1
    outer loop
      vertex 14.604 -5.81484 2.5
      vertex 13.8685 -6.01168 2.5
      vertex 18.6384 8.98547 2.5
    endloop
  endfacet
  facet normal -0 0 -1
    outer loop
      vertex 18.6384 8.98547 2.5
      vertex 13.8685 -6.01168 2.5
      vertex 18.1819 9.45524 2.5
    endloop
  endfacet
  facet normal -0 0 -1
    outer loop
      vertex 18.1819 9.45524 2.5
      vertex 13.8685 -6.01168 2.5
      vertex 17.6953 9.89347 2.5
    endloop
  endfacet
  facet normal 0 0 -1
    outer loop
      vertex 17.6953 9.89347 2.5
      vertex 13.8685 -6.01168 2.5
      vertex 13.1084 -6.15491 2.5
    endloop
  endfacet
  facet normal 0 -0 -1
    outer loop
      vertex 17.1805 10.2986 2.5
      vertex 17.6953 9.89347 2.5
      vertex 13.1084 -6.15491 2.5
    endloop
  endfacet
  facet normal 0 -0 -1
    outer loop
      vertex 16.6393 10.6689 2.5
      vertex 17.1805 10.2986 2.5
      vertex 13.1084 -6.15491 2.5
    endloop
  endfacet
  facet normal 0 0 -1
    outer loop
      vertex 12.3263 -6.24239 2.5
      vertex 16.6393 10.6689 2.5
      vertex 13.1084 -6.15491 2.5
    endloop
  endfacet
  facet normal 0 0 -1
    outer loop
      vertex 12.3263 -6.24239 2.5
      vertex 16.0734 11.0029 2.5
      vertex 16.6393 10.6689 2.5
    endloop
  endfacet
  facet normal 0 0 -1
    outer loop
      vertex 12.3263 -6.24239 2.5
      vertex 15.4845 11.299 2.5
      vertex 16.0734 11.0029 2.5
    endloop
  endfacet
  facet normal 0 0 -1
    outer loop
      vertex 12.3263 -6.24239 2.5
      vertex 14.8746 11.5556 2.5
      vertex 15.4845 11.299 2.5
    endloop
  endfacet
  facet normal -0 0 -1
    outer loop
      vertex 12.3263 -6.24239 2.5
      vertex 11.524 -6.27209 2.5
      vertex 14.8746 11.5556 2.5
    endloop
  endfacet
  facet normal -0 0 -1
    outer loop
      vertex 14.8746 11.5556 2.5
      vertex 11.524 -6.27209 2.5
      vertex 14.2451 11.771 2.5
    endloop
  endfacet
  facet normal -0 0 -1
    outer loop
      vertex 14.2451 11.771 2.5
      vertex 11.524 -6.27209 2.5
      vertex 13.598 11.9437 2.5
    endloop
  endfacet
  facet normal -0 0 -1
    outer loop
      vertex 13.598 11.9437 2.5
      vertex 11.524 -6.27209 2.5
      vertex 12.9352 12.0722 2.5
    endloop
  endfacet
  facet normal 0 0 -1
    outer loop
      vertex 12.4792 14.9268 2.5
      vertex 12.7068 14.0015 2.5
      vertex 12.8598 13.049 2.5
    endloop
  endfacet
  facet normal 0 0 -1
    outer loop
      vertex 12.1807 15.822 2.5
      vertex 12.4792 14.9268 2.5
      vertex 12.8598 13.049 2.5
    endloop
  endfacet
  facet normal 0 0 -1
    outer loop
      vertex 11.8144 16.6841 2.5
      vertex 12.1807 15.822 2.5
      vertex 12.8598 13.049 2.5
    endloop
  endfacet
  facet normal 0 0 -1
    outer loop
      vertex 12.9352 12.0722 2.5
      vertex 11.8144 16.6841 2.5
      vertex 12.8598 13.049 2.5
    endloop
  endfacet
  facet normal 0 0 -1
    outer loop
      vertex 12.9352 12.0722 2.5
      vertex 11.3837 17.5099 2.5
      vertex 11.8144 16.6841 2.5
    endloop
  endfacet
  facet normal 0 0 -1
    outer loop
      vertex 12.9352 12.0722 2.5
      vertex 10.8918 18.2967 2.5
      vertex 11.3837 17.5099 2.5
    endloop
  endfacet
  facet normal 0 0 -1
    outer loop
      vertex 12.9352 12.0722 2.5
      vertex 10.3424 19.0413 2.5
      vertex 10.8918 18.2967 2.5
    endloop
  endfacet
  facet normal 0 0 -1
    outer loop
      vertex 12.9352 12.0722 2.5
      vertex 9.73867 19.7407 2.5
      vertex 10.3424 19.0413 2.5
    endloop
  endfacet
  facet normal 0 0 -1
    outer loop
      vertex 12.9352 12.0722 2.5
      vertex 9.08396 20.3919 2.5
      vertex 9.73867 19.7407 2.5
    endloop
  endfacet
  facet normal 0 0 -1
    outer loop
      vertex 12.9352 12.0722 2.5
      vertex 8.38165 20.992 2.5
      vertex 9.08396 20.3919 2.5
    endloop
  endfacet
  facet normal 0 0 -1
    outer loop
      vertex 12.9352 12.0722 2.5
      vertex 7.63499 21.538 2.5
      vertex 8.38165 20.992 2.5
    endloop
  endfacet
  facet normal 0 0 -1
    outer loop
      vertex 0.470276 23.5964 2.5
      vertex 6.84743 22.0269 2.5
      vertex 7.63499 21.538 2.5
    endloop
  endfacet
  facet normal 0 0 -1
    outer loop
      vertex 5.16296 22.8209 2.5
      vertex 0.470276 23.5964 2.5
      vertex 1.4505 23.5916 2.5
    endloop
  endfacet
  facet normal 0 0 -1
    outer loop
      vertex 4.27277 23.1203 2.5
      vertex 2.41323 23.5086 2.5
      vertex 3.3551 23.3505 2.5
    endloop
  endfacet
  facet normal 0 0 -1
    outer loop
      vertex 4.27277 23.1203 2.5
      vertex 1.4505 23.5916 2.5
      vertex 2.41323 23.5086 2.5
    endloop
  endfacet
  facet normal -0 -0 -1
    outer loop
      vertex 4.27277 23.1203 2.5
      vertex 5.16296 22.8209 2.5
      vertex 1.4505 23.5916 2.5
    endloop
  endfacet
  facet normal -0 -0 -1
    outer loop
      vertex 5.16296 22.8209 2.5
      vertex 6.02234 22.4554 2.5
      vertex 0.470276 23.5964 2.5
    endloop
  endfacet
  facet normal 0 0 -1
    outer loop
      vertex 0.470276 23.5964 2.5
      vertex 6.02234 22.4554 2.5
      vertex 6.84743 22.0269 2.5
    endloop
  endfacet
  facet normal 0 0 -1
    outer loop
      vertex 12.9352 12.0722 2.5
      vertex 0.470276 23.5964 2.5
      vertex 7.63499 21.538 2.5
    endloop
  endfacet
  facet normal 0 0 -1
    outer loop
      vertex -1.06537 23.5629 2.5
      vertex -0.301819 23.6054 2.5
      vertex 0.470276 23.5964 2.5
    endloop
  endfacet
  facet normal 0 -0 -1
    outer loop
      vertex -1.81824 23.4704 2.5
      vertex -1.06537 23.5629 2.5
      vertex -2.5588 23.3291 2.5
    endloop
  endfacet
  facet normal 0 0 -1
    outer loop
      vertex -2.5588 23.3291 2.5
      vertex -1.06537 23.5629 2.5
      vertex 0.470276 23.5964 2.5
    endloop
  endfacet
  facet normal 0 0 -1
    outer loop
      vertex -3.28522 23.1406 2.5
      vertex -2.5588 23.3291 2.5
      vertex 0.470276 23.5964 2.5
    endloop
  endfacet
  facet normal 0 0 -1
    outer loop
      vertex -3.99577 22.9063 2.5
      vertex -3.28522 23.1406 2.5
      vertex 0.470276 23.5964 2.5
    endloop
  endfacet
  facet normal 0 0 -1
    outer loop
      vertex -4.68862 22.6275 2.5
      vertex -3.99577 22.9063 2.5
      vertex 0.470276 23.5964 2.5
    endloop
  endfacet
  facet normal 0 0 -1
    outer loop
      vertex -5.36214 22.3057 2.5
      vertex -4.68862 22.6275 2.5
      vertex 0.470276 23.5964 2.5
    endloop
  endfacet
  facet normal 0 0 -1
    outer loop
      vertex -6.01451 21.9422 2.5
      vertex -5.36214 22.3057 2.5
      vertex 0.470276 23.5964 2.5
    endloop
  endfacet
  facet normal 0 0 -1
    outer loop
      vertex -6.64388 21.5385 2.5
      vertex -6.01451 21.9422 2.5
      vertex 0.470276 23.5964 2.5
    endloop
  endfacet
  facet normal 0 0 -1
    outer loop
      vertex -7.24864 21.096 2.5
      vertex -6.64388 21.5385 2.5
      vertex 0.470276 23.5964 2.5
    endloop
  endfacet
  facet normal 0 0 -1
    outer loop
      vertex -7.82694 20.6161 2.5
      vertex -7.24864 21.096 2.5
      vertex 0.470276 23.5964 2.5
    endloop
  endfacet
  facet normal 0 0 -1
    outer loop
      vertex -8.37697 20.1002 2.5
      vertex -7.82694 20.6161 2.5
      vertex 0.470276 23.5964 2.5
    endloop
  endfacet
  facet normal 0 0 -1
    outer loop
      vertex -8.89699 19.5497 2.5
      vertex -8.37697 20.1002 2.5
      vertex 0.470276 23.5964 2.5
    endloop
  endfacet
  facet normal 0 0 -1
    outer loop
      vertex -9.38527 18.9661 2.5
      vertex -8.89699 19.5497 2.5
      vertex 0.470276 23.5964 2.5
    endloop
  endfacet
  facet normal 0 0 -1
    outer loop
      vertex -9.84009 18.3508 2.5
      vertex -9.38527 18.9661 2.5
      vertex 0.470276 23.5964 2.5
    endloop
  endfacet
  facet normal 0 0 -1
    outer loop
      vertex -10.2596 17.7051 2.5
      vertex -9.84009 18.3508 2.5
      vertex 0.470276 23.5964 2.5
    endloop
  endfacet
  facet normal 0 0 -1
    outer loop
      vertex -10.6421 17.0304 2.5
      vertex -10.2596 17.7051 2.5
      vertex 0.470276 23.5964 2.5
    endloop
  endfacet
  facet normal 0 0 -1
    outer loop
      vertex -10.9857 16.3283 2.5
      vertex -10.6421 17.0304 2.5
      vertex 0.470276 23.5964 2.5
    endloop
  endfacet
  facet normal 0 0 -1
    outer loop
      vertex -11.2889 15.6001 2.5
      vertex -10.9857 16.3283 2.5
      vertex 0.470276 23.5964 2.5
    endloop
  endfacet
  facet normal 0 0 -1
    outer loop
      vertex 12.9352 12.0722 2.5
      vertex -11.2889 15.6001 2.5
      vertex 0.470276 23.5964 2.5
    endloop
  endfacet
  facet normal 0 0 -1
    outer loop
      vertex -11.9519 -6.04138 2.5
      vertex -12.8354 -5.82237 2.5
      vertex -11.2889 15.6001 2.5
    endloop
  endfacet
  facet normal 0 0 -1
    outer loop
      vertex -11.2889 15.6001 2.5
      vertex -12.8735 15.2717 2.5
      vertex -12.0911 15.4647 2.5
    endloop
  endfacet
  facet normal 0 0 -1
    outer loop
      vertex -11.2889 15.6001 2.5
      vertex -13.6341 15.0238 2.5
      vertex -12.8735 15.2717 2.5
    endloop
  endfacet
  facet normal 0 0 -1
    outer loop
      vertex -15.0812 14.3726 2.5
      vertex -15.3124 -4.77887 2.5
      vertex -15.7634 13.9745 2.5
    endloop
  endfacet
  facet normal 0 0 -1
    outer loop
      vertex -17.6198 12.5187 2.5
      vertex -17.0349 13.045 2.5
      vertex -16.7874 -3.78918 2.5
    endloop
  endfacet
  facet normal 0 0 -1
    outer loop
      vertex -18.168 11.9546 2.5
      vertex -17.4625 -3.21464 2.5
      vertex -18.0916 -2.59076 2.5
    endloop
  endfacet
  facet normal 0 -0 -1
    outer loop
      vertex -18.6774 11.3554 2.5
      vertex -18.6718 -1.92019 2.5
      vertex -19.1459 10.7232 2.5
    endloop
  endfacet
  facet normal 0 0 -1
    outer loop
      vertex -19.1459 10.7232 2.5
      vertex -19.1997 -1.20597 2.5
      vertex -19.5713 10.0608 2.5
    endloop
  endfacet
  facet normal 0 -0 -1
    outer loop
      vertex -19.5713 10.0608 2.5
      vertex -19.1997 -1.20597 2.5
      vertex -19.6722 -0.450765 2.5
    endloop
  endfacet
  facet normal 0 -0 -1
    outer loop
      vertex -19.9517 9.3705 2.5
      vertex -19.6722 -0.450765 2.5
      vertex -20.0863 0.342489 2.5
    endloop
  endfacet
  facet normal 0 0 -1
    outer loop
      vertex -20.2846 8.65487 2.5
      vertex -19.9517 9.3705 2.5
      vertex -20.0863 0.342489 2.5
    endloop
  endfacet
  facet normal 0 0 -1
    outer loop
      vertex -20.5683 7.91614 2.5
      vertex -20.2846 8.65487 2.5
      vertex -20.4384 1.17104 2.5
    endloop
  endfacet
  facet normal 0 -0 -1
    outer loop
      vertex -20.8005 7.15706 2.5
      vertex -20.7258 2.03204 2.5
      vertex -20.945 2.92275 2.5
    endloop
  endfacet
  facet normal 0 0 -1
    outer loop
      vertex -21.093 3.84021 2.5
      vertex -21.1666 4.78168 2.5
      vertex -21.1017 5.58734 2.5
    endloop
  endfacet
  facet normal 0 0 -1
    outer loop
      vertex -20.9789 6.37998 2.5
      vertex -21.093 3.84021 2.5
      vertex -21.1017 5.58734 2.5
    endloop
  endfacet
  facet normal 0 -0 -1
    outer loop
      vertex -20.9789 6.37998 2.5
      vertex -20.945 2.92275 2.5
      vertex -21.093 3.84021 2.5
    endloop
  endfacet
  facet normal 0 0 -1
    outer loop
      vertex -20.9789 6.37998 2.5
      vertex -20.8005 7.15706 2.5
      vertex -20.945 2.92275 2.5
    endloop
  endfacet
  facet normal 0 0 -1
    outer loop
      vertex -20.8005 7.15706 2.5
      vertex -20.5683 7.91614 2.5
      vertex -20.7258 2.03204 2.5
    endloop
  endfacet
  facet normal 0 0 -1
    outer loop
      vertex -20.7258 2.03204 2.5
      vertex -20.5683 7.91614 2.5
      vertex -20.4384 1.17104 2.5
    endloop
  endfacet
  facet normal 0 0 -1
    outer loop
      vertex -20.4384 1.17104 2.5
      vertex -20.2846 8.65487 2.5
      vertex -20.0863 0.342489 2.5
    endloop
  endfacet
  facet normal 0 0 -1
    outer loop
      vertex -19.9517 9.3705 2.5
      vertex -19.5713 10.0608 2.5
      vertex -19.6722 -0.450765 2.5
    endloop
  endfacet
  facet normal 0 -0 -1
    outer loop
      vertex -19.1459 10.7232 2.5
      vertex -18.6718 -1.92019 2.5
      vertex -19.1997 -1.20597 2.5
    endloop
  endfacet
  facet normal 0 0 -1
    outer loop
      vertex -18.6774 11.3554 2.5
      vertex -18.0916 -2.59076 2.5
      vertex -18.6718 -1.92019 2.5
    endloop
  endfacet
  facet normal 0 0 -1
    outer loop
      vertex -18.6774 11.3554 2.5
      vertex -18.168 11.9546 2.5
      vertex -18.0916 -2.59076 2.5
    endloop
  endfacet
  facet normal 0 0 -1
    outer loop
      vertex -18.168 11.9546 2.5
      vertex -17.6198 12.5187 2.5
      vertex -17.4625 -3.21464 2.5
    endloop
  endfacet
  facet normal 0 0 -1
    outer loop
      vertex -17.4625 -3.21464 2.5
      vertex -17.6198 12.5187 2.5
      vertex -16.7874 -3.78918 2.5
    endloop
  endfacet
  facet normal 0 0 -1
    outer loop
      vertex -16.7874 -3.78918 2.5
      vertex -17.0349 13.045 2.5
      vertex -16.0696 -4.31154 2.5
    endloop
  endfacet
  facet normal 0 0 -1
    outer loop
      vertex -16.0696 -4.31154 2.5
      vertex -17.0349 13.045 2.5
      vertex -16.4154 13.5311 2.5
    endloop
  endfacet
  facet normal 0 0 -1
    outer loop
      vertex -15.3124 -4.77887 2.5
      vertex -16.0696 -4.31154 2.5
      vertex -16.4154 13.5311 2.5
    endloop
  endfacet
  facet normal 0 -0 -1
    outer loop
      vertex -15.7634 13.9745 2.5
      vertex -15.3124 -4.77887 2.5
      vertex -16.4154 13.5311 2.5
    endloop
  endfacet
  facet normal 0 -0 -1
    outer loop
      vertex -15.0812 14.3726 2.5
      vertex -14.5188 -5.18831 2.5
      vertex -15.3124 -4.77887 2.5
    endloop
  endfacet
  facet normal 0 0 -1
    outer loop
      vertex -15.0812 14.3726 2.5
      vertex -14.3707 14.7233 2.5
      vertex -14.5188 -5.18831 2.5
    endloop
  endfacet
  facet normal 0 0 -1
    outer loop
      vertex -14.5188 -5.18831 2.5
      vertex -14.3707 14.7233 2.5
      vertex -13.6341 15.0238 2.5
    endloop
  endfacet
  facet normal 0 0 -1
    outer loop
      vertex -11.2889 15.6001 2.5
      vertex -14.5188 -5.18831 2.5
      vertex -13.6341 15.0238 2.5
    endloop
  endfacet
  facet normal 0 0 -1
    outer loop
      vertex -11.2889 15.6001 2.5
      vertex -13.6921 -5.53713 2.5
      vertex -14.5188 -5.18831 2.5
    endloop
  endfacet
  facet normal 0 0 -1
    outer loop
      vertex -11.2889 15.6001 2.5
      vertex -12.8354 -5.82237 2.5
      vertex -13.6921 -5.53713 2.5
    endloop
  endfacet
  facet normal 0 0 -1
    outer loop
      vertex -11.0447 -6.19112 2.5
      vertex -11.9519 -6.04138 2.5
      vertex -11.2889 15.6001 2.5
    endloop
  endfacet
  facet normal 0 0 -1
    outer loop
      vertex -10.1171 -6.26904 2.5
      vertex -11.0447 -6.19112 2.5
      vertex -11.2889 15.6001 2.5
    endloop
  endfacet
  facet normal 0 0 -1
    outer loop
      vertex -9.17216 -6.27209 2.5
      vertex -10.1171 -6.26904 2.5
      vertex -11.2889 15.6001 2.5
    endloop
  endfacet
  facet normal -0 0 -1
    outer loop
      vertex 12.9352 12.0722 2.5
      vertex -9.17216 -6.27209 2.5
      vertex -11.2889 15.6001 2.5
    endloop
  endfacet
  facet normal 0 0 -1
    outer loop
      vertex 12.9352 12.0722 2.5
      vertex 11.524 -6.27209 2.5
      vertex -9.17216 -6.27209 2.5
    endloop
  endfacet
  facet normal 0 0 1
    outer loop
      vertex 20.9997 4.28088 3.5
      vertex 20.8465 4.94617 3.5
      vertex 20.8912 0.660685 3.5
    endloop
  endfacet
  facet normal 0 0 1
    outer loop
      vertex 20.9997 4.28088 3.5
      vertex 20.8912 0.660685 3.5
      vertex 21.0427 1.38599 3.5
    endloop
  endfacet
  facet normal 0 0 1
    outer loop
      vertex 20.8912 0.660685 3.5
      vertex 20.8465 4.94617 3.5
      vertex 20.6831 -0.0406087 3.5
    endloop
  endfacet
  facet normal 0 0 1
    outer loop
      vertex 20.8465 4.94617 3.5
      vertex 20.4206 -0.715861 3.5
      vertex 20.6831 -0.0406087 3.5
    endloop
  endfacet
  facet normal 0 -0 1
    outer loop
      vertex 21.0427 1.38599 3.5
      vertex 21.107 3.59841 3.5
      vertex 20.9997 4.28088 3.5
    endloop
  endfacet
  facet normal 0 0 1
    outer loop
      vertex 20.1062 -1.36283 3.5
      vertex 20.4206 -0.715861 3.5
      vertex 20.8465 4.94617 3.5
    endloop
  endfacet
  facet normal 0 0 1
    outer loop
      vertex 21.107 3.59841 3.5
      vertex 21.0427 1.38599 3.5
      vertex 21.1353 2.13326 3.5
    endloop
  endfacet
  facet normal 0 -0 1
    outer loop
      vertex 20.1062 -1.36283 3.5
      vertex 20.8465 4.94617 3.5
      vertex 19.7419 -1.97949 3.5
    endloop
  endfacet
  facet normal 0 -0 1
    outer loop
      vertex 21.1353 2.13326 3.5
      vertex 21.1666 2.90017 3.5
      vertex 21.107 3.59841 3.5
    endloop
  endfacet
  facet normal 0 0 1
    outer loop
      vertex 20.8465 4.94617 3.5
      vertex 20.6492 5.59253 3.5
      vertex 19.7419 -1.97949 3.5
    endloop
  endfacet
  facet normal 0 0 1
    outer loop
      vertex 20.6492 5.59253 3.5
      vertex 19.3302 -2.5637 3.5
      vertex 19.7419 -1.97949 3.5
    endloop
  endfacet
  facet normal 0 0 1
    outer loop
      vertex 18.8735 -3.11332 3.5
      vertex 19.3302 -2.5637 3.5
      vertex 20.6492 5.59253 3.5
    endloop
  endfacet
  facet normal 0 -0 1
    outer loop
      vertex 18.8735 -3.11332 3.5
      vertex 20.6492 5.59253 3.5
      vertex 18.3738 -3.62622 3.5
    endloop
  endfacet
  facet normal 0 0 1
    outer loop
      vertex 20.6492 5.59253 3.5
      vertex 20.4096 6.21844 3.5
      vertex 18.3738 -3.62622 3.5
    endloop
  endfacet
  facet normal 0 0 1
    outer loop
      vertex 20.4096 6.21844 3.5
      vertex 17.8336 -4.10036 3.5
      vertex 18.3738 -3.62622 3.5
    endloop
  endfacet
  facet normal 0 0 1
    outer loop
      vertex 17.255 -4.53361 3.5
      vertex 17.8336 -4.10036 3.5
      vertex 20.4096 6.21844 3.5
    endloop
  endfacet
  facet normal 0 0 1
    outer loop
      vertex 17.255 -4.53361 3.5
      vertex 20.4096 6.21844 3.5
      vertex 20.1295 6.82229 3.5
    endloop
  endfacet
  facet normal 0 -0 1
    outer loop
      vertex 17.255 -4.53361 3.5
      vertex 20.1295 6.82229 3.5
      vertex 16.6405 -4.92373 3.5
    endloop
  endfacet
  facet normal 0 0 1
    outer loop
      vertex 20.1295 6.82229 3.5
      vertex 19.8105 7.40253 3.5
      vertex 16.6405 -4.92373 3.5
    endloop
  endfacet
  facet normal 0 0 1
    outer loop
      vertex 19.8105 7.40253 3.5
      vertex 15.9923 -5.26878 3.5
      vertex 16.6405 -4.92373 3.5
    endloop
  endfacet
  facet normal 0 0 1
    outer loop
      vertex 19.4544 7.95754 3.5
      vertex 15.9923 -5.26878 3.5
      vertex 19.8105 7.40253 3.5
    endloop
  endfacet
  facet normal 0 0 1
    outer loop
      vertex 15.3127 -5.56653 3.5
      vertex 15.9923 -5.26878 3.5
      vertex 19.4544 7.95754 3.5
    endloop
  endfacet
  facet normal 0 0 1
    outer loop
      vertex 15.3127 -5.56653 3.5
      vertex 19.4544 7.95754 3.5
      vertex 19.0632 8.4858 3.5
    endloop
  endfacet
  facet normal 0 -0 1
    outer loop
      vertex 15.3127 -5.56653 3.5
      vertex 19.0632 8.4858 3.5
      vertex 14.604 -5.81484 3.5
    endloop
  endfacet
  facet normal 0 0 1
    outer loop
      vertex 19.0632 8.4858 3.5
      vertex 18.6384 8.98547 3.5
      vertex 14.604 -5.81484 3.5
    endloop
  endfacet
  facet normal 0 0 1
    outer loop
      vertex 18.6384 8.98547 3.5
      vertex 13.8685 -6.01168 3.5
      vertex 14.604 -5.81484 3.5
    endloop
  endfacet
  facet normal 0 0 1
    outer loop
      vertex 18.1819 9.45524 3.5
      vertex 13.8685 -6.01168 3.5
      vertex 18.6384 8.98547 3.5
    endloop
  endfacet
  facet normal 0 0 1
    outer loop
      vertex 17.6953 9.89347 3.5
      vertex 13.8685 -6.01168 3.5
      vertex 18.1819 9.45524 3.5
    endloop
  endfacet
  facet normal 0 0 1
    outer loop
      vertex 13.1084 -6.15491 3.5
      vertex 13.8685 -6.01168 3.5
      vertex 17.6953 9.89347 3.5
    endloop
  endfacet
  facet normal 0 0 1
    outer loop
      vertex 13.1084 -6.15491 3.5
      vertex 17.6953 9.89347 3.5
      vertex 17.1805 10.2986 3.5
    endloop
  endfacet
  facet normal 0 0 1
    outer loop
      vertex 13.1084 -6.15491 3.5
      vertex 17.1805 10.2986 3.5
      vertex 16.6393 10.6689 3.5
    endloop
  endfacet
  facet normal 0 -0 1
    outer loop
      vertex 13.1084 -6.15491 3.5
      vertex 16.6393 10.6689 3.5
      vertex 12.3263 -6.24239 3.5
    endloop
  endfacet
  facet normal 0 0 1
    outer loop
      vertex 16.6393 10.6689 3.5
      vertex 16.0734 11.0029 3.5
      vertex 12.3263 -6.24239 3.5
    endloop
  endfacet
  facet normal 0 0 1
    outer loop
      vertex 16.0734 11.0029 3.5
      vertex 15.4845 11.299 3.5
      vertex 12.3263 -6.24239 3.5
    endloop
  endfacet
  facet normal 0 0 1
    outer loop
      vertex 15.4845 11.299 3.5
      vertex 14.8746 11.5556 3.5
      vertex 12.3263 -6.24239 3.5
    endloop
  endfacet
  facet normal 0 0 1
    outer loop
      vertex 14.8746 11.5556 3.5
      vertex 11.524 -6.27209 3.5
      vertex 12.3263 -6.24239 3.5
    endloop
  endfacet
  facet normal 0 0 1
    outer loop
      vertex 14.2451 11.771 3.5
      vertex 11.524 -6.27209 3.5
      vertex 14.8746 11.5556 3.5
    endloop
  endfacet
  facet normal 0 0 1
    outer loop
      vertex 13.598 11.9437 3.5
      vertex 11.524 -6.27209 3.5
      vertex 14.2451 11.771 3.5
    endloop
  endfacet
  facet normal 0 0 1
    outer loop
      vertex 12.9352 12.0722 3.5
      vertex 11.524 -6.27209 3.5
      vertex 13.598 11.9437 3.5
    endloop
  endfacet
  facet normal 0 0 1
    outer loop
      vertex 12.8598 13.049 3.5
      vertex 12.7068 14.0015 3.5
      vertex 12.4792 14.9268 3.5
    endloop
  endfacet
  facet normal 0 0 1
    outer loop
      vertex 12.8598 13.049 3.5
      vertex 12.4792 14.9268 3.5
      vertex 12.1807 15.822 3.5
    endloop
  endfacet
  facet normal 0 0 1
    outer loop
      vertex 12.8598 13.049 3.5
      vertex 12.1807 15.822 3.5
      vertex 11.8144 16.6841 3.5
    endloop
  endfacet
  facet normal 0 0 1
    outer loop
      vertex 12.8598 13.049 3.5
      vertex 11.8144 16.6841 3.5
      vertex 12.9352 12.0722 3.5
    endloop
  endfacet
  facet normal 0 0 1
    outer loop
      vertex 11.8144 16.6841 3.5
      vertex 11.3837 17.5099 3.5
      vertex 12.9352 12.0722 3.5
    endloop
  endfacet
  facet normal 0 0 1
    outer loop
      vertex 11.3837 17.5099 3.5
      vertex 10.8918 18.2967 3.5
      vertex 12.9352 12.0722 3.5
    endloop
  endfacet
  facet normal 0 0 1
    outer loop
      vertex 10.8918 18.2967 3.5
      vertex 10.3424 19.0413 3.5
      vertex 12.9352 12.0722 3.5
    endloop
  endfacet
  facet normal 0 0 1
    outer loop
      vertex 10.3424 19.0413 3.5
      vertex 9.73867 19.7407 3.5
      vertex 12.9352 12.0722 3.5
    endloop
  endfacet
  facet normal 0 0 1
    outer loop
      vertex 9.73867 19.7407 3.5
      vertex 9.08396 20.3919 3.5
      vertex 12.9352 12.0722 3.5
    endloop
  endfacet
  facet normal 0 0 1
    outer loop
      vertex 9.08396 20.3919 3.5
      vertex 8.38165 20.992 3.5
      vertex 12.9352 12.0722 3.5
    endloop
  endfacet
  facet normal 0 0 1
    outer loop
      vertex 8.38165 20.992 3.5
      vertex 7.63499 21.538 3.5
      vertex 12.9352 12.0722 3.5
    endloop
  endfacet
  facet normal 0 0 1
    outer loop
      vertex 7.63499 21.538 3.5
      vertex 6.84743 22.0269 3.5
      vertex 0.470276 23.5964 3.5
    endloop
  endfacet
  facet normal 0 0 1
    outer loop
      vertex 1.4505 23.5916 3.5
      vertex 0.470276 23.5964 3.5
      vertex 5.16296 22.8209 3.5
    endloop
  endfacet
  facet normal 0 0 1
    outer loop
      vertex 3.3551 23.3505 3.5
      vertex 2.41323 23.5086 3.5
      vertex 4.27277 23.1203 3.5
    endloop
  endfacet
  facet normal 0 0 1
    outer loop
      vertex 2.41323 23.5086 3.5
      vertex 1.4505 23.5916 3.5
      vertex 4.27277 23.1203 3.5
    endloop
  endfacet
  facet normal 0 0 1
    outer loop
      vertex 1.4505 23.5916 3.5
      vertex 5.16296 22.8209 3.5
      vertex 4.27277 23.1203 3.5
    endloop
  endfacet
  facet normal 0 0 1
    outer loop
      vertex 0.470276 23.5964 3.5
      vertex 6.02234 22.4554 3.5
      vertex 5.16296 22.8209 3.5
    endloop
  endfacet
  facet normal 0 0 1
    outer loop
      vertex 6.84743 22.0269 3.5
      vertex 6.02234 22.4554 3.5
      vertex 0.470276 23.5964 3.5
    endloop
  endfacet
  facet normal 0 0 1
    outer loop
      vertex 7.63499 21.538 3.5
      vertex 0.470276 23.5964 3.5
      vertex 12.9352 12.0722 3.5
    endloop
  endfacet
  facet normal 0 0 1
    outer loop
      vertex 0.470276 23.5964 3.5
      vertex -0.301819 23.6054 3.5
      vertex -1.06537 23.5629 3.5
    endloop
  endfacet
  facet normal 0 0 1
    outer loop
      vertex -2.5588 23.3291 3.5
      vertex -1.06537 23.5629 3.5
      vertex -1.81824 23.4704 3.5
    endloop
  endfacet
  facet normal 0 0 1
    outer loop
      vertex 0.470276 23.5964 3.5
      vertex -1.06537 23.5629 3.5
      vertex -2.5588 23.3291 3.5
    endloop
  endfacet
  facet normal 0 0 1
    outer loop
      vertex 0.470276 23.5964 3.5
      vertex -2.5588 23.3291 3.5
      vertex -3.28522 23.1406 3.5
    endloop
  endfacet
  facet normal 0 0 1
    outer loop
      vertex 0.470276 23.5964 3.5
      vertex -3.28522 23.1406 3.5
      vertex -3.99577 22.9063 3.5
    endloop
  endfacet
  facet normal 0 0 1
    outer loop
      vertex 0.470276 23.5964 3.5
      vertex -3.99577 22.9063 3.5
      vertex -4.68862 22.6275 3.5
    endloop
  endfacet
  facet normal 0 0 1
    outer loop
      vertex 0.470276 23.5964 3.5
      vertex -4.68862 22.6275 3.5
      vertex -5.36214 22.3057 3.5
    endloop
  endfacet
  facet normal 0 0 1
    outer loop
      vertex 0.470276 23.5964 3.5
      vertex -5.36214 22.3057 3.5
      vertex -6.01451 21.9422 3.5
    endloop
  endfacet
  facet normal 0 0 1
    outer loop
      vertex 0.470276 23.5964 3.5
      vertex -6.01451 21.9422 3.5
      vertex -6.64388 21.5385 3.5
    endloop
  endfacet
  facet normal 0 0 1
    outer loop
      vertex 0.470276 23.5964 3.5
      vertex -6.64388 21.5385 3.5
      vertex -7.24864 21.096 3.5
    endloop
  endfacet
  facet normal 0 0 1
    outer loop
      vertex 0.470276 23.5964 3.5
      vertex -7.24864 21.096 3.5
      vertex -7.82694 20.6161 3.5
    endloop
  endfacet
  facet normal 0 0 1
    outer loop
      vertex 0.470276 23.5964 3.5
      vertex -7.82694 20.6161 3.5
      vertex -8.37697 20.1002 3.5
    endloop
  endfacet
  facet normal 0 0 1
    outer loop
      vertex 0.470276 23.5964 3.5
      vertex -8.37697 20.1002 3.5
      vertex -8.89699 19.5497 3.5
    endloop
  endfacet
  facet normal 0 0 1
    outer loop
      vertex 0.470276 23.5964 3.5
      vertex -8.89699 19.5497 3.5
      vertex -9.38527 18.9661 3.5
    endloop
  endfacet
  facet normal 0 0 1
    outer loop
      vertex 0.470276 23.5964 3.5
      vertex -9.38527 18.9661 3.5
      vertex -9.84009 18.3508 3.5
    endloop
  endfacet
  facet normal 0 0 1
    outer loop
      vertex 0.470276 23.5964 3.5
      vertex -9.84009 18.3508 3.5
      vertex -10.2596 17.7051 3.5
    endloop
  endfacet
  facet normal 0 0 1
    outer loop
      vertex 0.470276 23.5964 3.5
      vertex -10.2596 17.7051 3.5
      vertex -10.6421 17.0304 3.5
    endloop
  endfacet
  facet normal 0 0 1
    outer loop
      vertex 0.470276 23.5964 3.5
      vertex -10.6421 17.0304 3.5
      vertex -10.9857 16.3283 3.5
    endloop
  endfacet
  facet normal 0 0 1
    outer loop
      vertex 0.470276 23.5964 3.5
      vertex -10.9857 16.3283 3.5
      vertex -11.2889 15.6001 3.5
    endloop
  endfacet
  facet normal 0 0 1
    outer loop
      vertex 0.470276 23.5964 3.5
      vertex -11.2889 15.6001 3.5
      vertex 12.9352 12.0722 3.5
    endloop
  endfacet
  facet normal 0 0 1
    outer loop
      vertex -11.2889 15.6001 3.5
      vertex -12.8354 -5.82237 3.5
      vertex -11.9519 -6.04138 3.5
    endloop
  endfacet
  facet normal -0 0 1
    outer loop
      vertex -12.0911 15.4647 3.5
      vertex -12.8735 15.2717 3.5
      vertex -11.2889 15.6001 3.5
    endloop
  endfacet
  facet normal -0 0 1
    outer loop
      vertex -12.8735 15.2717 3.5
      vertex -13.6341 15.0238 3.5
      vertex -11.2889 15.6001 3.5
    endloop
  endfacet
  facet normal -0 0 1
    outer loop
      vertex -15.7634 13.9745 3.5
      vertex -15.3124 -4.77887 3.5
      vertex -15.0812 14.3726 3.5
    endloop
  endfacet
  facet normal 0 0 1
    outer loop
      vertex -16.7874 -3.78918 3.5
      vertex -17.0349 13.045 3.5
      vertex -17.6198 12.5187 3.5
    endloop
  endfacet
  facet normal -0 -0 1
    outer loop
      vertex -18.0916 -2.59076 3.5
      vertex -17.4625 -3.21464 3.5
      vertex -18.168 11.9546 3.5
    endloop
  endfacet
  facet normal -0 0 1
    outer loop
      vertex -19.1459 10.7232 3.5
      vertex -18.6718 -1.92019 3.5
      vertex -18.6774 11.3554 3.5
    endloop
  endfacet
  facet normal -0 0 1
    outer loop
      vertex -19.5713 10.0608 3.5
      vertex -19.1997 -1.20597 3.5
      vertex -19.1459 10.7232 3.5
    endloop
  endfacet
  facet normal -0 0 1
    outer loop
      vertex -19.6722 -0.450765 3.5
      vertex -19.1997 -1.20597 3.5
      vertex -19.5713 10.0608 3.5
    endloop
  endfacet
  facet normal -0 0 1
    outer loop
      vertex -20.0863 0.342489 3.5
      vertex -19.6722 -0.450765 3.5
      vertex -19.9517 9.3705 3.5
    endloop
  endfacet
  facet normal 0 -0 1
    outer loop
      vertex -20.0863 0.342489 3.5
      vertex -19.9517 9.3705 3.5
      vertex -20.2846 8.65487 3.5
    endloop
  endfacet
  facet normal 0 -0 1
    outer loop
      vertex -20.4384 1.17104 3.5
      vertex -20.2846 8.65487 3.5
      vertex -20.5683 7.91614 3.5
    endloop
  endfacet
  facet normal -0 0 1
    outer loop
      vertex -20.945 2.92275 3.5
      vertex -20.7258 2.03204 3.5
      vertex -20.8005 7.15706 3.5
    endloop
  endfacet
  facet normal 0 0 1
    outer loop
      vertex -21.1017 5.58734 3.5
      vertex -21.1666 4.78168 3.5
      vertex -21.093 3.84021 3.5
    endloop
  endfacet
  facet normal -0 0 1
    outer loop
      vertex -21.1017 5.58734 3.5
      vertex -21.093 3.84021 3.5
      vertex -20.9789 6.37998 3.5
    endloop
  endfacet
  facet normal -0 0 1
    outer loop
      vertex -21.093 3.84021 3.5
      vertex -20.945 2.92275 3.5
      vertex -20.9789 6.37998 3.5
    endloop
  endfacet
  facet normal 0 -0 1
    outer loop
      vertex -20.945 2.92275 3.5
      vertex -20.8005 7.15706 3.5
      vertex -20.9789 6.37998 3.5
    endloop
  endfacet
  facet normal 0 -0 1
    outer loop
      vertex -20.7258 2.03204 3.5
      vertex -20.5683 7.91614 3.5
      vertex -20.8005 7.15706 3.5
    endloop
  endfacet
  facet normal 0 0 1
    outer loop
      vertex -20.4384 1.17104 3.5
      vertex -20.5683 7.91614 3.5
      vertex -20.7258 2.03204 3.5
    endloop
  endfacet
  facet normal 0 0 1
    outer loop
      vertex -20.0863 0.342489 3.5
      vertex -20.2846 8.65487 3.5
      vertex -20.4384 1.17104 3.5
    endloop
  endfacet
  facet normal 0 -0 1
    outer loop
      vertex -19.6722 -0.450765 3.5
      vertex -19.5713 10.0608 3.5
      vertex -19.9517 9.3705 3.5
    endloop
  endfacet
  facet normal -0 0 1
    outer loop
      vertex -19.1997 -1.20597 3.5
      vertex -18.6718 -1.92019 3.5
      vertex -19.1459 10.7232 3.5
    endloop
  endfacet
  facet normal -0 -0 1
    outer loop
      vertex -18.6718 -1.92019 3.5
      vertex -18.0916 -2.59076 3.5
      vertex -18.6774 11.3554 3.5
    endloop
  endfacet
  facet normal 0 0 1
    outer loop
      vertex -18.0916 -2.59076 3.5
      vertex -18.168 11.9546 3.5
      vertex -18.6774 11.3554 3.5
    endloop
  endfacet
  facet normal 0 0 1
    outer loop
      vertex -17.4625 -3.21464 3.5
      vertex -17.6198 12.5187 3.5
      vertex -18.168 11.9546 3.5
    endloop
  endfacet
  facet normal 0 0 1
    outer loop
      vertex -16.7874 -3.78918 3.5
      vertex -17.6198 12.5187 3.5
      vertex -17.4625 -3.21464 3.5
    endloop
  endfacet
  facet normal 0 0 1
    outer loop
      vertex -16.0696 -4.31154 3.5
      vertex -17.0349 13.045 3.5
      vertex -16.7874 -3.78918 3.5
    endloop
  endfacet
  facet normal 0 0 1
    outer loop
      vertex -16.4154 13.5311 3.5
      vertex -17.0349 13.045 3.5
      vertex -16.0696 -4.31154 3.5
    endloop
  endfacet
  facet normal 0 0 1
    outer loop
      vertex -16.4154 13.5311 3.5
      vertex -16.0696 -4.31154 3.5
      vertex -15.3124 -4.77887 3.5
    endloop
  endfacet
  facet normal -0 0 1
    outer loop
      vertex -16.4154 13.5311 3.5
      vertex -15.3124 -4.77887 3.5
      vertex -15.7634 13.9745 3.5
    endloop
  endfacet
  facet normal -0 0 1
    outer loop
      vertex -15.3124 -4.77887 3.5
      vertex -14.5188 -5.18831 3.5
      vertex -15.0812 14.3726 3.5
    endloop
  endfacet
  facet normal 0 -0 1
    outer loop
      vertex -14.5188 -5.18831 3.5
      vertex -14.3707 14.7233 3.5
      vertex -15.0812 14.3726 3.5
    endloop
  endfacet
  facet normal 0 0 1
    outer loop
      vertex -13.6341 15.0238 3.5
      vertex -14.3707 14.7233 3.5
      vertex -14.5188 -5.18831 3.5
    endloop
  endfacet
  facet normal -0 0 1
    outer loop
      vertex -13.6341 15.0238 3.5
      vertex -14.5188 -5.18831 3.5
      vertex -11.2889 15.6001 3.5
    endloop
  endfacet
  facet normal -0 0 1
    outer loop
      vertex -14.5188 -5.18831 3.5
      vertex -13.6921 -5.53713 3.5
      vertex -11.2889 15.6001 3.5
    endloop
  endfacet
  facet normal -0 0 1
    outer loop
      vertex -13.6921 -5.53713 3.5
      vertex -12.8354 -5.82237 3.5
      vertex -11.2889 15.6001 3.5
    endloop
  endfacet
  facet normal 0 0 1
    outer loop
      vertex -11.2889 15.6001 3.5
      vertex -11.9519 -6.04138 3.5
      vertex -11.0447 -6.19112 3.5
    endloop
  endfacet
  facet normal 0 0 1
    outer loop
      vertex -11.2889 15.6001 3.5
      vertex -11.0447 -6.19112 3.5
      vertex -10.1171 -6.26904 3.5
    endloop
  endfacet
  facet normal 0 0 1
    outer loop
      vertex -11.2889 15.6001 3.5
      vertex -10.1171 -6.26904 3.5
      vertex -9.17216 -6.27209 3.5
    endloop
  endfacet
  facet normal 0 0 1
    outer loop
      vertex -11.2889 15.6001 3.5
      vertex -9.17216 -6.27209 3.5
      vertex 12.9352 12.0722 3.5
    endloop
  endfacet
  facet normal 0 0 1
    outer loop
      vertex -9.17216 -6.27209 3.5
      vertex 11.524 -6.27209 3.5
      vertex 12.9352 12.0722 3.5
    endloop
  endfacet
  facet normal 0.11116 -0.993803 0
    outer loop
      vertex 13.1084 -6.15491 2.5
      vertex 12.3263 -6.24239 3.5
      vertex 12.3263 -6.24239 2.5
    endloop
  endfacet
  facet normal 0.11116 -0.993803 0
    outer loop
      vertex 13.1084 -6.15491 2.5
      vertex 13.1084 -6.15491 3.5
      vertex 12.3263 -6.24239 3.5
    endloop
  endfacet
  facet normal 0.185177 -0.982705 0
    outer loop
      vertex 13.8685 -6.01168 2.5
      vertex 13.1084 -6.15491 3.5
      vertex 13.1084 -6.15491 2.5
    endloop
  endfacet
  facet normal 0.185177 -0.982705 0
    outer loop
      vertex 13.8685 -6.01168 2.5
      vertex 13.8685 -6.01168 3.5
      vertex 13.1084 -6.15491 3.5
    endloop
  endfacet
  facet normal 0.258529 -0.966003 0
    outer loop
      vertex 14.604 -5.81484 2.5
      vertex 13.8685 -6.01168 3.5
      vertex 13.8685 -6.01168 2.5
    endloop
  endfacet
  facet normal 0.258529 -0.966003 0
    outer loop
      vertex 14.604 -5.81484 2.5
      vertex 14.604 -5.81484 3.5
      vertex 13.8685 -6.01168 3.5
    endloop
  endfacet
  facet normal 0.330665 -0.943748 0
    outer loop
      vertex 15.3127 -5.56653 2.5
      vertex 14.604 -5.81484 3.5
      vertex 14.604 -5.81484 2.5
    endloop
  endfacet
  facet normal 0.330665 -0.943748 0
    outer loop
      vertex 15.3127 -5.56653 2.5
      vertex 15.3127 -5.56653 3.5
      vertex 14.604 -5.81484 3.5
    endloop
  endfacet
  facet normal 0.4013 -0.915947 0
    outer loop
      vertex 15.9923 -5.26878 2.5
      vertex 15.3127 -5.56653 3.5
      vertex 15.3127 -5.56653 2.5
    endloop
  endfacet
  facet normal 0.4013 -0.915947 0
    outer loop
      vertex 15.9923 -5.26878 2.5
      vertex 15.9923 -5.26878 3.5
      vertex 15.3127 -5.56653 3.5
    endloop
  endfacet
  facet normal 0.469892 -0.882724 0
    outer loop
      vertex 16.6405 -4.92373 2.5
      vertex 15.9923 -5.26878 3.5
      vertex 15.9923 -5.26878 2.5
    endloop
  endfacet
  facet normal 0.469892 -0.882724 0
    outer loop
      vertex 16.6405 -4.92373 2.5
      vertex 16.6405 -4.92373 3.5
      vertex 15.9923 -5.26878 3.5
    endloop
  endfacet
  facet normal 0.53597 -0.844237 0
    outer loop
      vertex 17.255 -4.53361 2.5
      vertex 16.6405 -4.92373 3.5
      vertex 16.6405 -4.92373 2.5
    endloop
  endfacet
  facet normal 0.53597 -0.844237 0
    outer loop
      vertex 17.255 -4.53361 2.5
      vertex 17.255 -4.53361 3.5
      vertex 16.6405 -4.92373 3.5
    endloop
  endfacet
  facet normal 0.59938 -0.800465 0
    outer loop
      vertex 17.8336 -4.10036 2.5
      vertex 17.255 -4.53361 3.5
      vertex 17.255 -4.53361 2.5
    endloop
  endfacet
  facet normal 0.59938 -0.800465 0
    outer loop
      vertex 17.8336 -4.10036 2.5
      vertex 17.8336 -4.10036 3.5
      vertex 17.255 -4.53361 3.5
    endloop
  endfacet
  facet normal 0.659658 -0.751566 0
    outer loop
      vertex 18.3738 -3.62622 2.5
      vertex 17.8336 -4.10036 3.5
      vertex 17.8336 -4.10036 2.5
    endloop
  endfacet
  facet normal 0.659658 -0.751566 0
    outer loop
      vertex 18.3738 -3.62622 2.5
      vertex 18.3738 -3.62622 3.5
      vertex 17.8336 -4.10036 3.5
    endloop
  endfacet
  facet normal 0.716264 -0.69783 0
    outer loop
      vertex 18.8735 -3.11332 2.5
      vertex 18.3738 -3.62622 3.5
      vertex 18.3738 -3.62622 2.5
    endloop
  endfacet
  facet normal 0.716264 -0.69783 0
    outer loop
      vertex 18.8735 -3.11332 2.5
      vertex 18.8735 -3.11332 3.5
      vertex 18.3738 -3.62622 3.5
    endloop
  endfacet
  facet normal 0.769127 -0.639096 0
    outer loop
      vertex 19.3302 -2.5637 2.5
      vertex 18.8735 -3.11332 3.5
      vertex 18.8735 -3.11332 2.5
    endloop
  endfacet
  facet normal 0.769127 -0.639096 0
    outer loop
      vertex 19.3302 -2.5637 2.5
      vertex 19.3302 -2.5637 3.5
      vertex 18.8735 -3.11332 3.5
    endloop
  endfacet
  facet normal 0.817418 -0.576045 0
    outer loop
      vertex 19.7419 -1.97949 2.5
      vertex 19.3302 -2.5637 3.5
      vertex 19.3302 -2.5637 2.5
    endloop
  endfacet
  facet normal 0.817418 -0.576045 0
    outer loop
      vertex 19.7419 -1.97949 2.5
      vertex 19.7419 -1.97949 3.5
      vertex 19.3302 -2.5637 3.5
    endloop
  endfacet
  facet normal 0.860982 -0.508636 0
    outer loop
      vertex 20.1062 -1.36283 2.5
      vertex 19.7419 -1.97949 3.5
      vertex 19.7419 -1.97949 2.5
    endloop
  endfacet
  facet normal 0.860982 -0.508636 0
    outer loop
      vertex 20.1062 -1.36283 2.5
      vertex 20.1062 -1.36283 3.5
      vertex 19.7419 -1.97949 3.5
    endloop
  endfacet
  facet normal 0.899422 -0.437082 0
    outer loop
      vertex 20.4206 -0.715861 2.5
      vertex 20.1062 -1.36283 3.5
      vertex 20.1062 -1.36283 2.5
    endloop
  endfacet
  facet normal 0.899422 -0.437082 0
    outer loop
      vertex 20.4206 -0.715861 2.5
      vertex 20.4206 -0.715861 3.5
      vertex 20.1062 -1.36283 3.5
    endloop
  endfacet
  facet normal 0.93205 -0.362329 0
    outer loop
      vertex 20.6831 -0.0406087 2.5
      vertex 20.4206 -0.715861 3.5
      vertex 20.4206 -0.715861 2.5
    endloop
  endfacet
  facet normal 0.93205 -0.362329 0
    outer loop
      vertex 20.6831 -0.0406087 2.5
      vertex 20.6831 -0.0406087 3.5
      vertex 20.4206 -0.715861 3.5
    endloop
  endfacet
  facet normal 0.958683 -0.284477 0
    outer loop
      vertex 20.8912 0.660685 2.5
      vertex 20.6831 -0.0406087 3.5
      vertex 20.6831 -0.0406087 2.5
    endloop
  endfacet
  facet normal 0.958683 -0.284477 0
    outer loop
      vertex 20.8912 0.660685 2.5
      vertex 20.8912 0.660685 3.5
      vertex 20.6831 -0.0406087 3.5
    endloop
  endfacet
  facet normal 0.978874 -0.204465 0
    outer loop
      vertex 21.0427 1.38599 2.5
      vertex 20.8912 0.660685 3.5
      vertex 20.8912 0.660685 2.5
    endloop
  endfacet
  facet normal 0.978874 -0.204465 0
    outer loop
      vertex 21.0427 1.38599 2.5
      vertex 21.0427 1.38599 3.5
      vertex 20.8912 0.660685 3.5
    endloop
  endfacet
  facet normal 0.99241 -0.122977 0
    outer loop
      vertex 21.1353 2.13326 2.5
      vertex 21.0427 1.38599 3.5
      vertex 21.0427 1.38599 2.5
    endloop
  endfacet
  facet normal 0.99241 -0.122977 0
    outer loop
      vertex 21.1353 2.13326 2.5
      vertex 21.1353 2.13326 3.5
      vertex 21.0427 1.38599 3.5
    endloop
  endfacet
  facet normal 0.999168 -0.0407792 0
    outer loop
      vertex 21.1666 2.90017 2.5
      vertex 21.1353 2.13326 3.5
      vertex 21.1353 2.13326 2.5
    endloop
  endfacet
  facet normal 0.999168 -0.0407792 0
    outer loop
      vertex 21.1666 2.90017 2.5
      vertex 21.1666 2.90017 3.5
      vertex 21.1353 2.13326 3.5
    endloop
  endfacet
  facet normal 0.996377 0.0850482 0
    outer loop
      vertex 21.107 3.59841 2.5
      vertex 21.1666 2.90017 3.5
      vertex 21.1666 2.90017 2.5
    endloop
  endfacet
  facet normal 0.996377 0.0850482 -0
    outer loop
      vertex 21.107 3.59841 2.5
      vertex 21.107 3.59841 3.5
      vertex 21.1666 2.90017 3.5
    endloop
  endfacet
  facet normal 0.987865 0.155315 0
    outer loop
      vertex 20.9997 4.28088 2.5
      vertex 21.107 3.59841 3.5
      vertex 21.107 3.59841 2.5
    endloop
  endfacet
  facet normal 0.987865 0.155315 -0
    outer loop
      vertex 20.9997 4.28088 2.5
      vertex 20.9997 4.28088 3.5
      vertex 21.107 3.59841 3.5
    endloop
  endfacet
  facet normal 0.974497 0.224403 0
    outer loop
      vertex 20.8465 4.94617 2.5
      vertex 20.9997 4.28088 3.5
      vertex 20.9997 4.28088 2.5
    endloop
  endfacet
  facet normal 0.974497 0.224403 -0
    outer loop
      vertex 20.8465 4.94617 2.5
      vertex 20.8465 4.94617 3.5
      vertex 20.9997 4.28088 3.5
    endloop
  endfacet
  facet normal 0.956434 0.291949 0
    outer loop
      vertex 20.6492 5.59253 2.5
      vertex 20.8465 4.94617 3.5
      vertex 20.8465 4.94617 2.5
    endloop
  endfacet
  facet normal 0.956434 0.291949 -0
    outer loop
      vertex 20.6492 5.59253 2.5
      vertex 20.6492 5.59253 3.5
      vertex 20.8465 4.94617 3.5
    endloop
  endfacet
  facet normal 0.933912 0.357504 0
    outer loop
      vertex 20.4096 6.21844 2.5
      vertex 20.6492 5.59253 3.5
      vertex 20.6492 5.59253 2.5
    endloop
  endfacet
  facet normal 0.933912 0.357504 -0
    outer loop
      vertex 20.4096 6.21844 2.5
      vertex 20.4096 6.21844 3.5
      vertex 20.6492 5.59253 3.5
    endloop
  endfacet
  facet normal 0.907157 0.420791 0
    outer loop
      vertex 20.1295 6.82229 2.5
      vertex 20.4096 6.21844 3.5
      vertex 20.4096 6.21844 2.5
    endloop
  endfacet
  facet normal 0.907157 0.420791 -0
    outer loop
      vertex 20.1295 6.82229 2.5
      vertex 20.1295 6.82229 3.5
      vertex 20.4096 6.21844 3.5
    endloop
  endfacet
  facet normal 0.8763 0.481766 0
    outer loop
      vertex 19.8105 7.40253 2.5
      vertex 20.1295 6.82229 3.5
      vertex 20.1295 6.82229 2.5
    endloop
  endfacet
  facet normal 0.8763 0.481766 -0
    outer loop
      vertex 19.8105 7.40253 2.5
      vertex 19.8105 7.40253 3.5
      vertex 20.1295 6.82229 3.5
    endloop
  endfacet
  facet normal 0.841656 0.540015 0
    outer loop
      vertex 19.4544 7.95754 2.5
      vertex 19.8105 7.40253 3.5
      vertex 19.8105 7.40253 2.5
    endloop
  endfacet
  facet normal 0.841656 0.540015 -0
    outer loop
      vertex 19.4544 7.95754 2.5
      vertex 19.4544 7.95754 3.5
      vertex 19.8105 7.40253 3.5
    endloop
  endfacet
  facet normal 0.803633 0.595126 0
    outer loop
      vertex 19.0632 8.4858 2.5
      vertex 19.4544 7.95754 3.5
      vertex 19.4544 7.95754 2.5
    endloop
  endfacet
  facet normal 0.803633 0.595126 -0
    outer loop
      vertex 19.0632 8.4858 2.5
      vertex 19.0632 8.4858 3.5
      vertex 19.4544 7.95754 3.5
    endloop
  endfacet
  facet normal 0.761879 0.64772 0
    outer loop
      vertex 18.6384 8.98547 2.5
      vertex 19.0632 8.4858 3.5
      vertex 19.0632 8.4858 2.5
    endloop
  endfacet
  facet normal 0.761879 0.64772 -0
    outer loop
      vertex 18.6384 8.98547 2.5
      vertex 18.6384 8.98547 3.5
      vertex 19.0632 8.4858 3.5
    endloop
  endfacet
  facet normal 0.717163 0.696905 0
    outer loop
      vertex 18.1819 9.45524 2.5
      vertex 18.6384 8.98547 3.5
      vertex 18.6384 8.98547 2.5
    endloop
  endfacet
  facet normal 0.717163 0.696905 -0
    outer loop
      vertex 18.1819 9.45524 2.5
      vertex 18.1819 9.45524 3.5
      vertex 18.6384 8.98547 3.5
    endloop
  endfacet
  facet normal 0.669209 0.743074 0
    outer loop
      vertex 17.6953 9.89347 2.5
      vertex 18.1819 9.45524 3.5
      vertex 18.1819 9.45524 2.5
    endloop
  endfacet
  facet normal 0.669209 0.743074 -0
    outer loop
      vertex 17.6953 9.89347 2.5
      vertex 17.6953 9.89347 3.5
      vertex 18.1819 9.45524 3.5
    endloop
  endfacet
  facet normal 0.618429 0.78584 0
    outer loop
      vertex 17.1805 10.2986 2.5
      vertex 17.6953 9.89347 3.5
      vertex 17.6953 9.89347 2.5
    endloop
  endfacet
  facet normal 0.618429 0.78584 -0
    outer loop
      vertex 17.1805 10.2986 2.5
      vertex 17.1805 10.2986 3.5
      vertex 17.6953 9.89347 3.5
    endloop
  endfacet
  facet normal 0.564689 0.825304 0
    outer loop
      vertex 16.6393 10.6689 2.5
      vertex 17.1805 10.2986 3.5
      vertex 17.1805 10.2986 2.5
    endloop
  endfacet
  facet normal 0.564689 0.825304 -0
    outer loop
      vertex 16.6393 10.6689 2.5
      vertex 16.6393 10.6689 3.5
      vertex 17.1805 10.2986 3.5
    endloop
  endfacet
  facet normal 0.508283 0.86119 0
    outer loop
      vertex 16.0734 11.0029 2.5
      vertex 16.6393 10.6689 3.5
      vertex 16.6393 10.6689 2.5
    endloop
  endfacet
  facet normal 0.508283 0.86119 -0
    outer loop
      vertex 16.0734 11.0029 2.5
      vertex 16.0734 11.0029 3.5
      vertex 16.6393 10.6689 3.5
    endloop
  endfacet
  facet normal 0.449215 0.893424 0
    outer loop
      vertex 15.4845 11.299 2.5
      vertex 16.0734 11.0029 3.5
      vertex 16.0734 11.0029 2.5
    endloop
  endfacet
  facet normal 0.449215 0.893424 -0
    outer loop
      vertex 15.4845 11.299 2.5
      vertex 15.4845 11.299 3.5
      vertex 16.0734 11.0029 3.5
    endloop
  endfacet
  facet normal 0.3878 0.921743 0
    outer loop
      vertex 14.8746 11.5556 2.5
      vertex 15.4845 11.299 3.5
      vertex 15.4845 11.299 2.5
    endloop
  endfacet
  facet normal 0.3878 0.921743 -0
    outer loop
      vertex 14.8746 11.5556 2.5
      vertex 14.8746 11.5556 3.5
      vertex 15.4845 11.299 3.5
    endloop
  endfacet
  facet normal 0.323748 0.946143 0
    outer loop
      vertex 14.2451 11.771 2.5
      vertex 14.8746 11.5556 3.5
      vertex 14.8746 11.5556 2.5
    endloop
  endfacet
  facet normal 0.323748 0.946143 -0
    outer loop
      vertex 14.2451 11.771 2.5
      vertex 14.2451 11.771 3.5
      vertex 14.8746 11.5556 3.5
    endloop
  endfacet
  facet normal 0.257858 0.966183 0
    outer loop
      vertex 13.598 11.9437 2.5
      vertex 14.2451 11.771 3.5
      vertex 14.2451 11.771 2.5
    endloop
  endfacet
  facet normal 0.257858 0.966183 -0
    outer loop
      vertex 13.598 11.9437 2.5
      vertex 13.598 11.9437 3.5
      vertex 14.2451 11.771 3.5
    endloop
  endfacet
  facet normal 0.19033 0.98172 0
    outer loop
      vertex 12.9352 12.0722 2.5
      vertex 13.598 11.9437 3.5
      vertex 13.598 11.9437 2.5
    endloop
  endfacet
  facet normal 0.19033 0.98172 -0
    outer loop
      vertex 12.9352 12.0722 2.5
      vertex 12.9352 12.0722 3.5
      vertex 13.598 11.9437 3.5
    endloop
  endfacet
  facet normal 0.997034 0.0769619 0
    outer loop
      vertex 12.8598 13.049 2.5
      vertex 12.9352 12.0722 3.5
      vertex 12.9352 12.0722 2.5
    endloop
  endfacet
  facet normal 0.997034 0.0769619 -0
    outer loop
      vertex 12.8598 13.049 2.5
      vertex 12.8598 13.049 3.5
      vertex 12.9352 12.0722 3.5
    endloop
  endfacet
  facet normal 0.987343 0.158597 0
    outer loop
      vertex 12.7068 14.0015 2.5
      vertex 12.8598 13.049 3.5
      vertex 12.8598 13.049 2.5
    endloop
  endfacet
  facet normal 0.987343 0.158597 -0
    outer loop
      vertex 12.7068 14.0015 2.5
      vertex 12.7068 14.0015 3.5
      vertex 12.8598 13.049 3.5
    endloop
  endfacet
  facet normal 0.971055 0.238855 0
    outer loop
      vertex 12.4792 14.9268 2.5
      vertex 12.7068 14.0015 3.5
      vertex 12.7068 14.0015 2.5
    endloop
  endfacet
  facet normal 0.971055 0.238855 -0
    outer loop
      vertex 12.4792 14.9268 2.5
      vertex 12.4792 14.9268 3.5
      vertex 12.7068 14.0015 3.5
    endloop
  endfacet
  facet normal 0.948652 0.316323 0
    outer loop
      vertex 12.1807 15.822 2.5
      vertex 12.4792 14.9268 3.5
      vertex 12.4792 14.9268 2.5
    endloop
  endfacet
  facet normal 0.948652 0.316323 -0
    outer loop
      vertex 12.1807 15.822 2.5
      vertex 12.1807 15.822 3.5
      vertex 12.4792 14.9268 3.5
    endloop
  endfacet
  facet normal 0.920366 0.391057 0
    outer loop
      vertex 11.8144 16.6841 2.5
      vertex 12.1807 15.822 3.5
      vertex 12.1807 15.822 2.5
    endloop
  endfacet
  facet normal 0.920366 0.391057 -0
    outer loop
      vertex 11.8144 16.6841 2.5
      vertex 11.8144 16.6841 3.5
      vertex 12.1807 15.822 3.5
    endloop
  endfacet
  facet normal 0.886652 0.462438 0
    outer loop
      vertex 11.3837 17.5099 2.5
      vertex 11.8144 16.6841 3.5
      vertex 11.8144 16.6841 2.5
    endloop
  endfacet
  facet normal 0.886652 0.462438 -0
    outer loop
      vertex 11.3837 17.5099 2.5
      vertex 11.3837 17.5099 3.5
      vertex 11.8144 16.6841 3.5
    endloop
  endfacet
  facet normal 0.847926 0.530115 0
    outer loop
      vertex 10.8918 18.2967 2.5
      vertex 11.3837 17.5099 3.5
      vertex 11.3837 17.5099 2.5
    endloop
  endfacet
  facet normal 0.847926 0.530115 -0
    outer loop
      vertex 10.8918 18.2967 2.5
      vertex 10.8918 18.2967 3.5
      vertex 11.3837 17.5099 3.5
    endloop
  endfacet
  facet normal 0.80467 0.593722 0
    outer loop
      vertex 10.3424 19.0413 2.5
      vertex 10.8918 18.2967 3.5
      vertex 10.8918 18.2967 2.5
    endloop
  endfacet
  facet normal 0.80467 0.593722 -0
    outer loop
      vertex 10.3424 19.0413 2.5
      vertex 10.3424 19.0413 3.5
      vertex 10.8918 18.2967 3.5
    endloop
  endfacet
  facet normal 0.756982 0.653436 0
    outer loop
      vertex 9.73867 19.7407 2.5
      vertex 10.3424 19.0413 3.5
      vertex 10.3424 19.0413 2.5
    endloop
  endfacet
  facet normal 0.756982 0.653436 -0
    outer loop
      vertex 9.73867 19.7407 2.5
      vertex 9.73867 19.7407 3.5
      vertex 10.3424 19.0413 3.5
    endloop
  endfacet
  facet normal 0.705204 0.709005 0
    outer loop
      vertex 9.08396 20.3919 2.5
      vertex 9.73867 19.7407 3.5
      vertex 9.73867 19.7407 2.5
    endloop
  endfacet
  facet normal 0.705204 0.709005 -0
    outer loop
      vertex 9.08396 20.3919 2.5
      vertex 9.08396 20.3919 3.5
      vertex 9.73867 19.7407 3.5
    endloop
  endfacet
  facet normal 0.649617 0.760261 0
    outer loop
      vertex 8.38165 20.992 2.5
      vertex 9.08396 20.3919 3.5
      vertex 9.08396 20.3919 2.5
    endloop
  endfacet
  facet normal 0.649617 0.760261 -0
    outer loop
      vertex 8.38165 20.992 2.5
      vertex 8.38165 20.992 3.5
      vertex 9.08396 20.3919 3.5
    endloop
  endfacet
  facet normal 0.590273 0.807204 0
    outer loop
      vertex 7.63499 21.538 2.5
      vertex 8.38165 20.992 3.5
      vertex 8.38165 20.992 2.5
    endloop
  endfacet
  facet normal 0.590273 0.807204 -0
    outer loop
      vertex 7.63499 21.538 2.5
      vertex 7.63499 21.538 3.5
      vertex 8.38165 20.992 3.5
    endloop
  endfacet
  facet normal 0.527417 0.849606 0
    outer loop
      vertex 6.84743 22.0269 2.5
      vertex 7.63499 21.538 3.5
      vertex 7.63499 21.538 2.5
    endloop
  endfacet
  facet normal 0.527417 0.849606 -0
    outer loop
      vertex 6.84743 22.0269 2.5
      vertex 6.84743 22.0269 3.5
      vertex 7.63499 21.538 3.5
    endloop
  endfacet
  facet normal 0.46089 0.887457 0
    outer loop
      vertex 6.02234 22.4554 2.5
      vertex 6.84743 22.0269 3.5
      vertex 6.84743 22.0269 2.5
    endloop
  endfacet
  facet normal 0.46089 0.887457 -0
    outer loop
      vertex 6.02234 22.4554 2.5
      vertex 6.02234 22.4554 3.5
      vertex 6.84743 22.0269 3.5
    endloop
  endfacet
  facet normal 0.39138 0.920229 0
    outer loop
      vertex 5.16296 22.8209 2.5
      vertex 6.02234 22.4554 3.5
      vertex 6.02234 22.4554 2.5
    endloop
  endfacet
  facet normal 0.39138 0.920229 -0
    outer loop
      vertex 5.16296 22.8209 2.5
      vertex 5.16296 22.8209 3.5
      vertex 6.02234 22.4554 3.5
    endloop
  endfacet
  facet normal 0.318785 0.947827 0
    outer loop
      vertex 4.27277 23.1203 2.5
      vertex 5.16296 22.8209 3.5
      vertex 5.16296 22.8209 2.5
    endloop
  endfacet
  facet normal 0.318785 0.947827 -0
    outer loop
      vertex 4.27277 23.1203 2.5
      vertex 4.27277 23.1203 3.5
      vertex 5.16296 22.8209 3.5
    endloop
  endfacet
  facet normal 0.243314 0.969948 0
    outer loop
      vertex 3.3551 23.3505 2.5
      vertex 4.27277 23.1203 3.5
      vertex 4.27277 23.1203 2.5
    endloop
  endfacet
  facet normal 0.243314 0.969948 -0
    outer loop
      vertex 3.3551 23.3505 2.5
      vertex 3.3551 23.3505 3.5
      vertex 4.27277 23.1203 3.5
    endloop
  endfacet
  facet normal 0.165542 0.986203 0
    outer loop
      vertex 2.41323 23.5086 2.5
      vertex 3.3551 23.3505 3.5
      vertex 3.3551 23.3505 2.5
    endloop
  endfacet
  facet normal 0.165542 0.986203 -0
    outer loop
      vertex 2.41323 23.5086 2.5
      vertex 2.41323 23.5086 3.5
      vertex 3.3551 23.3505 3.5
    endloop
  endfacet
  facet normal 0.0858945 0.996304 0
    outer loop
      vertex 1.4505 23.5916 2.5
      vertex 2.41323 23.5086 3.5
      vertex 2.41323 23.5086 2.5
    endloop
  endfacet
  facet normal 0.0858945 0.996304 -0
    outer loop
      vertex 1.4505 23.5916 2.5
      vertex 1.4505 23.5916 3.5
      vertex 2.41323 23.5086 3.5
    endloop
  endfacet
  facet normal 0.00489678 0.999988 0
    outer loop
      vertex 0.470276 23.5964 2.5
      vertex 1.4505 23.5916 3.5
      vertex 1.4505 23.5916 2.5
    endloop
  endfacet
  facet normal 0.00489678 0.999988 -0
    outer loop
      vertex 0.470276 23.5964 2.5
      vertex 0.470276 23.5964 3.5
      vertex 1.4505 23.5916 3.5
    endloop
  endfacet
  facet normal 0.0116558 0.999932 0
    outer loop
      vertex -0.301819 23.6054 2.5
      vertex 0.470276 23.5964 3.5
      vertex 0.470276 23.5964 2.5
    endloop
  endfacet
  facet normal 0.0116558 0.999932 -0
    outer loop
      vertex -0.301819 23.6054 2.5
      vertex -0.301819 23.6054 3.5
      vertex 0.470276 23.5964 3.5
    endloop
  endfacet
  facet normal -0.055575 0.998455 0
    outer loop
      vertex -1.06537 23.5629 2.5
      vertex -0.301819 23.6054 3.5
      vertex -0.301819 23.6054 2.5
    endloop
  endfacet
  facet normal -0.055575 0.998455 0
    outer loop
      vertex -1.06537 23.5629 2.5
      vertex -1.06537 23.5629 3.5
      vertex -0.301819 23.6054 3.5
    endloop
  endfacet
  facet normal -0.121946 0.992537 0
    outer loop
      vertex -1.81824 23.4704 2.5
      vertex -1.06537 23.5629 3.5
      vertex -1.06537 23.5629 2.5
    endloop
  endfacet
  facet normal -0.121946 0.992537 0
    outer loop
      vertex -1.81824 23.4704 2.5
      vertex -1.81824 23.4704 3.5
      vertex -1.06537 23.5629 3.5
    endloop
  endfacet
  facet normal -0.187421 0.98228 0
    outer loop
      vertex -2.5588 23.3291 2.5
      vertex -1.81824 23.4704 3.5
      vertex -1.81824 23.4704 2.5
    endloop
  endfacet
  facet normal -0.187421 0.98228 0
    outer loop
      vertex -2.5588 23.3291 2.5
      vertex -2.5588 23.3291 3.5
      vertex -1.81824 23.4704 3.5
    endloop
  endfacet
  facet normal -0.251173 0.967942 0
    outer loop
      vertex -3.28522 23.1406 2.5
      vertex -2.5588 23.3291 3.5
      vertex -2.5588 23.3291 2.5
    endloop
  endfacet
  facet normal -0.251173 0.967942 0
    outer loop
      vertex -3.28522 23.1406 2.5
      vertex -3.28522 23.1406 3.5
      vertex -2.5588 23.3291 3.5
    endloop
  endfacet
  facet normal -0.313159 0.949701 0
    outer loop
      vertex -3.99577 22.9063 2.5
      vertex -3.28522 23.1406 3.5
      vertex -3.28522 23.1406 2.5
    endloop
  endfacet
  facet normal -0.313159 0.949701 0
    outer loop
      vertex -3.99577 22.9063 2.5
      vertex -3.99577 22.9063 3.5
      vertex -3.28522 23.1406 3.5
    endloop
  endfacet
  facet normal -0.373306 0.927708 0
    outer loop
      vertex -4.68862 22.6275 2.5
      vertex -3.99577 22.9063 3.5
      vertex -3.99577 22.9063 2.5
    endloop
  endfacet
  facet normal -0.373306 0.927708 0
    outer loop
      vertex -4.68862 22.6275 2.5
      vertex -4.68862 22.6275 3.5
      vertex -3.99577 22.9063 3.5
    endloop
  endfacet
  facet normal -0.431108 0.9023 0
    outer loop
      vertex -5.36214 22.3057 2.5
      vertex -4.68862 22.6275 3.5
      vertex -4.68862 22.6275 2.5
    endloop
  endfacet
  facet normal -0.431108 0.9023 0
    outer loop
      vertex -5.36214 22.3057 2.5
      vertex -5.36214 22.3057 3.5
      vertex -4.68862 22.6275 3.5
    endloop
  endfacet
  facet normal -0.48674 0.873547 0
    outer loop
      vertex -6.01451 21.9422 2.5
      vertex -5.36214 22.3057 3.5
      vertex -5.36214 22.3057 2.5
    endloop
  endfacet
  facet normal -0.48674 0.873547 0
    outer loop
      vertex -6.01451 21.9422 2.5
      vertex -6.01451 21.9422 3.5
      vertex -5.36214 22.3057 3.5
    endloop
  endfacet
  facet normal -0.53991 0.841723 0
    outer loop
      vertex -6.64388 21.5385 2.5
      vertex -6.01451 21.9422 3.5
      vertex -6.01451 21.9422 2.5
    endloop
  endfacet
  facet normal -0.53991 0.841723 0
    outer loop
      vertex -6.64388 21.5385 2.5
      vertex -6.64388 21.5385 3.5
      vertex -6.01451 21.9422 3.5
    endloop
  endfacet
  facet normal -0.590504 0.807035 0
    outer loop
      vertex -7.24864 21.096 2.5
      vertex -6.64388 21.5385 3.5
      vertex -6.64388 21.5385 2.5
    endloop
  endfacet
  facet normal -0.590504 0.807035 0
    outer loop
      vertex -7.24864 21.096 2.5
      vertex -7.24864 21.096 3.5
      vertex -6.64388 21.5385 3.5
    endloop
  endfacet
  facet normal -0.638599 0.769539 0
    outer loop
      vertex -7.82694 20.6161 2.5
      vertex -7.24864 21.096 3.5
      vertex -7.24864 21.096 2.5
    endloop
  endfacet
  facet normal -0.638599 0.769539 0
    outer loop
      vertex -7.82694 20.6161 2.5
      vertex -7.82694 20.6161 3.5
      vertex -7.24864 21.096 3.5
    endloop
  endfacet
  facet normal -0.684115 0.729374 0
    outer loop
      vertex -8.37697 20.1002 2.5
      vertex -7.82694 20.6161 3.5
      vertex -7.82694 20.6161 2.5
    endloop
  endfacet
  facet normal -0.684115 0.729374 0
    outer loop
      vertex -8.37697 20.1002 2.5
      vertex -8.37697 20.1002 3.5
      vertex -7.82694 20.6161 3.5
    endloop
  endfacet
  facet normal -0.726945 0.686696 0
    outer loop
      vertex -8.89699 19.5497 2.5
      vertex -8.37697 20.1002 3.5
      vertex -8.37697 20.1002 2.5
    endloop
  endfacet
  facet normal -0.726945 0.686696 0
    outer loop
      vertex -8.89699 19.5497 2.5
      vertex -8.89699 19.5497 3.5
      vertex -8.37697 20.1002 3.5
    endloop
  endfacet
  facet normal -0.766962 0.641693 0
    outer loop
      vertex -9.38527 18.9661 2.5
      vertex -8.89699 19.5497 3.5
      vertex -8.89699 19.5497 2.5
    endloop
  endfacet
  facet normal -0.766962 0.641693 0
    outer loop
      vertex -9.38527 18.9661 2.5
      vertex -9.38527 18.9661 3.5
      vertex -8.89699 19.5497 3.5
    endloop
  endfacet
  facet normal -0.804155 0.594419 0
    outer loop
      vertex -9.84009 18.3508 2.5
      vertex -9.38527 18.9661 3.5
      vertex -9.38527 18.9661 2.5
    endloop
  endfacet
  facet normal -0.804155 0.594419 0
    outer loop
      vertex -9.84009 18.3508 2.5
      vertex -9.84009 18.3508 3.5
      vertex -9.38527 18.9661 3.5
    endloop
  endfacet
  facet normal -0.838559 0.54481 0
    outer loop
      vertex -10.2596 17.7051 2.5
      vertex -9.84009 18.3508 3.5
      vertex -9.84009 18.3508 2.5
    endloop
  endfacet
  facet normal -0.838559 0.54481 0
    outer loop
      vertex -10.2596 17.7051 2.5
      vertex -10.2596 17.7051 3.5
      vertex -9.84009 18.3508 3.5
    endloop
  endfacet
  facet normal -0.869928 0.493178 0
    outer loop
      vertex -10.6421 17.0304 2.5
      vertex -10.2596 17.7051 3.5
      vertex -10.2596 17.7051 2.5
    endloop
  endfacet
  facet normal -0.869928 0.493178 0
    outer loop
      vertex -10.6421 17.0304 2.5
      vertex -10.6421 17.0304 3.5
      vertex -10.2596 17.7051 3.5
    endloop
  endfacet
  facet normal -0.898207 0.439573 0
    outer loop
      vertex -10.9857 16.3283 2.5
      vertex -10.6421 17.0304 3.5
      vertex -10.6421 17.0304 2.5
    endloop
  endfacet
  facet normal -0.898207 0.439573 0
    outer loop
      vertex -10.9857 16.3283 2.5
      vertex -10.9857 16.3283 3.5
      vertex -10.6421 17.0304 3.5
    endloop
  endfacet
  facet normal -0.923174 0.384381 0
    outer loop
      vertex -11.2889 15.6001 2.5
      vertex -10.9857 16.3283 3.5
      vertex -10.9857 16.3283 2.5
    endloop
  endfacet
  facet normal -0.923174 0.384381 0
    outer loop
      vertex -11.2889 15.6001 2.5
      vertex -11.2889 15.6001 3.5
      vertex -10.9857 16.3283 3.5
    endloop
  endfacet
  facet normal -0.166432 0.986053 0
    outer loop
      vertex -12.0911 15.4647 2.5
      vertex -11.2889 15.6001 3.5
      vertex -11.2889 15.6001 2.5
    endloop
  endfacet
  facet normal -0.166432 0.986053 0
    outer loop
      vertex -12.0911 15.4647 2.5
      vertex -12.0911 15.4647 3.5
      vertex -11.2889 15.6001 3.5
    endloop
  endfacet
  facet normal -0.239498 0.970897 0
    outer loop
      vertex -12.8735 15.2717 2.5
      vertex -12.0911 15.4647 3.5
      vertex -12.0911 15.4647 2.5
    endloop
  endfacet
  facet normal -0.239498 0.970897 0
    outer loop
      vertex -12.8735 15.2717 2.5
      vertex -12.8735 15.2717 3.5
      vertex -12.0911 15.4647 3.5
    endloop
  endfacet
  facet normal -0.309883 0.950775 0
    outer loop
      vertex -13.6341 15.0238 2.5
      vertex -12.8735 15.2717 3.5
      vertex -12.8735 15.2717 2.5
    endloop
  endfacet
  facet normal -0.309883 0.950775 0
    outer loop
      vertex -13.6341 15.0238 2.5
      vertex -13.6341 15.0238 3.5
      vertex -12.8735 15.2717 3.5
    endloop
  endfacet
  facet normal -0.377732 0.925915 0
    outer loop
      vertex -14.3707 14.7233 2.5
      vertex -13.6341 15.0238 3.5
      vertex -13.6341 15.0238 2.5
    endloop
  endfacet
  facet normal -0.377732 0.925915 0
    outer loop
      vertex -14.3707 14.7233 2.5
      vertex -14.3707 14.7233 3.5
      vertex -13.6341 15.0238 3.5
    endloop
  endfacet
  facet normal -0.442614 0.896712 0
    outer loop
      vertex -15.0812 14.3726 2.5
      vertex -14.3707 14.7233 3.5
      vertex -14.3707 14.7233 2.5
    endloop
  endfacet
  facet normal -0.442614 0.896712 0
    outer loop
      vertex -15.0812 14.3726 2.5
      vertex -15.0812 14.3726 3.5
      vertex -14.3707 14.7233 3.5
    endloop
  endfacet
  facet normal -0.504013 0.863696 0
    outer loop
      vertex -15.7634 13.9745 2.5
      vertex -15.0812 14.3726 3.5
      vertex -15.0812 14.3726 2.5
    endloop
  endfacet
  facet normal -0.504013 0.863696 0
    outer loop
      vertex -15.7634 13.9745 2.5
      vertex -15.7634 13.9745 3.5
      vertex -15.0812 14.3726 3.5
    endloop
  endfacet
  facet normal -0.562345 0.826903 0
    outer loop
      vertex -16.4154 13.5311 2.5
      vertex -15.7634 13.9745 3.5
      vertex -15.7634 13.9745 2.5
    endloop
  endfacet
  facet normal -0.562345 0.826903 0
    outer loop
      vertex -16.4154 13.5311 2.5
      vertex -16.4154 13.5311 3.5
      vertex -15.7634 13.9745 3.5
    endloop
  endfacet
  facet normal -0.617311 0.786719 0
    outer loop
      vertex -17.0349 13.045 2.5
      vertex -16.4154 13.5311 3.5
      vertex -16.4154 13.5311 2.5
    endloop
  endfacet
  facet normal -0.617311 0.786719 0
    outer loop
      vertex -17.0349 13.045 2.5
      vertex -17.0349 13.045 3.5
      vertex -16.4154 13.5311 3.5
    endloop
  endfacet
  facet normal -0.668887 0.743364 0
    outer loop
      vertex -17.6198 12.5187 2.5
      vertex -17.0349 13.045 3.5
      vertex -17.0349 13.045 2.5
    endloop
  endfacet
  facet normal -0.668887 0.743364 0
    outer loop
      vertex -17.6198 12.5187 2.5
      vertex -17.6198 12.5187 3.5
      vertex -17.0349 13.045 3.5
    endloop
  endfacet
  facet normal -0.717141 0.696928 0
    outer loop
      vertex -18.168 11.9546 2.5
      vertex -17.6198 12.5187 3.5
      vertex -17.6198 12.5187 2.5
    endloop
  endfacet
  facet normal -0.717141 0.696928 0
    outer loop
      vertex -18.168 11.9546 2.5
      vertex -18.168 11.9546 3.5
      vertex -17.6198 12.5187 3.5
    endloop
  endfacet
  facet normal -0.761889 0.647707 0
    outer loop
      vertex -18.6774 11.3554 2.5
      vertex -18.168 11.9546 3.5
      vertex -18.168 11.9546 2.5
    endloop
  endfacet
  facet normal -0.761889 0.647707 0
    outer loop
      vertex -18.6774 11.3554 2.5
      vertex -18.6774 11.3554 3.5
      vertex -18.168 11.9546 3.5
    endloop
  endfacet
  facet normal -0.803433 0.595395 0
    outer loop
      vertex -19.1459 10.7232 2.5
      vertex -18.6774 11.3554 3.5
      vertex -18.6774 11.3554 2.5
    endloop
  endfacet
  facet normal -0.803433 0.595395 0
    outer loop
      vertex -19.1459 10.7232 2.5
      vertex -19.1459 10.7232 3.5
      vertex -18.6774 11.3554 3.5
    endloop
  endfacet
  facet normal -0.841426 0.540372 0
    outer loop
      vertex -19.5713 10.0608 2.5
      vertex -19.1459 10.7232 3.5
      vertex -19.1459 10.7232 2.5
    endloop
  endfacet
  facet normal -0.841426 0.540372 0
    outer loop
      vertex -19.5713 10.0608 2.5
      vertex -19.5713 10.0608 3.5
      vertex -19.1459 10.7232 3.5
    endloop
  endfacet
  facet normal -0.875822 0.482635 0
    outer loop
      vertex -19.9517 9.3705 2.5
      vertex -19.5713 10.0608 3.5
      vertex -19.5713 10.0608 2.5
    endloop
  endfacet
  facet normal -0.875822 0.482635 0
    outer loop
      vertex -19.9517 9.3705 2.5
      vertex -19.9517 9.3705 3.5
      vertex -19.5713 10.0608 3.5
    endloop
  endfacet
  facet normal -0.906697 0.421782 0
    outer loop
      vertex -20.2846 8.65487 2.5
      vertex -19.9517 9.3705 3.5
      vertex -19.9517 9.3705 2.5
    endloop
  endfacet
  facet normal -0.906697 0.421782 0
    outer loop
      vertex -20.2846 8.65487 2.5
      vertex -20.2846 8.65487 3.5
      vertex -19.9517 9.3705 3.5
    endloop
  endfacet
  facet normal -0.933526 0.358509 0
    outer loop
      vertex -20.5683 7.91614 2.5
      vertex -20.2846 8.65487 3.5
      vertex -20.2846 8.65487 2.5
    endloop
  endfacet
  facet normal -0.933526 0.358509 0
    outer loop
      vertex -20.5683 7.91614 2.5
      vertex -20.5683 7.91614 3.5
      vertex -20.2846 8.65487 3.5
    endloop
  endfacet
  facet normal -0.95626 0.292517 0
    outer loop
      vertex -20.8005 7.15706 2.5
      vertex -20.5683 7.91614 3.5
      vertex -20.5683 7.91614 2.5
    endloop
  endfacet
  facet normal -0.95626 0.292517 0
    outer loop
      vertex -20.8005 7.15706 2.5
      vertex -20.8005 7.15706 3.5
      vertex -20.5683 7.91614 3.5
    endloop
  endfacet
  facet normal -0.974645 0.223756 0
    outer loop
      vertex -20.9789 6.37998 2.5
      vertex -20.8005 7.15706 3.5
      vertex -20.8005 7.15706 2.5
    endloop
  endfacet
  facet normal -0.974645 0.223756 0
    outer loop
      vertex -20.9789 6.37998 2.5
      vertex -20.9789 6.37998 3.5
      vertex -20.8005 7.15706 3.5
    endloop
  endfacet
  facet normal -0.988211 0.153099 0
    outer loop
      vertex -21.1017 5.58734 2.5
      vertex -20.9789 6.37998 3.5
      vertex -20.9789 6.37998 2.5
    endloop
  endfacet
  facet normal -0.988211 0.153099 0
    outer loop
      vertex -21.1017 5.58734 2.5
      vertex -21.1017 5.58734 3.5
      vertex -20.9789 6.37998 3.5
    endloop
  endfacet
  facet normal -0.996771 0.080295 0
    outer loop
      vertex -21.1666 4.78168 2.5
      vertex -21.1017 5.58734 3.5
      vertex -21.1017 5.58734 2.5
    endloop
  endfacet
  facet normal -0.996771 0.080295 0
    outer loop
      vertex -21.1666 4.78168 2.5
      vertex -21.1666 4.78168 3.5
      vertex -21.1017 5.58734 3.5
    endloop
  endfacet
  facet normal -0.996958 -0.0779378 0
    outer loop
      vertex -21.093 3.84021 2.5
      vertex -21.1666 4.78168 3.5
      vertex -21.1666 4.78168 2.5
    endloop
  endfacet
  facet normal -0.996958 -0.0779378 0
    outer loop
      vertex -21.093 3.84021 2.5
      vertex -21.093 3.84021 3.5
      vertex -21.1666 4.78168 3.5
    endloop
  endfacet
  facet normal -0.987237 -0.159256 0
    outer loop
      vertex -20.945 2.92275 2.5
      vertex -21.093 3.84021 3.5
      vertex -21.093 3.84021 2.5
    endloop
  endfacet
  facet normal -0.987237 -0.159256 0
    outer loop
      vertex -20.945 2.92275 2.5
      vertex -20.945 2.92275 3.5
      vertex -21.093 3.84021 3.5
    endloop
  endfacet
  facet normal -0.971028 -0.238966 0
    outer loop
      vertex -20.7258 2.03204 2.5
      vertex -20.945 2.92275 3.5
      vertex -20.945 2.92275 2.5
    endloop
  endfacet
  facet normal -0.971028 -0.238966 0
    outer loop
      vertex -20.7258 2.03204 2.5
      vertex -20.7258 2.03204 3.5
      vertex -20.945 2.92275 3.5
    endloop
  endfacet
  facet normal -0.948551 -0.316624 0
    outer loop
      vertex -20.4384 1.17104 2.5
      vertex -20.7258 2.03204 3.5
      vertex -20.7258 2.03204 2.5
    endloop
  endfacet
  facet normal -0.948551 -0.316624 0
    outer loop
      vertex -20.4384 1.17104 2.5
      vertex -20.4384 1.17104 3.5
      vertex -20.7258 2.03204 3.5
    endloop
  endfacet
  facet normal -0.920345 -0.391108 0
    outer loop
      vertex -20.0863 0.342489 2.5
      vertex -20.4384 1.17104 3.5
      vertex -20.4384 1.17104 2.5
    endloop
  endfacet
  facet normal -0.920345 -0.391108 0
    outer loop
      vertex -20.0863 0.342489 2.5
      vertex -20.0863 0.342489 3.5
      vertex -20.4384 1.17104 3.5
    endloop
  endfacet
  facet normal -0.88648 -0.462767 0
    outer loop
      vertex -19.6722 -0.450765 2.5
      vertex -20.0863 0.342489 3.5
      vertex -20.0863 0.342489 2.5
    endloop
  endfacet
  facet normal -0.88648 -0.462767 0
    outer loop
      vertex -19.6722 -0.450765 2.5
      vertex -19.6722 -0.450765 3.5
      vertex -20.0863 0.342489 3.5
    endloop
  endfacet
  facet normal -0.847748 -0.5304 0
    outer loop
      vertex -19.1997 -1.20597 2.5
      vertex -19.6722 -0.450765 3.5
      vertex -19.6722 -0.450765 2.5
    endloop
  endfacet
  facet normal -0.847748 -0.5304 0
    outer loop
      vertex -19.1997 -1.20597 2.5
      vertex -19.1997 -1.20597 3.5
      vertex -19.6722 -0.450765 3.5
    endloop
  endfacet
  facet normal -0.804177 -0.59439 0
    outer loop
      vertex -18.6718 -1.92019 2.5
      vertex -19.1997 -1.20597 3.5
      vertex -19.1997 -1.20597 2.5
    endloop
  endfacet
  facet normal -0.804177 -0.59439 0
    outer loop
      vertex -18.6718 -1.92019 2.5
      vertex -18.6718 -1.92019 3.5
      vertex -19.1997 -1.20597 3.5
    endloop
  endfacet
  facet normal -0.756225 -0.654312 0
    outer loop
      vertex -18.0916 -2.59076 2.5
      vertex -18.6718 -1.92019 3.5
      vertex -18.6718 -1.92019 2.5
    endloop
  endfacet
  facet normal -0.756225 -0.654312 0
    outer loop
      vertex -18.0916 -2.59076 2.5
      vertex -18.0916 -2.59076 3.5
      vertex -18.6718 -1.92019 3.5
    endloop
  endfacet
  facet normal -0.704155 -0.710046 0
    outer loop
      vertex -17.4625 -3.21464 2.5
      vertex -18.0916 -2.59076 3.5
      vertex -18.0916 -2.59076 2.5
    endloop
  endfacet
  facet normal -0.704155 -0.710046 0
    outer loop
      vertex -17.4625 -3.21464 2.5
      vertex -17.4625 -3.21464 3.5
      vertex -18.0916 -2.59076 3.5
    endloop
  endfacet
  facet normal -0.64811 -0.761547 0
    outer loop
      vertex -16.7874 -3.78918 2.5
      vertex -17.4625 -3.21464 3.5
      vertex -17.4625 -3.21464 2.5
    endloop
  endfacet
  facet normal -0.64811 -0.761547 0
    outer loop
      vertex -16.7874 -3.78918 2.5
      vertex -16.7874 -3.78918 3.5
      vertex -17.4625 -3.21464 3.5
    endloop
  endfacet
  facet normal -0.58841 -0.808563 0
    outer loop
      vertex -16.0696 -4.31154 2.5
      vertex -16.7874 -3.78918 3.5
      vertex -16.7874 -3.78918 2.5
    endloop
  endfacet
  facet normal -0.58841 -0.808563 0
    outer loop
      vertex -16.0696 -4.31154 2.5
      vertex -16.0696 -4.31154 3.5
      vertex -16.7874 -3.78918 3.5
    endloop
  endfacet
  facet normal -0.525206 -0.850975 0
    outer loop
      vertex -15.3124 -4.77887 2.5
      vertex -16.0696 -4.31154 3.5
      vertex -16.0696 -4.31154 2.5
    endloop
  endfacet
  facet normal -0.525206 -0.850975 0
    outer loop
      vertex -15.3124 -4.77887 2.5
      vertex -15.3124 -4.77887 3.5
      vertex -16.0696 -4.31154 3.5
    endloop
  endfacet
  facet normal -0.458501 -0.888694 0
    outer loop
      vertex -14.5188 -5.18831 2.5
      vertex -15.3124 -4.77887 3.5
      vertex -15.3124 -4.77887 2.5
    endloop
  endfacet
  facet normal -0.458501 -0.888694 0
    outer loop
      vertex -14.5188 -5.18831 2.5
      vertex -14.5188 -5.18831 3.5
      vertex -15.3124 -4.77887 3.5
    endloop
  endfacet
  facet normal -0.388753 -0.921342 0
    outer loop
      vertex -13.6921 -5.53713 2.5
      vertex -14.5188 -5.18831 3.5
      vertex -14.5188 -5.18831 2.5
    endloop
  endfacet
  facet normal -0.388753 -0.921342 0
    outer loop
      vertex -13.6921 -5.53713 2.5
      vertex -13.6921 -5.53713 3.5
      vertex -14.5188 -5.18831 3.5
    endloop
  endfacet
  facet normal -0.315902 -0.948792 0
    outer loop
      vertex -12.8354 -5.82237 2.5
      vertex -13.6921 -5.53713 3.5
      vertex -13.6921 -5.53713 2.5
    endloop
  endfacet
  facet normal -0.315902 -0.948792 0
    outer loop
      vertex -12.8354 -5.82237 2.5
      vertex -12.8354 -5.82237 3.5
      vertex -13.6921 -5.53713 3.5
    endloop
  endfacet
  facet normal -0.240607 -0.970623 0
    outer loop
      vertex -11.9519 -6.04138 2.5
      vertex -12.8354 -5.82237 3.5
      vertex -12.8354 -5.82237 2.5
    endloop
  endfacet
  facet normal -0.240607 -0.970623 0
    outer loop
      vertex -11.9519 -6.04138 2.5
      vertex -11.9519 -6.04138 3.5
      vertex -12.8354 -5.82237 3.5
    endloop
  endfacet
  facet normal -0.162854 -0.98665 0
    outer loop
      vertex -11.0447 -6.19112 2.5
      vertex -11.9519 -6.04138 3.5
      vertex -11.9519 -6.04138 2.5
    endloop
  endfacet
  facet normal -0.162854 -0.98665 0
    outer loop
      vertex -11.0447 -6.19112 2.5
      vertex -11.0447 -6.19112 3.5
      vertex -11.9519 -6.04138 3.5
    endloop
  endfacet
  facet normal -0.0837069 -0.99649 0
    outer loop
      vertex -10.1171 -6.26904 2.5
      vertex -11.0447 -6.19112 3.5
      vertex -11.0447 -6.19112 2.5
    endloop
  endfacet
  facet normal -0.0837069 -0.99649 0
    outer loop
      vertex -10.1171 -6.26904 2.5
      vertex -10.1171 -6.26904 3.5
      vertex -11.0447 -6.19112 3.5
    endloop
  endfacet
  facet normal -0.0032277 -0.999995 0
    outer loop
      vertex -9.17216 -6.27209 2.5
      vertex -10.1171 -6.26904 3.5
      vertex -10.1171 -6.26904 2.5
    endloop
  endfacet
  facet normal -0.0032277 -0.999995 0
    outer loop
      vertex -9.17216 -6.27209 2.5
      vertex -9.17216 -6.27209 3.5
      vertex -10.1171 -6.26904 3.5
    endloop
  endfacet
  facet normal 0 -1 0
    outer loop
      vertex 11.524 -6.27209 2.5
      vertex -9.17216 -6.27209 3.5
      vertex -9.17216 -6.27209 2.5
    endloop
  endfacet
  facet normal 0 -1 0
    outer loop
      vertex 11.524 -6.27209 2.5
      vertex 11.524 -6.27209 3.5
      vertex -9.17216 -6.27209 3.5
    endloop
  endfacet
  facet normal 0.0369932 -0.999316 0
    outer loop
      vertex 12.3263 -6.24239 2.5
      vertex 11.524 -6.27209 3.5
      vertex 11.524 -6.27209 2.5
    endloop
  endfacet
  facet normal 0.0369932 -0.999316 0
    outer loop
      vertex 12.3263 -6.24239 2.5
      vertex 12.3263 -6.24239 3.5
      vertex 11.524 -6.27209 3.5
    endloop
  endfacet
endsolid OpenSCAD_Model
