solid OpenSCAD_Model
  facet normal 0 0 -1
    outer loop
      vertex 19.0625 -8.21953 2.5
      vertex 19.0066 -8.39985 2.5
      vertex 18.9662 -8.48394 2.5
    endloop
  endfacet
  facet normal 0 0 -1
    outer loop
      vertex -18.3349 -9.0715 2.5
      vertex -18.4191 -9.0312 2.5
      vertex -17.9596 -9.14695 2.5
    endloop
  endfacet
  facet normal 0 0 -1
    outer loop
      vertex 9.42874 6.79224 2.5
      vertex 18.6331 15.7719 2.5
      vertex 19.082 15.5474 2.5
    endloop
  endfacet
  facet normal 0 0 -1
    outer loop
      vertex 19.0625 -8.21953 2.5
      vertex 19.0389 -8.31158 2.5
      vertex 19.0066 -8.39985 2.5
    endloop
  endfacet
  facet normal 0 0 -1
    outer loop
      vertex -18.3349 -9.0715 2.5
      vertex -18.0588 -9.142 2.5
      vertex -18.2467 -9.10374 2.5
    endloop
  endfacet
  facet normal 0 0 -1
    outer loop
      vertex -18.2467 -9.10374 2.5
      vertex -18.0588 -9.142 2.5
      vertex -18.1547 -9.12743 2.5
    endloop
  endfacet
  facet normal 0 0 -1
    outer loop
      vertex -18.7734 -8.72601 2.5
      vertex -17.9596 -9.14695 2.5
      vertex -18.7119 -8.79913 2.5
    endloop
  endfacet
  facet normal 0 0 -1
    outer loop
      vertex -18.499 -8.98323 2.5
      vertex -18.5746 -8.92828 2.5
      vertex -17.9596 -9.14695 2.5
    endloop
  endfacet
  facet normal 0 0 -1
    outer loop
      vertex -17.9596 -9.14695 2.5
      vertex -18.0588 -9.142 2.5
      vertex -18.3349 -9.0715 2.5
    endloop
  endfacet
  facet normal 0 0 -1
    outer loop
      vertex -18.4191 -9.0312 2.5
      vertex -18.499 -8.98323 2.5
      vertex -17.9596 -9.14695 2.5
    endloop
  endfacet
  facet normal 0 0 -1
    outer loop
      vertex -18.7734 -8.72601 2.5
      vertex -18.8297 -8.64775 2.5
      vertex -17.9596 -9.14695 2.5
    endloop
  endfacet
  facet normal 0 0 -1
    outer loop
      vertex -18.9266 -8.47821 2.5
      vertex -17.9596 -9.14695 2.5
      vertex -18.8809 -8.56502 2.5
    endloop
  endfacet
  facet normal 0 0 -1
    outer loop
      vertex -17.9596 -9.14695 2.5
      vertex -18.9668 -8.38791 2.5
      vertex -19.0014 -8.29449 2.5
    endloop
  endfacet
  facet normal 0 0 -1
    outer loop
      vertex -19.0299 -8.19866 2.5
      vertex -19.0525 -8.10078 2.5
      vertex -17.9596 -9.14695 2.5
    endloop
  endfacet
  facet normal 0 0 -1
    outer loop
      vertex -19.0787 -7.90085 2.5
      vertex -17.9596 -9.14695 2.5
      vertex -19.0688 -8.00135 2.5
    endloop
  endfacet
  facet normal 0 0 -1
    outer loop
      vertex -17.9596 -9.14695 2.5
      vertex 0 6.79224 2.5
      vertex 17.7351 -9.14695 2.5
    endloop
  endfacet
  facet normal 0 0 -1
    outer loop
      vertex 0 6.79224 2.5
      vertex -7.91007 22.3283 2.5
      vertex -7.17715 22.3846 2.5
    endloop
  endfacet
  facet normal 0 0 -1
    outer loop
      vertex 0 6.79224 2.5
      vertex -8.66135 22.2939 2.5
      vertex -7.91007 22.3283 2.5
    endloop
  endfacet
  facet normal 0 0 -1
    outer loop
      vertex -17.9596 -9.14695 2.5
      vertex -19.082 -7.79996 2.5
      vertex 0 6.79224 2.5
    endloop
  endfacet
  facet normal 0 0 -1
    outer loop
      vertex 0 6.79224 2.5
      vertex -10.2281 22.2939 2.5
      vertex -9.42874 22.2822 2.5
    endloop
  endfacet
  facet normal 0 0 -1
    outer loop
      vertex 0 6.79224 2.5
      vertex -11.0083 22.3283 2.5
      vertex -10.2281 22.2939 2.5
    endloop
  endfacet
  facet normal 0 0 -1
    outer loop
      vertex 0 6.79224 2.5
      vertex -11.7669 22.3846 2.5
      vertex -11.0083 22.3283 2.5
    endloop
  endfacet
  facet normal 0 0 -1
    outer loop
      vertex 0 6.79224 2.5
      vertex -12.5016 22.4619 2.5
      vertex -11.7669 22.3846 2.5
    endloop
  endfacet
  facet normal 0 0 -1
    outer loop
      vertex 0 6.79224 2.5
      vertex -13.2101 22.5594 2.5
      vertex -12.5016 22.4619 2.5
    endloop
  endfacet
  facet normal -0 0 -1
    outer loop
      vertex 0 6.79224 2.5
      vertex -19.082 -7.79996 2.5
      vertex -13.2101 22.5594 2.5
    endloop
  endfacet
  facet normal -0 0 -1
    outer loop
      vertex -13.2101 22.5594 2.5
      vertex -19.082 -7.79996 2.5
      vertex -13.8899 22.6763 2.5
    endloop
  endfacet
  facet normal -0 0 -1
    outer loop
      vertex -13.8899 22.6763 2.5
      vertex -19.082 -7.79996 2.5
      vertex -14.5388 22.8116 2.5
    endloop
  endfacet
  facet normal -0 0 -1
    outer loop
      vertex -14.5388 22.8116 2.5
      vertex -19.082 -7.79996 2.5
      vertex -15.1542 22.9648 2.5
    endloop
  endfacet
  facet normal -0 0 -1
    outer loop
      vertex -15.1542 22.9648 2.5
      vertex -19.082 -7.79996 2.5
      vertex -15.7341 23.1347 2.5
    endloop
  endfacet
  facet normal -0 0 -1
    outer loop
      vertex -15.7341 23.1347 2.5
      vertex -19.082 -7.79996 2.5
      vertex -16.2758 23.3206 2.5
    endloop
  endfacet
  facet normal -0 0 -1
    outer loop
      vertex -16.2758 23.3206 2.5
      vertex -19.082 -7.79996 2.5
      vertex -16.7772 23.5216 2.5
    endloop
  endfacet
  facet normal -0 0 -1
    outer loop
      vertex -16.7772 23.5216 2.5
      vertex -19.082 -7.79996 2.5
      vertex -17.2358 23.737 2.5
    endloop
  endfacet
  facet normal -0 0 -1
    outer loop
      vertex -17.2358 23.737 2.5
      vertex -19.082 -7.79996 2.5
      vertex -17.6492 23.9659 2.5
    endloop
  endfacet
  facet normal -0 0 -1
    outer loop
      vertex -17.6492 23.9659 2.5
      vertex -19.082 -7.79996 2.5
      vertex -18.0152 24.2073 2.5
    endloop
  endfacet
  facet normal -0 0 -1
    outer loop
      vertex -18.0152 24.2073 2.5
      vertex -19.082 -7.79996 2.5
      vertex -18.3314 24.4606 2.5
    endloop
  endfacet
  facet normal -0 0 -1
    outer loop
      vertex -18.3314 24.4606 2.5
      vertex -19.082 -7.79996 2.5
      vertex -18.5953 24.7247 2.5
    endloop
  endfacet
  facet normal -0 0 -1
    outer loop
      vertex -18.5953 24.7247 2.5
      vertex -19.082 -7.79996 2.5
      vertex -18.8048 24.999 2.5
    endloop
  endfacet
  facet normal -0 0 -1
    outer loop
      vertex -18.8048 24.999 2.5
      vertex -19.082 -7.79996 2.5
      vertex -18.9572 25.2827 2.5
    endloop
  endfacet
  facet normal -0 0 -1
    outer loop
      vertex -18.9572 25.2827 2.5
      vertex -19.082 -7.79996 2.5
      vertex -19.0504 25.5747 2.5
    endloop
  endfacet
  facet normal -0 0 -1
    outer loop
      vertex -19.0504 25.5747 2.5
      vertex -19.082 -7.79996 2.5
      vertex -19.082 25.8742 2.5
    endloop
  endfacet
  facet normal 0 0 -1
    outer loop
      vertex -17.9596 -9.14695 2.5
      vertex -18.5746 -8.92828 2.5
      vertex -18.6456 -8.86671 2.5
    endloop
  endfacet
  facet normal 0 0 -1
    outer loop
      vertex -18.7119 -8.79913 2.5
      vertex -17.9596 -9.14695 2.5
      vertex -18.6456 -8.86671 2.5
    endloop
  endfacet
  facet normal 0 0 -1
    outer loop
      vertex -18.8297 -8.64775 2.5
      vertex -18.8809 -8.56502 2.5
      vertex -17.9596 -9.14695 2.5
    endloop
  endfacet
  facet normal 0 0 -1
    outer loop
      vertex -17.9596 -9.14695 2.5
      vertex -18.9266 -8.47821 2.5
      vertex -18.9668 -8.38791 2.5
    endloop
  endfacet
  facet normal 0 0 -1
    outer loop
      vertex -19.0299 -8.19866 2.5
      vertex -17.9596 -9.14695 2.5
      vertex -19.0014 -8.29449 2.5
    endloop
  endfacet
  facet normal 0 0 -1
    outer loop
      vertex -19.0525 -8.10078 2.5
      vertex -19.0688 -8.00135 2.5
      vertex -17.9596 -9.14695 2.5
    endloop
  endfacet
  facet normal 0 0 -1
    outer loop
      vertex -17.9596 -9.14695 2.5
      vertex -19.0787 -7.90085 2.5
      vertex -19.082 -7.79996 2.5
    endloop
  endfacet
  facet normal 0 0 -1
    outer loop
      vertex 0 6.79224 2.5
      vertex -7.17715 22.3846 2.5
      vertex -6.4654 22.4619 2.5
    endloop
  endfacet
  facet normal 0 -0 -1
    outer loop
      vertex -5.77714 22.5594 2.5
      vertex 0 6.79224 2.5
      vertex -6.4654 22.4619 2.5
    endloop
  endfacet
  facet normal 0 0 -1
    outer loop
      vertex -5.77714 22.5594 2.5
      vertex -5.11511 22.6763 2.5
      vertex 0 6.79224 2.5
    endloop
  endfacet
  facet normal 0 0 -1
    outer loop
      vertex 17.7351 -9.14695 2.5
      vertex 0 6.79224 2.5
      vertex 9.42874 6.79224 2.5
    endloop
  endfacet
  facet normal -0 -0 -1
    outer loop
      vertex 9.31649 15.7438 2.5
      vertex 9.42243 15.6083 2.5
      vertex 9.29969 15.7515 2.5
    endloop
  endfacet
  facet normal 0 0 -1
    outer loop
      vertex 18.906 15.7659 2.5
      vertex 18.9208 15.7623 2.5
      vertex 19.082 15.5474 2.5
    endloop
  endfacet
  facet normal 0 0 -1
    outer loop
      vertex 9.31649 15.7438 2.5
      vertex 9.33329 15.7346 2.5
      vertex 9.42243 15.6083 2.5
    endloop
  endfacet
  facet normal -0 0 -1
    outer loop
      vertex 17.9365 -9.13365 2.5
      vertex 17.836 -9.14355 2.5
      vertex 19.082 -8.02446 2.5
    endloop
  endfacet
  facet normal 0 0 -1
    outer loop
      vertex 19.082 -8.02446 2.5
      vertex 18.2296 -9.06626 2.5
      vertex 18.1338 -9.0948 2.5
    endloop
  endfacet
  facet normal 0 0 -1
    outer loop
      vertex 18.4133 -8.99159 2.5
      vertex 19.082 -8.02446 2.5
      vertex 18.5001 -8.94575 2.5
    endloop
  endfacet
  facet normal 0 0 -1
    outer loop
      vertex 19.082 -8.02446 2.5
      vertex 18.8634 -8.6395 2.5
      vertex 18.8018 -8.71048 2.5
    endloop
  endfacet
  facet normal 0 0 -1
    outer loop
      vertex 19.082 -8.02446 2.5
      vertex 18.9662 -8.48394 2.5
      vertex 18.9184 -8.56395 2.5
    endloop
  endfacet
  facet normal 0 0 -1
    outer loop
      vertex 18.8634 -8.6395 2.5
      vertex 19.082 -8.02446 2.5
      vertex 18.9184 -8.56395 2.5
    endloop
  endfacet
  facet normal 0 0 -1
    outer loop
      vertex 18.9662 -8.48394 2.5
      vertex 19.077 -8.12379 2.5
      vertex 19.0625 -8.21953 2.5
    endloop
  endfacet
  facet normal 0 0 -1
    outer loop
      vertex 18.9662 -8.48394 2.5
      vertex 19.082 -8.02446 2.5
      vertex 19.077 -8.12379 2.5
    endloop
  endfacet
  facet normal -0 0 -1
    outer loop
      vertex 18.8018 -8.71048 2.5
      vertex 18.7343 -8.7768 2.5
      vertex 19.082 -8.02446 2.5
    endloop
  endfacet
  facet normal 0 0 -1
    outer loop
      vertex 19.082 -8.02446 2.5
      vertex 18.7343 -8.7768 2.5
      vertex 18.6611 -8.83826 2.5
    endloop
  endfacet
  facet normal 0 0 -1
    outer loop
      vertex 18.5829 -8.89458 2.5
      vertex 19.082 -8.02446 2.5
      vertex 18.6611 -8.83826 2.5
    endloop
  endfacet
  facet normal -0 0 -1
    outer loop
      vertex 18.5829 -8.89458 2.5
      vertex 18.5001 -8.94575 2.5
      vertex 19.082 -8.02446 2.5
    endloop
  endfacet
  facet normal 0 0 -1
    outer loop
      vertex 19.082 -8.02446 2.5
      vertex 18.4133 -8.99159 2.5
      vertex 18.323 -9.03179 2.5
    endloop
  endfacet
  facet normal 0 0 -1
    outer loop
      vertex 18.2296 -9.06626 2.5
      vertex 19.082 -8.02446 2.5
      vertex 18.323 -9.03179 2.5
    endloop
  endfacet
  facet normal -0 0 -1
    outer loop
      vertex 18.1338 -9.0948 2.5
      vertex 18.0358 -9.11733 2.5
      vertex 19.082 -8.02446 2.5
    endloop
  endfacet
  facet normal 0 0 -1
    outer loop
      vertex 19.082 -8.02446 2.5
      vertex 18.0358 -9.11733 2.5
      vertex 17.9365 -9.13365 2.5
    endloop
  endfacet
  facet normal 0 0 -1
    outer loop
      vertex 17.7351 -9.14695 2.5
      vertex 19.082 -8.02446 2.5
      vertex 17.836 -9.14355 2.5
    endloop
  endfacet
  facet normal 0 0 -1
    outer loop
      vertex 19.0804 15.5794 2.5
      vertex 18.9365 15.7575 2.5
      vertex 18.953 15.7515 2.5
    endloop
  endfacet
  facet normal -0 -0 -1
    outer loop
      vertex 19.0758 15.6083 2.5
      vertex 19.0804 15.5794 2.5
      vertex 18.9697 15.7438 2.5
    endloop
  endfacet
  facet normal 0 0 -1
    outer loop
      vertex 19.0684 15.634 2.5
      vertex 18.9697 15.7438 2.5
      vertex 18.9865 15.7346 2.5
    endloop
  endfacet
  facet normal -0 -0 -1
    outer loop
      vertex 19.0188 15.7102 2.5
      vertex 19.0684 15.634 2.5
      vertex 19.003 15.7234 2.5
    endloop
  endfacet
  facet normal -0 -0 -1
    outer loop
      vertex 19.0469 15.6772 2.5
      vertex 19.0587 15.657 2.5
      vertex 19.0188 15.7102 2.5
    endloop
  endfacet
  facet normal -0 -0 -1
    outer loop
      vertex 19.0335 15.6949 2.5
      vertex 19.0469 15.6772 2.5
      vertex 19.0188 15.7102 2.5
    endloop
  endfacet
  facet normal 0 0 -1
    outer loop
      vertex 19.0188 15.7102 2.5
      vertex 19.0587 15.657 2.5
      vertex 19.0684 15.634 2.5
    endloop
  endfacet
  facet normal -0 -0 -1
    outer loop
      vertex 19.003 15.7234 2.5
      vertex 19.0684 15.634 2.5
      vertex 18.9865 15.7346 2.5
    endloop
  endfacet
  facet normal -0 -0 -1
    outer loop
      vertex 19.0684 15.634 2.5
      vertex 19.0758 15.6083 2.5
      vertex 18.9697 15.7438 2.5
    endloop
  endfacet
  facet normal -0 -0 -1
    outer loop
      vertex 18.9697 15.7438 2.5
      vertex 19.0804 15.5794 2.5
      vertex 18.953 15.7515 2.5
    endloop
  endfacet
  facet normal 0 0 -1
    outer loop
      vertex 19.0804 15.5794 2.5
      vertex 18.9208 15.7623 2.5
      vertex 18.9365 15.7575 2.5
    endloop
  endfacet
  facet normal 0 0 -1
    outer loop
      vertex 9.36553 15.7102 2.5
      vertex 9.38029 15.6949 2.5
      vertex 9.39369 15.6772 2.5
    endloop
  endfacet
  facet normal 0 0 -1
    outer loop
      vertex 9.40543 15.657 2.5
      vertex 9.36553 15.7102 2.5
      vertex 9.39369 15.6772 2.5
    endloop
  endfacet
  facet normal 0 0 -1
    outer loop
      vertex 9.41514 15.634 2.5
      vertex 9.3497 15.7234 2.5
      vertex 9.36553 15.7102 2.5
    endloop
  endfacet
  facet normal 0 0 -1
    outer loop
      vertex 9.42243 15.6083 2.5
      vertex 9.33329 15.7346 2.5
      vertex 9.41514 15.634 2.5
    endloop
  endfacet
  facet normal 0 0 -1
    outer loop
      vertex 9.26745 15.7623 2.5
      vertex 9.28328 15.7575 2.5
      vertex 9.42709 15.5794 2.5
    endloop
  endfacet
  facet normal 0 0 -1
    outer loop
      vertex -3.8792 22.9648 2.5
      vertex -3.31057 23.1347 2.5
      vertex 0 6.79224 2.5
    endloop
  endfacet
  facet normal 0 0 -1
    outer loop
      vertex 0 6.79224 2.5
      vertex -3.31057 23.1347 2.5
      vertex -2.77807 23.3206 2.5
    endloop
  endfacet
  facet normal 0 0 -1
    outer loop
      vertex 9.29969 15.7515 2.5
      vertex 9.42243 15.6083 2.5
      vertex 9.42709 15.5794 2.5
    endloop
  endfacet
  facet normal 0 0 -1
    outer loop
      vertex 9.41514 15.634 2.5
      vertex 9.36553 15.7102 2.5
      vertex 9.40543 15.657 2.5
    endloop
  endfacet
  facet normal 0 0 -1
    outer loop
      vertex 9.33329 15.7346 2.5
      vertex 9.3497 15.7234 2.5
      vertex 9.41514 15.634 2.5
    endloop
  endfacet
  facet normal 0 0 -1
    outer loop
      vertex 19.082 15.5474 2.5
      vertex 18.9208 15.7623 2.5
      vertex 19.0804 15.5794 2.5
    endloop
  endfacet
  facet normal 0 0 -1
    outer loop
      vertex 18.8926 15.7684 2.5
      vertex 18.906 15.7659 2.5
      vertex 19.082 15.5474 2.5
    endloop
  endfacet
  facet normal 0 0 -1
    outer loop
      vertex 18.8809 15.7701 2.5
      vertex 18.8926 15.7684 2.5
      vertex 19.082 15.5474 2.5
    endloop
  endfacet
  facet normal -0 -0 -1
    outer loop
      vertex 18.8712 15.7712 2.5
      vertex 18.8809 15.7701 2.5
      vertex 18.8591 15.7719 2.5
    endloop
  endfacet
  facet normal 0 0 -1
    outer loop
      vertex 18.8591 15.7719 2.5
      vertex 18.8809 15.7701 2.5
      vertex 19.082 15.5474 2.5
    endloop
  endfacet
  facet normal 0 0 -1
    outer loop
      vertex 18.6331 15.7719 2.5
      vertex 18.8591 15.7719 2.5
      vertex 19.082 15.5474 2.5
    endloop
  endfacet
  facet normal 0 0 -1
    outer loop
      vertex 9.42874 6.79224 2.5
      vertex 19.082 15.5474 2.5
      vertex 19.082 -8.02446 2.5
    endloop
  endfacet
  facet normal 0 0 -1
    outer loop
      vertex 17.7351 -9.14695 2.5
      vertex 9.42874 6.79224 2.5
      vertex 19.082 -8.02446 2.5
    endloop
  endfacet
  facet normal -0 -0 -1
    outer loop
      vertex 9.29969 15.7515 2.5
      vertex 9.42709 15.5794 2.5
      vertex 9.28328 15.7575 2.5
    endloop
  endfacet
  facet normal 0 -0 -1
    outer loop
      vertex -3.8792 22.9648 2.5
      vertex 0 6.79224 2.5
      vertex -4.48162 22.8116 2.5
    endloop
  endfacet
  facet normal 0 0 -1
    outer loop
      vertex 9.42874 15.5474 2.5
      vertex 9.26745 15.7623 2.5
      vertex 9.42709 15.5794 2.5
    endloop
  endfacet
  facet normal 0 0 -1
    outer loop
      vertex 9.42874 15.5474 2.5
      vertex 9.25269 15.7659 2.5
      vertex 9.26745 15.7623 2.5
    endloop
  endfacet
  facet normal 0 0 -1
    outer loop
      vertex 9.42874 15.5474 2.5
      vertex 9.23929 15.7684 2.5
      vertex 9.25269 15.7659 2.5
    endloop
  endfacet
  facet normal 0 0 -1
    outer loop
      vertex 9.42874 15.5474 2.5
      vertex 9.22754 15.7701 2.5
      vertex 9.23929 15.7684 2.5
    endloop
  endfacet
  facet normal 0 0 -1
    outer loop
      vertex 9.20589 15.7719 2.5
      vertex 9.21783 15.7712 2.5
      vertex 9.22754 15.7701 2.5
    endloop
  endfacet
  facet normal 0 0 -1
    outer loop
      vertex 9.42874 15.5474 2.5
      vertex 9.20589 15.7719 2.5
      vertex 9.22754 15.7701 2.5
    endloop
  endfacet
  facet normal 0 0 -1
    outer loop
      vertex 9.42874 15.5474 2.5
      vertex 8.97974 15.7719 2.5
      vertex 9.20589 15.7719 2.5
    endloop
  endfacet
  facet normal -0 -0 -1
    outer loop
      vertex 9.42874 15.5474 2.5
      vertex 9.42874 6.79224 2.5
      vertex 8.97974 15.7719 2.5
    endloop
  endfacet
  facet normal 0 0 -1
    outer loop
      vertex 0 6.79224 2.5
      vertex -5.11511 22.6763 2.5
      vertex -4.48162 22.8116 2.5
    endloop
  endfacet
  facet normal 0 0 -1
    outer loop
      vertex 9.42874 6.79224 2.5
      vertex 0 6.79224 2.5
      vertex 8.97974 15.7719 2.5
    endloop
  endfacet
  facet normal 0 0 -1
    outer loop
      vertex 0 6.79224 2.5
      vertex -9.42874 22.2822 2.5
      vertex -8.66135 22.2939 2.5
    endloop
  endfacet
  facet normal 0 0 -1
    outer loop
      vertex -2.77807 23.3206 2.5
      vertex -2.28431 23.5216 2.5
      vertex 0 6.79224 2.5
    endloop
  endfacet
  facet normal 0 0 -1
    outer loop
      vertex -2.28431 23.5216 2.5
      vertex -1.83182 23.737 2.5
      vertex 0 6.79224 2.5
    endloop
  endfacet
  facet normal 0 0 -1
    outer loop
      vertex -1.83182 23.737 2.5
      vertex -1.42312 23.9659 2.5
      vertex 0 6.79224 2.5
    endloop
  endfacet
  facet normal 0 0 -1
    outer loop
      vertex -1.42312 23.9659 2.5
      vertex -1.06074 24.2073 2.5
      vertex 0 6.79224 2.5
    endloop
  endfacet
  facet normal 0 0 -1
    outer loop
      vertex -1.06074 24.2073 2.5
      vertex -0.747098 24.4606 2.5
      vertex 0 6.79224 2.5
    endloop
  endfacet
  facet normal 0 0 -1
    outer loop
      vertex -0.747098 24.4606 2.5
      vertex -0.484827 24.7247 2.5
      vertex 0 6.79224 2.5
    endloop
  endfacet
  facet normal 0 0 -1
    outer loop
      vertex -0.484827 24.7247 2.5
      vertex -0.276545 24.999 2.5
      vertex 0 6.79224 2.5
    endloop
  endfacet
  facet normal 0 0 -1
    outer loop
      vertex -0.276545 24.999 2.5
      vertex -0.124581 25.2827 2.5
      vertex 0 6.79224 2.5
    endloop
  endfacet
  facet normal 0 0 -1
    outer loop
      vertex -0.124581 25.2827 2.5
      vertex -0.031558 25.5747 2.5
      vertex 0 6.79224 2.5
    endloop
  endfacet
  facet normal 0 0 -1
    outer loop
      vertex -0.031558 25.5747 2.5
      vertex 0 25.8742 2.5
      vertex 0 6.79224 2.5
    endloop
  endfacet
  facet normal 0 0 1
    outer loop
      vertex 18.9662 -8.48394 3.5
      vertex 19.0066 -8.39985 3.5
      vertex 19.0625 -8.21953 3.5
    endloop
  endfacet
  facet normal 0 0 1
    outer loop
      vertex -17.9596 -9.14695 3.5
      vertex -18.4191 -9.0312 3.5
      vertex -18.3349 -9.0715 3.5
    endloop
  endfacet
  facet normal 0 0 1
    outer loop
      vertex 19.082 15.5474 3.5
      vertex 18.6331 15.7719 3.5
      vertex 9.42874 6.79224 3.5
    endloop
  endfacet
  facet normal 0 0 1
    outer loop
      vertex 19.0066 -8.39985 3.5
      vertex 19.0389 -8.31158 3.5
      vertex 19.0625 -8.21953 3.5
    endloop
  endfacet
  facet normal -0 -0 1
    outer loop
      vertex -18.2467 -9.10374 3.5
      vertex -18.0588 -9.142 3.5
      vertex -18.3349 -9.0715 3.5
    endloop
  endfacet
  facet normal -0 -0 1
    outer loop
      vertex -18.1547 -9.12743 3.5
      vertex -18.0588 -9.142 3.5
      vertex -18.2467 -9.10374 3.5
    endloop
  endfacet
  facet normal -0 -0 1
    outer loop
      vertex -18.7119 -8.79913 3.5
      vertex -17.9596 -9.14695 3.5
      vertex -18.7734 -8.72601 3.5
    endloop
  endfacet
  facet normal 0 0 1
    outer loop
      vertex -17.9596 -9.14695 3.5
      vertex -18.5746 -8.92828 3.5
      vertex -18.499 -8.98323 3.5
    endloop
  endfacet
  facet normal 0 0 1
    outer loop
      vertex -18.3349 -9.0715 3.5
      vertex -18.0588 -9.142 3.5
      vertex -17.9596 -9.14695 3.5
    endloop
  endfacet
  facet normal 0 0 1
    outer loop
      vertex -17.9596 -9.14695 3.5
      vertex -18.499 -8.98323 3.5
      vertex -18.4191 -9.0312 3.5
    endloop
  endfacet
  facet normal 0 0 1
    outer loop
      vertex -17.9596 -9.14695 3.5
      vertex -18.8297 -8.64775 3.5
      vertex -18.7734 -8.72601 3.5
    endloop
  endfacet
  facet normal -0 -0 1
    outer loop
      vertex -18.8809 -8.56502 3.5
      vertex -17.9596 -9.14695 3.5
      vertex -18.9266 -8.47821 3.5
    endloop
  endfacet
  facet normal 0 0 1
    outer loop
      vertex -19.0014 -8.29449 3.5
      vertex -18.9668 -8.38791 3.5
      vertex -17.9596 -9.14695 3.5
    endloop
  endfacet
  facet normal 0 0 1
    outer loop
      vertex -17.9596 -9.14695 3.5
      vertex -19.0525 -8.10078 3.5
      vertex -19.0299 -8.19866 3.5
    endloop
  endfacet
  facet normal -0 -0 1
    outer loop
      vertex -19.0688 -8.00135 3.5
      vertex -17.9596 -9.14695 3.5
      vertex -19.0787 -7.90085 3.5
    endloop
  endfacet
  facet normal 0 0 1
    outer loop
      vertex 17.7351 -9.14695 3.5
      vertex 0 6.79224 3.5
      vertex -17.9596 -9.14695 3.5
    endloop
  endfacet
  facet normal 0 0 1
    outer loop
      vertex -7.17715 22.3846 3.5
      vertex -7.91007 22.3283 3.5
      vertex 0 6.79224 3.5
    endloop
  endfacet
  facet normal 0 0 1
    outer loop
      vertex -7.91007 22.3283 3.5
      vertex -8.66135 22.2939 3.5
      vertex 0 6.79224 3.5
    endloop
  endfacet
  facet normal 0 0 1
    outer loop
      vertex 0 6.79224 3.5
      vertex -19.082 -7.79996 3.5
      vertex -17.9596 -9.14695 3.5
    endloop
  endfacet
  facet normal 0 0 1
    outer loop
      vertex -9.42874 22.2822 3.5
      vertex -10.2281 22.2939 3.5
      vertex 0 6.79224 3.5
    endloop
  endfacet
  facet normal 0 0 1
    outer loop
      vertex -10.2281 22.2939 3.5
      vertex -11.0083 22.3283 3.5
      vertex 0 6.79224 3.5
    endloop
  endfacet
  facet normal 0 0 1
    outer loop
      vertex -11.0083 22.3283 3.5
      vertex -11.7669 22.3846 3.5
      vertex 0 6.79224 3.5
    endloop
  endfacet
  facet normal 0 0 1
    outer loop
      vertex -11.7669 22.3846 3.5
      vertex -12.5016 22.4619 3.5
      vertex 0 6.79224 3.5
    endloop
  endfacet
  facet normal 0 0 1
    outer loop
      vertex -12.5016 22.4619 3.5
      vertex -13.2101 22.5594 3.5
      vertex 0 6.79224 3.5
    endloop
  endfacet
  facet normal 0 0 1
    outer loop
      vertex -13.2101 22.5594 3.5
      vertex -19.082 -7.79996 3.5
      vertex 0 6.79224 3.5
    endloop
  endfacet
  facet normal 0 0 1
    outer loop
      vertex -13.8899 22.6763 3.5
      vertex -19.082 -7.79996 3.5
      vertex -13.2101 22.5594 3.5
    endloop
  endfacet
  facet normal 0 0 1
    outer loop
      vertex -14.5388 22.8116 3.5
      vertex -19.082 -7.79996 3.5
      vertex -13.8899 22.6763 3.5
    endloop
  endfacet
  facet normal 0 0 1
    outer loop
      vertex -15.1542 22.9648 3.5
      vertex -19.082 -7.79996 3.5
      vertex -14.5388 22.8116 3.5
    endloop
  endfacet
  facet normal 0 0 1
    outer loop
      vertex -15.7341 23.1347 3.5
      vertex -19.082 -7.79996 3.5
      vertex -15.1542 22.9648 3.5
    endloop
  endfacet
  facet normal 0 0 1
    outer loop
      vertex -16.2758 23.3206 3.5
      vertex -19.082 -7.79996 3.5
      vertex -15.7341 23.1347 3.5
    endloop
  endfacet
  facet normal 0 0 1
    outer loop
      vertex -16.7772 23.5216 3.5
      vertex -19.082 -7.79996 3.5
      vertex -16.2758 23.3206 3.5
    endloop
  endfacet
  facet normal 0 0 1
    outer loop
      vertex -17.2358 23.737 3.5
      vertex -19.082 -7.79996 3.5
      vertex -16.7772 23.5216 3.5
    endloop
  endfacet
  facet normal 0 0 1
    outer loop
      vertex -17.6492 23.9659 3.5
      vertex -19.082 -7.79996 3.5
      vertex -17.2358 23.737 3.5
    endloop
  endfacet
  facet normal 0 0 1
    outer loop
      vertex -18.0152 24.2073 3.5
      vertex -19.082 -7.79996 3.5
      vertex -17.6492 23.9659 3.5
    endloop
  endfacet
  facet normal 0 0 1
    outer loop
      vertex -18.3314 24.4606 3.5
      vertex -19.082 -7.79996 3.5
      vertex -18.0152 24.2073 3.5
    endloop
  endfacet
  facet normal 0 0 1
    outer loop
      vertex -18.5953 24.7247 3.5
      vertex -19.082 -7.79996 3.5
      vertex -18.3314 24.4606 3.5
    endloop
  endfacet
  facet normal 0 0 1
    outer loop
      vertex -18.8048 24.999 3.5
      vertex -19.082 -7.79996 3.5
      vertex -18.5953 24.7247 3.5
    endloop
  endfacet
  facet normal 0 0 1
    outer loop
      vertex -18.9572 25.2827 3.5
      vertex -19.082 -7.79996 3.5
      vertex -18.8048 24.999 3.5
    endloop
  endfacet
  facet normal 0 0 1
    outer loop
      vertex -19.0504 25.5747 3.5
      vertex -19.082 -7.79996 3.5
      vertex -18.9572 25.2827 3.5
    endloop
  endfacet
  facet normal 0 0 1
    outer loop
      vertex -19.082 25.8742 3.5
      vertex -19.082 -7.79996 3.5
      vertex -19.0504 25.5747 3.5
    endloop
  endfacet
  facet normal 0 0 1
    outer loop
      vertex -18.6456 -8.86671 3.5
      vertex -18.5746 -8.92828 3.5
      vertex -17.9596 -9.14695 3.5
    endloop
  endfacet
  facet normal -0 -0 1
    outer loop
      vertex -18.6456 -8.86671 3.5
      vertex -17.9596 -9.14695 3.5
      vertex -18.7119 -8.79913 3.5
    endloop
  endfacet
  facet normal 0 0 1
    outer loop
      vertex -17.9596 -9.14695 3.5
      vertex -18.8809 -8.56502 3.5
      vertex -18.8297 -8.64775 3.5
    endloop
  endfacet
  facet normal 0 0 1
    outer loop
      vertex -18.9668 -8.38791 3.5
      vertex -18.9266 -8.47821 3.5
      vertex -17.9596 -9.14695 3.5
    endloop
  endfacet
  facet normal -0 -0 1
    outer loop
      vertex -19.0014 -8.29449 3.5
      vertex -17.9596 -9.14695 3.5
      vertex -19.0299 -8.19866 3.5
    endloop
  endfacet
  facet normal 0 0 1
    outer loop
      vertex -17.9596 -9.14695 3.5
      vertex -19.0688 -8.00135 3.5
      vertex -19.0525 -8.10078 3.5
    endloop
  endfacet
  facet normal 0 0 1
    outer loop
      vertex -19.082 -7.79996 3.5
      vertex -19.0787 -7.90085 3.5
      vertex -17.9596 -9.14695 3.5
    endloop
  endfacet
  facet normal 0 0 1
    outer loop
      vertex -6.4654 22.4619 3.5
      vertex -7.17715 22.3846 3.5
      vertex 0 6.79224 3.5
    endloop
  endfacet
  facet normal -0 0 1
    outer loop
      vertex -6.4654 22.4619 3.5
      vertex 0 6.79224 3.5
      vertex -5.77714 22.5594 3.5
    endloop
  endfacet
  facet normal 0 0 1
    outer loop
      vertex 0 6.79224 3.5
      vertex -5.11511 22.6763 3.5
      vertex -5.77714 22.5594 3.5
    endloop
  endfacet
  facet normal 0 0 1
    outer loop
      vertex 9.42874 6.79224 3.5
      vertex 0 6.79224 3.5
      vertex 17.7351 -9.14695 3.5
    endloop
  endfacet
  facet normal 0 0 1
    outer loop
      vertex 9.29969 15.7515 3.5
      vertex 9.42243 15.6083 3.5
      vertex 9.31649 15.7438 3.5
    endloop
  endfacet
  facet normal 0 0 1
    outer loop
      vertex 19.082 15.5474 3.5
      vertex 18.9208 15.7623 3.5
      vertex 18.906 15.7659 3.5
    endloop
  endfacet
  facet normal 0 0 1
    outer loop
      vertex 9.42243 15.6083 3.5
      vertex 9.33329 15.7346 3.5
      vertex 9.31649 15.7438 3.5
    endloop
  endfacet
  facet normal 0 0 1
    outer loop
      vertex 19.082 -8.02446 3.5
      vertex 17.836 -9.14355 3.5
      vertex 17.9365 -9.13365 3.5
    endloop
  endfacet
  facet normal 0 0 1
    outer loop
      vertex 18.1338 -9.0948 3.5
      vertex 18.2296 -9.06626 3.5
      vertex 19.082 -8.02446 3.5
    endloop
  endfacet
  facet normal 0 -0 1
    outer loop
      vertex 18.5001 -8.94575 3.5
      vertex 19.082 -8.02446 3.5
      vertex 18.4133 -8.99159 3.5
    endloop
  endfacet
  facet normal 0 0 1
    outer loop
      vertex 18.8018 -8.71048 3.5
      vertex 18.8634 -8.6395 3.5
      vertex 19.082 -8.02446 3.5
    endloop
  endfacet
  facet normal 0 0 1
    outer loop
      vertex 18.9184 -8.56395 3.5
      vertex 18.9662 -8.48394 3.5
      vertex 19.082 -8.02446 3.5
    endloop
  endfacet
  facet normal 0 -0 1
    outer loop
      vertex 18.9184 -8.56395 3.5
      vertex 19.082 -8.02446 3.5
      vertex 18.8634 -8.6395 3.5
    endloop
  endfacet
  facet normal 0 -0 1
    outer loop
      vertex 19.0625 -8.21953 3.5
      vertex 19.077 -8.12379 3.5
      vertex 18.9662 -8.48394 3.5
    endloop
  endfacet
  facet normal 0 -0 1
    outer loop
      vertex 19.077 -8.12379 3.5
      vertex 19.082 -8.02446 3.5
      vertex 18.9662 -8.48394 3.5
    endloop
  endfacet
  facet normal 0 0 1
    outer loop
      vertex 19.082 -8.02446 3.5
      vertex 18.7343 -8.7768 3.5
      vertex 18.8018 -8.71048 3.5
    endloop
  endfacet
  facet normal 0 0 1
    outer loop
      vertex 18.6611 -8.83826 3.5
      vertex 18.7343 -8.7768 3.5
      vertex 19.082 -8.02446 3.5
    endloop
  endfacet
  facet normal 0 -0 1
    outer loop
      vertex 18.6611 -8.83826 3.5
      vertex 19.082 -8.02446 3.5
      vertex 18.5829 -8.89458 3.5
    endloop
  endfacet
  facet normal 0 0 1
    outer loop
      vertex 19.082 -8.02446 3.5
      vertex 18.5001 -8.94575 3.5
      vertex 18.5829 -8.89458 3.5
    endloop
  endfacet
  facet normal 0 0 1
    outer loop
      vertex 18.323 -9.03179 3.5
      vertex 18.4133 -8.99159 3.5
      vertex 19.082 -8.02446 3.5
    endloop
  endfacet
  facet normal 0 -0 1
    outer loop
      vertex 18.323 -9.03179 3.5
      vertex 19.082 -8.02446 3.5
      vertex 18.2296 -9.06626 3.5
    endloop
  endfacet
  facet normal 0 0 1
    outer loop
      vertex 19.082 -8.02446 3.5
      vertex 18.0358 -9.11733 3.5
      vertex 18.1338 -9.0948 3.5
    endloop
  endfacet
  facet normal 0 0 1
    outer loop
      vertex 17.9365 -9.13365 3.5
      vertex 18.0358 -9.11733 3.5
      vertex 19.082 -8.02446 3.5
    endloop
  endfacet
  facet normal 0 -0 1
    outer loop
      vertex 17.836 -9.14355 3.5
      vertex 19.082 -8.02446 3.5
      vertex 17.7351 -9.14695 3.5
    endloop
  endfacet
  facet normal 0 0 1
    outer loop
      vertex 18.953 15.7515 3.5
      vertex 18.9365 15.7575 3.5
      vertex 19.0804 15.5794 3.5
    endloop
  endfacet
  facet normal 0 0 1
    outer loop
      vertex 18.9697 15.7438 3.5
      vertex 19.0804 15.5794 3.5
      vertex 19.0758 15.6083 3.5
    endloop
  endfacet
  facet normal 0 0 1
    outer loop
      vertex 18.9865 15.7346 3.5
      vertex 18.9697 15.7438 3.5
      vertex 19.0684 15.634 3.5
    endloop
  endfacet
  facet normal 0 0 1
    outer loop
      vertex 19.003 15.7234 3.5
      vertex 19.0684 15.634 3.5
      vertex 19.0188 15.7102 3.5
    endloop
  endfacet
  facet normal 0 0 1
    outer loop
      vertex 19.0188 15.7102 3.5
      vertex 19.0587 15.657 3.5
      vertex 19.0469 15.6772 3.5
    endloop
  endfacet
  facet normal 0 0 1
    outer loop
      vertex 19.0188 15.7102 3.5
      vertex 19.0469 15.6772 3.5
      vertex 19.0335 15.6949 3.5
    endloop
  endfacet
  facet normal 0 0 1
    outer loop
      vertex 19.0684 15.634 3.5
      vertex 19.0587 15.657 3.5
      vertex 19.0188 15.7102 3.5
    endloop
  endfacet
  facet normal 0 0 1
    outer loop
      vertex 18.9865 15.7346 3.5
      vertex 19.0684 15.634 3.5
      vertex 19.003 15.7234 3.5
    endloop
  endfacet
  facet normal 0 0 1
    outer loop
      vertex 18.9697 15.7438 3.5
      vertex 19.0758 15.6083 3.5
      vertex 19.0684 15.634 3.5
    endloop
  endfacet
  facet normal 0 0 1
    outer loop
      vertex 18.953 15.7515 3.5
      vertex 19.0804 15.5794 3.5
      vertex 18.9697 15.7438 3.5
    endloop
  endfacet
  facet normal 0 0 1
    outer loop
      vertex 18.9365 15.7575 3.5
      vertex 18.9208 15.7623 3.5
      vertex 19.0804 15.5794 3.5
    endloop
  endfacet
  facet normal 0 0 1
    outer loop
      vertex 9.39369 15.6772 3.5
      vertex 9.38029 15.6949 3.5
      vertex 9.36553 15.7102 3.5
    endloop
  endfacet
  facet normal 0 0 1
    outer loop
      vertex 9.39369 15.6772 3.5
      vertex 9.36553 15.7102 3.5
      vertex 9.40543 15.657 3.5
    endloop
  endfacet
  facet normal 0 0 1
    outer loop
      vertex 9.36553 15.7102 3.5
      vertex 9.3497 15.7234 3.5
      vertex 9.41514 15.634 3.5
    endloop
  endfacet
  facet normal 0 0 1
    outer loop
      vertex 9.41514 15.634 3.5
      vertex 9.33329 15.7346 3.5
      vertex 9.42243 15.6083 3.5
    endloop
  endfacet
  facet normal 0 0 1
    outer loop
      vertex 9.42709 15.5794 3.5
      vertex 9.28328 15.7575 3.5
      vertex 9.26745 15.7623 3.5
    endloop
  endfacet
  facet normal 0 0 1
    outer loop
      vertex 0 6.79224 3.5
      vertex -3.31057 23.1347 3.5
      vertex -3.8792 22.9648 3.5
    endloop
  endfacet
  facet normal 0 0 1
    outer loop
      vertex -2.77807 23.3206 3.5
      vertex -3.31057 23.1347 3.5
      vertex 0 6.79224 3.5
    endloop
  endfacet
  facet normal 0 0 1
    outer loop
      vertex 9.42709 15.5794 3.5
      vertex 9.42243 15.6083 3.5
      vertex 9.29969 15.7515 3.5
    endloop
  endfacet
  facet normal 0 0 1
    outer loop
      vertex 9.40543 15.657 3.5
      vertex 9.36553 15.7102 3.5
      vertex 9.41514 15.634 3.5
    endloop
  endfacet
  facet normal 0 0 1
    outer loop
      vertex 9.41514 15.634 3.5
      vertex 9.3497 15.7234 3.5
      vertex 9.33329 15.7346 3.5
    endloop
  endfacet
  facet normal 0 0 1
    outer loop
      vertex 19.0804 15.5794 3.5
      vertex 18.9208 15.7623 3.5
      vertex 19.082 15.5474 3.5
    endloop
  endfacet
  facet normal 0 0 1
    outer loop
      vertex 19.082 15.5474 3.5
      vertex 18.906 15.7659 3.5
      vertex 18.8926 15.7684 3.5
    endloop
  endfacet
  facet normal 0 0 1
    outer loop
      vertex 19.082 15.5474 3.5
      vertex 18.8926 15.7684 3.5
      vertex 18.8809 15.7701 3.5
    endloop
  endfacet
  facet normal 0 0 1
    outer loop
      vertex 18.8591 15.7719 3.5
      vertex 18.8809 15.7701 3.5
      vertex 18.8712 15.7712 3.5
    endloop
  endfacet
  facet normal 0 0 1
    outer loop
      vertex 19.082 15.5474 3.5
      vertex 18.8809 15.7701 3.5
      vertex 18.8591 15.7719 3.5
    endloop
  endfacet
  facet normal 0 0 1
    outer loop
      vertex 19.082 15.5474 3.5
      vertex 18.8591 15.7719 3.5
      vertex 18.6331 15.7719 3.5
    endloop
  endfacet
  facet normal 0 -0 1
    outer loop
      vertex 19.082 -8.02446 3.5
      vertex 19.082 15.5474 3.5
      vertex 9.42874 6.79224 3.5
    endloop
  endfacet
  facet normal 0 0 1
    outer loop
      vertex 19.082 -8.02446 3.5
      vertex 9.42874 6.79224 3.5
      vertex 17.7351 -9.14695 3.5
    endloop
  endfacet
  facet normal 0 0 1
    outer loop
      vertex 9.28328 15.7575 3.5
      vertex 9.42709 15.5794 3.5
      vertex 9.29969 15.7515 3.5
    endloop
  endfacet
  facet normal -0 0 1
    outer loop
      vertex -4.48162 22.8116 3.5
      vertex 0 6.79224 3.5
      vertex -3.8792 22.9648 3.5
    endloop
  endfacet
  facet normal 0 0 1
    outer loop
      vertex 9.42709 15.5794 3.5
      vertex 9.26745 15.7623 3.5
      vertex 9.42874 15.5474 3.5
    endloop
  endfacet
  facet normal 0 0 1
    outer loop
      vertex 9.26745 15.7623 3.5
      vertex 9.25269 15.7659 3.5
      vertex 9.42874 15.5474 3.5
    endloop
  endfacet
  facet normal 0 0 1
    outer loop
      vertex 9.25269 15.7659 3.5
      vertex 9.23929 15.7684 3.5
      vertex 9.42874 15.5474 3.5
    endloop
  endfacet
  facet normal 0 0 1
    outer loop
      vertex 9.23929 15.7684 3.5
      vertex 9.22754 15.7701 3.5
      vertex 9.42874 15.5474 3.5
    endloop
  endfacet
  facet normal 0 0 1
    outer loop
      vertex 9.22754 15.7701 3.5
      vertex 9.21783 15.7712 3.5
      vertex 9.20589 15.7719 3.5
    endloop
  endfacet
  facet normal 0 0 1
    outer loop
      vertex 9.22754 15.7701 3.5
      vertex 9.20589 15.7719 3.5
      vertex 9.42874 15.5474 3.5
    endloop
  endfacet
  facet normal 0 0 1
    outer loop
      vertex 9.20589 15.7719 3.5
      vertex 8.97974 15.7719 3.5
      vertex 9.42874 15.5474 3.5
    endloop
  endfacet
  facet normal 0 0 1
    outer loop
      vertex 8.97974 15.7719 3.5
      vertex 9.42874 6.79224 3.5
      vertex 9.42874 15.5474 3.5
    endloop
  endfacet
  facet normal 0 0 1
    outer loop
      vertex -4.48162 22.8116 3.5
      vertex -5.11511 22.6763 3.5
      vertex 0 6.79224 3.5
    endloop
  endfacet
  facet normal 0 0 1
    outer loop
      vertex 8.97974 15.7719 3.5
      vertex 0 6.79224 3.5
      vertex 9.42874 6.79224 3.5
    endloop
  endfacet
  facet normal 0 0 1
    outer loop
      vertex -8.66135 22.2939 3.5
      vertex -9.42874 22.2822 3.5
      vertex 0 6.79224 3.5
    endloop
  endfacet
  facet normal 0 0 1
    outer loop
      vertex 0 6.79224 3.5
      vertex -2.28431 23.5216 3.5
      vertex -2.77807 23.3206 3.5
    endloop
  endfacet
  facet normal 0 0 1
    outer loop
      vertex 0 6.79224 3.5
      vertex -1.83182 23.737 3.5
      vertex -2.28431 23.5216 3.5
    endloop
  endfacet
  facet normal 0 0 1
    outer loop
      vertex 0 6.79224 3.5
      vertex -1.42312 23.9659 3.5
      vertex -1.83182 23.737 3.5
    endloop
  endfacet
  facet normal 0 0 1
    outer loop
      vertex 0 6.79224 3.5
      vertex -1.06074 24.2073 3.5
      vertex -1.42312 23.9659 3.5
    endloop
  endfacet
  facet normal 0 0 1
    outer loop
      vertex 0 6.79224 3.5
      vertex -0.747098 24.4606 3.5
      vertex -1.06074 24.2073 3.5
    endloop
  endfacet
  facet normal 0 0 1
    outer loop
      vertex 0 6.79224 3.5
      vertex -0.484827 24.7247 3.5
      vertex -0.747098 24.4606 3.5
    endloop
  endfacet
  facet normal 0 0 1
    outer loop
      vertex 0 6.79224 3.5
      vertex -0.276545 24.999 3.5
      vertex -0.484827 24.7247 3.5
    endloop
  endfacet
  facet normal 0 0 1
    outer loop
      vertex 0 6.79224 3.5
      vertex -0.124581 25.2827 3.5
      vertex -0.276545 24.999 3.5
    endloop
  endfacet
  facet normal 0 0 1
    outer loop
      vertex 0 6.79224 3.5
      vertex -0.031558 25.5747 3.5
      vertex -0.124581 25.2827 3.5
    endloop
  endfacet
  facet normal 0 -0 1
    outer loop
      vertex 0 6.79224 3.5
      vertex 0 25.8742 3.5
      vertex -0.031558 25.5747 3.5
    endloop
  endfacet
  facet normal -0.952818 0.303541 0
    outer loop
      vertex -0.124581 25.2827 2.5
      vertex -0.031558 25.5747 3.5
      vertex -0.031558 25.5747 2.5
    endloop
  endfacet
  facet normal -0.952818 0.303541 0
    outer loop
      vertex -0.124581 25.2827 2.5
      vertex -0.124581 25.2827 3.5
      vertex -0.031558 25.5747 3.5
    endloop
  endfacet
  facet normal -0.881503 0.472178 0
    outer loop
      vertex -0.276545 24.999 2.5
      vertex -0.124581 25.2827 3.5
      vertex -0.124581 25.2827 2.5
    endloop
  endfacet
  facet normal -0.881503 0.472178 0
    outer loop
      vertex -0.276545 24.999 2.5
      vertex -0.276545 24.999 3.5
      vertex -0.124581 25.2827 3.5
    endloop
  endfacet
  facet normal -0.796422 0.604741 0
    outer loop
      vertex -0.484827 24.7247 2.5
      vertex -0.276545 24.999 3.5
      vertex -0.276545 24.999 2.5
    endloop
  endfacet
  facet normal -0.796422 0.604741 0
    outer loop
      vertex -0.484827 24.7247 2.5
      vertex -0.484827 24.7247 3.5
      vertex -0.276545 24.999 3.5
    endloop
  endfacet
  facet normal -0.70956 0.704646 0
    outer loop
      vertex -0.747098 24.4606 2.5
      vertex -0.484827 24.7247 3.5
      vertex -0.484827 24.7247 2.5
    endloop
  endfacet
  facet normal -0.70956 0.704646 0
    outer loop
      vertex -0.747098 24.4606 2.5
      vertex -0.747098 24.4606 3.5
      vertex -0.484827 24.7247 3.5
    endloop
  endfacet
  facet normal -0.628298 0.777973 0
    outer loop
      vertex -1.06074 24.2073 2.5
      vertex -0.747098 24.4606 3.5
      vertex -0.747098 24.4606 2.5
    endloop
  endfacet
  facet normal -0.628298 0.777973 0
    outer loop
      vertex -1.06074 24.2073 2.5
      vertex -1.06074 24.2073 3.5
      vertex -0.747098 24.4606 3.5
    endloop
  endfacet
  facet normal -0.554403 0.832248 0
    outer loop
      vertex -1.42312 23.9659 2.5
      vertex -1.06074 24.2073 3.5
      vertex -1.06074 24.2073 2.5
    endloop
  endfacet
  facet normal -0.554403 0.832248 0
    outer loop
      vertex -1.42312 23.9659 2.5
      vertex -1.42312 23.9659 3.5
      vertex -1.06074 24.2073 3.5
    endloop
  endfacet
  facet normal -0.488649 0.872481 0
    outer loop
      vertex -1.83182 23.737 2.5
      vertex -1.42312 23.9659 3.5
      vertex -1.42312 23.9659 2.5
    endloop
  endfacet
  facet normal -0.488649 0.872481 0
    outer loop
      vertex -1.83182 23.737 2.5
      vertex -1.83182 23.737 3.5
      vertex -1.42312 23.9659 3.5
    endloop
  endfacet
  facet normal -0.429817 0.902916 0
    outer loop
      vertex -2.28431 23.5216 2.5
      vertex -1.83182 23.737 3.5
      vertex -1.83182 23.737 2.5
    endloop
  endfacet
  facet normal -0.429817 0.902916 0
    outer loop
      vertex -2.28431 23.5216 2.5
      vertex -2.28431 23.5216 3.5
      vertex -1.83182 23.737 3.5
    endloop
  endfacet
  facet normal -0.377037 0.926198 0
    outer loop
      vertex -2.77807 23.3206 2.5
      vertex -2.28431 23.5216 3.5
      vertex -2.28431 23.5216 2.5
    endloop
  endfacet
  facet normal -0.377037 0.926198 0
    outer loop
      vertex -2.77807 23.3206 2.5
      vertex -2.77807 23.3206 3.5
      vertex -2.28431 23.5216 3.5
    endloop
  endfacet
  facet normal -0.3296 0.944121 0
    outer loop
      vertex -3.31057 23.1347 2.5
      vertex -2.77807 23.3206 3.5
      vertex -2.77807 23.3206 2.5
    endloop
  endfacet
  facet normal -0.3296 0.944121 0
    outer loop
      vertex -3.31057 23.1347 2.5
      vertex -3.31057 23.1347 3.5
      vertex -2.77807 23.3206 3.5
    endloop
  endfacet
  facet normal -0.286283 0.958145 0
    outer loop
      vertex -3.8792 22.9648 2.5
      vertex -3.31057 23.1347 3.5
      vertex -3.31057 23.1347 2.5
    endloop
  endfacet
  facet normal -0.286283 0.958145 0
    outer loop
      vertex -3.8792 22.9648 2.5
      vertex -3.8792 22.9648 3.5
      vertex -3.31057 23.1347 3.5
    endloop
  endfacet
  facet normal -0.246463 0.969152 0
    outer loop
      vertex -4.48162 22.8116 2.5
      vertex -3.8792 22.9648 3.5
      vertex -3.8792 22.9648 2.5
    endloop
  endfacet
  facet normal -0.246463 0.969152 0
    outer loop
      vertex -4.48162 22.8116 2.5
      vertex -4.48162 22.8116 3.5
      vertex -3.8792 22.9648 3.5
    endloop
  endfacet
  facet normal -0.208868 0.977944 0
    outer loop
      vertex -5.11511 22.6763 2.5
      vertex -4.48162 22.8116 3.5
      vertex -4.48162 22.8116 2.5
    endloop
  endfacet
  facet normal -0.208868 0.977944 0
    outer loop
      vertex -5.11511 22.6763 2.5
      vertex -5.11511 22.6763 3.5
      vertex -4.48162 22.8116 3.5
    endloop
  endfacet
  facet normal -0.173888 0.984765 0
    outer loop
      vertex -5.77714 22.5594 2.5
      vertex -5.11511 22.6763 3.5
      vertex -5.11511 22.6763 2.5
    endloop
  endfacet
  facet normal -0.173888 0.984765 0
    outer loop
      vertex -5.77714 22.5594 2.5
      vertex -5.77714 22.5594 3.5
      vertex -5.11511 22.6763 3.5
    endloop
  endfacet
  facet normal -0.140261 0.990115 0
    outer loop
      vertex -6.4654 22.4619 2.5
      vertex -5.77714 22.5594 3.5
      vertex -5.77714 22.5594 2.5
    endloop
  endfacet
  facet normal -0.140261 0.990115 0
    outer loop
      vertex -6.4654 22.4619 2.5
      vertex -6.4654 22.4619 3.5
      vertex -5.77714 22.5594 3.5
    endloop
  endfacet
  facet normal -0.107971 0.994154 0
    outer loop
      vertex -7.17715 22.3846 2.5
      vertex -6.4654 22.4619 3.5
      vertex -6.4654 22.4619 2.5
    endloop
  endfacet
  facet normal -0.107971 0.994154 0
    outer loop
      vertex -7.17715 22.3846 2.5
      vertex -7.17715 22.3846 3.5
      vertex -6.4654 22.4619 3.5
    endloop
  endfacet
  facet normal -0.0765904 0.997063 0
    outer loop
      vertex -7.91007 22.3283 2.5
      vertex -7.17715 22.3846 3.5
      vertex -7.17715 22.3846 2.5
    endloop
  endfacet
  facet normal -0.0765904 0.997063 0
    outer loop
      vertex -7.91007 22.3283 2.5
      vertex -7.91007 22.3283 3.5
      vertex -7.17715 22.3846 3.5
    endloop
  endfacet
  facet normal -0.0457406 0.998953 0
    outer loop
      vertex -8.66135 22.2939 2.5
      vertex -7.91007 22.3283 3.5
      vertex -7.91007 22.3283 2.5
    endloop
  endfacet
  facet normal -0.0457406 0.998953 0
    outer loop
      vertex -8.66135 22.2939 2.5
      vertex -8.66135 22.2939 3.5
      vertex -7.91007 22.3283 3.5
    endloop
  endfacet
  facet normal -0.0152447 0.999884 0
    outer loop
      vertex -9.42874 22.2822 2.5
      vertex -8.66135 22.2939 3.5
      vertex -8.66135 22.2939 2.5
    endloop
  endfacet
  facet normal -0.0152447 0.999884 0
    outer loop
      vertex -9.42874 22.2822 2.5
      vertex -9.42874 22.2822 3.5
      vertex -8.66135 22.2939 3.5
    endloop
  endfacet
  facet normal 0.0146351 0.999893 0
    outer loop
      vertex -10.2281 22.2939 2.5
      vertex -9.42874 22.2822 3.5
      vertex -9.42874 22.2822 2.5
    endloop
  endfacet
  facet normal 0.0146351 0.999893 -0
    outer loop
      vertex -10.2281 22.2939 2.5
      vertex -10.2281 22.2939 3.5
      vertex -9.42874 22.2822 3.5
    endloop
  endfacet
  facet normal 0.0440485 0.999029 0
    outer loop
      vertex -11.0083 22.3283 2.5
      vertex -10.2281 22.2939 3.5
      vertex -10.2281 22.2939 2.5
    endloop
  endfacet
  facet normal 0.0440485 0.999029 -0
    outer loop
      vertex -11.0083 22.3283 2.5
      vertex -11.0083 22.3283 3.5
      vertex -10.2281 22.2939 3.5
    endloop
  endfacet
  facet normal 0.0740121 0.997257 0
    outer loop
      vertex -11.7669 22.3846 2.5
      vertex -11.0083 22.3283 3.5
      vertex -11.0083 22.3283 2.5
    endloop
  endfacet
  facet normal 0.0740121 0.997257 -0
    outer loop
      vertex -11.7669 22.3846 2.5
      vertex -11.7669 22.3846 3.5
      vertex -11.0083 22.3283 3.5
    endloop
  endfacet
  facet normal 0.104635 0.994511 0
    outer loop
      vertex -12.5016 22.4619 2.5
      vertex -11.7669 22.3846 3.5
      vertex -11.7669 22.3846 2.5
    endloop
  endfacet
  facet normal 0.104635 0.994511 -0
    outer loop
      vertex -12.5016 22.4619 2.5
      vertex -12.5016 22.4619 3.5
      vertex -11.7669 22.3846 3.5
    endloop
  endfacet
  facet normal 0.13633 0.990664 0
    outer loop
      vertex -13.2101 22.5594 2.5
      vertex -12.5016 22.4619 3.5
      vertex -12.5016 22.4619 2.5
    endloop
  endfacet
  facet normal 0.13633 0.990664 -0
    outer loop
      vertex -13.2101 22.5594 2.5
      vertex -13.2101 22.5594 3.5
      vertex -12.5016 22.4619 3.5
    endloop
  endfacet
  facet normal 0.169475 0.985535 0
    outer loop
      vertex -13.8899 22.6763 2.5
      vertex -13.2101 22.5594 3.5
      vertex -13.2101 22.5594 2.5
    endloop
  endfacet
  facet normal 0.169475 0.985535 -0
    outer loop
      vertex -13.8899 22.6763 2.5
      vertex -13.8899 22.6763 3.5
      vertex -13.2101 22.5594 3.5
    endloop
  endfacet
  facet normal 0.204117 0.978947 0
    outer loop
      vertex -14.5388 22.8116 2.5
      vertex -13.8899 22.6763 3.5
      vertex -13.8899 22.6763 2.5
    endloop
  endfacet
  facet normal 0.204117 0.978947 -0
    outer loop
      vertex -14.5388 22.8116 2.5
      vertex -14.5388 22.8116 3.5
      vertex -13.8899 22.6763 3.5
    endloop
  endfacet
  facet normal 0.241571 0.970383 0
    outer loop
      vertex -15.1542 22.9648 2.5
      vertex -14.5388 22.8116 3.5
      vertex -14.5388 22.8116 2.5
    endloop
  endfacet
  facet normal 0.241571 0.970383 -0
    outer loop
      vertex -15.1542 22.9648 2.5
      vertex -15.1542 22.9648 3.5
      vertex -14.5388 22.8116 3.5
    endloop
  endfacet
  facet normal 0.281163 0.95966 0
    outer loop
      vertex -15.7341 23.1347 2.5
      vertex -15.1542 22.9648 3.5
      vertex -15.1542 22.9648 2.5
    endloop
  endfacet
  facet normal 0.281163 0.95966 -0
    outer loop
      vertex -15.7341 23.1347 2.5
      vertex -15.7341 23.1347 3.5
      vertex -15.1542 22.9648 3.5
    endloop
  endfacet
  facet normal 0.324597 0.945853 0
    outer loop
      vertex -16.2758 23.3206 2.5
      vertex -15.7341 23.1347 3.5
      vertex -15.7341 23.1347 2.5
    endloop
  endfacet
  facet normal 0.324597 0.945853 -0
    outer loop
      vertex -16.2758 23.3206 2.5
      vertex -16.2758 23.3206 3.5
      vertex -15.7341 23.1347 3.5
    endloop
  endfacet
  facet normal 0.372093 0.928196 0
    outer loop
      vertex -16.7772 23.5216 2.5
      vertex -16.2758 23.3206 3.5
      vertex -16.2758 23.3206 2.5
    endloop
  endfacet
  facet normal 0.372093 0.928196 -0
    outer loop
      vertex -16.7772 23.5216 2.5
      vertex -16.7772 23.5216 3.5
      vertex -16.2758 23.3206 3.5
    endloop
  endfacet
  facet normal 0.425132 0.905132 0
    outer loop
      vertex -17.2358 23.737 2.5
      vertex -16.7772 23.5216 3.5
      vertex -16.7772 23.5216 2.5
    endloop
  endfacet
  facet normal 0.425132 0.905132 -0
    outer loop
      vertex -17.2358 23.737 2.5
      vertex -17.2358 23.737 3.5
      vertex -16.7772 23.5216 3.5
    endloop
  endfacet
  facet normal 0.484403 0.874845 0
    outer loop
      vertex -17.6492 23.9659 2.5
      vertex -17.2358 23.737 3.5
      vertex -17.2358 23.737 2.5
    endloop
  endfacet
  facet normal 0.484403 0.874845 -0
    outer loop
      vertex -17.6492 23.9659 2.5
      vertex -17.6492 23.9659 3.5
      vertex -17.2358 23.737 3.5
    endloop
  endfacet
  facet normal 0.550588 0.834777 0
    outer loop
      vertex -18.0152 24.2073 2.5
      vertex -17.6492 23.9659 3.5
      vertex -17.6492 23.9659 2.5
    endloop
  endfacet
  facet normal 0.550588 0.834777 -0
    outer loop
      vertex -18.0152 24.2073 2.5
      vertex -18.0152 24.2073 3.5
      vertex -17.6492 23.9659 3.5
    endloop
  endfacet
  facet normal 0.625207 0.780459 0
    outer loop
      vertex -18.3314 24.4606 2.5
      vertex -18.0152 24.2073 3.5
      vertex -18.0152 24.2073 2.5
    endloop
  endfacet
  facet normal 0.625207 0.780459 -0
    outer loop
      vertex -18.3314 24.4606 2.5
      vertex -18.3314 24.4606 3.5
      vertex -18.0152 24.2073 3.5
    endloop
  endfacet
  facet normal 0.707375 0.706839 0
    outer loop
      vertex -18.5953 24.7247 2.5
      vertex -18.3314 24.4606 3.5
      vertex -18.3314 24.4606 2.5
    endloop
  endfacet
  facet normal 0.707375 0.706839 -0
    outer loop
      vertex -18.5953 24.7247 2.5
      vertex -18.5953 24.7247 3.5
      vertex -18.3314 24.4606 3.5
    endloop
  endfacet
  facet normal 0.79472 0.606977 0
    outer loop
      vertex -18.8048 24.999 2.5
      vertex -18.5953 24.7247 3.5
      vertex -18.5953 24.7247 2.5
    endloop
  endfacet
  facet normal 0.79472 0.606977 -0
    outer loop
      vertex -18.8048 24.999 2.5
      vertex -18.8048 24.999 3.5
      vertex -18.5953 24.7247 3.5
    endloop
  endfacet
  facet normal 0.880939 0.473229 0
    outer loop
      vertex -18.9572 25.2827 2.5
      vertex -18.8048 24.999 3.5
      vertex -18.8048 24.999 2.5
    endloop
  endfacet
  facet normal 0.880939 0.473229 -0
    outer loop
      vertex -18.9572 25.2827 2.5
      vertex -18.9572 25.2827 3.5
      vertex -18.8048 24.999 3.5
    endloop
  endfacet
  facet normal 0.952651 0.304065 0
    outer loop
      vertex -19.0504 25.5747 2.5
      vertex -18.9572 25.2827 3.5
      vertex -18.9572 25.2827 2.5
    endloop
  endfacet
  facet normal 0.952651 0.304065 -0
    outer loop
      vertex -19.0504 25.5747 2.5
      vertex -19.0504 25.5747 3.5
      vertex -18.9572 25.2827 3.5
    endloop
  endfacet
  facet normal 0.99448 0.104927 0
    outer loop
      vertex -19.082 25.8742 2.5
      vertex -19.0504 25.5747 3.5
      vertex -19.0504 25.5747 2.5
    endloop
  endfacet
  facet normal 0.99448 0.104927 -0
    outer loop
      vertex -19.082 25.8742 2.5
      vertex -19.082 25.8742 3.5
      vertex -19.0504 25.5747 3.5
    endloop
  endfacet
  facet normal -1 0 0
    outer loop
      vertex -19.082 -7.79996 2.5
      vertex -19.082 25.8742 3.5
      vertex -19.082 25.8742 2.5
    endloop
  endfacet
  facet normal -1 0 0
    outer loop
      vertex -19.082 -7.79996 2.5
      vertex -19.082 -7.79996 3.5
      vertex -19.082 25.8742 3.5
    endloop
  endfacet
  facet normal -0.999465 -0.0326914 0
    outer loop
      vertex -19.0787 -7.90085 2.5
      vertex -19.082 -7.79996 3.5
      vertex -19.082 -7.79996 2.5
    endloop
  endfacet
  facet normal -0.999465 -0.0326914 0
    outer loop
      vertex -19.0787 -7.90085 2.5
      vertex -19.0787 -7.90085 3.5
      vertex -19.082 -7.79996 3.5
    endloop
  endfacet
  facet normal -0.995183 -0.098033 0
    outer loop
      vertex -19.0688 -8.00135 2.5
      vertex -19.0787 -7.90085 3.5
      vertex -19.0787 -7.90085 2.5
    endloop
  endfacet
  facet normal -0.995183 -0.098033 0
    outer loop
      vertex -19.0688 -8.00135 2.5
      vertex -19.0688 -8.00135 3.5
      vertex -19.0787 -7.90085 3.5
    endloop
  endfacet
  facet normal -0.986828 -0.161775 0
    outer loop
      vertex -19.0525 -8.10078 2.5
      vertex -19.0688 -8.00135 3.5
      vertex -19.0688 -8.00135 2.5
    endloop
  endfacet
  facet normal -0.986828 -0.161775 0
    outer loop
      vertex -19.0525 -8.10078 2.5
      vertex -19.0525 -8.10078 3.5
      vertex -19.0688 -8.00135 3.5
    endloop
  endfacet
  facet normal -0.974364 -0.224976 0
    outer loop
      vertex -19.0299 -8.19866 2.5
      vertex -19.0525 -8.10078 3.5
      vertex -19.0525 -8.10078 2.5
    endloop
  endfacet
  facet normal -0.974364 -0.224976 0
    outer loop
      vertex -19.0299 -8.19866 2.5
      vertex -19.0299 -8.19866 3.5
      vertex -19.0525 -8.10078 3.5
    endloop
  endfacet
  facet normal -0.958509 -0.285062 0
    outer loop
      vertex -19.0014 -8.29449 2.5
      vertex -19.0299 -8.19866 3.5
      vertex -19.0299 -8.19866 2.5
    endloop
  endfacet
  facet normal -0.958509 -0.285062 0
    outer loop
      vertex -19.0014 -8.29449 2.5
      vertex -19.0014 -8.29449 3.5
      vertex -19.0299 -8.19866 3.5
    endloop
  endfacet
  facet normal -0.937749 -0.347314 0
    outer loop
      vertex -18.9668 -8.38791 2.5
      vertex -19.0014 -8.29449 3.5
      vertex -19.0014 -8.29449 2.5
    endloop
  endfacet
  facet normal -0.937749 -0.347314 0
    outer loop
      vertex -18.9668 -8.38791 2.5
      vertex -18.9668 -8.38791 3.5
      vertex -19.0014 -8.29449 3.5
    endloop
  endfacet
  facet normal -0.913561 -0.406702 0
    outer loop
      vertex -18.9266 -8.47821 2.5
      vertex -18.9668 -8.38791 3.5
      vertex -18.9668 -8.38791 2.5
    endloop
  endfacet
  facet normal -0.913561 -0.406702 0
    outer loop
      vertex -18.9266 -8.47821 2.5
      vertex -18.9266 -8.47821 3.5
      vertex -18.9668 -8.38791 3.5
    endloop
  endfacet
  facet normal -0.884874 -0.46583 0
    outer loop
      vertex -18.8809 -8.56502 2.5
      vertex -18.9266 -8.47821 3.5
      vertex -18.9266 -8.47821 2.5
    endloop
  endfacet
  facet normal -0.884874 -0.46583 0
    outer loop
      vertex -18.8809 -8.56502 2.5
      vertex -18.8809 -8.56502 3.5
      vertex -18.9266 -8.47821 3.5
    endloop
  endfacet
  facet normal -0.850329 -0.526252 0
    outer loop
      vertex -18.8297 -8.64775 2.5
      vertex -18.8809 -8.56502 3.5
      vertex -18.8809 -8.56502 2.5
    endloop
  endfacet
  facet normal -0.850329 -0.526252 0
    outer loop
      vertex -18.8297 -8.64775 2.5
      vertex -18.8297 -8.64775 3.5
      vertex -18.8809 -8.56502 3.5
    endloop
  endfacet
  facet normal -0.811766 -0.583982 0
    outer loop
      vertex -18.7734 -8.72601 2.5
      vertex -18.8297 -8.64775 3.5
      vertex -18.8297 -8.64775 2.5
    endloop
  endfacet
  facet normal -0.811766 -0.583982 0
    outer loop
      vertex -18.7734 -8.72601 2.5
      vertex -18.7734 -8.72601 3.5
      vertex -18.8297 -8.64775 3.5
    endloop
  endfacet
  facet normal -0.765296 -0.643678 0
    outer loop
      vertex -18.7119 -8.79913 2.5
      vertex -18.7734 -8.72601 3.5
      vertex -18.7734 -8.72601 2.5
    endloop
  endfacet
  facet normal -0.765296 -0.643678 0
    outer loop
      vertex -18.7119 -8.79913 2.5
      vertex -18.7119 -8.79913 3.5
      vertex -18.7734 -8.72601 3.5
    endloop
  endfacet
  facet normal -0.713835 -0.700314 0
    outer loop
      vertex -18.6456 -8.86671 2.5
      vertex -18.7119 -8.79913 3.5
      vertex -18.7119 -8.79913 2.5
    endloop
  endfacet
  facet normal -0.713835 -0.700314 0
    outer loop
      vertex -18.6456 -8.86671 2.5
      vertex -18.6456 -8.86671 3.5
      vertex -18.7119 -8.79913 3.5
    endloop
  endfacet
  facet normal -0.655153 -0.755496 0
    outer loop
      vertex -18.5746 -8.92828 2.5
      vertex -18.6456 -8.86671 3.5
      vertex -18.6456 -8.86671 2.5
    endloop
  endfacet
  facet normal -0.655153 -0.755496 0
    outer loop
      vertex -18.5746 -8.92828 2.5
      vertex -18.5746 -8.92828 3.5
      vertex -18.6456 -8.86671 3.5
    endloop
  endfacet
  facet normal -0.587949 -0.808898 0
    outer loop
      vertex -18.499 -8.98323 2.5
      vertex -18.5746 -8.92828 3.5
      vertex -18.5746 -8.92828 2.5
    endloop
  endfacet
  facet normal -0.587949 -0.808898 0
    outer loop
      vertex -18.499 -8.98323 2.5
      vertex -18.499 -8.98323 3.5
      vertex -18.5746 -8.92828 3.5
    endloop
  endfacet
  facet normal -0.514732 -0.857351 0
    outer loop
      vertex -18.4191 -9.0312 2.5
      vertex -18.499 -8.98323 3.5
      vertex -18.499 -8.98323 2.5
    endloop
  endfacet
  facet normal -0.514732 -0.857351 0
    outer loop
      vertex -18.4191 -9.0312 2.5
      vertex -18.4191 -9.0312 3.5
      vertex -18.499 -8.98323 3.5
    endloop
  endfacet
  facet normal -0.431721 -0.902007 0
    outer loop
      vertex -18.3349 -9.0715 2.5
      vertex -18.4191 -9.0312 3.5
      vertex -18.4191 -9.0312 2.5
    endloop
  endfacet
  facet normal -0.431721 -0.902007 0
    outer loop
      vertex -18.3349 -9.0715 2.5
      vertex -18.3349 -9.0715 3.5
      vertex -18.4191 -9.0312 3.5
    endloop
  endfacet
  facet normal -0.343316 -0.93922 0
    outer loop
      vertex -18.2467 -9.10374 2.5
      vertex -18.3349 -9.0715 3.5
      vertex -18.3349 -9.0715 2.5
    endloop
  endfacet
  facet normal -0.343316 -0.93922 0
    outer loop
      vertex -18.2467 -9.10374 2.5
      vertex -18.2467 -9.10374 3.5
      vertex -18.3349 -9.0715 3.5
    endloop
  endfacet
  facet normal -0.249365 -0.968409 0
    outer loop
      vertex -18.1547 -9.12743 2.5
      vertex -18.2467 -9.10374 3.5
      vertex -18.2467 -9.10374 2.5
    endloop
  endfacet
  facet normal -0.249365 -0.968409 0
    outer loop
      vertex -18.1547 -9.12743 2.5
      vertex -18.1547 -9.12743 3.5
      vertex -18.2467 -9.10374 3.5
    endloop
  endfacet
  facet normal -0.150205 -0.988655 0
    outer loop
      vertex -18.0588 -9.142 2.5
      vertex -18.1547 -9.12743 3.5
      vertex -18.1547 -9.12743 2.5
    endloop
  endfacet
  facet normal -0.150205 -0.988655 0
    outer loop
      vertex -18.0588 -9.142 2.5
      vertex -18.0588 -9.142 3.5
      vertex -18.1547 -9.12743 3.5
    endloop
  endfacet
  facet normal -0.0498372 -0.998757 0
    outer loop
      vertex -17.9596 -9.14695 2.5
      vertex -18.0588 -9.142 3.5
      vertex -18.0588 -9.142 2.5
    endloop
  endfacet
  facet normal -0.0498372 -0.998757 0
    outer loop
      vertex -17.9596 -9.14695 2.5
      vertex -17.9596 -9.14695 3.5
      vertex -18.0588 -9.142 3.5
    endloop
  endfacet
  facet normal 0 -1 0
    outer loop
      vertex 17.7351 -9.14695 2.5
      vertex -17.9596 -9.14695 3.5
      vertex -17.9596 -9.14695 2.5
    endloop
  endfacet
  facet normal 0 -1 0
    outer loop
      vertex 17.7351 -9.14695 2.5
      vertex 17.7351 -9.14695 3.5
      vertex -17.9596 -9.14695 3.5
    endloop
  endfacet
  facet normal 0.0336776 -0.999433 0
    outer loop
      vertex 17.836 -9.14355 2.5
      vertex 17.7351 -9.14695 3.5
      vertex 17.7351 -9.14695 2.5
    endloop
  endfacet
  facet normal 0.0336776 -0.999433 0
    outer loop
      vertex 17.836 -9.14355 2.5
      vertex 17.836 -9.14355 3.5
      vertex 17.7351 -9.14695 3.5
    endloop
  endfacet
  facet normal 0.098033 -0.995183 0
    outer loop
      vertex 17.9365 -9.13365 2.5
      vertex 17.836 -9.14355 3.5
      vertex 17.836 -9.14355 2.5
    endloop
  endfacet
  facet normal 0.098033 -0.995183 0
    outer loop
      vertex 17.9365 -9.13365 2.5
      vertex 17.9365 -9.13365 3.5
      vertex 17.836 -9.14355 3.5
    endloop
  endfacet
  facet normal 0.162175 -0.986762 0
    outer loop
      vertex 18.0358 -9.11733 2.5
      vertex 17.9365 -9.13365 3.5
      vertex 17.9365 -9.13365 2.5
    endloop
  endfacet
  facet normal 0.162175 -0.986762 0
    outer loop
      vertex 18.0358 -9.11733 2.5
      vertex 18.0358 -9.11733 3.5
      vertex 17.9365 -9.13365 3.5
    endloop
  endfacet
  facet normal 0.224053 -0.974577 0
    outer loop
      vertex 18.1338 -9.0948 2.5
      vertex 18.0358 -9.11733 3.5
      vertex 18.0358 -9.11733 2.5
    endloop
  endfacet
  facet normal 0.224053 -0.974577 0
    outer loop
      vertex 18.1338 -9.0948 2.5
      vertex 18.1338 -9.0948 3.5
      vertex 18.0358 -9.11733 3.5
    endloop
  endfacet
  facet normal 0.285512 -0.958375 0
    outer loop
      vertex 18.2296 -9.06626 2.5
      vertex 18.1338 -9.0948 3.5
      vertex 18.1338 -9.0948 2.5
    endloop
  endfacet
  facet normal 0.285512 -0.958375 0
    outer loop
      vertex 18.2296 -9.06626 2.5
      vertex 18.2296 -9.06626 3.5
      vertex 18.1338 -9.0948 3.5
    endloop
  endfacet
  facet normal 0.346231 -0.938149 0
    outer loop
      vertex 18.323 -9.03179 2.5
      vertex 18.2296 -9.06626 3.5
      vertex 18.2296 -9.06626 2.5
    endloop
  endfacet
  facet normal 0.346231 -0.938149 0
    outer loop
      vertex 18.323 -9.03179 2.5
      vertex 18.323 -9.03179 3.5
      vertex 18.2296 -9.06626 3.5
    endloop
  endfacet
  facet normal 0.406702 -0.913561 0
    outer loop
      vertex 18.4133 -8.99159 2.5
      vertex 18.323 -9.03179 3.5
      vertex 18.323 -9.03179 2.5
    endloop
  endfacet
  facet normal 0.406702 -0.913561 0
    outer loop
      vertex 18.4133 -8.99159 2.5
      vertex 18.4133 -8.99159 3.5
      vertex 18.323 -9.03179 3.5
    endloop
  endfacet
  facet normal 0.466989 -0.884263 0
    outer loop
      vertex 18.5001 -8.94575 2.5
      vertex 18.4133 -8.99159 3.5
      vertex 18.4133 -8.99159 2.5
    endloop
  endfacet
  facet normal 0.466989 -0.884263 0
    outer loop
      vertex 18.5001 -8.94575 2.5
      vertex 18.5001 -8.94575 3.5
      vertex 18.4133 -8.99159 3.5
    endloop
  endfacet
  facet normal 0.525707 -0.850666 0
    outer loop
      vertex 18.5829 -8.89458 2.5
      vertex 18.5001 -8.94575 3.5
      vertex 18.5001 -8.94575 2.5
    endloop
  endfacet
  facet normal 0.525707 -0.850666 0
    outer loop
      vertex 18.5829 -8.89458 2.5
      vertex 18.5829 -8.89458 3.5
      vertex 18.5001 -8.94575 3.5
    endloop
  endfacet
  facet normal 0.584414 -0.811456 0
    outer loop
      vertex 18.6611 -8.83826 2.5
      vertex 18.5829 -8.89458 3.5
      vertex 18.5829 -8.89458 2.5
    endloop
  endfacet
  facet normal 0.584414 -0.811456 0
    outer loop
      vertex 18.6611 -8.83826 2.5
      vertex 18.6611 -8.83826 3.5
      vertex 18.5829 -8.89458 3.5
    endloop
  endfacet
  facet normal 0.64302 -0.765849 0
    outer loop
      vertex 18.7343 -8.7768 2.5
      vertex 18.6611 -8.83826 3.5
      vertex 18.6611 -8.83826 2.5
    endloop
  endfacet
  facet normal 0.64302 -0.765849 0
    outer loop
      vertex 18.7343 -8.7768 2.5
      vertex 18.7343 -8.7768 3.5
      vertex 18.6611 -8.83826 3.5
    endloop
  endfacet
  facet normal 0.700844 -0.713314 0
    outer loop
      vertex 18.8018 -8.71048 2.5
      vertex 18.7343 -8.7768 3.5
      vertex 18.7343 -8.7768 2.5
    endloop
  endfacet
  facet normal 0.700844 -0.713314 0
    outer loop
      vertex 18.8018 -8.71048 2.5
      vertex 18.8018 -8.71048 3.5
      vertex 18.7343 -8.7768 3.5
    endloop
  endfacet
  facet normal 0.755247 -0.655441 0
    outer loop
      vertex 18.8634 -8.6395 2.5
      vertex 18.8018 -8.71048 3.5
      vertex 18.8018 -8.71048 2.5
    endloop
  endfacet
  facet normal 0.755247 -0.655441 0
    outer loop
      vertex 18.8634 -8.6395 2.5
      vertex 18.8634 -8.6395 3.5
      vertex 18.8018 -8.71048 3.5
    endloop
  endfacet
  facet normal 0.808458 -0.588553 0
    outer loop
      vertex 18.9184 -8.56395 2.5
      vertex 18.8634 -8.6395 3.5
      vertex 18.8634 -8.6395 2.5
    endloop
  endfacet
  facet normal 0.808458 -0.588553 0
    outer loop
      vertex 18.9184 -8.56395 2.5
      vertex 18.9184 -8.56395 3.5
      vertex 18.8634 -8.6395 3.5
    endloop
  endfacet
  facet normal 0.858467 -0.51287 0
    outer loop
      vertex 18.9662 -8.48394 2.5
      vertex 18.9184 -8.56395 3.5
      vertex 18.9184 -8.56395 2.5
    endloop
  endfacet
  facet normal 0.858467 -0.51287 0
    outer loop
      vertex 18.9662 -8.48394 2.5
      vertex 18.9662 -8.48394 3.5
      vertex 18.9184 -8.56395 3.5
    endloop
  endfacet
  facet normal 0.901369 -0.433052 0
    outer loop
      vertex 19.0066 -8.39985 2.5
      vertex 18.9662 -8.48394 3.5
      vertex 18.9662 -8.48394 2.5
    endloop
  endfacet
  facet normal 0.901369 -0.433052 0
    outer loop
      vertex 19.0066 -8.39985 2.5
      vertex 19.0066 -8.39985 3.5
      vertex 18.9662 -8.48394 3.5
    endloop
  endfacet
  facet normal 0.939102 -0.343639 0
    outer loop
      vertex 19.0389 -8.31158 2.5
      vertex 19.0066 -8.39985 3.5
      vertex 19.0066 -8.39985 2.5
    endloop
  endfacet
  facet normal 0.939102 -0.343639 0
    outer loop
      vertex 19.0389 -8.31158 2.5
      vertex 19.0389 -8.31158 3.5
      vertex 19.0066 -8.39985 3.5
    endloop
  endfacet
  facet normal 0.96867 -0.24835 0
    outer loop
      vertex 19.0625 -8.21953 2.5
      vertex 19.0389 -8.31158 3.5
      vertex 19.0389 -8.31158 2.5
    endloop
  endfacet
  facet normal 0.96867 -0.24835 0
    outer loop
      vertex 19.0625 -8.21953 2.5
      vertex 19.0625 -8.21953 3.5
      vertex 19.0389 -8.31158 3.5
    endloop
  endfacet
  facet normal 0.988725 -0.149744 0
    outer loop
      vertex 19.077 -8.12379 2.5
      vertex 19.0625 -8.21953 3.5
      vertex 19.0625 -8.21953 2.5
    endloop
  endfacet
  facet normal 0.988725 -0.149744 0
    outer loop
      vertex 19.077 -8.12379 2.5
      vertex 19.077 -8.12379 3.5
      vertex 19.0625 -8.21953 3.5
    endloop
  endfacet
  facet normal 0.998735 -0.0502736 0
    outer loop
      vertex 19.082 -8.02446 2.5
      vertex 19.077 -8.12379 3.5
      vertex 19.077 -8.12379 2.5
    endloop
  endfacet
  facet normal 0.998735 -0.0502736 0
    outer loop
      vertex 19.082 -8.02446 2.5
      vertex 19.082 -8.02446 3.5
      vertex 19.077 -8.12379 3.5
    endloop
  endfacet
  facet normal 1 0 0
    outer loop
      vertex 19.082 15.5474 2.5
      vertex 19.082 -8.02446 3.5
      vertex 19.082 -8.02446 2.5
    endloop
  endfacet
  facet normal 1 0 -0
    outer loop
      vertex 19.082 15.5474 2.5
      vertex 19.082 15.5474 3.5
      vertex 19.082 -8.02446 3.5
    endloop
  endfacet
  facet normal 0.998752 0.0499376 0
    outer loop
      vertex 19.0804 15.5794 2.5
      vertex 19.082 15.5474 3.5
      vertex 19.082 15.5474 2.5
    endloop
  endfacet
  facet normal 0.998752 0.0499376 -0
    outer loop
      vertex 19.0804 15.5794 2.5
      vertex 19.0804 15.5794 3.5
      vertex 19.082 15.5474 3.5
    endloop
  endfacet
  facet normal 0.987568 0.157191 0
    outer loop
      vertex 19.0758 15.6083 2.5
      vertex 19.0804 15.5794 3.5
      vertex 19.0804 15.5794 2.5
    endloop
  endfacet
  facet normal 0.987568 0.157191 -0
    outer loop
      vertex 19.0758 15.6083 2.5
      vertex 19.0758 15.6083 3.5
      vertex 19.0804 15.5794 3.5
    endloop
  endfacet
  facet normal 0.960958 0.276696 0
    outer loop
      vertex 19.0684 15.634 2.5
      vertex 19.0758 15.6083 3.5
      vertex 19.0758 15.6083 2.5
    endloop
  endfacet
  facet normal 0.960958 0.276696 -0
    outer loop
      vertex 19.0684 15.634 2.5
      vertex 19.0684 15.634 3.5
      vertex 19.0758 15.6083 3.5
    endloop
  endfacet
  facet normal 0.921409 0.388594 0
    outer loop
      vertex 19.0587 15.657 2.5
      vertex 19.0684 15.634 3.5
      vertex 19.0684 15.634 2.5
    endloop
  endfacet
  facet normal 0.921409 0.388594 -0
    outer loop
      vertex 19.0587 15.657 2.5
      vertex 19.0587 15.657 3.5
      vertex 19.0684 15.634 3.5
    endloop
  endfacet
  facet normal 0.863469 0.504402 0
    outer loop
      vertex 19.0469 15.6772 2.5
      vertex 19.0587 15.657 3.5
      vertex 19.0587 15.657 2.5
    endloop
  endfacet
  facet normal 0.863469 0.504402 -0
    outer loop
      vertex 19.0469 15.6772 2.5
      vertex 19.0469 15.6772 3.5
      vertex 19.0587 15.657 3.5
    endloop
  endfacet
  facet normal 0.797289 0.603597 0
    outer loop
      vertex 19.0335 15.6949 2.5
      vertex 19.0469 15.6772 3.5
      vertex 19.0469 15.6772 2.5
    endloop
  endfacet
  facet normal 0.797289 0.603597 -0
    outer loop
      vertex 19.0335 15.6949 2.5
      vertex 19.0335 15.6949 3.5
      vertex 19.0469 15.6772 3.5
    endloop
  endfacet
  facet normal 0.721105 0.692826 0
    outer loop
      vertex 19.0188 15.7102 2.5
      vertex 19.0335 15.6949 3.5
      vertex 19.0335 15.6949 2.5
    endloop
  endfacet
  facet normal 0.721105 0.692826 -0
    outer loop
      vertex 19.0188 15.7102 2.5
      vertex 19.0188 15.7102 3.5
      vertex 19.0335 15.6949 3.5
    endloop
  endfacet
  facet normal 0.641139 0.767424 0
    outer loop
      vertex 19.003 15.7234 2.5
      vertex 19.0188 15.7102 3.5
      vertex 19.0188 15.7102 2.5
    endloop
  endfacet
  facet normal 0.641139 0.767424 -0
    outer loop
      vertex 19.003 15.7234 2.5
      vertex 19.003 15.7234 3.5
      vertex 19.0188 15.7102 3.5
    endloop
  endfacet
  facet normal 0.561624 0.827393 0
    outer loop
      vertex 18.9865 15.7346 2.5
      vertex 19.003 15.7234 3.5
      vertex 19.003 15.7234 2.5
    endloop
  endfacet
  facet normal 0.561624 0.827393 -0
    outer loop
      vertex 18.9865 15.7346 2.5
      vertex 18.9865 15.7346 3.5
      vertex 19.003 15.7234 3.5
    endloop
  endfacet
  facet normal 0.480315 0.877096 0
    outer loop
      vertex 18.9697 15.7438 2.5
      vertex 18.9865 15.7346 3.5
      vertex 18.9865 15.7346 2.5
    endloop
  endfacet
  facet normal 0.480315 0.877096 -0
    outer loop
      vertex 18.9697 15.7438 2.5
      vertex 18.9697 15.7438 3.5
      vertex 18.9865 15.7346 3.5
    endloop
  endfacet
  facet normal 0.418713 0.908118 0
    outer loop
      vertex 18.953 15.7515 2.5
      vertex 18.9697 15.7438 3.5
      vertex 18.9697 15.7438 2.5
    endloop
  endfacet
  facet normal 0.418713 0.908118 -0
    outer loop
      vertex 18.953 15.7515 2.5
      vertex 18.953 15.7515 3.5
      vertex 18.9697 15.7438 3.5
    endloop
  endfacet
  facet normal 0.341743 0.939793 0
    outer loop
      vertex 18.9365 15.7575 2.5
      vertex 18.953 15.7515 3.5
      vertex 18.953 15.7515 2.5
    endloop
  endfacet
  facet normal 0.341743 0.939793 -0
    outer loop
      vertex 18.9365 15.7575 2.5
      vertex 18.9365 15.7575 3.5
      vertex 18.953 15.7515 3.5
    endloop
  endfacet
  facet normal 0.292373 0.956304 0
    outer loop
      vertex 18.9208 15.7623 2.5
      vertex 18.9365 15.7575 3.5
      vertex 18.9365 15.7575 2.5
    endloop
  endfacet
  facet normal 0.292373 0.956304 -0
    outer loop
      vertex 18.9208 15.7623 2.5
      vertex 18.9208 15.7623 3.5
      vertex 18.9365 15.7575 3.5
    endloop
  endfacet
  facet normal 0.236352 0.971668 0
    outer loop
      vertex 18.906 15.7659 2.5
      vertex 18.9208 15.7623 3.5
      vertex 18.9208 15.7623 2.5
    endloop
  endfacet
  facet normal 0.236352 0.971668 -0
    outer loop
      vertex 18.906 15.7659 2.5
      vertex 18.906 15.7659 3.5
      vertex 18.9208 15.7623 3.5
    endloop
  endfacet
  facet normal 0.183403 0.983038 0
    outer loop
      vertex 18.8926 15.7684 2.5
      vertex 18.906 15.7659 3.5
      vertex 18.906 15.7659 2.5
    endloop
  endfacet
  facet normal 0.183403 0.983038 -0
    outer loop
      vertex 18.8926 15.7684 2.5
      vertex 18.8926 15.7684 3.5
      vertex 18.906 15.7659 3.5
    endloop
  endfacet
  facet normal 0.143789 0.989608 0
    outer loop
      vertex 18.8809 15.7701 2.5
      vertex 18.8926 15.7684 3.5
      vertex 18.8926 15.7684 2.5
    endloop
  endfacet
  facet normal 0.143789 0.989608 -0
    outer loop
      vertex 18.8809 15.7701 2.5
      vertex 18.8809 15.7701 3.5
      vertex 18.8926 15.7684 3.5
    endloop
  endfacet
  facet normal 0.11268 0.993631 0
    outer loop
      vertex 18.8712 15.7712 2.5
      vertex 18.8809 15.7701 3.5
      vertex 18.8809 15.7701 2.5
    endloop
  endfacet
  facet normal 0.11268 0.993631 -0
    outer loop
      vertex 18.8712 15.7712 2.5
      vertex 18.8712 15.7712 3.5
      vertex 18.8809 15.7701 3.5
    endloop
  endfacet
  facet normal 0.0577547 0.998331 0
    outer loop
      vertex 18.8591 15.7719 2.5
      vertex 18.8712 15.7712 3.5
      vertex 18.8712 15.7712 2.5
    endloop
  endfacet
  facet normal 0.0577547 0.998331 -0
    outer loop
      vertex 18.8591 15.7719 2.5
      vertex 18.8591 15.7719 3.5
      vertex 18.8712 15.7712 3.5
    endloop
  endfacet
  facet normal 0 1 0
    outer loop
      vertex 18.6331 15.7719 2.5
      vertex 18.8591 15.7719 3.5
      vertex 18.8591 15.7719 2.5
    endloop
  endfacet
  facet normal 0 1 0
    outer loop
      vertex 18.6331 15.7719 2.5
      vertex 18.6331 15.7719 3.5
      vertex 18.8591 15.7719 3.5
    endloop
  endfacet
  facet normal -0.698316 0.71579 0
    outer loop
      vertex 9.42874 6.79224 2.5
      vertex 18.6331 15.7719 3.5
      vertex 18.6331 15.7719 2.5
    endloop
  endfacet
  facet normal -0.698316 0.71579 0
    outer loop
      vertex 9.42874 6.79224 2.5
      vertex 9.42874 6.79224 3.5
      vertex 18.6331 15.7719 3.5
    endloop
  endfacet
  facet normal 1 0 0
    outer loop
      vertex 9.42874 15.5474 2.5
      vertex 9.42874 6.79224 3.5
      vertex 9.42874 6.79224 2.5
    endloop
  endfacet
  facet normal 1 0 -0
    outer loop
      vertex 9.42874 15.5474 2.5
      vertex 9.42874 15.5474 3.5
      vertex 9.42874 6.79224 3.5
    endloop
  endfacet
  facet normal 0.998673 0.0514941 0
    outer loop
      vertex 9.42709 15.5794 2.5
      vertex 9.42874 15.5474 3.5
      vertex 9.42874 15.5474 2.5
    endloop
  endfacet
  facet normal 0.998673 0.0514941 -0
    outer loop
      vertex 9.42709 15.5794 2.5
      vertex 9.42709 15.5794 3.5
      vertex 9.42874 15.5474 3.5
    endloop
  endfacet
  facet normal 0.987248 0.159189 0
    outer loop
      vertex 9.42243 15.6083 2.5
      vertex 9.42709 15.5794 3.5
      vertex 9.42709 15.5794 2.5
    endloop
  endfacet
  facet normal 0.987248 0.159189 -0
    outer loop
      vertex 9.42243 15.6083 2.5
      vertex 9.42243 15.6083 3.5
      vertex 9.42709 15.5794 3.5
    endloop
  endfacet
  facet normal 0.962045 0.272891 0
    outer loop
      vertex 9.41514 15.634 2.5
      vertex 9.42243 15.6083 3.5
      vertex 9.42243 15.6083 2.5
    endloop
  endfacet
  facet normal 0.962045 0.272891 -0
    outer loop
      vertex 9.41514 15.634 2.5
      vertex 9.41514 15.634 3.5
      vertex 9.42243 15.6083 3.5
    endloop
  endfacet
  facet normal 0.921266 0.388934 0
    outer loop
      vertex 9.40543 15.657 2.5
      vertex 9.41514 15.634 3.5
      vertex 9.41514 15.634 2.5
    endloop
  endfacet
  facet normal 0.921266 0.388934 -0
    outer loop
      vertex 9.40543 15.657 2.5
      vertex 9.40543 15.657 3.5
      vertex 9.41514 15.634 3.5
    endloop
  endfacet
  facet normal 0.864585 0.502487 0
    outer loop
      vertex 9.39369 15.6772 2.5
      vertex 9.40543 15.657 3.5
      vertex 9.40543 15.657 2.5
    endloop
  endfacet
  facet normal 0.864585 0.502487 -0
    outer loop
      vertex 9.39369 15.6772 2.5
      vertex 9.39369 15.6772 3.5
      vertex 9.40543 15.657 3.5
    endloop
  endfacet
  facet normal 0.797289 0.603597 0
    outer loop
      vertex 9.38029 15.6949 2.5
      vertex 9.39369 15.6772 3.5
      vertex 9.39369 15.6772 2.5
    endloop
  endfacet
  facet normal 0.797289 0.603597 -0
    outer loop
      vertex 9.38029 15.6949 2.5
      vertex 9.38029 15.6949 3.5
      vertex 9.39369 15.6772 3.5
    endloop
  endfacet
  facet normal 0.719693 0.694292 0
    outer loop
      vertex 9.36553 15.7102 2.5
      vertex 9.38029 15.6949 3.5
      vertex 9.38029 15.6949 2.5
    endloop
  endfacet
  facet normal 0.719693 0.694292 -0
    outer loop
      vertex 9.36553 15.7102 2.5
      vertex 9.36553 15.7102 3.5
      vertex 9.38029 15.6949 3.5
    endloop
  endfacet
  facet normal 0.640423 0.768022 0
    outer loop
      vertex 9.3497 15.7234 2.5
      vertex 9.36553 15.7102 3.5
      vertex 9.36553 15.7102 2.5
    endloop
  endfacet
  facet normal 0.640423 0.768022 -0
    outer loop
      vertex 9.3497 15.7234 2.5
      vertex 9.3497 15.7234 3.5
      vertex 9.36553 15.7102 3.5
    endloop
  endfacet
  facet normal 0.563727 0.825961 0
    outer loop
      vertex 9.33329 15.7346 2.5
      vertex 9.3497 15.7234 3.5
      vertex 9.3497 15.7234 2.5
    endloop
  endfacet
  facet normal 0.563727 0.825961 -0
    outer loop
      vertex 9.33329 15.7346 2.5
      vertex 9.33329 15.7346 3.5
      vertex 9.3497 15.7234 3.5
    endloop
  endfacet
  facet normal 0.480315 0.877096 0
    outer loop
      vertex 9.31649 15.7438 2.5
      vertex 9.33329 15.7346 3.5
      vertex 9.33329 15.7346 2.5
    endloop
  endfacet
  facet normal 0.480315 0.877096 -0
    outer loop
      vertex 9.31649 15.7438 2.5
      vertex 9.31649 15.7438 3.5
      vertex 9.33329 15.7346 3.5
    endloop
  endfacet
  facet normal 0.416655 0.909065 0
    outer loop
      vertex 9.29969 15.7515 2.5
      vertex 9.31649 15.7438 3.5
      vertex 9.31649 15.7438 2.5
    endloop
  endfacet
  facet normal 0.416655 0.909065 -0
    outer loop
      vertex 9.29969 15.7515 2.5
      vertex 9.29969 15.7515 3.5
      vertex 9.31649 15.7438 3.5
    endloop
  endfacet
  facet normal 0.343397 0.93919 0
    outer loop
      vertex 9.28328 15.7575 2.5
      vertex 9.29969 15.7515 3.5
      vertex 9.29969 15.7515 2.5
    endloop
  endfacet
  facet normal 0.343397 0.93919 -0
    outer loop
      vertex 9.28328 15.7575 2.5
      vertex 9.28328 15.7575 3.5
      vertex 9.29969 15.7515 3.5
    endloop
  endfacet
  facet normal 0.290175 0.956974 0
    outer loop
      vertex 9.26745 15.7623 2.5
      vertex 9.28328 15.7575 3.5
      vertex 9.28328 15.7575 2.5
    endloop
  endfacet
  facet normal 0.290175 0.956974 -0
    outer loop
      vertex 9.26745 15.7623 2.5
      vertex 9.26745 15.7623 3.5
      vertex 9.28328 15.7575 3.5
    endloop
  endfacet
  facet normal 0.236956 0.97152 0
    outer loop
      vertex 9.25269 15.7659 2.5
      vertex 9.26745 15.7623 3.5
      vertex 9.26745 15.7623 2.5
    endloop
  endfacet
  facet normal 0.236956 0.97152 -0
    outer loop
      vertex 9.25269 15.7659 2.5
      vertex 9.25269 15.7659 3.5
      vertex 9.26745 15.7623 3.5
    endloop
  endfacet
  facet normal 0.183403 0.983038 0
    outer loop
      vertex 9.23929 15.7684 2.5
      vertex 9.25269 15.7659 3.5
      vertex 9.25269 15.7659 2.5
    endloop
  endfacet
  facet normal 0.183403 0.983038 -0
    outer loop
      vertex 9.23929 15.7684 2.5
      vertex 9.23929 15.7684 3.5
      vertex 9.25269 15.7659 3.5
    endloop
  endfacet
  facet normal 0.14319 0.989695 0
    outer loop
      vertex 9.22754 15.7701 2.5
      vertex 9.23929 15.7684 3.5
      vertex 9.23929 15.7684 2.5
    endloop
  endfacet
  facet normal 0.14319 0.989695 -0
    outer loop
      vertex 9.22754 15.7701 2.5
      vertex 9.22754 15.7701 3.5
      vertex 9.23929 15.7684 3.5
    endloop
  endfacet
  facet normal 0.112565 0.993644 0
    outer loop
      vertex 9.21783 15.7712 2.5
      vertex 9.22754 15.7701 3.5
      vertex 9.22754 15.7701 2.5
    endloop
  endfacet
  facet normal 0.112565 0.993644 -0
    outer loop
      vertex 9.21783 15.7712 2.5
      vertex 9.21783 15.7712 3.5
      vertex 9.22754 15.7701 3.5
    endloop
  endfacet
  facet normal 0.058526 0.998286 0
    outer loop
      vertex 9.20589 15.7719 2.5
      vertex 9.21783 15.7712 3.5
      vertex 9.21783 15.7712 2.5
    endloop
  endfacet
  facet normal 0.058526 0.998286 -0
    outer loop
      vertex 9.20589 15.7719 2.5
      vertex 9.20589 15.7719 3.5
      vertex 9.21783 15.7712 3.5
    endloop
  endfacet
  facet normal 0 1 0
    outer loop
      vertex 8.97974 15.7719 2.5
      vertex 9.20589 15.7719 3.5
      vertex 9.20589 15.7719 2.5
    endloop
  endfacet
  facet normal 0 1 0
    outer loop
      vertex 8.97974 15.7719 2.5
      vertex 8.97974 15.7719 3.5
      vertex 9.20589 15.7719 3.5
    endloop
  endfacet
  facet normal -0.707104 0.70711 0
    outer loop
      vertex 0 6.79224 2.5
      vertex 8.97974 15.7719 3.5
      vertex 8.97974 15.7719 2.5
    endloop
  endfacet
  facet normal -0.707104 0.70711 0
    outer loop
      vertex 0 6.79224 2.5
      vertex 0 6.79224 3.5
      vertex 8.97974 15.7719 3.5
    endloop
  endfacet
  facet normal 1 0 0
    outer loop
      vertex 0 25.8742 2.5
      vertex 0 6.79224 3.5
      vertex 0 6.79224 2.5
    endloop
  endfacet
  facet normal 1 0 -0
    outer loop
      vertex 0 25.8742 2.5
      vertex 0 25.8742 3.5
      vertex 0 6.79224 3.5
    endloop
  endfacet
  facet normal -0.994494 0.104789 0
    outer loop
      vertex -0.031558 25.5747 2.5
      vertex 0 25.8742 3.5
      vertex 0 25.8742 2.5
    endloop
  endfacet
  facet normal -0.994494 0.104789 0
    outer loop
      vertex -0.031558 25.5747 2.5
      vertex -0.031558 25.5747 3.5
      vertex 0 25.8742 3.5
    endloop
  endfacet
endsolid OpenSCAD_Model
