solid OpenSCAD_Model
  facet normal 0 0 -1
    outer loop
      vertex -1.27113 17.8545 2.5
      vertex 0.771134 17.8545 2.5
      vertex 0.771134 4.67184 2.5
    endloop
  endfacet
  facet normal 0 0 -1
    outer loop
      vertex -1.27113 17.8545 2.5
      vertex 0.771134 4.67184 2.5
      vertex -1.27113 4.67184 2.5
    endloop
  endfacet
  facet normal 0 -0 1
    outer loop
      vertex 0.771134 4.67184 3.5
      vertex 0.771134 17.8545 3.5
      vertex -1.27113 17.8545 3.5
    endloop
  endfacet
  facet normal 0 0 1
    outer loop
      vertex -1.27113 4.67184 3.5
      vertex 0.771134 4.67184 3.5
      vertex -1.27113 17.8545 3.5
    endloop
  endfacet
  facet normal 0 1 0
    outer loop
      vertex -1.27113 17.8545 2.5
      vertex 0.771134 17.8545 3.5
      vertex 0.771134 17.8545 2.5
    endloop
  endfacet
  facet normal 0 1 0
    outer loop
      vertex -1.27113 17.8545 2.5
      vertex -1.27113 17.8545 3.5
      vertex 0.771134 17.8545 3.5
    endloop
  endfacet
  facet normal -1 0 0
    outer loop
      vertex -1.27113 4.67184 2.5
      vertex -1.27113 17.8545 3.5
      vertex -1.27113 17.8545 2.5
    endloop
  endfacet
  facet normal -1 0 0
    outer loop
      vertex -1.27113 4.67184 2.5
      vertex -1.27113 4.67184 3.5
      vertex -1.27113 17.8545 3.5
    endloop
  endfacet
  facet normal 0 -1 0
    outer loop
      vertex 0.771134 4.67184 2.5
      vertex -1.27113 4.67184 3.5
      vertex -1.27113 4.67184 2.5
    endloop
  endfacet
  facet normal 0 -1 0
    outer loop
      vertex 0.771134 4.67184 2.5
      vertex 0.771134 4.67184 3.5
      vertex -1.27113 4.67184 3.5
    endloop
  endfacet
  facet normal 1 0 0
    outer loop
      vertex 0.771134 17.8545 2.5
      vertex 0.771134 4.67184 3.5
      vertex 0.771134 4.67184 2.5
    endloop
  endfacet
  facet normal 1 0 -0
    outer loop
      vertex 0.771134 17.8545 2.5
      vertex 0.771134 17.8545 3.5
      vertex 0.771134 4.67184 3.5
    endloop
  endfacet
endsolid OpenSCAD_Model
