solid OpenSCAD_Model
  facet normal 0 0 -1
    outer loop
      vertex -0.852539 -11.8186 2.5
      vertex -0.219635 -11.8186 2.5
      vertex -0.852539 -15.8519 2.5
    endloop
  endfacet
  facet normal -0 0 -1
    outer loop
      vertex -2.99026 -11.8186 2.5
      vertex -3.23564 -12.6065 2.5
      vertex -3.86859 -11.8186 2.5
    endloop
  endfacet
  facet normal 0 0 -1
    outer loop
      vertex 1.6151 -16.0913 2.5
      vertex 4.06929 -16.0913 2.5
      vertex 4.06929 -16.6399 2.5
    endloop
  endfacet
  facet normal 0 0 -1
    outer loop
      vertex -1.09798 -16.6399 2.5
      vertex -3.23564 -12.6065 2.5
      vertex -0.852539 -15.8519 2.5
    endloop
  endfacet
  facet normal 0 0 -1
    outer loop
      vertex -3.86859 -11.8186 2.5
      vertex -3.23564 -12.6065 2.5
      vertex -3.86859 -16.6399 2.5
    endloop
  endfacet
  facet normal 0 0 -1
    outer loop
      vertex -1.09798 -16.6399 2.5
      vertex -0.852539 -15.8519 2.5
      vertex -0.219635 -16.6399 2.5
    endloop
  endfacet
  facet normal 0 0 -1
    outer loop
      vertex -0.852539 -15.8519 2.5
      vertex -0.219635 -11.8186 2.5
      vertex -0.219635 -16.6399 2.5
    endloop
  endfacet
  facet normal 0 0 -1
    outer loop
      vertex -3.23564 -12.6065 2.5
      vertex -2.99026 -11.8186 2.5
      vertex -0.852539 -15.8519 2.5
    endloop
  endfacet
  facet normal 0 0 -1
    outer loop
      vertex -3.86859 -16.6399 2.5
      vertex -3.23564 -12.6065 2.5
      vertex -3.23564 -16.6399 2.5
    endloop
  endfacet
  facet normal 0 0 -1
    outer loop
      vertex 6.74226 -12.3671 2.5
      vertex 8.45369 -11.8186 2.5
      vertex 8.45369 -12.3671 2.5
    endloop
  endfacet
  facet normal 0 0 -1
    outer loop
      vertex 1.6151 -13.7965 2.5
      vertex 3.91106 -13.7965 2.5
      vertex 3.91106 -14.345 2.5
    endloop
  endfacet
  facet normal 0 0 -1
    outer loop
      vertex 1.6151 -13.7965 2.5
      vertex 0.962814 -11.8186 2.5
      vertex 1.6151 -12.3671 2.5
    endloop
  endfacet
  facet normal 0 0 -1
    outer loop
      vertex 1.6151 -14.345 2.5
      vertex 1.6151 -13.7965 2.5
      vertex 3.91106 -14.345 2.5
    endloop
  endfacet
  facet normal 0 0 -1
    outer loop
      vertex 1.6151 -12.3671 2.5
      vertex 4.01115 -11.8186 2.5
      vertex 4.01115 -12.3671 2.5
    endloop
  endfacet
  facet normal -0 -0 -1
    outer loop
      vertex 6.74226 -12.3671 2.5
      vertex 6.74226 -16.6399 2.5
      vertex 6.08673 -12.3671 2.5
    endloop
  endfacet
  facet normal 0 0 -1
    outer loop
      vertex 6.08673 -12.3671 2.5
      vertex 6.74226 -16.6399 2.5
      vertex 6.08673 -16.6399 2.5
    endloop
  endfacet
  facet normal 0 0 -1
    outer loop
      vertex 1.6151 -12.3671 2.5
      vertex 0.962814 -11.8186 2.5
      vertex 4.01115 -11.8186 2.5
    endloop
  endfacet
  facet normal 0 0 -1
    outer loop
      vertex 0.962814 -16.6399 2.5
      vertex 1.6151 -16.0913 2.5
      vertex 4.06929 -16.6399 2.5
    endloop
  endfacet
  facet normal -0 -0 -1
    outer loop
      vertex 1.6151 -13.7965 2.5
      vertex 1.6151 -14.345 2.5
      vertex 0.962814 -11.8186 2.5
    endloop
  endfacet
  facet normal -0 0 -1
    outer loop
      vertex 1.6151 -14.345 2.5
      vertex 0.962814 -16.6399 2.5
      vertex 0.962814 -11.8186 2.5
    endloop
  endfacet
  facet normal -0 0 -1
    outer loop
      vertex 1.6151 -16.0913 2.5
      vertex 0.962814 -16.6399 2.5
      vertex 1.6151 -14.345 2.5
    endloop
  endfacet
  facet normal 0 0 -1
    outer loop
      vertex 6.08673 -12.3671 2.5
      vertex 4.37526 -11.8186 2.5
      vertex 8.45369 -11.8186 2.5
    endloop
  endfacet
  facet normal 0 0 -1
    outer loop
      vertex 4.37526 -12.3671 2.5
      vertex 4.37526 -11.8186 2.5
      vertex 6.08673 -12.3671 2.5
    endloop
  endfacet
  facet normal 0 0 -1
    outer loop
      vertex 6.08673 -12.3671 2.5
      vertex 8.45369 -11.8186 2.5
      vertex 6.74226 -12.3671 2.5
    endloop
  endfacet
  facet normal 0 -0 -1
    outer loop
      vertex -5.25281 -13.0224 2.5
      vertex -4.62314 -13.0224 2.5
      vertex -6.38304 -16.0585 2.5
    endloop
  endfacet
  facet normal 0 0 -1
    outer loop
      vertex -6.78667 -16.6399 2.5
      vertex -6.38304 -16.0585 2.5
      vertex -5.97939 -16.6399 2.5
    endloop
  endfacet
  facet normal 0 0 -1
    outer loop
      vertex -6.38304 -16.0585 2.5
      vertex -4.62314 -13.0224 2.5
      vertex -5.97939 -16.6399 2.5
    endloop
  endfacet
  facet normal 0 0 -1
    outer loop
      vertex -8.1429 -13.0224 2.5
      vertex -7.51324 -13.0224 2.5
      vertex -6.38304 -16.0585 2.5
    endloop
  endfacet
  facet normal 0 0 -1
    outer loop
      vertex -6.78667 -16.6399 2.5
      vertex -8.1429 -13.0224 2.5
      vertex -6.38304 -16.0585 2.5
    endloop
  endfacet
  facet normal 0 0 1
    outer loop
      vertex -0.852539 -15.8519 3.5
      vertex -0.219635 -11.8186 3.5
      vertex -0.852539 -11.8186 3.5
    endloop
  endfacet
  facet normal -0 0 1
    outer loop
      vertex -3.86859 -11.8186 3.5
      vertex -3.23564 -12.6065 3.5
      vertex -2.99026 -11.8186 3.5
    endloop
  endfacet
  facet normal 0 -0 1
    outer loop
      vertex 4.06929 -16.6399 3.5
      vertex 4.06929 -16.0913 3.5
      vertex 1.6151 -16.0913 3.5
    endloop
  endfacet
  facet normal 0 0 1
    outer loop
      vertex -0.852539 -15.8519 3.5
      vertex -3.23564 -12.6065 3.5
      vertex -1.09798 -16.6399 3.5
    endloop
  endfacet
  facet normal 0 0 1
    outer loop
      vertex -3.86859 -16.6399 3.5
      vertex -3.23564 -12.6065 3.5
      vertex -3.86859 -11.8186 3.5
    endloop
  endfacet
  facet normal 0 0 1
    outer loop
      vertex -0.219635 -16.6399 3.5
      vertex -0.852539 -15.8519 3.5
      vertex -1.09798 -16.6399 3.5
    endloop
  endfacet
  facet normal 0 -0 1
    outer loop
      vertex -0.219635 -16.6399 3.5
      vertex -0.219635 -11.8186 3.5
      vertex -0.852539 -15.8519 3.5
    endloop
  endfacet
  facet normal 0 0 1
    outer loop
      vertex -0.852539 -15.8519 3.5
      vertex -2.99026 -11.8186 3.5
      vertex -3.23564 -12.6065 3.5
    endloop
  endfacet
  facet normal 0 -0 1
    outer loop
      vertex -3.23564 -16.6399 3.5
      vertex -3.23564 -12.6065 3.5
      vertex -3.86859 -16.6399 3.5
    endloop
  endfacet
  facet normal 0 -0 1
    outer loop
      vertex 8.45369 -12.3671 3.5
      vertex 8.45369 -11.8186 3.5
      vertex 6.74226 -12.3671 3.5
    endloop
  endfacet
  facet normal 0 -0 1
    outer loop
      vertex 3.91106 -14.345 3.5
      vertex 3.91106 -13.7965 3.5
      vertex 1.6151 -13.7965 3.5
    endloop
  endfacet
  facet normal 0 0 1
    outer loop
      vertex 1.6151 -12.3671 3.5
      vertex 0.962814 -11.8186 3.5
      vertex 1.6151 -13.7965 3.5
    endloop
  endfacet
  facet normal 0 0 1
    outer loop
      vertex 3.91106 -14.345 3.5
      vertex 1.6151 -13.7965 3.5
      vertex 1.6151 -14.345 3.5
    endloop
  endfacet
  facet normal 0 -0 1
    outer loop
      vertex 4.01115 -12.3671 3.5
      vertex 4.01115 -11.8186 3.5
      vertex 1.6151 -12.3671 3.5
    endloop
  endfacet
  facet normal -0 0 1
    outer loop
      vertex 6.08673 -12.3671 3.5
      vertex 6.74226 -16.6399 3.5
      vertex 6.74226 -12.3671 3.5
    endloop
  endfacet
  facet normal 0 0 1
    outer loop
      vertex 6.08673 -16.6399 3.5
      vertex 6.74226 -16.6399 3.5
      vertex 6.08673 -12.3671 3.5
    endloop
  endfacet
  facet normal 0 0 1
    outer loop
      vertex 4.01115 -11.8186 3.5
      vertex 0.962814 -11.8186 3.5
      vertex 1.6151 -12.3671 3.5
    endloop
  endfacet
  facet normal 0 0 1
    outer loop
      vertex 4.06929 -16.6399 3.5
      vertex 1.6151 -16.0913 3.5
      vertex 0.962814 -16.6399 3.5
    endloop
  endfacet
  facet normal 0 0 1
    outer loop
      vertex 0.962814 -11.8186 3.5
      vertex 1.6151 -14.345 3.5
      vertex 1.6151 -13.7965 3.5
    endloop
  endfacet
  facet normal 0 0 1
    outer loop
      vertex 0.962814 -11.8186 3.5
      vertex 0.962814 -16.6399 3.5
      vertex 1.6151 -14.345 3.5
    endloop
  endfacet
  facet normal 0 0 1
    outer loop
      vertex 1.6151 -14.345 3.5
      vertex 0.962814 -16.6399 3.5
      vertex 1.6151 -16.0913 3.5
    endloop
  endfacet
  facet normal 0 0 1
    outer loop
      vertex 8.45369 -11.8186 3.5
      vertex 4.37526 -11.8186 3.5
      vertex 6.08673 -12.3671 3.5
    endloop
  endfacet
  facet normal 0 0 1
    outer loop
      vertex 6.08673 -12.3671 3.5
      vertex 4.37526 -11.8186 3.5
      vertex 4.37526 -12.3671 3.5
    endloop
  endfacet
  facet normal 0 -0 1
    outer loop
      vertex 6.74226 -12.3671 3.5
      vertex 8.45369 -11.8186 3.5
      vertex 6.08673 -12.3671 3.5
    endloop
  endfacet
  facet normal 0 0 1
    outer loop
      vertex -6.38304 -16.0585 3.5
      vertex -4.62314 -13.0224 3.5
      vertex -5.25281 -13.0224 3.5
    endloop
  endfacet
  facet normal 0 0 1
    outer loop
      vertex -5.97939 -16.6399 3.5
      vertex -6.38304 -16.0585 3.5
      vertex -6.78667 -16.6399 3.5
    endloop
  endfacet
  facet normal 0 -0 1
    outer loop
      vertex -5.97939 -16.6399 3.5
      vertex -4.62314 -13.0224 3.5
      vertex -6.38304 -16.0585 3.5
    endloop
  endfacet
  facet normal 0 0 1
    outer loop
      vertex -6.38304 -16.0585 3.5
      vertex -7.51324 -13.0224 3.5
      vertex -8.1429 -13.0224 3.5
    endloop
  endfacet
  facet normal 0 0 1
    outer loop
      vertex -6.38304 -16.0585 3.5
      vertex -8.1429 -13.0224 3.5
      vertex -6.78667 -16.6399 3.5
    endloop
  endfacet
  facet normal -0.883577 -0.468286 0
    outer loop
      vertex -1.09798 -16.6399 2.5
      vertex -3.23564 -12.6065 3.5
      vertex -3.23564 -12.6065 2.5
    endloop
  endfacet
  facet normal -0.883577 -0.468286 0
    outer loop
      vertex -1.09798 -16.6399 2.5
      vertex -1.09798 -16.6399 3.5
      vertex -3.23564 -12.6065 3.5
    endloop
  endfacet
  facet normal 0 -1 0
    outer loop
      vertex -0.219635 -16.6399 2.5
      vertex -1.09798 -16.6399 3.5
      vertex -1.09798 -16.6399 2.5
    endloop
  endfacet
  facet normal 0 -1 0
    outer loop
      vertex -0.219635 -16.6399 2.5
      vertex -0.219635 -16.6399 3.5
      vertex -1.09798 -16.6399 3.5
    endloop
  endfacet
  facet normal 1 0 0
    outer loop
      vertex -0.219635 -11.8186 2.5
      vertex -0.219635 -16.6399 3.5
      vertex -0.219635 -16.6399 2.5
    endloop
  endfacet
  facet normal 1 0 -0
    outer loop
      vertex -0.219635 -11.8186 2.5
      vertex -0.219635 -11.8186 3.5
      vertex -0.219635 -16.6399 3.5
    endloop
  endfacet
  facet normal 0 1 0
    outer loop
      vertex -0.852539 -11.8186 2.5
      vertex -0.219635 -11.8186 3.5
      vertex -0.219635 -11.8186 2.5
    endloop
  endfacet
  facet normal 0 1 0
    outer loop
      vertex -0.852539 -11.8186 2.5
      vertex -0.852539 -11.8186 3.5
      vertex -0.219635 -11.8186 3.5
    endloop
  endfacet
  facet normal -1 0 0
    outer loop
      vertex -0.852539 -15.8519 2.5
      vertex -0.852539 -11.8186 3.5
      vertex -0.852539 -11.8186 2.5
    endloop
  endfacet
  facet normal -1 0 0
    outer loop
      vertex -0.852539 -15.8519 2.5
      vertex -0.852539 -15.8519 3.5
      vertex -0.852539 -11.8186 3.5
    endloop
  endfacet
  facet normal 0.883566 0.468306 0
    outer loop
      vertex -2.99026 -11.8186 2.5
      vertex -0.852539 -15.8519 3.5
      vertex -0.852539 -15.8519 2.5
    endloop
  endfacet
  facet normal 0.883566 0.468306 -0
    outer loop
      vertex -2.99026 -11.8186 2.5
      vertex -2.99026 -11.8186 3.5
      vertex -0.852539 -15.8519 3.5
    endloop
  endfacet
  facet normal 0 1 0
    outer loop
      vertex -3.86859 -11.8186 2.5
      vertex -2.99026 -11.8186 3.5
      vertex -2.99026 -11.8186 2.5
    endloop
  endfacet
  facet normal 0 1 0
    outer loop
      vertex -3.86859 -11.8186 2.5
      vertex -3.86859 -11.8186 3.5
      vertex -2.99026 -11.8186 3.5
    endloop
  endfacet
  facet normal -1 0 0
    outer loop
      vertex -3.86859 -16.6399 2.5
      vertex -3.86859 -11.8186 3.5
      vertex -3.86859 -11.8186 2.5
    endloop
  endfacet
  facet normal -1 0 0
    outer loop
      vertex -3.86859 -16.6399 2.5
      vertex -3.86859 -16.6399 3.5
      vertex -3.86859 -11.8186 3.5
    endloop
  endfacet
  facet normal 0 -1 0
    outer loop
      vertex -3.23564 -16.6399 2.5
      vertex -3.86859 -16.6399 3.5
      vertex -3.86859 -16.6399 2.5
    endloop
  endfacet
  facet normal 0 -1 0
    outer loop
      vertex -3.23564 -16.6399 2.5
      vertex -3.23564 -16.6399 3.5
      vertex -3.86859 -16.6399 3.5
    endloop
  endfacet
  facet normal 1 0 0
    outer loop
      vertex -3.23564 -12.6065 2.5
      vertex -3.23564 -16.6399 3.5
      vertex -3.23564 -16.6399 2.5
    endloop
  endfacet
  facet normal 1 0 -0
    outer loop
      vertex -3.23564 -12.6065 2.5
      vertex -3.23564 -12.6065 3.5
      vertex -3.23564 -16.6399 3.5
    endloop
  endfacet
  facet normal 0 1 0
    outer loop
      vertex 1.6151 -16.0913 2.5
      vertex 4.06929 -16.0913 3.5
      vertex 4.06929 -16.0913 2.5
    endloop
  endfacet
  facet normal 0 1 0
    outer loop
      vertex 1.6151 -16.0913 2.5
      vertex 1.6151 -16.0913 3.5
      vertex 4.06929 -16.0913 3.5
    endloop
  endfacet
  facet normal 1 0 0
    outer loop
      vertex 1.6151 -14.345 2.5
      vertex 1.6151 -16.0913 3.5
      vertex 1.6151 -16.0913 2.5
    endloop
  endfacet
  facet normal 1 0 -0
    outer loop
      vertex 1.6151 -14.345 2.5
      vertex 1.6151 -14.345 3.5
      vertex 1.6151 -16.0913 3.5
    endloop
  endfacet
  facet normal 0 -1 0
    outer loop
      vertex 3.91106 -14.345 2.5
      vertex 1.6151 -14.345 3.5
      vertex 1.6151 -14.345 2.5
    endloop
  endfacet
  facet normal 0 -1 0
    outer loop
      vertex 3.91106 -14.345 2.5
      vertex 3.91106 -14.345 3.5
      vertex 1.6151 -14.345 3.5
    endloop
  endfacet
  facet normal 1 0 0
    outer loop
      vertex 3.91106 -13.7965 2.5
      vertex 3.91106 -14.345 3.5
      vertex 3.91106 -14.345 2.5
    endloop
  endfacet
  facet normal 1 0 -0
    outer loop
      vertex 3.91106 -13.7965 2.5
      vertex 3.91106 -13.7965 3.5
      vertex 3.91106 -14.345 3.5
    endloop
  endfacet
  facet normal 0 1 0
    outer loop
      vertex 1.6151 -13.7965 2.5
      vertex 3.91106 -13.7965 3.5
      vertex 3.91106 -13.7965 2.5
    endloop
  endfacet
  facet normal 0 1 0
    outer loop
      vertex 1.6151 -13.7965 2.5
      vertex 1.6151 -13.7965 3.5
      vertex 3.91106 -13.7965 3.5
    endloop
  endfacet
  facet normal 1 0 0
    outer loop
      vertex 1.6151 -12.3671 2.5
      vertex 1.6151 -13.7965 3.5
      vertex 1.6151 -13.7965 2.5
    endloop
  endfacet
  facet normal 1 0 -0
    outer loop
      vertex 1.6151 -12.3671 2.5
      vertex 1.6151 -12.3671 3.5
      vertex 1.6151 -13.7965 3.5
    endloop
  endfacet
  facet normal 0 -1 0
    outer loop
      vertex 4.01115 -12.3671 2.5
      vertex 1.6151 -12.3671 3.5
      vertex 1.6151 -12.3671 2.5
    endloop
  endfacet
  facet normal 0 -1 0
    outer loop
      vertex 4.01115 -12.3671 2.5
      vertex 4.01115 -12.3671 3.5
      vertex 1.6151 -12.3671 3.5
    endloop
  endfacet
  facet normal 1 0 0
    outer loop
      vertex 4.01115 -11.8186 2.5
      vertex 4.01115 -12.3671 3.5
      vertex 4.01115 -12.3671 2.5
    endloop
  endfacet
  facet normal 1 0 -0
    outer loop
      vertex 4.01115 -11.8186 2.5
      vertex 4.01115 -11.8186 3.5
      vertex 4.01115 -12.3671 3.5
    endloop
  endfacet
  facet normal 0 1 0
    outer loop
      vertex 0.962814 -11.8186 2.5
      vertex 4.01115 -11.8186 3.5
      vertex 4.01115 -11.8186 2.5
    endloop
  endfacet
  facet normal 0 1 0
    outer loop
      vertex 0.962814 -11.8186 2.5
      vertex 0.962814 -11.8186 3.5
      vertex 4.01115 -11.8186 3.5
    endloop
  endfacet
  facet normal -1 0 0
    outer loop
      vertex 0.962814 -16.6399 2.5
      vertex 0.962814 -11.8186 3.5
      vertex 0.962814 -11.8186 2.5
    endloop
  endfacet
  facet normal -1 0 0
    outer loop
      vertex 0.962814 -16.6399 2.5
      vertex 0.962814 -16.6399 3.5
      vertex 0.962814 -11.8186 3.5
    endloop
  endfacet
  facet normal 0 -1 0
    outer loop
      vertex 4.06929 -16.6399 2.5
      vertex 0.962814 -16.6399 3.5
      vertex 0.962814 -16.6399 2.5
    endloop
  endfacet
  facet normal 0 -1 0
    outer loop
      vertex 4.06929 -16.6399 2.5
      vertex 4.06929 -16.6399 3.5
      vertex 0.962814 -16.6399 3.5
    endloop
  endfacet
  facet normal 1 0 0
    outer loop
      vertex 4.06929 -16.0913 2.5
      vertex 4.06929 -16.6399 3.5
      vertex 4.06929 -16.6399 2.5
    endloop
  endfacet
  facet normal 1 0 -0
    outer loop
      vertex 4.06929 -16.0913 2.5
      vertex 4.06929 -16.0913 3.5
      vertex 4.06929 -16.6399 3.5
    endloop
  endfacet
  facet normal 0 -1 0
    outer loop
      vertex 8.45369 -12.3671 2.5
      vertex 6.74226 -12.3671 3.5
      vertex 6.74226 -12.3671 2.5
    endloop
  endfacet
  facet normal 0 -1 0
    outer loop
      vertex 8.45369 -12.3671 2.5
      vertex 8.45369 -12.3671 3.5
      vertex 6.74226 -12.3671 3.5
    endloop
  endfacet
  facet normal 1 0 0
    outer loop
      vertex 8.45369 -11.8186 2.5
      vertex 8.45369 -12.3671 3.5
      vertex 8.45369 -12.3671 2.5
    endloop
  endfacet
  facet normal 1 0 -0
    outer loop
      vertex 8.45369 -11.8186 2.5
      vertex 8.45369 -11.8186 3.5
      vertex 8.45369 -12.3671 3.5
    endloop
  endfacet
  facet normal 0 1 0
    outer loop
      vertex 4.37526 -11.8186 2.5
      vertex 8.45369 -11.8186 3.5
      vertex 8.45369 -11.8186 2.5
    endloop
  endfacet
  facet normal 0 1 0
    outer loop
      vertex 4.37526 -11.8186 2.5
      vertex 4.37526 -11.8186 3.5
      vertex 8.45369 -11.8186 3.5
    endloop
  endfacet
  facet normal -1 0 0
    outer loop
      vertex 4.37526 -12.3671 2.5
      vertex 4.37526 -11.8186 3.5
      vertex 4.37526 -11.8186 2.5
    endloop
  endfacet
  facet normal -1 0 0
    outer loop
      vertex 4.37526 -12.3671 2.5
      vertex 4.37526 -12.3671 3.5
      vertex 4.37526 -11.8186 3.5
    endloop
  endfacet
  facet normal 0 -1 0
    outer loop
      vertex 6.08673 -12.3671 2.5
      vertex 4.37526 -12.3671 3.5
      vertex 4.37526 -12.3671 2.5
    endloop
  endfacet
  facet normal 0 -1 0
    outer loop
      vertex 6.08673 -12.3671 2.5
      vertex 6.08673 -12.3671 3.5
      vertex 4.37526 -12.3671 3.5
    endloop
  endfacet
  facet normal -1 0 0
    outer loop
      vertex 6.08673 -16.6399 2.5
      vertex 6.08673 -12.3671 3.5
      vertex 6.08673 -12.3671 2.5
    endloop
  endfacet
  facet normal -1 0 0
    outer loop
      vertex 6.08673 -16.6399 2.5
      vertex 6.08673 -16.6399 3.5
      vertex 6.08673 -12.3671 3.5
    endloop
  endfacet
  facet normal 0 -1 0
    outer loop
      vertex 6.74226 -16.6399 2.5
      vertex 6.08673 -16.6399 3.5
      vertex 6.08673 -16.6399 2.5
    endloop
  endfacet
  facet normal 0 -1 0
    outer loop
      vertex 6.74226 -16.6399 2.5
      vertex 6.74226 -16.6399 3.5
      vertex 6.08673 -16.6399 3.5
    endloop
  endfacet
  facet normal 1 0 0
    outer loop
      vertex 6.74226 -12.3671 2.5
      vertex 6.74226 -16.6399 3.5
      vertex 6.74226 -16.6399 2.5
    endloop
  endfacet
  facet normal 1 0 -0
    outer loop
      vertex 6.74226 -12.3671 2.5
      vertex 6.74226 -12.3671 3.5
      vertex 6.74226 -16.6399 3.5
    endloop
  endfacet
  facet normal 0 1 0
    outer loop
      vertex -5.25281 -13.0224 2.5
      vertex -4.62314 -13.0224 3.5
      vertex -4.62314 -13.0224 2.5
    endloop
  endfacet
  facet normal 0 1 0
    outer loop
      vertex -5.25281 -13.0224 2.5
      vertex -5.25281 -13.0224 3.5
      vertex -4.62314 -13.0224 3.5
    endloop
  endfacet
  facet normal -0.93717 0.348874 0
    outer loop
      vertex -6.38304 -16.0585 2.5
      vertex -5.25281 -13.0224 3.5
      vertex -5.25281 -13.0224 2.5
    endloop
  endfacet
  facet normal -0.93717 0.348874 0
    outer loop
      vertex -6.38304 -16.0585 2.5
      vertex -6.38304 -16.0585 3.5
      vertex -5.25281 -13.0224 3.5
    endloop
  endfacet
  facet normal 0.937173 0.348866 0
    outer loop
      vertex -7.51324 -13.0224 2.5
      vertex -6.38304 -16.0585 3.5
      vertex -6.38304 -16.0585 2.5
    endloop
  endfacet
  facet normal 0.937173 0.348866 -0
    outer loop
      vertex -7.51324 -13.0224 2.5
      vertex -7.51324 -13.0224 3.5
      vertex -6.38304 -16.0585 3.5
    endloop
  endfacet
  facet normal 0 1 0
    outer loop
      vertex -8.1429 -13.0224 2.5
      vertex -7.51324 -13.0224 3.5
      vertex -7.51324 -13.0224 2.5
    endloop
  endfacet
  facet normal 0 1 0
    outer loop
      vertex -8.1429 -13.0224 2.5
      vertex -8.1429 -13.0224 3.5
      vertex -7.51324 -13.0224 3.5
    endloop
  endfacet
  facet normal -0.936357 -0.351048 0
    outer loop
      vertex -6.78667 -16.6399 2.5
      vertex -8.1429 -13.0224 3.5
      vertex -8.1429 -13.0224 2.5
    endloop
  endfacet
  facet normal -0.936357 -0.351048 0
    outer loop
      vertex -6.78667 -16.6399 2.5
      vertex -6.78667 -16.6399 3.5
      vertex -8.1429 -13.0224 3.5
    endloop
  endfacet
  facet normal 0 -1 0
    outer loop
      vertex -5.97939 -16.6399 2.5
      vertex -6.78667 -16.6399 3.5
      vertex -6.78667 -16.6399 2.5
    endloop
  endfacet
  facet normal 0 -1 0
    outer loop
      vertex -5.97939 -16.6399 2.5
      vertex -5.97939 -16.6399 3.5
      vertex -6.78667 -16.6399 3.5
    endloop
  endfacet
  facet normal 0.936356 -0.351053 0
    outer loop
      vertex -4.62314 -13.0224 2.5
      vertex -5.97939 -16.6399 3.5
      vertex -5.97939 -16.6399 2.5
    endloop
  endfacet
  facet normal 0.936356 -0.351053 0
    outer loop
      vertex -4.62314 -13.0224 2.5
      vertex -4.62314 -13.0224 3.5
      vertex -5.97939 -16.6399 3.5
    endloop
  endfacet
endsolid OpenSCAD_Model
