solid OpenSCAD_Model
  facet normal -0 0 -1
    outer loop
      vertex 6.44194 7.43651 2.6
      vertex 0 3.57133 2.6
      vertex -6.44194 7.43651 2.6
    endloop
  endfacet
  facet normal 0 0 -1
    outer loop
      vertex 6.44194 14.7374 2.6
      vertex -6.44194 14.7374 2.6
      vertex 0 18.6026 2.6
    endloop
  endfacet
  facet normal 0 0 -1
    outer loop
      vertex 6.44194 7.43651 2.6
      vertex -6.44194 14.7374 2.6
      vertex 6.44194 14.7374 2.6
    endloop
  endfacet
  facet normal 0 0 -1
    outer loop
      vertex 6.44194 7.43651 2.6
      vertex -6.44194 7.43651 2.6
      vertex -6.44194 14.7374 2.6
    endloop
  endfacet
  facet normal -0 0 1
    outer loop
      vertex -6.44194 7.43651 3.8
      vertex 0 3.57133 3.8
      vertex 6.44194 7.43651 3.8
    endloop
  endfacet
  facet normal 0 0 1
    outer loop
      vertex 0 18.6026 3.8
      vertex -6.44194 14.7374 3.8
      vertex 6.44194 14.7374 3.8
    endloop
  endfacet
  facet normal 0 0 1
    outer loop
      vertex 6.44194 14.7374 3.8
      vertex -6.44194 14.7374 3.8
      vertex 6.44194 7.43651 3.8
    endloop
  endfacet
  facet normal 0 0 1
    outer loop
      vertex -6.44194 14.7374 3.8
      vertex -6.44194 7.43651 3.8
      vertex 6.44194 7.43651 3.8
    endloop
  endfacet
  facet normal 0.514497 -0.857492 0
    outer loop
      vertex 6.44194 7.43651 2.6
      vertex 0 3.57133 3.8
      vertex 0 3.57133 2.6
    endloop
  endfacet
  facet normal 0.514497 -0.857492 0
    outer loop
      vertex 6.44194 7.43651 2.6
      vertex 6.44194 7.43651 3.8
      vertex 0 3.57133 3.8
    endloop
  endfacet
  facet normal 1 0 0
    outer loop
      vertex 6.44194 14.7374 2.6
      vertex 6.44194 7.43651 3.8
      vertex 6.44194 7.43651 2.6
    endloop
  endfacet
  facet normal 1 0 -0
    outer loop
      vertex 6.44194 14.7374 2.6
      vertex 6.44194 14.7374 3.8
      vertex 6.44194 7.43651 3.8
    endloop
  endfacet
  facet normal 0.514499 0.857491 0
    outer loop
      vertex 0 18.6026 2.6
      vertex 6.44194 14.7374 3.8
      vertex 6.44194 14.7374 2.6
    endloop
  endfacet
  facet normal 0.514499 0.857491 -0
    outer loop
      vertex 0 18.6026 2.6
      vertex 0 18.6026 3.8
      vertex 6.44194 14.7374 3.8
    endloop
  endfacet
  facet normal -0.514499 0.857491 0
    outer loop
      vertex -6.44194 14.7374 2.6
      vertex 0 18.6026 3.8
      vertex 0 18.6026 2.6
    endloop
  endfacet
  facet normal -0.514499 0.857491 0
    outer loop
      vertex -6.44194 14.7374 2.6
      vertex -6.44194 14.7374 3.8
      vertex 0 18.6026 3.8
    endloop
  endfacet
  facet normal -1 0 0
    outer loop
      vertex -6.44194 7.43651 2.6
      vertex -6.44194 14.7374 3.8
      vertex -6.44194 14.7374 2.6
    endloop
  endfacet
  facet normal -1 0 0
    outer loop
      vertex -6.44194 7.43651 2.6
      vertex -6.44194 7.43651 3.8
      vertex -6.44194 14.7374 3.8
    endloop
  endfacet
  facet normal -0.514497 -0.857492 0
    outer loop
      vertex 0 3.57133 2.6
      vertex -6.44194 7.43651 3.8
      vertex -6.44194 7.43651 2.6
    endloop
  endfacet
  facet normal -0.514497 -0.857492 0
    outer loop
      vertex 0 3.57133 2.6
      vertex 0 3.57133 3.8
      vertex -6.44194 7.43651 3.8
    endloop
  endfacet
endsolid OpenSCAD_Model
