solid OpenSCAD_Model
  facet normal 0 0 -1
    outer loop
      vertex 22.9286 6.76984 2.5
      vertex 23.0542 6.94052 2.5
      vertex 22.9952 6.85338 2.5
    endloop
  endfacet
  facet normal 0 0 -1
    outer loop
      vertex 23.151 7.12446 2.5
      vertex 23.0542 6.94052 2.5
      vertex 22.9286 6.76984 2.5
    endloop
  endfacet
  facet normal -0 0 -1
    outer loop
      vertex 23.1061 7.03091 2.5
      vertex 23.0542 6.94052 2.5
      vertex 23.151 7.12446 2.5
    endloop
  endfacet
  facet normal 0 0 -1
    outer loop
      vertex 22.8545 6.6899 2.5
      vertex 23.151 7.12446 2.5
      vertex 22.9286 6.76984 2.5
    endloop
  endfacet
  facet normal 0 0 -1
    outer loop
      vertex 22.8545 6.6899 2.5
      vertex 23.1891 7.22092 2.5
      vertex 23.151 7.12446 2.5
    endloop
  endfacet
  facet normal 0 0 -1
    outer loop
      vertex 22.8545 6.6899 2.5
      vertex 23.2205 7.3202 2.5
      vertex 23.1891 7.22092 2.5
    endloop
  endfacet
  facet normal 0 0 -1
    outer loop
      vertex 22.8545 6.6899 2.5
      vertex 23.2454 7.42184 2.5
      vertex 23.2205 7.3202 2.5
    endloop
  endfacet
  facet normal 0 0 -1
    outer loop
      vertex 22.8545 6.6899 2.5
      vertex 23.2642 7.52596 2.5
      vertex 23.2454 7.42184 2.5
    endloop
  endfacet
  facet normal 0 0 -1
    outer loop
      vertex 22.8545 6.6899 2.5
      vertex 23.2769 7.63221 2.5
      vertex 23.2642 7.52596 2.5
    endloop
  endfacet
  facet normal 0 0 -1
    outer loop
      vertex 22.8545 6.6899 2.5
      vertex 23.2838 7.74037 2.5
      vertex 23.2769 7.63221 2.5
    endloop
  endfacet
  facet normal 0 0 -1
    outer loop
      vertex 22.8545 6.6899 2.5
      vertex 23.285 7.85033 2.5
      vertex 23.2838 7.74037 2.5
    endloop
  endfacet
  facet normal 0 0 -1
    outer loop
      vertex 22.8545 6.6899 2.5
      vertex 23.2808 7.96175 2.5
      vertex 23.285 7.85033 2.5
    endloop
  endfacet
  facet normal 0 0 -1
    outer loop
      vertex 22.8545 6.6899 2.5
      vertex 23.2712 8.07463 2.5
      vertex 23.2808 7.96175 2.5
    endloop
  endfacet
  facet normal 0 0 -1
    outer loop
      vertex 22.8545 6.6899 2.5
      vertex 23.2566 8.18864 2.5
      vertex 23.2712 8.07463 2.5
    endloop
  endfacet
  facet normal 0 0 -1
    outer loop
      vertex 22.8545 6.6899 2.5
      vertex 23.2371 8.30366 2.5
      vertex 23.2566 8.18864 2.5
    endloop
  endfacet
  facet normal 0 0 -1
    outer loop
      vertex 22.8545 6.6899 2.5
      vertex 23.2131 8.41935 2.5
      vertex 23.2371 8.30366 2.5
    endloop
  endfacet
  facet normal 0 0 -1
    outer loop
      vertex 22.8545 6.6899 2.5
      vertex 23.1844 8.53572 2.5
      vertex 23.2131 8.41935 2.5
    endloop
  endfacet
  facet normal 0 0 -1
    outer loop
      vertex 22.8545 6.6899 2.5
      vertex 23.1515 8.65254 2.5
      vertex 23.1844 8.53572 2.5
    endloop
  endfacet
  facet normal 0 0 -1
    outer loop
      vertex 22.8545 6.6899 2.5
      vertex 23.1145 8.76947 2.5
      vertex 23.1515 8.65254 2.5
    endloop
  endfacet
  facet normal -0 0 -1
    outer loop
      vertex 22.8545 6.6899 2.5
      vertex 21.2948 5.13023 2.5
      vertex 23.1145 8.76947 2.5
    endloop
  endfacet
  facet normal 0 -0 -1
    outer loop
      vertex 9.30047 18.3464 2.5
      vertex 9.33758 18.3872 2.5
      vertex 9.26742 18.302 2.5
    endloop
  endfacet
  facet normal 0 0 -1
    outer loop
      vertex 11.937 19.9469 2.5
      vertex 11.8517 20.0171 2.5
      vertex 11.8961 19.984 2.5
    endloop
  endfacet
  facet normal 0 0 -1
    outer loop
      vertex 11.937 19.9469 2.5
      vertex 11.8042 20.0463 2.5
      vertex 11.8517 20.0171 2.5
    endloop
  endfacet
  facet normal 0 0 -1
    outer loop
      vertex 11.937 19.9469 2.5
      vertex 11.754 20.0717 2.5
      vertex 11.8042 20.0463 2.5
    endloop
  endfacet
  facet normal 0 0 -1
    outer loop
      vertex 11.937 19.9469 2.5
      vertex 11.7014 20.0932 2.5
      vertex 11.754 20.0717 2.5
    endloop
  endfacet
  facet normal 0 0 -1
    outer loop
      vertex 11.937 19.9469 2.5
      vertex 11.6468 20.1107 2.5
      vertex 11.7014 20.0932 2.5
    endloop
  endfacet
  facet normal 0 0 -1
    outer loop
      vertex 11.937 19.9469 2.5
      vertex 11.5908 20.1243 2.5
      vertex 11.6468 20.1107 2.5
    endloop
  endfacet
  facet normal 0 0 -1
    outer loop
      vertex 11.937 19.9469 2.5
      vertex 11.5335 20.1341 2.5
      vertex 11.5908 20.1243 2.5
    endloop
  endfacet
  facet normal 0 0 -1
    outer loop
      vertex 11.937 19.9469 2.5
      vertex 11.4755 20.1399 2.5
      vertex 11.5335 20.1341 2.5
    endloop
  endfacet
  facet normal 0 0 -1
    outer loop
      vertex 11.937 19.9469 2.5
      vertex 11.4171 20.1419 2.5
      vertex 11.4755 20.1399 2.5
    endloop
  endfacet
  facet normal 0 -0 -1
    outer loop
      vertex 11.3007 20.1341 2.5
      vertex 11.3587 20.1399 2.5
      vertex 10.8972 19.9469 2.5
    endloop
  endfacet
  facet normal 0 0 -1
    outer loop
      vertex 10.8972 19.9469 2.5
      vertex 11.1328 20.0932 2.5
      vertex 11.1873 20.1107 2.5
    endloop
  endfacet
  facet normal 0 -0 -1
    outer loop
      vertex 11.03 20.0463 2.5
      vertex 11.0802 20.0717 2.5
      vertex 10.8972 19.9469 2.5
    endloop
  endfacet
  facet normal 0 0 -1
    outer loop
      vertex 10.9825 20.0171 2.5
      vertex 10.8972 19.9469 2.5
      vertex 10.9381 19.984 2.5
    endloop
  endfacet
  facet normal 0 -0 -1
    outer loop
      vertex 10.9825 20.0171 2.5
      vertex 11.03 20.0463 2.5
      vertex 10.8972 19.9469 2.5
    endloop
  endfacet
  facet normal 0 0 -1
    outer loop
      vertex 10.8972 19.9469 2.5
      vertex 11.0802 20.0717 2.5
      vertex 11.1328 20.0932 2.5
    endloop
  endfacet
  facet normal 0 0 -1
    outer loop
      vertex 11.2434 20.1243 2.5
      vertex 10.8972 19.9469 2.5
      vertex 11.1873 20.1107 2.5
    endloop
  endfacet
  facet normal 0 -0 -1
    outer loop
      vertex 11.2434 20.1243 2.5
      vertex 11.3007 20.1341 2.5
      vertex 10.8972 19.9469 2.5
    endloop
  endfacet
  facet normal 0 0 -1
    outer loop
      vertex 10.8972 19.9469 2.5
      vertex 11.3587 20.1399 2.5
      vertex 11.4171 20.1419 2.5
    endloop
  endfacet
  facet normal 0 0 -1
    outer loop
      vertex 11.937 19.9469 2.5
      vertex 10.8972 19.9469 2.5
      vertex 11.4171 20.1419 2.5
    endloop
  endfacet
  facet normal -0 0 -1
    outer loop
      vertex 11.937 19.9469 2.5
      vertex 9.33758 18.3872 2.5
      vertex 10.8972 19.9469 2.5
    endloop
  endfacet
  facet normal 0 -0 -1
    outer loop
      vertex 9.26742 18.302 2.5
      vertex 9.33758 18.3872 2.5
      vertex 9.23818 18.2544 2.5
    endloop
  endfacet
  facet normal 0 -0 -1
    outer loop
      vertex 9.23818 18.2544 2.5
      vertex 9.33758 18.3872 2.5
      vertex 9.21278 18.2043 2.5
    endloop
  endfacet
  facet normal 0 -0 -1
    outer loop
      vertex 9.21278 18.2043 2.5
      vertex 9.33758 18.3872 2.5
      vertex 9.1913 18.1517 2.5
    endloop
  endfacet
  facet normal 0 -0 -1
    outer loop
      vertex 9.1913 18.1517 2.5
      vertex 9.33758 18.3872 2.5
      vertex 9.17376 18.0971 2.5
    endloop
  endfacet
  facet normal 0 -0 -1
    outer loop
      vertex 9.17376 18.0971 2.5
      vertex 9.33758 18.3872 2.5
      vertex 9.16016 18.041 2.5
    endloop
  endfacet
  facet normal 0 -0 -1
    outer loop
      vertex 9.16016 18.041 2.5
      vertex 9.33758 18.3872 2.5
      vertex 9.15037 17.9838 2.5
    endloop
  endfacet
  facet normal 0 -0 -1
    outer loop
      vertex 9.15037 17.9838 2.5
      vertex 9.33758 18.3872 2.5
      vertex 9.14453 17.9258 2.5
    endloop
  endfacet
  facet normal 0 -0 -1
    outer loop
      vertex 9.14453 17.9258 2.5
      vertex 9.33758 18.3872 2.5
      vertex 9.14262 17.8673 2.5
    endloop
  endfacet
  facet normal 0 0 -1
    outer loop
      vertex 9.33758 17.3474 2.5
      vertex 9.15037 17.751 2.5
      vertex 9.14453 17.809 2.5
    endloop
  endfacet
  facet normal 0 0 -1
    outer loop
      vertex 9.17376 17.6376 2.5
      vertex 9.33758 17.3474 2.5
      vertex 9.1913 17.5831 2.5
    endloop
  endfacet
  facet normal 0 0 -1
    outer loop
      vertex 9.33758 17.3474 2.5
      vertex 9.23818 17.4802 2.5
      vertex 9.21278 17.5305 2.5
    endloop
  endfacet
  facet normal 0 0 -1
    outer loop
      vertex 9.30047 17.3884 2.5
      vertex 9.26742 17.4328 2.5
      vertex 9.33758 17.3474 2.5
    endloop
  endfacet
  facet normal 0 0 -1
    outer loop
      vertex 9.33758 17.3474 2.5
      vertex 9.26742 17.4328 2.5
      vertex 9.23818 17.4802 2.5
    endloop
  endfacet
  facet normal 0 0 -1
    outer loop
      vertex 9.1913 17.5831 2.5
      vertex 9.33758 17.3474 2.5
      vertex 9.21278 17.5305 2.5
    endloop
  endfacet
  facet normal 0 0 -1
    outer loop
      vertex 9.17376 17.6376 2.5
      vertex 9.16016 17.6936 2.5
      vertex 9.33758 17.3474 2.5
    endloop
  endfacet
  facet normal 0 0 -1
    outer loop
      vertex 9.33758 17.3474 2.5
      vertex 9.16016 17.6936 2.5
      vertex 9.15037 17.751 2.5
    endloop
  endfacet
  facet normal 0 0 -1
    outer loop
      vertex 9.14262 17.8673 2.5
      vertex 9.33758 17.3474 2.5
      vertex 9.14453 17.809 2.5
    endloop
  endfacet
  facet normal 0 0 -1
    outer loop
      vertex 9.14262 17.8673 2.5
      vertex 9.33758 18.3872 2.5
      vertex 9.33758 17.3474 2.5
    endloop
  endfacet
  facet normal 0 0 -1
    outer loop
      vertex 9.33758 17.3474 2.5
      vertex 9.33758 18.3872 2.5
      vertex 11.937 19.9469 2.5
    endloop
  endfacet
  facet normal 0 0 -1
    outer loop
      vertex 23.1145 8.76947 2.5
      vertex 9.33758 17.3474 2.5
      vertex 11.937 19.9469 2.5
    endloop
  endfacet
  facet normal -0 0 -1
    outer loop
      vertex 23.1145 8.76947 2.5
      vertex 21.2948 5.13023 2.5
      vertex 9.33758 17.3474 2.5
    endloop
  endfacet
  facet normal 0 0 -1
    outer loop
      vertex -9.11822 17.0875 2.5
      vertex -9.04795 17.1728 2.5
      vertex -9.08112 17.1284 2.5
    endloop
  endfacet
  facet normal 0 0 -1
    outer loop
      vertex -9.11822 17.0875 2.5
      vertex -9.01871 17.2203 2.5
      vertex -9.04795 17.1728 2.5
    endloop
  endfacet
  facet normal 0 0 -1
    outer loop
      vertex -9.11822 17.0875 2.5
      vertex -8.99342 17.2705 2.5
      vertex -9.01871 17.2203 2.5
    endloop
  endfacet
  facet normal 0 0 -1
    outer loop
      vertex -9.11822 17.0875 2.5
      vertex -8.97194 17.3232 2.5
      vertex -8.99342 17.2705 2.5
    endloop
  endfacet
  facet normal 0 0 -1
    outer loop
      vertex -9.11822 17.0875 2.5
      vertex -8.9544 17.3777 2.5
      vertex -8.97194 17.3232 2.5
    endloop
  endfacet
  facet normal 0 0 -1
    outer loop
      vertex -9.11822 17.0875 2.5
      vertex -8.9408 17.4337 2.5
      vertex -8.9544 17.3777 2.5
    endloop
  endfacet
  facet normal 0 0 -1
    outer loop
      vertex -9.11822 17.0875 2.5
      vertex -8.93102 17.491 2.5
      vertex -8.9408 17.4337 2.5
    endloop
  endfacet
  facet normal 0 0 -1
    outer loop
      vertex -9.11822 17.0875 2.5
      vertex -8.92517 17.549 2.5
      vertex -8.93102 17.491 2.5
    endloop
  endfacet
  facet normal 0 0 -1
    outer loop
      vertex -9.11822 17.0875 2.5
      vertex -8.92326 17.6074 2.5
      vertex -8.92517 17.549 2.5
    endloop
  endfacet
  facet normal -0 -0 -1
    outer loop
      vertex -8.93102 17.7239 2.5
      vertex -8.92517 17.6659 2.5
      vertex -9.11822 18.1273 2.5
    endloop
  endfacet
  facet normal 0 0 -1
    outer loop
      vertex -8.9408 17.7811 2.5
      vertex -9.11822 18.1273 2.5
      vertex -8.9544 17.8372 2.5
    endloop
  endfacet
  facet normal -0 -0 -1
    outer loop
      vertex -9.01871 17.9946 2.5
      vertex -8.99342 17.9444 2.5
      vertex -9.11822 18.1273 2.5
    endloop
  endfacet
  facet normal 0 0 -1
    outer loop
      vertex -9.04795 18.0421 2.5
      vertex -9.11822 18.1273 2.5
      vertex -9.08112 18.0865 2.5
    endloop
  endfacet
  facet normal -0 -0 -1
    outer loop
      vertex -9.04795 18.0421 2.5
      vertex -9.01871 17.9946 2.5
      vertex -9.11822 18.1273 2.5
    endloop
  endfacet
  facet normal 0 0 -1
    outer loop
      vertex -9.11822 18.1273 2.5
      vertex -8.99342 17.9444 2.5
      vertex -8.97194 17.8917 2.5
    endloop
  endfacet
  facet normal 0 0 -1
    outer loop
      vertex -8.9544 17.8372 2.5
      vertex -9.11822 18.1273 2.5
      vertex -8.97194 17.8917 2.5
    endloop
  endfacet
  facet normal -0 -0 -1
    outer loop
      vertex -8.9408 17.7811 2.5
      vertex -8.93102 17.7239 2.5
      vertex -9.11822 18.1273 2.5
    endloop
  endfacet
  facet normal 0 0 -1
    outer loop
      vertex -9.11822 18.1273 2.5
      vertex -8.92517 17.6659 2.5
      vertex -8.92326 17.6074 2.5
    endloop
  endfacet
  facet normal 0 0 -1
    outer loop
      vertex -9.11822 17.0875 2.5
      vertex -9.11822 18.1273 2.5
      vertex -8.92326 17.6074 2.5
    endloop
  endfacet
  facet normal 0 0 -1
    outer loop
      vertex -11.7176 19.687 2.5
      vertex -10.6778 19.687 2.5
      vertex -9.11822 18.1273 2.5
    endloop
  endfacet
  facet normal 0 0 -1
    outer loop
      vertex -10.7631 19.7571 2.5
      vertex -10.7187 19.7241 2.5
      vertex -10.6778 19.687 2.5
    endloop
  endfacet
  facet normal 0 0 -1
    outer loop
      vertex -10.8106 19.7863 2.5
      vertex -10.7631 19.7571 2.5
      vertex -10.6778 19.687 2.5
    endloop
  endfacet
  facet normal 0 0 -1
    outer loop
      vertex -10.8608 19.8118 2.5
      vertex -10.8106 19.7863 2.5
      vertex -10.6778 19.687 2.5
    endloop
  endfacet
  facet normal 0 0 -1
    outer loop
      vertex -10.9134 19.8332 2.5
      vertex -10.8608 19.8118 2.5
      vertex -10.6778 19.687 2.5
    endloop
  endfacet
  facet normal 0 0 -1
    outer loop
      vertex -10.968 19.8508 2.5
      vertex -10.9134 19.8332 2.5
      vertex -10.6778 19.687 2.5
    endloop
  endfacet
  facet normal 0 0 -1
    outer loop
      vertex -11.024 19.8644 2.5
      vertex -10.968 19.8508 2.5
      vertex -10.6778 19.687 2.5
    endloop
  endfacet
  facet normal 0 0 -1
    outer loop
      vertex -11.0813 19.8742 2.5
      vertex -11.024 19.8644 2.5
      vertex -10.6778 19.687 2.5
    endloop
  endfacet
  facet normal 0 0 -1
    outer loop
      vertex -11.1393 19.88 2.5
      vertex -11.0813 19.8742 2.5
      vertex -10.6778 19.687 2.5
    endloop
  endfacet
  facet normal 0 0 -1
    outer loop
      vertex -11.1977 19.8819 2.5
      vertex -11.1393 19.88 2.5
      vertex -10.6778 19.687 2.5
    endloop
  endfacet
  facet normal 0 0 -1
    outer loop
      vertex -11.2561 19.88 2.5
      vertex -11.7176 19.687 2.5
      vertex -11.3142 19.8742 2.5
    endloop
  endfacet
  facet normal 0 -0 -1
    outer loop
      vertex -11.482 19.8332 2.5
      vertex -11.4275 19.8508 2.5
      vertex -11.7176 19.687 2.5
    endloop
  endfacet
  facet normal 0 0 -1
    outer loop
      vertex -11.5346 19.8118 2.5
      vertex -11.7176 19.687 2.5
      vertex -11.5848 19.7863 2.5
    endloop
  endfacet
  facet normal 0 0 -1
    outer loop
      vertex -11.7176 19.687 2.5
      vertex -11.6767 19.7241 2.5
      vertex -11.6323 19.7571 2.5
    endloop
  endfacet
  facet normal 0 0 -1
    outer loop
      vertex -11.5848 19.7863 2.5
      vertex -11.7176 19.687 2.5
      vertex -11.6323 19.7571 2.5
    endloop
  endfacet
  facet normal 0 -0 -1
    outer loop
      vertex -11.5346 19.8118 2.5
      vertex -11.482 19.8332 2.5
      vertex -11.7176 19.687 2.5
    endloop
  endfacet
  facet normal 0 0 -1
    outer loop
      vertex -11.7176 19.687 2.5
      vertex -11.4275 19.8508 2.5
      vertex -11.3714 19.8644 2.5
    endloop
  endfacet
  facet normal 0 0 -1
    outer loop
      vertex -11.3142 19.8742 2.5
      vertex -11.7176 19.687 2.5
      vertex -11.3714 19.8644 2.5
    endloop
  endfacet
  facet normal 0 -0 -1
    outer loop
      vertex -11.2561 19.88 2.5
      vertex -11.1977 19.8819 2.5
      vertex -11.7176 19.687 2.5
    endloop
  endfacet
  facet normal 0 0 -1
    outer loop
      vertex -11.7176 19.687 2.5
      vertex -11.1977 19.8819 2.5
      vertex -10.6778 19.687 2.5
    endloop
  endfacet
  facet normal 0 0 -1
    outer loop
      vertex -9.11822 17.0875 2.5
      vertex -11.7176 19.687 2.5
      vertex -9.11822 18.1273 2.5
    endloop
  endfacet
  facet normal -0 0 -1
    outer loop
      vertex -9.11822 17.0875 2.5
      vertex -22.8951 8.50952 2.5
      vertex -11.7176 19.687 2.5
    endloop
  endfacet
  facet normal 0 0 -1
    outer loop
      vertex -9.11822 17.0875 2.5
      vertex -21.3354 5.13023 2.5
      vertex -22.8951 8.50952 2.5
    endloop
  endfacet
  facet normal 0 0 -1
    outer loop
      vertex -23.2811 7.50223 2.5
      vertex -23.2694 7.79411 2.5
      vertex -23.2694 7.4052 2.5
    endloop
  endfacet
  facet normal 0 0 -1
    outer loop
      vertex -23.285 7.59971 2.5
      vertex -23.2811 7.69708 2.5
      vertex -23.2811 7.50223 2.5
    endloop
  endfacet
  facet normal 0 0 -1
    outer loop
      vertex -23.2811 7.50223 2.5
      vertex -23.2811 7.69708 2.5
      vertex -23.2694 7.79411 2.5
    endloop
  endfacet
  facet normal 0 0 -1
    outer loop
      vertex -23.2694 7.4052 2.5
      vertex -23.2226 7.21395 2.5
      vertex -23.2499 7.30896 2.5
    endloop
  endfacet
  facet normal 0 0 -1
    outer loop
      vertex -23.2694 7.4052 2.5
      vertex -23.2694 7.79411 2.5
      vertex -23.2226 7.21395 2.5
    endloop
  endfacet
  facet normal 0 0 -1
    outer loop
      vertex -23.2226 7.21395 2.5
      vertex -23.2694 7.79411 2.5
      vertex -23.2499 7.89035 2.5
    endloop
  endfacet
  facet normal 0 -0 -1
    outer loop
      vertex -23.2226 7.98547 2.5
      vertex -23.2226 7.21395 2.5
      vertex -23.2499 7.89035 2.5
    endloop
  endfacet
  facet normal 0 0 -1
    outer loop
      vertex -23.2226 7.98547 2.5
      vertex -23.1875 8.0789 2.5
      vertex -23.2226 7.21395 2.5
    endloop
  endfacet
  facet normal 0 0 -1
    outer loop
      vertex -23.2226 7.21395 2.5
      vertex -23.1875 8.0789 2.5
      vertex -23.1875 7.12041 2.5
    endloop
  endfacet
  facet normal 0 0 -1
    outer loop
      vertex -23.1875 7.12041 2.5
      vertex -23.1875 8.0789 2.5
      vertex -23.1446 7.02889 2.5
    endloop
  endfacet
  facet normal 0 0 -1
    outer loop
      vertex -23.1446 7.02889 2.5
      vertex -23.1875 8.0789 2.5
      vertex -23.1446 8.17054 2.5
    endloop
  endfacet
  facet normal 0 0 -1
    outer loop
      vertex -23.0939 8.2597 2.5
      vertex -23.1446 7.02889 2.5
      vertex -23.1446 8.17054 2.5
    endloop
  endfacet
  facet normal 0 -0 -1
    outer loop
      vertex -23.0939 8.2597 2.5
      vertex -23.0939 6.93962 2.5
      vertex -23.1446 7.02889 2.5
    endloop
  endfacet
  facet normal 0 0 -1
    outer loop
      vertex -23.0939 8.2597 2.5
      vertex -23.0354 6.85316 2.5
      vertex -23.0939 6.93962 2.5
    endloop
  endfacet
  facet normal 0 0 -1
    outer loop
      vertex -23.0939 8.2597 2.5
      vertex -23.0354 8.34627 2.5
      vertex -23.0354 6.85316 2.5
    endloop
  endfacet
  facet normal 0 0 -1
    outer loop
      vertex -23.0354 6.85316 2.5
      vertex -23.0354 8.34627 2.5
      vertex -22.9692 8.42958 2.5
    endloop
  endfacet
  facet normal 0 0 -1
    outer loop
      vertex -22.9692 6.76973 2.5
      vertex -23.0354 6.85316 2.5
      vertex -22.9692 8.42958 2.5
    endloop
  endfacet
  facet normal 0 0 -1
    outer loop
      vertex -22.8951 6.6899 2.5
      vertex -22.9692 6.76973 2.5
      vertex -22.9692 8.42958 2.5
    endloop
  endfacet
  facet normal 0 -0 -1
    outer loop
      vertex -22.8951 8.50952 2.5
      vertex -22.8951 6.6899 2.5
      vertex -22.9692 8.42958 2.5
    endloop
  endfacet
  facet normal 0 0 -1
    outer loop
      vertex -22.8951 8.50952 2.5
      vertex -21.3354 5.13023 2.5
      vertex -22.8951 6.6899 2.5
    endloop
  endfacet
  facet normal 0 -0 1
    outer loop
      vertex 22.9952 6.85338 3.5
      vertex 23.0542 6.94052 3.5
      vertex 22.9286 6.76984 3.5
    endloop
  endfacet
  facet normal 0 0 1
    outer loop
      vertex 22.9286 6.76984 3.5
      vertex 23.0542 6.94052 3.5
      vertex 23.151 7.12446 3.5
    endloop
  endfacet
  facet normal 0 0 1
    outer loop
      vertex 23.151 7.12446 3.5
      vertex 23.0542 6.94052 3.5
      vertex 23.1061 7.03091 3.5
    endloop
  endfacet
  facet normal 0 -0 1
    outer loop
      vertex 22.9286 6.76984 3.5
      vertex 23.151 7.12446 3.5
      vertex 22.8545 6.6899 3.5
    endloop
  endfacet
  facet normal 0 -0 1
    outer loop
      vertex 23.151 7.12446 3.5
      vertex 23.1891 7.22092 3.5
      vertex 22.8545 6.6899 3.5
    endloop
  endfacet
  facet normal 0 -0 1
    outer loop
      vertex 23.1891 7.22092 3.5
      vertex 23.2205 7.3202 3.5
      vertex 22.8545 6.6899 3.5
    endloop
  endfacet
  facet normal 0 -0 1
    outer loop
      vertex 23.2205 7.3202 3.5
      vertex 23.2454 7.42184 3.5
      vertex 22.8545 6.6899 3.5
    endloop
  endfacet
  facet normal 0 -0 1
    outer loop
      vertex 23.2454 7.42184 3.5
      vertex 23.2642 7.52596 3.5
      vertex 22.8545 6.6899 3.5
    endloop
  endfacet
  facet normal 0 -0 1
    outer loop
      vertex 23.2642 7.52596 3.5
      vertex 23.2769 7.63221 3.5
      vertex 22.8545 6.6899 3.5
    endloop
  endfacet
  facet normal 0 -0 1
    outer loop
      vertex 23.2769 7.63221 3.5
      vertex 23.2838 7.74037 3.5
      vertex 22.8545 6.6899 3.5
    endloop
  endfacet
  facet normal 0 -0 1
    outer loop
      vertex 23.2838 7.74037 3.5
      vertex 23.285 7.85033 3.5
      vertex 22.8545 6.6899 3.5
    endloop
  endfacet
  facet normal 0 0 1
    outer loop
      vertex 23.285 7.85033 3.5
      vertex 23.2808 7.96175 3.5
      vertex 22.8545 6.6899 3.5
    endloop
  endfacet
  facet normal 0 0 1
    outer loop
      vertex 23.2808 7.96175 3.5
      vertex 23.2712 8.07463 3.5
      vertex 22.8545 6.6899 3.5
    endloop
  endfacet
  facet normal 0 0 1
    outer loop
      vertex 23.2712 8.07463 3.5
      vertex 23.2566 8.18864 3.5
      vertex 22.8545 6.6899 3.5
    endloop
  endfacet
  facet normal 0 0 1
    outer loop
      vertex 23.2566 8.18864 3.5
      vertex 23.2371 8.30366 3.5
      vertex 22.8545 6.6899 3.5
    endloop
  endfacet
  facet normal 0 0 1
    outer loop
      vertex 23.2371 8.30366 3.5
      vertex 23.2131 8.41935 3.5
      vertex 22.8545 6.6899 3.5
    endloop
  endfacet
  facet normal 0 0 1
    outer loop
      vertex 23.2131 8.41935 3.5
      vertex 23.1844 8.53572 3.5
      vertex 22.8545 6.6899 3.5
    endloop
  endfacet
  facet normal 0 0 1
    outer loop
      vertex 23.1844 8.53572 3.5
      vertex 23.1515 8.65254 3.5
      vertex 22.8545 6.6899 3.5
    endloop
  endfacet
  facet normal 0 0 1
    outer loop
      vertex 23.1515 8.65254 3.5
      vertex 23.1145 8.76947 3.5
      vertex 22.8545 6.6899 3.5
    endloop
  endfacet
  facet normal 0 0 1
    outer loop
      vertex 23.1145 8.76947 3.5
      vertex 21.2948 5.13023 3.5
      vertex 22.8545 6.6899 3.5
    endloop
  endfacet
  facet normal 0 0 1
    outer loop
      vertex 9.26742 18.302 3.5
      vertex 9.33758 18.3872 3.5
      vertex 9.30047 18.3464 3.5
    endloop
  endfacet
  facet normal 0 0 1
    outer loop
      vertex 11.8961 19.984 3.5
      vertex 11.8517 20.0171 3.5
      vertex 11.937 19.9469 3.5
    endloop
  endfacet
  facet normal 0 0 1
    outer loop
      vertex 11.8517 20.0171 3.5
      vertex 11.8042 20.0463 3.5
      vertex 11.937 19.9469 3.5
    endloop
  endfacet
  facet normal 0 0 1
    outer loop
      vertex 11.8042 20.0463 3.5
      vertex 11.754 20.0717 3.5
      vertex 11.937 19.9469 3.5
    endloop
  endfacet
  facet normal 0 0 1
    outer loop
      vertex 11.754 20.0717 3.5
      vertex 11.7014 20.0932 3.5
      vertex 11.937 19.9469 3.5
    endloop
  endfacet
  facet normal 0 0 1
    outer loop
      vertex 11.7014 20.0932 3.5
      vertex 11.6468 20.1107 3.5
      vertex 11.937 19.9469 3.5
    endloop
  endfacet
  facet normal 0 0 1
    outer loop
      vertex 11.6468 20.1107 3.5
      vertex 11.5908 20.1243 3.5
      vertex 11.937 19.9469 3.5
    endloop
  endfacet
  facet normal 0 0 1
    outer loop
      vertex 11.5908 20.1243 3.5
      vertex 11.5335 20.1341 3.5
      vertex 11.937 19.9469 3.5
    endloop
  endfacet
  facet normal 0 0 1
    outer loop
      vertex 11.5335 20.1341 3.5
      vertex 11.4755 20.1399 3.5
      vertex 11.937 19.9469 3.5
    endloop
  endfacet
  facet normal 0 0 1
    outer loop
      vertex 11.4755 20.1399 3.5
      vertex 11.4171 20.1419 3.5
      vertex 11.937 19.9469 3.5
    endloop
  endfacet
  facet normal 0 0 1
    outer loop
      vertex 10.8972 19.9469 3.5
      vertex 11.3587 20.1399 3.5
      vertex 11.3007 20.1341 3.5
    endloop
  endfacet
  facet normal 0 0 1
    outer loop
      vertex 11.1873 20.1107 3.5
      vertex 11.1328 20.0932 3.5
      vertex 10.8972 19.9469 3.5
    endloop
  endfacet
  facet normal 0 0 1
    outer loop
      vertex 10.8972 19.9469 3.5
      vertex 11.0802 20.0717 3.5
      vertex 11.03 20.0463 3.5
    endloop
  endfacet
  facet normal -0 0 1
    outer loop
      vertex 10.9381 19.984 3.5
      vertex 10.8972 19.9469 3.5
      vertex 10.9825 20.0171 3.5
    endloop
  endfacet
  facet normal 0 0 1
    outer loop
      vertex 10.8972 19.9469 3.5
      vertex 11.03 20.0463 3.5
      vertex 10.9825 20.0171 3.5
    endloop
  endfacet
  facet normal 0 0 1
    outer loop
      vertex 11.1328 20.0932 3.5
      vertex 11.0802 20.0717 3.5
      vertex 10.8972 19.9469 3.5
    endloop
  endfacet
  facet normal -0 0 1
    outer loop
      vertex 11.1873 20.1107 3.5
      vertex 10.8972 19.9469 3.5
      vertex 11.2434 20.1243 3.5
    endloop
  endfacet
  facet normal 0 0 1
    outer loop
      vertex 10.8972 19.9469 3.5
      vertex 11.3007 20.1341 3.5
      vertex 11.2434 20.1243 3.5
    endloop
  endfacet
  facet normal 0 0 1
    outer loop
      vertex 11.4171 20.1419 3.5
      vertex 11.3587 20.1399 3.5
      vertex 10.8972 19.9469 3.5
    endloop
  endfacet
  facet normal 0 0 1
    outer loop
      vertex 11.4171 20.1419 3.5
      vertex 10.8972 19.9469 3.5
      vertex 11.937 19.9469 3.5
    endloop
  endfacet
  facet normal -0 0 1
    outer loop
      vertex 10.8972 19.9469 3.5
      vertex 9.33758 18.3872 3.5
      vertex 11.937 19.9469 3.5
    endloop
  endfacet
  facet normal 0 0 1
    outer loop
      vertex 9.23818 18.2544 3.5
      vertex 9.33758 18.3872 3.5
      vertex 9.26742 18.302 3.5
    endloop
  endfacet
  facet normal 0 0 1
    outer loop
      vertex 9.21278 18.2043 3.5
      vertex 9.33758 18.3872 3.5
      vertex 9.23818 18.2544 3.5
    endloop
  endfacet
  facet normal 0 0 1
    outer loop
      vertex 9.1913 18.1517 3.5
      vertex 9.33758 18.3872 3.5
      vertex 9.21278 18.2043 3.5
    endloop
  endfacet
  facet normal 0 0 1
    outer loop
      vertex 9.17376 18.0971 3.5
      vertex 9.33758 18.3872 3.5
      vertex 9.1913 18.1517 3.5
    endloop
  endfacet
  facet normal 0 0 1
    outer loop
      vertex 9.16016 18.041 3.5
      vertex 9.33758 18.3872 3.5
      vertex 9.17376 18.0971 3.5
    endloop
  endfacet
  facet normal 0 0 1
    outer loop
      vertex 9.15037 17.9838 3.5
      vertex 9.33758 18.3872 3.5
      vertex 9.16016 18.041 3.5
    endloop
  endfacet
  facet normal 0 0 1
    outer loop
      vertex 9.14453 17.9258 3.5
      vertex 9.33758 18.3872 3.5
      vertex 9.15037 17.9838 3.5
    endloop
  endfacet
  facet normal 0 0 1
    outer loop
      vertex 9.14262 17.8673 3.5
      vertex 9.33758 18.3872 3.5
      vertex 9.14453 17.9258 3.5
    endloop
  endfacet
  facet normal 0 0 1
    outer loop
      vertex 9.14453 17.809 3.5
      vertex 9.15037 17.751 3.5
      vertex 9.33758 17.3474 3.5
    endloop
  endfacet
  facet normal -0 -0 1
    outer loop
      vertex 9.1913 17.5831 3.5
      vertex 9.33758 17.3474 3.5
      vertex 9.17376 17.6376 3.5
    endloop
  endfacet
  facet normal 0 0 1
    outer loop
      vertex 9.21278 17.5305 3.5
      vertex 9.23818 17.4802 3.5
      vertex 9.33758 17.3474 3.5
    endloop
  endfacet
  facet normal 0 0 1
    outer loop
      vertex 9.33758 17.3474 3.5
      vertex 9.26742 17.4328 3.5
      vertex 9.30047 17.3884 3.5
    endloop
  endfacet
  facet normal 0 0 1
    outer loop
      vertex 9.23818 17.4802 3.5
      vertex 9.26742 17.4328 3.5
      vertex 9.33758 17.3474 3.5
    endloop
  endfacet
  facet normal -0 -0 1
    outer loop
      vertex 9.21278 17.5305 3.5
      vertex 9.33758 17.3474 3.5
      vertex 9.1913 17.5831 3.5
    endloop
  endfacet
  facet normal 0 0 1
    outer loop
      vertex 9.33758 17.3474 3.5
      vertex 9.16016 17.6936 3.5
      vertex 9.17376 17.6376 3.5
    endloop
  endfacet
  facet normal 0 0 1
    outer loop
      vertex 9.15037 17.751 3.5
      vertex 9.16016 17.6936 3.5
      vertex 9.33758 17.3474 3.5
    endloop
  endfacet
  facet normal -0 -0 1
    outer loop
      vertex 9.14453 17.809 3.5
      vertex 9.33758 17.3474 3.5
      vertex 9.14262 17.8673 3.5
    endloop
  endfacet
  facet normal 0 -0 1
    outer loop
      vertex 9.33758 17.3474 3.5
      vertex 9.33758 18.3872 3.5
      vertex 9.14262 17.8673 3.5
    endloop
  endfacet
  facet normal 0 0 1
    outer loop
      vertex 11.937 19.9469 3.5
      vertex 9.33758 18.3872 3.5
      vertex 9.33758 17.3474 3.5
    endloop
  endfacet
  facet normal 0 0 1
    outer loop
      vertex 11.937 19.9469 3.5
      vertex 9.33758 17.3474 3.5
      vertex 23.1145 8.76947 3.5
    endloop
  endfacet
  facet normal 0 0 1
    outer loop
      vertex 9.33758 17.3474 3.5
      vertex 21.2948 5.13023 3.5
      vertex 23.1145 8.76947 3.5
    endloop
  endfacet
  facet normal 0 -0 1
    outer loop
      vertex -9.08112 17.1284 3.5
      vertex -9.04795 17.1728 3.5
      vertex -9.11822 17.0875 3.5
    endloop
  endfacet
  facet normal 0 -0 1
    outer loop
      vertex -9.04795 17.1728 3.5
      vertex -9.01871 17.2203 3.5
      vertex -9.11822 17.0875 3.5
    endloop
  endfacet
  facet normal 0 -0 1
    outer loop
      vertex -9.01871 17.2203 3.5
      vertex -8.99342 17.2705 3.5
      vertex -9.11822 17.0875 3.5
    endloop
  endfacet
  facet normal 0 -0 1
    outer loop
      vertex -8.99342 17.2705 3.5
      vertex -8.97194 17.3232 3.5
      vertex -9.11822 17.0875 3.5
    endloop
  endfacet
  facet normal 0 -0 1
    outer loop
      vertex -8.97194 17.3232 3.5
      vertex -8.9544 17.3777 3.5
      vertex -9.11822 17.0875 3.5
    endloop
  endfacet
  facet normal 0 -0 1
    outer loop
      vertex -8.9544 17.3777 3.5
      vertex -8.9408 17.4337 3.5
      vertex -9.11822 17.0875 3.5
    endloop
  endfacet
  facet normal 0 -0 1
    outer loop
      vertex -8.9408 17.4337 3.5
      vertex -8.93102 17.491 3.5
      vertex -9.11822 17.0875 3.5
    endloop
  endfacet
  facet normal 0 -0 1
    outer loop
      vertex -8.93102 17.491 3.5
      vertex -8.92517 17.549 3.5
      vertex -9.11822 17.0875 3.5
    endloop
  endfacet
  facet normal 0 -0 1
    outer loop
      vertex -8.92517 17.549 3.5
      vertex -8.92326 17.6074 3.5
      vertex -9.11822 17.0875 3.5
    endloop
  endfacet
  facet normal 0 0 1
    outer loop
      vertex -9.11822 18.1273 3.5
      vertex -8.92517 17.6659 3.5
      vertex -8.93102 17.7239 3.5
    endloop
  endfacet
  facet normal 0 0 1
    outer loop
      vertex -8.9544 17.8372 3.5
      vertex -9.11822 18.1273 3.5
      vertex -8.9408 17.7811 3.5
    endloop
  endfacet
  facet normal 0 0 1
    outer loop
      vertex -9.11822 18.1273 3.5
      vertex -8.99342 17.9444 3.5
      vertex -9.01871 17.9946 3.5
    endloop
  endfacet
  facet normal 0 0 1
    outer loop
      vertex -9.08112 18.0865 3.5
      vertex -9.11822 18.1273 3.5
      vertex -9.04795 18.0421 3.5
    endloop
  endfacet
  facet normal 0 0 1
    outer loop
      vertex -9.11822 18.1273 3.5
      vertex -9.01871 17.9946 3.5
      vertex -9.04795 18.0421 3.5
    endloop
  endfacet
  facet normal 0 0 1
    outer loop
      vertex -8.97194 17.8917 3.5
      vertex -8.99342 17.9444 3.5
      vertex -9.11822 18.1273 3.5
    endloop
  endfacet
  facet normal 0 0 1
    outer loop
      vertex -8.97194 17.8917 3.5
      vertex -9.11822 18.1273 3.5
      vertex -8.9544 17.8372 3.5
    endloop
  endfacet
  facet normal 0 0 1
    outer loop
      vertex -9.11822 18.1273 3.5
      vertex -8.93102 17.7239 3.5
      vertex -8.9408 17.7811 3.5
    endloop
  endfacet
  facet normal 0 0 1
    outer loop
      vertex -8.92326 17.6074 3.5
      vertex -8.92517 17.6659 3.5
      vertex -9.11822 18.1273 3.5
    endloop
  endfacet
  facet normal 0 0 1
    outer loop
      vertex -8.92326 17.6074 3.5
      vertex -9.11822 18.1273 3.5
      vertex -9.11822 17.0875 3.5
    endloop
  endfacet
  facet normal 0 0 1
    outer loop
      vertex -9.11822 18.1273 3.5
      vertex -10.6778 19.687 3.5
      vertex -11.7176 19.687 3.5
    endloop
  endfacet
  facet normal 0 0 1
    outer loop
      vertex -10.6778 19.687 3.5
      vertex -10.7187 19.7241 3.5
      vertex -10.7631 19.7571 3.5
    endloop
  endfacet
  facet normal 0 0 1
    outer loop
      vertex -10.6778 19.687 3.5
      vertex -10.7631 19.7571 3.5
      vertex -10.8106 19.7863 3.5
    endloop
  endfacet
  facet normal 0 0 1
    outer loop
      vertex -10.6778 19.687 3.5
      vertex -10.8106 19.7863 3.5
      vertex -10.8608 19.8118 3.5
    endloop
  endfacet
  facet normal 0 0 1
    outer loop
      vertex -10.6778 19.687 3.5
      vertex -10.8608 19.8118 3.5
      vertex -10.9134 19.8332 3.5
    endloop
  endfacet
  facet normal 0 0 1
    outer loop
      vertex -10.6778 19.687 3.5
      vertex -10.9134 19.8332 3.5
      vertex -10.968 19.8508 3.5
    endloop
  endfacet
  facet normal 0 0 1
    outer loop
      vertex -10.6778 19.687 3.5
      vertex -10.968 19.8508 3.5
      vertex -11.024 19.8644 3.5
    endloop
  endfacet
  facet normal 0 0 1
    outer loop
      vertex -10.6778 19.687 3.5
      vertex -11.024 19.8644 3.5
      vertex -11.0813 19.8742 3.5
    endloop
  endfacet
  facet normal 0 0 1
    outer loop
      vertex -10.6778 19.687 3.5
      vertex -11.0813 19.8742 3.5
      vertex -11.1393 19.88 3.5
    endloop
  endfacet
  facet normal 0 0 1
    outer loop
      vertex -10.6778 19.687 3.5
      vertex -11.1393 19.88 3.5
      vertex -11.1977 19.8819 3.5
    endloop
  endfacet
  facet normal -0 0 1
    outer loop
      vertex -11.3142 19.8742 3.5
      vertex -11.7176 19.687 3.5
      vertex -11.2561 19.88 3.5
    endloop
  endfacet
  facet normal 0 0 1
    outer loop
      vertex -11.7176 19.687 3.5
      vertex -11.4275 19.8508 3.5
      vertex -11.482 19.8332 3.5
    endloop
  endfacet
  facet normal -0 0 1
    outer loop
      vertex -11.5848 19.7863 3.5
      vertex -11.7176 19.687 3.5
      vertex -11.5346 19.8118 3.5
    endloop
  endfacet
  facet normal 0 0 1
    outer loop
      vertex -11.6323 19.7571 3.5
      vertex -11.6767 19.7241 3.5
      vertex -11.7176 19.687 3.5
    endloop
  endfacet
  facet normal -0 0 1
    outer loop
      vertex -11.6323 19.7571 3.5
      vertex -11.7176 19.687 3.5
      vertex -11.5848 19.7863 3.5
    endloop
  endfacet
  facet normal 0 0 1
    outer loop
      vertex -11.7176 19.687 3.5
      vertex -11.482 19.8332 3.5
      vertex -11.5346 19.8118 3.5
    endloop
  endfacet
  facet normal 0 0 1
    outer loop
      vertex -11.3714 19.8644 3.5
      vertex -11.4275 19.8508 3.5
      vertex -11.7176 19.687 3.5
    endloop
  endfacet
  facet normal -0 0 1
    outer loop
      vertex -11.3714 19.8644 3.5
      vertex -11.7176 19.687 3.5
      vertex -11.3142 19.8742 3.5
    endloop
  endfacet
  facet normal 0 0 1
    outer loop
      vertex -11.7176 19.687 3.5
      vertex -11.1977 19.8819 3.5
      vertex -11.2561 19.88 3.5
    endloop
  endfacet
  facet normal 0 0 1
    outer loop
      vertex -10.6778 19.687 3.5
      vertex -11.1977 19.8819 3.5
      vertex -11.7176 19.687 3.5
    endloop
  endfacet
  facet normal 0 0 1
    outer loop
      vertex -9.11822 18.1273 3.5
      vertex -11.7176 19.687 3.5
      vertex -9.11822 17.0875 3.5
    endloop
  endfacet
  facet normal 0 0 1
    outer loop
      vertex -11.7176 19.687 3.5
      vertex -22.8951 8.50952 3.5
      vertex -9.11822 17.0875 3.5
    endloop
  endfacet
  facet normal -0 0 1
    outer loop
      vertex -22.8951 8.50952 3.5
      vertex -21.3354 5.13023 3.5
      vertex -9.11822 17.0875 3.5
    endloop
  endfacet
  facet normal 0 -0 1
    outer loop
      vertex -23.2694 7.4052 3.5
      vertex -23.2694 7.79411 3.5
      vertex -23.2811 7.50223 3.5
    endloop
  endfacet
  facet normal 0 -0 1
    outer loop
      vertex -23.2811 7.50223 3.5
      vertex -23.2811 7.69708 3.5
      vertex -23.285 7.59971 3.5
    endloop
  endfacet
  facet normal 0 0 1
    outer loop
      vertex -23.2694 7.79411 3.5
      vertex -23.2811 7.69708 3.5
      vertex -23.2811 7.50223 3.5
    endloop
  endfacet
  facet normal -0 -0 1
    outer loop
      vertex -23.2499 7.30896 3.5
      vertex -23.2226 7.21395 3.5
      vertex -23.2694 7.4052 3.5
    endloop
  endfacet
  facet normal 0 0 1
    outer loop
      vertex -23.2226 7.21395 3.5
      vertex -23.2694 7.79411 3.5
      vertex -23.2694 7.4052 3.5
    endloop
  endfacet
  facet normal 0 0 1
    outer loop
      vertex -23.2499 7.89035 3.5
      vertex -23.2694 7.79411 3.5
      vertex -23.2226 7.21395 3.5
    endloop
  endfacet
  facet normal -0 0 1
    outer loop
      vertex -23.2499 7.89035 3.5
      vertex -23.2226 7.21395 3.5
      vertex -23.2226 7.98547 3.5
    endloop
  endfacet
  facet normal 0 0 1
    outer loop
      vertex -23.2226 7.21395 3.5
      vertex -23.1875 8.0789 3.5
      vertex -23.2226 7.98547 3.5
    endloop
  endfacet
  facet normal 0 -0 1
    outer loop
      vertex -23.1875 7.12041 3.5
      vertex -23.1875 8.0789 3.5
      vertex -23.2226 7.21395 3.5
    endloop
  endfacet
  facet normal 0 0 1
    outer loop
      vertex -23.1446 7.02889 3.5
      vertex -23.1875 8.0789 3.5
      vertex -23.1875 7.12041 3.5
    endloop
  endfacet
  facet normal 0 0 1
    outer loop
      vertex -23.1446 8.17054 3.5
      vertex -23.1875 8.0789 3.5
      vertex -23.1446 7.02889 3.5
    endloop
  endfacet
  facet normal -0 0 1
    outer loop
      vertex -23.1446 8.17054 3.5
      vertex -23.1446 7.02889 3.5
      vertex -23.0939 8.2597 3.5
    endloop
  endfacet
  facet normal -0 0 1
    outer loop
      vertex -23.1446 7.02889 3.5
      vertex -23.0939 6.93962 3.5
      vertex -23.0939 8.2597 3.5
    endloop
  endfacet
  facet normal -0 0 1
    outer loop
      vertex -23.0939 6.93962 3.5
      vertex -23.0354 6.85316 3.5
      vertex -23.0939 8.2597 3.5
    endloop
  endfacet
  facet normal 0 -0 1
    outer loop
      vertex -23.0354 6.85316 3.5
      vertex -23.0354 8.34627 3.5
      vertex -23.0939 8.2597 3.5
    endloop
  endfacet
  facet normal 0 0 1
    outer loop
      vertex -22.9692 8.42958 3.5
      vertex -23.0354 8.34627 3.5
      vertex -23.0354 6.85316 3.5
    endloop
  endfacet
  facet normal 0 0 1
    outer loop
      vertex -22.9692 8.42958 3.5
      vertex -23.0354 6.85316 3.5
      vertex -22.9692 6.76973 3.5
    endloop
  endfacet
  facet normal 0 0 1
    outer loop
      vertex -22.9692 8.42958 3.5
      vertex -22.9692 6.76973 3.5
      vertex -22.8951 6.6899 3.5
    endloop
  endfacet
  facet normal -0 0 1
    outer loop
      vertex -22.9692 8.42958 3.5
      vertex -22.8951 6.6899 3.5
      vertex -22.8951 8.50952 3.5
    endloop
  endfacet
  facet normal -0 0 1
    outer loop
      vertex -22.8951 6.6899 3.5
      vertex -21.3354 5.13023 3.5
      vertex -22.8951 8.50952 3.5
    endloop
  endfacet
  facet normal 0.733388 -0.67981 0
    outer loop
      vertex 22.9286 6.76984 2.5
      vertex 22.8545 6.6899 3.5
      vertex 22.8545 6.6899 2.5
    endloop
  endfacet
  facet normal 0.733388 -0.67981 0
    outer loop
      vertex 22.9286 6.76984 2.5
      vertex 22.9286 6.76984 3.5
      vertex 22.8545 6.6899 3.5
    endloop
  endfacet
  facet normal 0.781927 -0.62337 0
    outer loop
      vertex 22.9952 6.85338 2.5
      vertex 22.9286 6.76984 3.5
      vertex 22.9286 6.76984 2.5
    endloop
  endfacet
  facet normal 0.781927 -0.62337 0
    outer loop
      vertex 22.9952 6.85338 2.5
      vertex 22.9952 6.85338 3.5
      vertex 22.9286 6.76984 3.5
    endloop
  endfacet
  facet normal 0.828052 -0.560651 0
    outer loop
      vertex 23.0542 6.94052 2.5
      vertex 22.9952 6.85338 3.5
      vertex 22.9952 6.85338 2.5
    endloop
  endfacet
  facet normal 0.828052 -0.560651 0
    outer loop
      vertex 23.0542 6.94052 2.5
      vertex 23.0542 6.94052 3.5
      vertex 22.9952 6.85338 3.5
    endloop
  endfacet
  facet normal 0.867214 -0.497936 0
    outer loop
      vertex 23.1061 7.03091 2.5
      vertex 23.0542 6.94052 3.5
      vertex 23.0542 6.94052 2.5
    endloop
  endfacet
  facet normal 0.867214 -0.497936 0
    outer loop
      vertex 23.1061 7.03091 2.5
      vertex 23.1061 7.03091 3.5
      vertex 23.0542 6.94052 3.5
    endloop
  endfacet
  facet normal 0.901538 -0.4327 0
    outer loop
      vertex 23.151 7.12446 2.5
      vertex 23.1061 7.03091 3.5
      vertex 23.1061 7.03091 2.5
    endloop
  endfacet
  facet normal 0.901538 -0.4327 0
    outer loop
      vertex 23.151 7.12446 2.5
      vertex 23.151 7.12446 3.5
      vertex 23.1061 7.03091 3.5
    endloop
  endfacet
  facet normal 0.930077 -0.367364 0
    outer loop
      vertex 23.1891 7.22092 2.5
      vertex 23.151 7.12446 3.5
      vertex 23.151 7.12446 2.5
    endloop
  endfacet
  facet normal 0.930077 -0.367364 0
    outer loop
      vertex 23.1891 7.22092 2.5
      vertex 23.1891 7.22092 3.5
      vertex 23.151 7.12446 3.5
    endloop
  endfacet
  facet normal 0.953449 -0.301554 0
    outer loop
      vertex 23.2205 7.3202 2.5
      vertex 23.1891 7.22092 3.5
      vertex 23.1891 7.22092 2.5
    endloop
  endfacet
  facet normal 0.953449 -0.301554 0
    outer loop
      vertex 23.2205 7.3202 2.5
      vertex 23.2205 7.3202 3.5
      vertex 23.1891 7.22092 3.5
    endloop
  endfacet
  facet normal 0.971278 -0.237946 0
    outer loop
      vertex 23.2454 7.42184 2.5
      vertex 23.2205 7.3202 3.5
      vertex 23.2205 7.3202 2.5
    endloop
  endfacet
  facet normal 0.971278 -0.237946 0
    outer loop
      vertex 23.2454 7.42184 2.5
      vertex 23.2454 7.42184 3.5
      vertex 23.2205 7.3202 3.5
    endloop
  endfacet
  facet normal 0.984087 -0.177688 0
    outer loop
      vertex 23.2642 7.52596 2.5
      vertex 23.2454 7.42184 3.5
      vertex 23.2454 7.42184 2.5
    endloop
  endfacet
  facet normal 0.984087 -0.177688 0
    outer loop
      vertex 23.2642 7.52596 2.5
      vertex 23.2642 7.52596 3.5
      vertex 23.2454 7.42184 3.5
    endloop
  endfacet
  facet normal 0.992932 -0.118685 0
    outer loop
      vertex 23.2769 7.63221 2.5
      vertex 23.2642 7.52596 3.5
      vertex 23.2642 7.52596 2.5
    endloop
  endfacet
  facet normal 0.992932 -0.118685 0
    outer loop
      vertex 23.2769 7.63221 2.5
      vertex 23.2769 7.63221 3.5
      vertex 23.2642 7.52596 3.5
    endloop
  endfacet
  facet normal 0.997971 -0.063665 0
    outer loop
      vertex 23.2838 7.74037 2.5
      vertex 23.2769 7.63221 3.5
      vertex 23.2769 7.63221 2.5
    endloop
  endfacet
  facet normal 0.997971 -0.063665 0
    outer loop
      vertex 23.2838 7.74037 2.5
      vertex 23.2838 7.74037 3.5
      vertex 23.2769 7.63221 3.5
    endloop
  endfacet
  facet normal 0.99994 -0.0109124 0
    outer loop
      vertex 23.285 7.85033 2.5
      vertex 23.2838 7.74037 3.5
      vertex 23.2838 7.74037 2.5
    endloop
  endfacet
  facet normal 0.99994 -0.0109124 0
    outer loop
      vertex 23.285 7.85033 2.5
      vertex 23.285 7.85033 3.5
      vertex 23.2838 7.74037 3.5
    endloop
  endfacet
  facet normal 0.99929 0.0376685 0
    outer loop
      vertex 23.2808 7.96175 2.5
      vertex 23.285 7.85033 3.5
      vertex 23.285 7.85033 2.5
    endloop
  endfacet
  facet normal 0.99929 0.0376685 -0
    outer loop
      vertex 23.2808 7.96175 2.5
      vertex 23.2808 7.96175 3.5
      vertex 23.285 7.85033 3.5
    endloop
  endfacet
  facet normal 0.996403 0.0847402 0
    outer loop
      vertex 23.2712 8.07463 2.5
      vertex 23.2808 7.96175 3.5
      vertex 23.2808 7.96175 2.5
    endloop
  endfacet
  facet normal 0.996403 0.0847402 -0
    outer loop
      vertex 23.2712 8.07463 2.5
      vertex 23.2712 8.07463 3.5
      vertex 23.2808 7.96175 3.5
    endloop
  endfacet
  facet normal 0.9919 0.127022 0
    outer loop
      vertex 23.2566 8.18864 2.5
      vertex 23.2712 8.07463 3.5
      vertex 23.2712 8.07463 2.5
    endloop
  endfacet
  facet normal 0.9919 0.127022 -0
    outer loop
      vertex 23.2566 8.18864 2.5
      vertex 23.2566 8.18864 3.5
      vertex 23.2712 8.07463 3.5
    endloop
  endfacet
  facet normal 0.985931 0.167151 0
    outer loop
      vertex 23.2371 8.30366 2.5
      vertex 23.2566 8.18864 3.5
      vertex 23.2566 8.18864 2.5
    endloop
  endfacet
  facet normal 0.985931 0.167151 -0
    outer loop
      vertex 23.2371 8.30366 2.5
      vertex 23.2371 8.30366 3.5
      vertex 23.2566 8.18864 3.5
    endloop
  endfacet
  facet normal 0.979153 0.203126 0
    outer loop
      vertex 23.2131 8.41935 2.5
      vertex 23.2371 8.30366 3.5
      vertex 23.2371 8.30366 2.5
    endloop
  endfacet
  facet normal 0.979153 0.203126 -0
    outer loop
      vertex 23.2131 8.41935 2.5
      vertex 23.2131 8.41935 3.5
      vertex 23.2371 8.30366 3.5
    endloop
  endfacet
  facet normal 0.970908 0.239452 0
    outer loop
      vertex 23.1844 8.53572 2.5
      vertex 23.2131 8.41935 3.5
      vertex 23.2131 8.41935 2.5
    endloop
  endfacet
  facet normal 0.970908 0.239452 -0
    outer loop
      vertex 23.1844 8.53572 2.5
      vertex 23.1844 8.53572 3.5
      vertex 23.2131 8.41935 3.5
    endloop
  endfacet
  facet normal 0.962556 0.271084 0
    outer loop
      vertex 23.1515 8.65254 2.5
      vertex 23.1844 8.53572 3.5
      vertex 23.1844 8.53572 2.5
    endloop
  endfacet
  facet normal 0.962556 0.271084 -0
    outer loop
      vertex 23.1515 8.65254 2.5
      vertex 23.1515 8.65254 3.5
      vertex 23.1844 8.53572 3.5
    endloop
  endfacet
  facet normal 0.953408 0.301685 0
    outer loop
      vertex 23.1145 8.76947 2.5
      vertex 23.1515 8.65254 3.5
      vertex 23.1515 8.65254 2.5
    endloop
  endfacet
  facet normal 0.953408 0.301685 -0
    outer loop
      vertex 23.1145 8.76947 2.5
      vertex 23.1145 8.76947 3.5
      vertex 23.1515 8.65254 3.5
    endloop
  endfacet
  facet normal 0.707105 0.707109 0
    outer loop
      vertex 11.937 19.9469 2.5
      vertex 23.1145 8.76947 3.5
      vertex 23.1145 8.76947 2.5
    endloop
  endfacet
  facet normal 0.707105 0.707109 -0
    outer loop
      vertex 11.937 19.9469 2.5
      vertex 11.937 19.9469 3.5
      vertex 23.1145 8.76947 3.5
    endloop
  endfacet
  facet normal 0.671861 0.740677 0
    outer loop
      vertex 11.8961 19.984 2.5
      vertex 11.937 19.9469 3.5
      vertex 11.937 19.9469 2.5
    endloop
  endfacet
  facet normal 0.671861 0.740677 -0
    outer loop
      vertex 11.8961 19.984 2.5
      vertex 11.8961 19.984 3.5
      vertex 11.937 19.9469 3.5
    endloop
  endfacet
  facet normal 0.597686 0.80173 0
    outer loop
      vertex 11.8517 20.0171 2.5
      vertex 11.8961 19.984 3.5
      vertex 11.8961 19.984 2.5
    endloop
  endfacet
  facet normal 0.597686 0.80173 -0
    outer loop
      vertex 11.8517 20.0171 2.5
      vertex 11.8517 20.0171 3.5
      vertex 11.8961 19.984 3.5
    endloop
  endfacet
  facet normal 0.523697 0.851905 0
    outer loop
      vertex 11.8042 20.0463 2.5
      vertex 11.8517 20.0171 3.5
      vertex 11.8517 20.0171 2.5
    endloop
  endfacet
  facet normal 0.523697 0.851905 -0
    outer loop
      vertex 11.8042 20.0463 2.5
      vertex 11.8042 20.0463 3.5
      vertex 11.8517 20.0171 3.5
    endloop
  endfacet
  facet normal 0.451474 0.892284 0
    outer loop
      vertex 11.754 20.0717 2.5
      vertex 11.8042 20.0463 3.5
      vertex 11.8042 20.0463 2.5
    endloop
  endfacet
  facet normal 0.451474 0.892284 -0
    outer loop
      vertex 11.754 20.0717 2.5
      vertex 11.754 20.0717 3.5
      vertex 11.8042 20.0463 3.5
    endloop
  endfacet
  facet normal 0.378359 0.925659 0
    outer loop
      vertex 11.7014 20.0932 2.5
      vertex 11.754 20.0717 3.5
      vertex 11.754 20.0717 2.5
    endloop
  endfacet
  facet normal 0.378359 0.925659 -0
    outer loop
      vertex 11.7014 20.0932 2.5
      vertex 11.7014 20.0932 3.5
      vertex 11.754 20.0717 3.5
    endloop
  endfacet
  facet normal 0.305219 0.952282 0
    outer loop
      vertex 11.6468 20.1107 2.5
      vertex 11.7014 20.0932 3.5
      vertex 11.7014 20.0932 2.5
    endloop
  endfacet
  facet normal 0.305219 0.952282 -0
    outer loop
      vertex 11.6468 20.1107 2.5
      vertex 11.6468 20.1107 3.5
      vertex 11.7014 20.0932 3.5
    endloop
  endfacet
  facet normal 0.235997 0.971754 0
    outer loop
      vertex 11.5908 20.1243 2.5
      vertex 11.6468 20.1107 3.5
      vertex 11.6468 20.1107 2.5
    endloop
  endfacet
  facet normal 0.235997 0.971754 -0
    outer loop
      vertex 11.5908 20.1243 2.5
      vertex 11.5908 20.1243 3.5
      vertex 11.6468 20.1107 3.5
    endloop
  endfacet
  facet normal 0.168582 0.985688 0
    outer loop
      vertex 11.5335 20.1341 2.5
      vertex 11.5908 20.1243 3.5
      vertex 11.5908 20.1243 2.5
    endloop
  endfacet
  facet normal 0.168582 0.985688 -0
    outer loop
      vertex 11.5335 20.1341 2.5
      vertex 11.5335 20.1341 3.5
      vertex 11.5908 20.1243 3.5
    endloop
  endfacet
  facet normal 0.0995037 0.995037 0
    outer loop
      vertex 11.4755 20.1399 2.5
      vertex 11.5335 20.1341 3.5
      vertex 11.5335 20.1341 2.5
    endloop
  endfacet
  facet normal 0.0995037 0.995037 -0
    outer loop
      vertex 11.4755 20.1399 2.5
      vertex 11.4755 20.1399 3.5
      vertex 11.5335 20.1341 3.5
    endloop
  endfacet
  facet normal 0.0342265 0.999414 0
    outer loop
      vertex 11.4171 20.1419 2.5
      vertex 11.4755 20.1399 3.5
      vertex 11.4755 20.1399 2.5
    endloop
  endfacet
  facet normal 0.0342265 0.999414 -0
    outer loop
      vertex 11.4171 20.1419 2.5
      vertex 11.4171 20.1419 3.5
      vertex 11.4755 20.1399 3.5
    endloop
  endfacet
  facet normal -0.0342265 0.999414 0
    outer loop
      vertex 11.3587 20.1399 2.5
      vertex 11.4171 20.1419 3.5
      vertex 11.4171 20.1419 2.5
    endloop
  endfacet
  facet normal -0.0342265 0.999414 0
    outer loop
      vertex 11.3587 20.1399 2.5
      vertex 11.3587 20.1399 3.5
      vertex 11.4171 20.1419 3.5
    endloop
  endfacet
  facet normal -0.0995037 0.995037 0
    outer loop
      vertex 11.3007 20.1341 2.5
      vertex 11.3587 20.1399 3.5
      vertex 11.3587 20.1399 2.5
    endloop
  endfacet
  facet normal -0.0995037 0.995037 0
    outer loop
      vertex 11.3007 20.1341 2.5
      vertex 11.3007 20.1341 3.5
      vertex 11.3587 20.1399 3.5
    endloop
  endfacet
  facet normal -0.168582 0.985688 0
    outer loop
      vertex 11.2434 20.1243 2.5
      vertex 11.3007 20.1341 3.5
      vertex 11.3007 20.1341 2.5
    endloop
  endfacet
  facet normal -0.168582 0.985688 0
    outer loop
      vertex 11.2434 20.1243 2.5
      vertex 11.2434 20.1243 3.5
      vertex 11.3007 20.1341 3.5
    endloop
  endfacet
  facet normal -0.2356 0.97185 0
    outer loop
      vertex 11.1873 20.1107 2.5
      vertex 11.2434 20.1243 3.5
      vertex 11.2434 20.1243 2.5
    endloop
  endfacet
  facet normal -0.2356 0.97185 0
    outer loop
      vertex 11.1873 20.1107 2.5
      vertex 11.1873 20.1107 3.5
      vertex 11.2434 20.1243 3.5
    endloop
  endfacet
  facet normal -0.305726 0.952119 0
    outer loop
      vertex 11.1328 20.0932 2.5
      vertex 11.1873 20.1107 3.5
      vertex 11.1873 20.1107 2.5
    endloop
  endfacet
  facet normal -0.305726 0.952119 0
    outer loop
      vertex 11.1328 20.0932 2.5
      vertex 11.1328 20.0932 3.5
      vertex 11.1873 20.1107 3.5
    endloop
  endfacet
  facet normal -0.378359 0.925659 0
    outer loop
      vertex 11.0802 20.0717 2.5
      vertex 11.1328 20.0932 3.5
      vertex 11.1328 20.0932 2.5
    endloop
  endfacet
  facet normal -0.378359 0.925659 0
    outer loop
      vertex 11.0802 20.0717 2.5
      vertex 11.0802 20.0717 3.5
      vertex 11.1328 20.0932 3.5
    endloop
  endfacet
  facet normal -0.451474 0.892284 0
    outer loop
      vertex 11.03 20.0463 2.5
      vertex 11.0802 20.0717 3.5
      vertex 11.0802 20.0717 2.5
    endloop
  endfacet
  facet normal -0.451474 0.892284 0
    outer loop
      vertex 11.03 20.0463 2.5
      vertex 11.03 20.0463 3.5
      vertex 11.0802 20.0717 3.5
    endloop
  endfacet
  facet normal -0.523697 0.851905 0
    outer loop
      vertex 10.9825 20.0171 2.5
      vertex 11.03 20.0463 3.5
      vertex 11.03 20.0463 2.5
    endloop
  endfacet
  facet normal -0.523697 0.851905 0
    outer loop
      vertex 10.9825 20.0171 2.5
      vertex 10.9825 20.0171 3.5
      vertex 11.03 20.0463 3.5
    endloop
  endfacet
  facet normal -0.597686 0.80173 0
    outer loop
      vertex 10.9381 19.984 2.5
      vertex 10.9825 20.0171 3.5
      vertex 10.9825 20.0171 2.5
    endloop
  endfacet
  facet normal -0.597686 0.80173 0
    outer loop
      vertex 10.9381 19.984 2.5
      vertex 10.9381 19.984 3.5
      vertex 10.9825 20.0171 3.5
    endloop
  endfacet
  facet normal -0.671861 0.740677 0
    outer loop
      vertex 10.8972 19.9469 2.5
      vertex 10.9381 19.984 3.5
      vertex 10.9381 19.984 2.5
    endloop
  endfacet
  facet normal -0.671861 0.740677 0
    outer loop
      vertex 10.8972 19.9469 2.5
      vertex 10.8972 19.9469 3.5
      vertex 10.9381 19.984 3.5
    endloop
  endfacet
  facet normal -0.707125 0.707089 0
    outer loop
      vertex 9.33758 18.3872 2.5
      vertex 10.8972 19.9469 3.5
      vertex 10.8972 19.9469 2.5
    endloop
  endfacet
  facet normal -0.707125 0.707089 0
    outer loop
      vertex 9.33758 18.3872 2.5
      vertex 9.33758 18.3872 3.5
      vertex 10.8972 19.9469 3.5
    endloop
  endfacet
  facet normal -0.739768 0.672862 0
    outer loop
      vertex 9.30047 18.3464 2.5
      vertex 9.33758 18.3872 3.5
      vertex 9.33758 18.3872 2.5
    endloop
  endfacet
  facet normal -0.739768 0.672862 0
    outer loop
      vertex 9.30047 18.3464 2.5
      vertex 9.30047 18.3464 3.5
      vertex 9.33758 18.3872 3.5
    endloop
  endfacet
  facet normal -0.802163 0.597105 0
    outer loop
      vertex 9.26742 18.302 2.5
      vertex 9.30047 18.3464 3.5
      vertex 9.30047 18.3464 2.5
    endloop
  endfacet
  facet normal -0.802163 0.597105 0
    outer loop
      vertex 9.26742 18.302 2.5
      vertex 9.26742 18.302 3.5
      vertex 9.30047 18.3464 3.5
    endloop
  endfacet
  facet normal -0.852076 0.523418 0
    outer loop
      vertex 9.23818 18.2544 2.5
      vertex 9.26742 18.302 3.5
      vertex 9.26742 18.302 2.5
    endloop
  endfacet
  facet normal -0.852076 0.523418 0
    outer loop
      vertex 9.23818 18.2544 2.5
      vertex 9.23818 18.2544 3.5
      vertex 9.26742 18.302 3.5
    endloop
  endfacet
  facet normal -0.891921 0.452191 0
    outer loop
      vertex 9.21278 18.2043 2.5
      vertex 9.23818 18.2544 3.5
      vertex 9.23818 18.2544 2.5
    endloop
  endfacet
  facet normal -0.891921 0.452191 0
    outer loop
      vertex 9.21278 18.2043 2.5
      vertex 9.21278 18.2043 3.5
      vertex 9.23818 18.2544 3.5
    endloop
  endfacet
  facet normal -0.925782 0.378057 0
    outer loop
      vertex 9.1913 18.1517 2.5
      vertex 9.21278 18.2043 3.5
      vertex 9.21278 18.2043 2.5
    endloop
  endfacet
  facet normal -0.925782 0.378057 0
    outer loop
      vertex 9.1913 18.1517 2.5
      vertex 9.1913 18.1517 3.5
      vertex 9.21278 18.2043 3.5
    endloop
  endfacet
  facet normal -0.952079 0.305851 0
    outer loop
      vertex 9.17376 18.0971 2.5
      vertex 9.1913 18.1517 3.5
      vertex 9.1913 18.1517 2.5
    endloop
  endfacet
  facet normal -0.952079 0.305851 0
    outer loop
      vertex 9.17376 18.0971 2.5
      vertex 9.17376 18.0971 3.5
      vertex 9.1913 18.1517 3.5
    endloop
  endfacet
  facet normal -0.97185 0.2356 0
    outer loop
      vertex 9.16016 18.041 2.5
      vertex 9.17376 18.0971 3.5
      vertex 9.17376 18.0971 2.5
    endloop
  endfacet
  facet normal -0.97185 0.2356 0
    outer loop
      vertex 9.16016 18.041 2.5
      vertex 9.16016 18.041 3.5
      vertex 9.17376 18.0971 3.5
    endloop
  endfacet
  facet normal -0.985667 0.168701 0
    outer loop
      vertex 9.15037 17.9838 2.5
      vertex 9.16016 18.041 3.5
      vertex 9.16016 18.041 2.5
    endloop
  endfacet
  facet normal -0.985667 0.168701 0
    outer loop
      vertex 9.15037 17.9838 2.5
      vertex 9.15037 17.9838 3.5
      vertex 9.16016 18.041 3.5
    endloop
  endfacet
  facet normal -0.994969 0.100183 0
    outer loop
      vertex 9.14453 17.9258 2.5
      vertex 9.15037 17.9838 3.5
      vertex 9.15037 17.9838 2.5
    endloop
  endfacet
  facet normal -0.994969 0.100183 0
    outer loop
      vertex 9.14453 17.9258 2.5
      vertex 9.14453 17.9258 3.5
      vertex 9.15037 17.9838 3.5
    endloop
  endfacet
  facet normal -0.999467 0.0326322 0
    outer loop
      vertex 9.14262 17.8673 2.5
      vertex 9.14453 17.9258 3.5
      vertex 9.14453 17.9258 2.5
    endloop
  endfacet
  facet normal -0.999467 0.0326322 0
    outer loop
      vertex 9.14262 17.8673 2.5
      vertex 9.14262 17.8673 3.5
      vertex 9.14453 17.9258 3.5
    endloop
  endfacet
  facet normal -0.999464 -0.032744 0
    outer loop
      vertex 9.14453 17.809 2.5
      vertex 9.14262 17.8673 3.5
      vertex 9.14262 17.8673 2.5
    endloop
  endfacet
  facet normal -0.999464 -0.032744 0
    outer loop
      vertex 9.14453 17.809 2.5
      vertex 9.14453 17.809 3.5
      vertex 9.14262 17.8673 3.5
    endloop
  endfacet
  facet normal -0.994969 -0.100183 0
    outer loop
      vertex 9.15037 17.751 2.5
      vertex 9.14453 17.809 3.5
      vertex 9.14453 17.809 2.5
    endloop
  endfacet
  facet normal -0.994969 -0.100183 0
    outer loop
      vertex 9.15037 17.751 2.5
      vertex 9.15037 17.751 3.5
      vertex 9.14453 17.809 3.5
    endloop
  endfacet
  facet normal -0.985765 -0.16813 0
    outer loop
      vertex 9.16016 17.6936 2.5
      vertex 9.15037 17.751 3.5
      vertex 9.15037 17.751 2.5
    endloop
  endfacet
  facet normal -0.985765 -0.16813 0
    outer loop
      vertex 9.16016 17.6936 2.5
      vertex 9.16016 17.6936 3.5
      vertex 9.15037 17.751 3.5
    endloop
  endfacet
  facet normal -0.971754 -0.235997 0
    outer loop
      vertex 9.17376 17.6376 2.5
      vertex 9.16016 17.6936 3.5
      vertex 9.16016 17.6936 2.5
    endloop
  endfacet
  facet normal -0.971754 -0.235997 0
    outer loop
      vertex 9.17376 17.6376 2.5
      vertex 9.17376 17.6376 3.5
      vertex 9.16016 17.6936 3.5
    endloop
  endfacet
  facet normal -0.951916 -0.30636 0
    outer loop
      vertex 9.1913 17.5831 2.5
      vertex 9.17376 17.6376 3.5
      vertex 9.17376 17.6376 2.5
    endloop
  endfacet
  facet normal -0.951916 -0.30636 0
    outer loop
      vertex 9.1913 17.5831 2.5
      vertex 9.1913 17.5831 3.5
      vertex 9.17376 17.6376 3.5
    endloop
  endfacet
  facet normal -0.925782 -0.378057 0
    outer loop
      vertex 9.21278 17.5305 2.5
      vertex 9.1913 17.5831 3.5
      vertex 9.1913 17.5831 2.5
    endloop
  endfacet
  facet normal -0.925782 -0.378057 0
    outer loop
      vertex 9.21278 17.5305 2.5
      vertex 9.21278 17.5305 3.5
      vertex 9.1913 17.5831 3.5
    endloop
  endfacet
  facet normal -0.892646 -0.450759 0
    outer loop
      vertex 9.23818 17.4802 2.5
      vertex 9.21278 17.5305 3.5
      vertex 9.21278 17.5305 2.5
    endloop
  endfacet
  facet normal -0.892646 -0.450759 0
    outer loop
      vertex 9.23818 17.4802 2.5
      vertex 9.23818 17.4802 3.5
      vertex 9.21278 17.5305 3.5
    endloop
  endfacet
  facet normal -0.851091 -0.525019 0
    outer loop
      vertex 9.26742 17.4328 2.5
      vertex 9.23818 17.4802 3.5
      vertex 9.23818 17.4802 2.5
    endloop
  endfacet
  facet normal -0.851091 -0.525019 0
    outer loop
      vertex 9.26742 17.4328 2.5
      vertex 9.26742 17.4328 3.5
      vertex 9.23818 17.4802 3.5
    endloop
  endfacet
  facet normal -0.802163 -0.597105 0
    outer loop
      vertex 9.30047 17.3884 2.5
      vertex 9.26742 17.4328 3.5
      vertex 9.26742 17.4328 2.5
    endloop
  endfacet
  facet normal -0.802163 -0.597105 0
    outer loop
      vertex 9.30047 17.3884 2.5
      vertex 9.30047 17.3884 3.5
      vertex 9.26742 17.4328 3.5
    endloop
  endfacet
  facet normal -0.741403 -0.67106 0
    outer loop
      vertex 9.33758 17.3474 2.5
      vertex 9.30047 17.3884 3.5
      vertex 9.30047 17.3884 2.5
    endloop
  endfacet
  facet normal -0.741403 -0.67106 0
    outer loop
      vertex 9.33758 17.3474 2.5
      vertex 9.33758 17.3474 3.5
      vertex 9.30047 17.3884 3.5
    endloop
  endfacet
  facet normal -0.714669 -0.699463 0
    outer loop
      vertex 21.2948 5.13023 2.5
      vertex 9.33758 17.3474 3.5
      vertex 9.33758 17.3474 2.5
    endloop
  endfacet
  facet normal -0.714669 -0.699463 0
    outer loop
      vertex 21.2948 5.13023 2.5
      vertex 21.2948 5.13023 3.5
      vertex 9.33758 17.3474 3.5
    endloop
  endfacet
  facet normal 0.7071 -0.707114 0
    outer loop
      vertex 22.8545 6.6899 2.5
      vertex 21.2948 5.13023 3.5
      vertex 21.2948 5.13023 2.5
    endloop
  endfacet
  facet normal 0.7071 -0.707114 0
    outer loop
      vertex 22.8545 6.6899 2.5
      vertex 22.8545 6.6899 3.5
      vertex 21.2948 5.13023 3.5
    endloop
  endfacet
  facet normal 0.740677 -0.671861 0
    outer loop
      vertex -9.08112 17.1284 2.5
      vertex -9.11822 17.0875 3.5
      vertex -9.11822 17.0875 2.5
    endloop
  endfacet
  facet normal 0.740677 -0.671861 0
    outer loop
      vertex -9.08112 17.1284 2.5
      vertex -9.08112 17.1284 3.5
      vertex -9.11822 17.0875 3.5
    endloop
  endfacet
  facet normal 0.801124 -0.598498 0
    outer loop
      vertex -9.04795 17.1728 2.5
      vertex -9.08112 17.1284 3.5
      vertex -9.08112 17.1284 2.5
    endloop
  endfacet
  facet normal 0.801124 -0.598498 0
    outer loop
      vertex -9.04795 17.1728 2.5
      vertex -9.04795 17.1728 3.5
      vertex -9.08112 17.1284 3.5
    endloop
  endfacet
  facet normal 0.851584 -0.524217 0
    outer loop
      vertex -9.01871 17.2203 2.5
      vertex -9.04795 17.1728 3.5
      vertex -9.04795 17.1728 2.5
    endloop
  endfacet
  facet normal 0.851584 -0.524217 0
    outer loop
      vertex -9.01871 17.2203 2.5
      vertex -9.01871 17.2203 3.5
      vertex -9.04795 17.1728 3.5
    endloop
  endfacet
  facet normal 0.893071 -0.449916 0
    outer loop
      vertex -8.99342 17.2705 2.5
      vertex -9.01871 17.2203 3.5
      vertex -9.01871 17.2203 2.5
    endloop
  endfacet
  facet normal 0.893071 -0.449916 0
    outer loop
      vertex -8.99342 17.2705 2.5
      vertex -8.99342 17.2705 3.5
      vertex -9.01871 17.2203 3.5
    endloop
  endfacet
  facet normal 0.926033 -0.377442 0
    outer loop
      vertex -8.97194 17.3232 2.5
      vertex -8.99342 17.2705 3.5
      vertex -8.99342 17.2705 2.5
    endloop
  endfacet
  facet normal 0.926033 -0.377442 0
    outer loop
      vertex -8.97194 17.3232 2.5
      vertex -8.97194 17.3232 3.5
      vertex -8.99342 17.2705 3.5
    endloop
  endfacet
  facet normal 0.951916 -0.30636 0
    outer loop
      vertex -8.9544 17.3777 2.5
      vertex -8.97194 17.3232 3.5
      vertex -8.97194 17.3232 2.5
    endloop
  endfacet
  facet normal 0.951916 -0.30636 0
    outer loop
      vertex -8.9544 17.3777 2.5
      vertex -8.9544 17.3777 3.5
      vertex -8.97194 17.3232 3.5
    endloop
  endfacet
  facet normal 0.971754 -0.235997 0
    outer loop
      vertex -8.9408 17.4337 2.5
      vertex -8.9544 17.3777 3.5
      vertex -8.9544 17.3777 2.5
    endloop
  endfacet
  facet normal 0.971754 -0.235997 0
    outer loop
      vertex -8.9408 17.4337 2.5
      vertex -8.9408 17.4337 3.5
      vertex -8.9544 17.3777 3.5
    endloop
  endfacet
  facet normal 0.985745 -0.168248 0
    outer loop
      vertex -8.93102 17.491 2.5
      vertex -8.9408 17.4337 3.5
      vertex -8.9408 17.4337 2.5
    endloop
  endfacet
  facet normal 0.985745 -0.168248 0
    outer loop
      vertex -8.93102 17.491 2.5
      vertex -8.93102 17.491 3.5
      vertex -8.9408 17.4337 3.5
    endloop
  endfacet
  facet normal 0.994952 -0.100353 0
    outer loop
      vertex -8.92517 17.549 2.5
      vertex -8.93102 17.491 3.5
      vertex -8.93102 17.491 2.5
    endloop
  endfacet
  facet normal 0.994952 -0.100353 0
    outer loop
      vertex -8.92517 17.549 2.5
      vertex -8.92517 17.549 3.5
      vertex -8.93102 17.491 3.5
    endloop
  endfacet
  facet normal 0.999466 -0.032688 0
    outer loop
      vertex -8.92326 17.6074 2.5
      vertex -8.92517 17.549 3.5
      vertex -8.92517 17.549 2.5
    endloop
  endfacet
  facet normal 0.999466 -0.032688 0
    outer loop
      vertex -8.92326 17.6074 2.5
      vertex -8.92326 17.6074 3.5
      vertex -8.92517 17.549 3.5
    endloop
  endfacet
  facet normal 0.999467 0.0326322 0
    outer loop
      vertex -8.92517 17.6659 2.5
      vertex -8.92326 17.6074 3.5
      vertex -8.92326 17.6074 2.5
    endloop
  endfacet
  facet normal 0.999467 0.0326322 -0
    outer loop
      vertex -8.92517 17.6659 2.5
      vertex -8.92517 17.6659 3.5
      vertex -8.92326 17.6074 3.5
    endloop
  endfacet
  facet normal 0.994952 0.100353 0
    outer loop
      vertex -8.93102 17.7239 2.5
      vertex -8.92517 17.6659 3.5
      vertex -8.92517 17.6659 2.5
    endloop
  endfacet
  facet normal 0.994952 0.100353 -0
    outer loop
      vertex -8.93102 17.7239 2.5
      vertex -8.93102 17.7239 3.5
      vertex -8.92517 17.6659 3.5
    endloop
  endfacet
  facet normal 0.985696 0.168533 0
    outer loop
      vertex -8.9408 17.7811 2.5
      vertex -8.93102 17.7239 3.5
      vertex -8.93102 17.7239 2.5
    endloop
  endfacet
  facet normal 0.985696 0.168533 -0
    outer loop
      vertex -8.9408 17.7811 2.5
      vertex -8.9408 17.7811 3.5
      vertex -8.93102 17.7239 3.5
    endloop
  endfacet
  facet normal 0.97185 0.2356 0
    outer loop
      vertex -8.9544 17.8372 2.5
      vertex -8.9408 17.7811 3.5
      vertex -8.9408 17.7811 2.5
    endloop
  endfacet
  facet normal 0.97185 0.2356 -0
    outer loop
      vertex -8.9544 17.8372 2.5
      vertex -8.9544 17.8372 3.5
      vertex -8.9408 17.7811 3.5
    endloop
  endfacet
  facet normal 0.951916 0.30636 0
    outer loop
      vertex -8.97194 17.8917 2.5
      vertex -8.9544 17.8372 3.5
      vertex -8.9544 17.8372 2.5
    endloop
  endfacet
  facet normal 0.951916 0.30636 -0
    outer loop
      vertex -8.97194 17.8917 2.5
      vertex -8.97194 17.8917 3.5
      vertex -8.9544 17.8372 3.5
    endloop
  endfacet
  facet normal 0.926033 0.377442 0
    outer loop
      vertex -8.99342 17.9444 2.5
      vertex -8.97194 17.8917 3.5
      vertex -8.97194 17.8917 2.5
    endloop
  endfacet
  facet normal 0.926033 0.377442 -0
    outer loop
      vertex -8.99342 17.9444 2.5
      vertex -8.99342 17.9444 3.5
      vertex -8.97194 17.8917 3.5
    endloop
  endfacet
  facet normal 0.893071 0.449916 0
    outer loop
      vertex -9.01871 17.9946 2.5
      vertex -8.99342 17.9444 3.5
      vertex -8.99342 17.9444 2.5
    endloop
  endfacet
  facet normal 0.893071 0.449916 -0
    outer loop
      vertex -9.01871 17.9946 2.5
      vertex -9.01871 17.9946 3.5
      vertex -8.99342 17.9444 3.5
    endloop
  endfacet
  facet normal 0.851584 0.524217 0
    outer loop
      vertex -9.04795 18.0421 2.5
      vertex -9.01871 17.9946 3.5
      vertex -9.01871 17.9946 2.5
    endloop
  endfacet
  facet normal 0.851584 0.524217 -0
    outer loop
      vertex -9.04795 18.0421 2.5
      vertex -9.04795 18.0421 3.5
      vertex -9.01871 17.9946 3.5
    endloop
  endfacet
  facet normal 0.801124 0.598498 0
    outer loop
      vertex -9.08112 18.0865 2.5
      vertex -9.04795 18.0421 3.5
      vertex -9.04795 18.0421 2.5
    endloop
  endfacet
  facet normal 0.801124 0.598498 -0
    outer loop
      vertex -9.08112 18.0865 2.5
      vertex -9.08112 18.0865 3.5
      vertex -9.04795 18.0421 3.5
    endloop
  endfacet
  facet normal 0.739858 0.672763 0
    outer loop
      vertex -9.11822 18.1273 2.5
      vertex -9.08112 18.0865 3.5
      vertex -9.08112 18.0865 2.5
    endloop
  endfacet
  facet normal 0.739858 0.672763 -0
    outer loop
      vertex -9.11822 18.1273 2.5
      vertex -9.11822 18.1273 3.5
      vertex -9.08112 18.0865 3.5
    endloop
  endfacet
  facet normal 0.707134 0.70708 0
    outer loop
      vertex -10.6778 19.687 2.5
      vertex -9.11822 18.1273 3.5
      vertex -9.11822 18.1273 2.5
    endloop
  endfacet
  facet normal 0.707134 0.70708 -0
    outer loop
      vertex -10.6778 19.687 2.5
      vertex -10.6778 19.687 3.5
      vertex -9.11822 18.1273 3.5
    endloop
  endfacet
  facet normal 0.671861 0.740677 0
    outer loop
      vertex -10.7187 19.7241 2.5
      vertex -10.6778 19.687 3.5
      vertex -10.6778 19.687 2.5
    endloop
  endfacet
  facet normal 0.671861 0.740677 -0
    outer loop
      vertex -10.7187 19.7241 2.5
      vertex -10.7187 19.7241 3.5
      vertex -10.6778 19.687 3.5
    endloop
  endfacet
  facet normal 0.596524 0.802595 0
    outer loop
      vertex -10.7631 19.7571 2.5
      vertex -10.7187 19.7241 3.5
      vertex -10.7187 19.7241 2.5
    endloop
  endfacet
  facet normal 0.596524 0.802595 -0
    outer loop
      vertex -10.7631 19.7571 2.5
      vertex -10.7631 19.7571 3.5
      vertex -10.7187 19.7241 3.5
    endloop
  endfacet
  facet normal 0.523697 0.851905 0
    outer loop
      vertex -10.8106 19.7863 2.5
      vertex -10.7631 19.7571 3.5
      vertex -10.7631 19.7571 2.5
    endloop
  endfacet
  facet normal 0.523697 0.851905 -0
    outer loop
      vertex -10.8106 19.7863 2.5
      vertex -10.8106 19.7863 3.5
      vertex -10.7631 19.7571 3.5
    endloop
  endfacet
  facet normal 0.452888 0.891567 0
    outer loop
      vertex -10.8608 19.8118 2.5
      vertex -10.8106 19.7863 3.5
      vertex -10.8106 19.7863 2.5
    endloop
  endfacet
  facet normal 0.452888 0.891567 -0
    outer loop
      vertex -10.8608 19.8118 2.5
      vertex -10.8608 19.8118 3.5
      vertex -10.8106 19.7863 3.5
    endloop
  endfacet
  facet normal 0.376849 0.926275 0
    outer loop
      vertex -10.9134 19.8332 2.5
      vertex -10.8608 19.8118 3.5
      vertex -10.8608 19.8118 2.5
    endloop
  endfacet
  facet normal 0.376849 0.926275 -0
    outer loop
      vertex -10.9134 19.8332 2.5
      vertex -10.9134 19.8332 3.5
      vertex -10.8608 19.8118 3.5
    endloop
  endfacet
  facet normal 0.306799 0.951774 0
    outer loop
      vertex -10.968 19.8508 2.5
      vertex -10.9134 19.8332 3.5
      vertex -10.9134 19.8332 2.5
    endloop
  endfacet
  facet normal 0.306799 0.951774 -0
    outer loop
      vertex -10.968 19.8508 2.5
      vertex -10.968 19.8508 3.5
      vertex -10.9134 19.8332 3.5
    endloop
  endfacet
  facet normal 0.235997 0.971754 0
    outer loop
      vertex -11.024 19.8644 2.5
      vertex -10.968 19.8508 3.5
      vertex -10.968 19.8508 2.5
    endloop
  endfacet
  facet normal 0.235997 0.971754 -0
    outer loop
      vertex -11.024 19.8644 2.5
      vertex -11.024 19.8644 3.5
      vertex -10.968 19.8508 3.5
    endloop
  endfacet
  facet normal 0.168582 0.985688 0
    outer loop
      vertex -11.0813 19.8742 2.5
      vertex -11.024 19.8644 3.5
      vertex -11.024 19.8644 2.5
    endloop
  endfacet
  facet normal 0.168582 0.985688 -0
    outer loop
      vertex -11.0813 19.8742 2.5
      vertex -11.0813 19.8742 3.5
      vertex -11.024 19.8644 3.5
    endloop
  endfacet
  facet normal 0.0995037 0.995037 0
    outer loop
      vertex -11.1393 19.88 2.5
      vertex -11.0813 19.8742 3.5
      vertex -11.0813 19.8742 2.5
    endloop
  endfacet
  facet normal 0.0995037 0.995037 -0
    outer loop
      vertex -11.1393 19.88 2.5
      vertex -11.1393 19.88 3.5
      vertex -11.0813 19.8742 3.5
    endloop
  endfacet
  facet normal 0.032517 0.999471 0
    outer loop
      vertex -11.1977 19.8819 2.5
      vertex -11.1393 19.88 3.5
      vertex -11.1393 19.88 2.5
    endloop
  endfacet
  facet normal 0.032517 0.999471 -0
    outer loop
      vertex -11.1977 19.8819 2.5
      vertex -11.1977 19.8819 3.5
      vertex -11.1393 19.88 3.5
    endloop
  endfacet
  facet normal -0.032517 0.999471 0
    outer loop
      vertex -11.2561 19.88 2.5
      vertex -11.1977 19.8819 3.5
      vertex -11.1977 19.8819 2.5
    endloop
  endfacet
  facet normal -0.032517 0.999471 0
    outer loop
      vertex -11.2561 19.88 2.5
      vertex -11.2561 19.88 3.5
      vertex -11.1977 19.8819 3.5
    endloop
  endfacet
  facet normal -0.0993341 0.995054 0
    outer loop
      vertex -11.3142 19.8742 2.5
      vertex -11.2561 19.88 3.5
      vertex -11.2561 19.88 2.5
    endloop
  endfacet
  facet normal -0.0993341 0.995054 0
    outer loop
      vertex -11.3142 19.8742 2.5
      vertex -11.3142 19.8742 3.5
      vertex -11.2561 19.88 3.5
    endloop
  endfacet
  facet normal -0.168868 0.985639 0
    outer loop
      vertex -11.3714 19.8644 2.5
      vertex -11.3142 19.8742 3.5
      vertex -11.3142 19.8742 2.5
    endloop
  endfacet
  facet normal -0.168868 0.985639 0
    outer loop
      vertex -11.3714 19.8644 2.5
      vertex -11.3714 19.8644 3.5
      vertex -11.3142 19.8742 3.5
    endloop
  endfacet
  facet normal -0.2356 0.97185 0
    outer loop
      vertex -11.4275 19.8508 2.5
      vertex -11.3714 19.8644 3.5
      vertex -11.3714 19.8644 2.5
    endloop
  endfacet
  facet normal -0.2356 0.97185 0
    outer loop
      vertex -11.4275 19.8508 2.5
      vertex -11.4275 19.8508 3.5
      vertex -11.3714 19.8644 3.5
    endloop
  endfacet
  facet normal -0.307309 0.95161 0
    outer loop
      vertex -11.482 19.8332 2.5
      vertex -11.4275 19.8508 3.5
      vertex -11.4275 19.8508 2.5
    endloop
  endfacet
  facet normal -0.307309 0.95161 0
    outer loop
      vertex -11.482 19.8332 2.5
      vertex -11.482 19.8332 3.5
      vertex -11.4275 19.8508 3.5
    endloop
  endfacet
  facet normal -0.376849 0.926275 0
    outer loop
      vertex -11.5346 19.8118 2.5
      vertex -11.482 19.8332 3.5
      vertex -11.482 19.8332 2.5
    endloop
  endfacet
  facet normal -0.376849 0.926275 0
    outer loop
      vertex -11.5346 19.8118 2.5
      vertex -11.5346 19.8118 3.5
      vertex -11.482 19.8332 3.5
    endloop
  endfacet
  facet normal -0.452888 0.891567 0
    outer loop
      vertex -11.5848 19.7863 2.5
      vertex -11.5346 19.8118 3.5
      vertex -11.5346 19.8118 2.5
    endloop
  endfacet
  facet normal -0.452888 0.891567 0
    outer loop
      vertex -11.5848 19.7863 2.5
      vertex -11.5848 19.7863 3.5
      vertex -11.5346 19.8118 3.5
    endloop
  endfacet
  facet normal -0.523697 0.851905 0
    outer loop
      vertex -11.6323 19.7571 2.5
      vertex -11.5848 19.7863 3.5
      vertex -11.5848 19.7863 2.5
    endloop
  endfacet
  facet normal -0.523697 0.851905 0
    outer loop
      vertex -11.6323 19.7571 2.5
      vertex -11.6323 19.7571 3.5
      vertex -11.5848 19.7863 3.5
    endloop
  endfacet
  facet normal -0.596524 0.802595 0
    outer loop
      vertex -11.6767 19.7241 2.5
      vertex -11.6323 19.7571 3.5
      vertex -11.6323 19.7571 2.5
    endloop
  endfacet
  facet normal -0.596524 0.802595 0
    outer loop
      vertex -11.6767 19.7241 2.5
      vertex -11.6767 19.7241 3.5
      vertex -11.6323 19.7571 3.5
    endloop
  endfacet
  facet normal -0.671861 0.740677 0
    outer loop
      vertex -11.7176 19.687 2.5
      vertex -11.6767 19.7241 3.5
      vertex -11.6767 19.7241 2.5
    endloop
  endfacet
  facet normal -0.671861 0.740677 0
    outer loop
      vertex -11.7176 19.687 2.5
      vertex -11.7176 19.687 3.5
      vertex -11.6767 19.7241 3.5
    endloop
  endfacet
  facet normal -0.707106 0.707107 0
    outer loop
      vertex -22.8951 8.50952 2.5
      vertex -11.7176 19.687 3.5
      vertex -11.7176 19.687 2.5
    endloop
  endfacet
  facet normal -0.707106 0.707107 0
    outer loop
      vertex -22.8951 8.50952 2.5
      vertex -22.8951 8.50952 3.5
      vertex -11.7176 19.687 3.5
    endloop
  endfacet
  facet normal -0.733388 0.67981 0
    outer loop
      vertex -22.9692 8.42958 2.5
      vertex -22.8951 8.50952 3.5
      vertex -22.8951 8.50952 2.5
    endloop
  endfacet
  facet normal -0.733388 0.67981 0
    outer loop
      vertex -22.9692 8.42958 2.5
      vertex -22.9692 8.42958 3.5
      vertex -22.8951 8.50952 3.5
    endloop
  endfacet
  facet normal -0.782918 0.622125 0
    outer loop
      vertex -23.0354 8.34627 2.5
      vertex -22.9692 8.42958 3.5
      vertex -22.9692 8.42958 2.5
    endloop
  endfacet
  facet normal -0.782918 0.622125 0
    outer loop
      vertex -23.0354 8.34627 2.5
      vertex -23.0354 8.34627 3.5
      vertex -22.9692 8.42958 3.5
    endloop
  endfacet
  facet normal -0.828559 0.559902 0
    outer loop
      vertex -23.0939 8.2597 2.5
      vertex -23.0354 8.34627 3.5
      vertex -23.0354 8.34627 2.5
    endloop
  endfacet
  facet normal -0.828559 0.559902 0
    outer loop
      vertex -23.0939 8.2597 2.5
      vertex -23.0939 8.2597 3.5
      vertex -23.0354 8.34627 3.5
    endloop
  endfacet
  facet normal -0.869285 0.494311 0
    outer loop
      vertex -23.1446 8.17054 2.5
      vertex -23.0939 8.2597 3.5
      vertex -23.0939 8.2597 2.5
    endloop
  endfacet
  facet normal -0.869285 0.494311 0
    outer loop
      vertex -23.1446 8.17054 2.5
      vertex -23.1446 8.17054 3.5
      vertex -23.0939 8.2597 3.5
    endloop
  endfacet
  facet normal -0.905672 0.423978 0
    outer loop
      vertex -23.1875 8.0789 2.5
      vertex -23.1446 8.17054 3.5
      vertex -23.1446 8.17054 2.5
    endloop
  endfacet
  facet normal -0.905672 0.423978 0
    outer loop
      vertex -23.1875 8.0789 2.5
      vertex -23.1875 8.0789 3.5
      vertex -23.1446 8.17054 3.5
    endloop
  endfacet
  facet normal -0.936119 0.351683 0
    outer loop
      vertex -23.2226 7.98547 2.5
      vertex -23.1875 8.0789 3.5
      vertex -23.1875 8.0789 2.5
    endloop
  endfacet
  facet normal -0.936119 0.351683 0
    outer loop
      vertex -23.2226 7.98547 2.5
      vertex -23.2226 7.98547 3.5
      vertex -23.1875 8.0789 3.5
    endloop
  endfacet
  facet normal -0.961195 0.275869 0
    outer loop
      vertex -23.2499 7.89035 2.5
      vertex -23.2226 7.98547 3.5
      vertex -23.2226 7.98547 2.5
    endloop
  endfacet
  facet normal -0.961195 0.275869 0
    outer loop
      vertex -23.2499 7.89035 2.5
      vertex -23.2499 7.89035 3.5
      vertex -23.2226 7.98547 3.5
    endloop
  endfacet
  facet normal -0.980084 0.198583 0
    outer loop
      vertex -23.2694 7.79411 2.5
      vertex -23.2499 7.89035 3.5
      vertex -23.2499 7.89035 2.5
    endloop
  endfacet
  facet normal -0.980084 0.198583 0
    outer loop
      vertex -23.2694 7.79411 2.5
      vertex -23.2694 7.79411 3.5
      vertex -23.2499 7.89035 3.5
    endloop
  endfacet
  facet normal -0.992808 0.119714 0
    outer loop
      vertex -23.2811 7.69708 2.5
      vertex -23.2694 7.79411 3.5
      vertex -23.2694 7.79411 2.5
    endloop
  endfacet
  facet normal -0.992808 0.119714 0
    outer loop
      vertex -23.2811 7.69708 2.5
      vertex -23.2811 7.69708 3.5
      vertex -23.2694 7.79411 3.5
    endloop
  endfacet
  facet normal -0.999199 0.0400213 0
    outer loop
      vertex -23.285 7.59971 2.5
      vertex -23.2811 7.69708 3.5
      vertex -23.2811 7.69708 2.5
    endloop
  endfacet
  facet normal -0.999199 0.0400213 0
    outer loop
      vertex -23.285 7.59971 2.5
      vertex -23.285 7.59971 3.5
      vertex -23.2811 7.69708 3.5
    endloop
  endfacet
  facet normal -0.999201 -0.0399762 0
    outer loop
      vertex -23.2811 7.50223 2.5
      vertex -23.285 7.59971 3.5
      vertex -23.285 7.59971 2.5
    endloop
  endfacet
  facet normal -0.999201 -0.0399762 0
    outer loop
      vertex -23.2811 7.50223 2.5
      vertex -23.2811 7.50223 3.5
      vertex -23.285 7.59971 3.5
    endloop
  endfacet
  facet normal -0.992808 -0.119714 0
    outer loop
      vertex -23.2694 7.4052 2.5
      vertex -23.2811 7.50223 3.5
      vertex -23.2811 7.50223 2.5
    endloop
  endfacet
  facet normal -0.992808 -0.119714 0
    outer loop
      vertex -23.2694 7.4052 2.5
      vertex -23.2694 7.4052 3.5
      vertex -23.2811 7.50223 3.5
    endloop
  endfacet
  facet normal -0.980084 -0.198583 0
    outer loop
      vertex -23.2499 7.30896 2.5
      vertex -23.2694 7.4052 3.5
      vertex -23.2694 7.4052 2.5
    endloop
  endfacet
  facet normal -0.980084 -0.198583 0
    outer loop
      vertex -23.2499 7.30896 2.5
      vertex -23.2499 7.30896 3.5
      vertex -23.2694 7.4052 3.5
    endloop
  endfacet
  facet normal -0.961111 -0.276164 0
    outer loop
      vertex -23.2226 7.21395 2.5
      vertex -23.2499 7.30896 3.5
      vertex -23.2499 7.30896 2.5
    endloop
  endfacet
  facet normal -0.961111 -0.276164 0
    outer loop
      vertex -23.2226 7.21395 2.5
      vertex -23.2226 7.21395 3.5
      vertex -23.2499 7.30896 3.5
    endloop
  endfacet
  facet normal -0.936255 -0.351321 0
    outer loop
      vertex -23.1875 7.12041 2.5
      vertex -23.2226 7.21395 3.5
      vertex -23.2226 7.21395 2.5
    endloop
  endfacet
  facet normal -0.936255 -0.351321 0
    outer loop
      vertex -23.1875 7.12041 2.5
      vertex -23.1875 7.12041 3.5
      vertex -23.2226 7.21395 3.5
    endloop
  endfacet
  facet normal -0.905459 -0.424434 0
    outer loop
      vertex -23.1446 7.02889 2.5
      vertex -23.1875 7.12041 3.5
      vertex -23.1875 7.12041 2.5
    endloop
  endfacet
  facet normal -0.905459 -0.424434 0
    outer loop
      vertex -23.1446 7.02889 2.5
      vertex -23.1446 7.02889 3.5
      vertex -23.1875 7.12041 3.5
    endloop
  endfacet
  facet normal -0.869547 -0.49385 0
    outer loop
      vertex -23.0939 6.93962 2.5
      vertex -23.1446 7.02889 3.5
      vertex -23.1446 7.02889 2.5
    endloop
  endfacet
  facet normal -0.869547 -0.49385 0
    outer loop
      vertex -23.0939 6.93962 2.5
      vertex -23.0939 6.93962 3.5
      vertex -23.1446 7.02889 3.5
    endloop
  endfacet
  facet normal -0.828228 -0.560391 0
    outer loop
      vertex -23.0354 6.85316 2.5
      vertex -23.0939 6.93962 3.5
      vertex -23.0939 6.93962 2.5
    endloop
  endfacet
  facet normal -0.828228 -0.560391 0
    outer loop
      vertex -23.0354 6.85316 2.5
      vertex -23.0354 6.85316 3.5
      vertex -23.0939 6.93962 3.5
    endloop
  endfacet
  facet normal -0.783354 -0.621576 0
    outer loop
      vertex -22.9692 6.76973 2.5
      vertex -23.0354 6.85316 3.5
      vertex -23.0354 6.85316 2.5
    endloop
  endfacet
  facet normal -0.783354 -0.621576 0
    outer loop
      vertex -22.9692 6.76973 2.5
      vertex -22.9692 6.76973 3.5
      vertex -23.0354 6.85316 3.5
    endloop
  endfacet
  facet normal -0.732921 -0.680314 0
    outer loop
      vertex -22.8951 6.6899 2.5
      vertex -22.9692 6.76973 3.5
      vertex -22.9692 6.76973 2.5
    endloop
  endfacet
  facet normal -0.732921 -0.680314 0
    outer loop
      vertex -22.8951 6.6899 2.5
      vertex -22.8951 6.6899 3.5
      vertex -22.9692 6.76973 3.5
    endloop
  endfacet
  facet normal -0.7071 -0.707114 0
    outer loop
      vertex -21.3354 5.13023 2.5
      vertex -22.8951 6.6899 3.5
      vertex -22.8951 6.6899 2.5
    endloop
  endfacet
  facet normal -0.7071 -0.707114 0
    outer loop
      vertex -21.3354 5.13023 2.5
      vertex -21.3354 5.13023 3.5
      vertex -22.8951 6.6899 3.5
    endloop
  endfacet
  facet normal 0.699464 -0.714668 0
    outer loop
      vertex -9.11822 17.0875 2.5
      vertex -21.3354 5.13023 3.5
      vertex -21.3354 5.13023 2.5
    endloop
  endfacet
  facet normal 0.699464 -0.714668 0
    outer loop
      vertex -9.11822 17.0875 2.5
      vertex -9.11822 17.0875 3.5
      vertex -21.3354 5.13023 3.5
    endloop
  endfacet
endsolid OpenSCAD_Model
